<?xml version="1.0" encoding="utf-8" standalone="no"?>
<!DOCTYPE svg PUBLIC "-//W3C//DTD SVG 1.1//EN"
  "http://www.w3.org/Graphics/SVG/1.1/DTD/svg11.dtd">
<svg xmlns:xlink="http://www.w3.org/1999/xlink" width="864pt" height="576pt" viewBox="0 0 864 576" xmlns="http://www.w3.org/2000/svg" version="1.1">
 <metadata>
  <rdf:RDF xmlns:dc="http://purl.org/dc/elements/1.1/" xmlns:cc="http://creativecommons.org/ns#" xmlns:rdf="http://www.w3.org/1999/02/22-rdf-syntax-ns#">
   <cc:Work>
    <dc:type rdf:resource="http://purl.org/dc/dcmitype/StillImage"/>
    <dc:date>2026-02-28T13:03:18.846724</dc:date>
    <dc:format>image/svg+xml</dc:format>
    <dc:creator>
     <cc:Agent>
      <dc:title>Matplotlib v3.10.8, https://matplotlib.org/</dc:title>
     </cc:Agent>
    </dc:creator>
   </cc:Work>
  </rdf:RDF>
 </metadata>
 <defs>
  <style type="text/css">*{stroke-linejoin: round; stroke-linecap: butt}</style>
 </defs>
 <g id="figure_1">
  <g id="patch_1">
   <path d="M 0 576 
L 864 576 
L 864 0 
L 0 0 
z
" style="fill: #ffffff"/>
  </g>
  <g id="axes_1">
   <g id="patch_2">
    <path d="M 65.36 529 
L 431.235 529 
L 431.235 10.8 
L 65.36 10.8 
z
" style="fill: #ffffff"/>
   </g>
   <g id="matplotlib.axis_1">
    <g id="xtick_1">
     <g id="line2d_1">
      <path d="M 81.990682 529 
L 81.990682 10.8 
" clip-path="url(#pb1117851ba)" style="fill: none; stroke: #b0b0b0; stroke-width: 0.8; stroke-linecap: square"/>
     </g>
     <g id="line2d_2">
      <defs>
       <path id="mb4558e4b08" d="M 0 0 
L 0 3.5 
" style="stroke: #000000; stroke-width: 0.8"/>
      </defs>
      <g>
       <use xlink:href="#mb4558e4b08" x="81.990682" y="529" style="stroke: #000000; stroke-width: 0.8"/>
      </g>
     </g>
     <g id="text_1">
      <!-- 0.0 -->
      <g transform="translate(72.448807 545.118125) scale(0.12 -0.12)">
       <defs>
        <path id="DejaVuSans-30" d="M 2034 4250 
Q 1547 4250 1301 3770 
Q 1056 3291 1056 2328 
Q 1056 1369 1301 889 
Q 1547 409 2034 409 
Q 2525 409 2770 889 
Q 3016 1369 3016 2328 
Q 3016 3291 2770 3770 
Q 2525 4250 2034 4250 
z
M 2034 4750 
Q 2819 4750 3233 4129 
Q 3647 3509 3647 2328 
Q 3647 1150 3233 529 
Q 2819 -91 2034 -91 
Q 1250 -91 836 529 
Q 422 1150 422 2328 
Q 422 3509 836 4129 
Q 1250 4750 2034 4750 
z
" transform="scale(0.015625)"/>
        <path id="DejaVuSans-2e" d="M 684 794 
L 1344 794 
L 1344 0 
L 684 0 
L 684 794 
z
" transform="scale(0.015625)"/>
       </defs>
       <use xlink:href="#DejaVuSans-30"/>
       <use xlink:href="#DejaVuSans-2e" transform="translate(63.623047 0)"/>
       <use xlink:href="#DejaVuSans-30" transform="translate(95.410156 0)"/>
      </g>
     </g>
    </g>
    <g id="xtick_2">
     <g id="line2d_3">
      <path d="M 123.567386 529 
L 123.567386 10.8 
" clip-path="url(#pb1117851ba)" style="fill: none; stroke: #b0b0b0; stroke-width: 0.8; stroke-linecap: square"/>
     </g>
     <g id="line2d_4">
      <g>
       <use xlink:href="#mb4558e4b08" x="123.567386" y="529" style="stroke: #000000; stroke-width: 0.8"/>
      </g>
     </g>
     <g id="text_2">
      <!-- 0.5 -->
      <g transform="translate(114.025511 545.118125) scale(0.12 -0.12)">
       <defs>
        <path id="DejaVuSans-35" d="M 691 4666 
L 3169 4666 
L 3169 4134 
L 1269 4134 
L 1269 2991 
Q 1406 3038 1543 3061 
Q 1681 3084 1819 3084 
Q 2600 3084 3056 2656 
Q 3513 2228 3513 1497 
Q 3513 744 3044 326 
Q 2575 -91 1722 -91 
Q 1428 -91 1123 -41 
Q 819 9 494 109 
L 494 744 
Q 775 591 1075 516 
Q 1375 441 1709 441 
Q 2250 441 2565 725 
Q 2881 1009 2881 1497 
Q 2881 1984 2565 2268 
Q 2250 2553 1709 2553 
Q 1456 2553 1204 2497 
Q 953 2441 691 2322 
L 691 4666 
z
" transform="scale(0.015625)"/>
       </defs>
       <use xlink:href="#DejaVuSans-30"/>
       <use xlink:href="#DejaVuSans-2e" transform="translate(63.623047 0)"/>
       <use xlink:href="#DejaVuSans-35" transform="translate(95.410156 0)"/>
      </g>
     </g>
    </g>
    <g id="xtick_3">
     <g id="line2d_5">
      <path d="M 165.144091 529 
L 165.144091 10.8 
" clip-path="url(#pb1117851ba)" style="fill: none; stroke: #b0b0b0; stroke-width: 0.8; stroke-linecap: square"/>
     </g>
     <g id="line2d_6">
      <g>
       <use xlink:href="#mb4558e4b08" x="165.144091" y="529" style="stroke: #000000; stroke-width: 0.8"/>
      </g>
     </g>
     <g id="text_3">
      <!-- 1.0 -->
      <g transform="translate(155.602216 545.118125) scale(0.12 -0.12)">
       <defs>
        <path id="DejaVuSans-31" d="M 794 531 
L 1825 531 
L 1825 4091 
L 703 3866 
L 703 4441 
L 1819 4666 
L 2450 4666 
L 2450 531 
L 3481 531 
L 3481 0 
L 794 0 
L 794 531 
z
" transform="scale(0.015625)"/>
       </defs>
       <use xlink:href="#DejaVuSans-31"/>
       <use xlink:href="#DejaVuSans-2e" transform="translate(63.623047 0)"/>
       <use xlink:href="#DejaVuSans-30" transform="translate(95.410156 0)"/>
      </g>
     </g>
    </g>
    <g id="xtick_4">
     <g id="line2d_7">
      <path d="M 206.720795 529 
L 206.720795 10.8 
" clip-path="url(#pb1117851ba)" style="fill: none; stroke: #b0b0b0; stroke-width: 0.8; stroke-linecap: square"/>
     </g>
     <g id="line2d_8">
      <g>
       <use xlink:href="#mb4558e4b08" x="206.720795" y="529" style="stroke: #000000; stroke-width: 0.8"/>
      </g>
     </g>
     <g id="text_4">
      <!-- 1.5 -->
      <g transform="translate(197.17892 545.118125) scale(0.12 -0.12)">
       <use xlink:href="#DejaVuSans-31"/>
       <use xlink:href="#DejaVuSans-2e" transform="translate(63.623047 0)"/>
       <use xlink:href="#DejaVuSans-35" transform="translate(95.410156 0)"/>
      </g>
     </g>
    </g>
    <g id="xtick_5">
     <g id="line2d_9">
      <path d="M 248.2975 529 
L 248.2975 10.8 
" clip-path="url(#pb1117851ba)" style="fill: none; stroke: #b0b0b0; stroke-width: 0.8; stroke-linecap: square"/>
     </g>
     <g id="line2d_10">
      <g>
       <use xlink:href="#mb4558e4b08" x="248.2975" y="529" style="stroke: #000000; stroke-width: 0.8"/>
      </g>
     </g>
     <g id="text_5">
      <!-- 2.0 -->
      <g transform="translate(238.755625 545.118125) scale(0.12 -0.12)">
       <defs>
        <path id="DejaVuSans-32" d="M 1228 531 
L 3431 531 
L 3431 0 
L 469 0 
L 469 531 
Q 828 903 1448 1529 
Q 2069 2156 2228 2338 
Q 2531 2678 2651 2914 
Q 2772 3150 2772 3378 
Q 2772 3750 2511 3984 
Q 2250 4219 1831 4219 
Q 1534 4219 1204 4116 
Q 875 4013 500 3803 
L 500 4441 
Q 881 4594 1212 4672 
Q 1544 4750 1819 4750 
Q 2544 4750 2975 4387 
Q 3406 4025 3406 3419 
Q 3406 3131 3298 2873 
Q 3191 2616 2906 2266 
Q 2828 2175 2409 1742 
Q 1991 1309 1228 531 
z
" transform="scale(0.015625)"/>
       </defs>
       <use xlink:href="#DejaVuSans-32"/>
       <use xlink:href="#DejaVuSans-2e" transform="translate(63.623047 0)"/>
       <use xlink:href="#DejaVuSans-30" transform="translate(95.410156 0)"/>
      </g>
     </g>
    </g>
    <g id="xtick_6">
     <g id="line2d_11">
      <path d="M 289.874205 529 
L 289.874205 10.8 
" clip-path="url(#pb1117851ba)" style="fill: none; stroke: #b0b0b0; stroke-width: 0.8; stroke-linecap: square"/>
     </g>
     <g id="line2d_12">
      <g>
       <use xlink:href="#mb4558e4b08" x="289.874205" y="529" style="stroke: #000000; stroke-width: 0.8"/>
      </g>
     </g>
     <g id="text_6">
      <!-- 2.5 -->
      <g transform="translate(280.33233 545.118125) scale(0.12 -0.12)">
       <use xlink:href="#DejaVuSans-32"/>
       <use xlink:href="#DejaVuSans-2e" transform="translate(63.623047 0)"/>
       <use xlink:href="#DejaVuSans-35" transform="translate(95.410156 0)"/>
      </g>
     </g>
    </g>
    <g id="xtick_7">
     <g id="line2d_13">
      <path d="M 331.450909 529 
L 331.450909 10.8 
" clip-path="url(#pb1117851ba)" style="fill: none; stroke: #b0b0b0; stroke-width: 0.8; stroke-linecap: square"/>
     </g>
     <g id="line2d_14">
      <g>
       <use xlink:href="#mb4558e4b08" x="331.450909" y="529" style="stroke: #000000; stroke-width: 0.8"/>
      </g>
     </g>
     <g id="text_7">
      <!-- 3.0 -->
      <g transform="translate(321.909034 545.118125) scale(0.12 -0.12)">
       <defs>
        <path id="DejaVuSans-33" d="M 2597 2516 
Q 3050 2419 3304 2112 
Q 3559 1806 3559 1356 
Q 3559 666 3084 287 
Q 2609 -91 1734 -91 
Q 1441 -91 1130 -33 
Q 819 25 488 141 
L 488 750 
Q 750 597 1062 519 
Q 1375 441 1716 441 
Q 2309 441 2620 675 
Q 2931 909 2931 1356 
Q 2931 1769 2642 2001 
Q 2353 2234 1838 2234 
L 1294 2234 
L 1294 2753 
L 1863 2753 
Q 2328 2753 2575 2939 
Q 2822 3125 2822 3475 
Q 2822 3834 2567 4026 
Q 2313 4219 1838 4219 
Q 1578 4219 1281 4162 
Q 984 4106 628 3988 
L 628 4550 
Q 988 4650 1302 4700 
Q 1616 4750 1894 4750 
Q 2613 4750 3031 4423 
Q 3450 4097 3450 3541 
Q 3450 3153 3228 2886 
Q 3006 2619 2597 2516 
z
" transform="scale(0.015625)"/>
       </defs>
       <use xlink:href="#DejaVuSans-33"/>
       <use xlink:href="#DejaVuSans-2e" transform="translate(63.623047 0)"/>
       <use xlink:href="#DejaVuSans-30" transform="translate(95.410156 0)"/>
      </g>
     </g>
    </g>
    <g id="xtick_8">
     <g id="line2d_15">
      <path d="M 373.027614 529 
L 373.027614 10.8 
" clip-path="url(#pb1117851ba)" style="fill: none; stroke: #b0b0b0; stroke-width: 0.8; stroke-linecap: square"/>
     </g>
     <g id="line2d_16">
      <g>
       <use xlink:href="#mb4558e4b08" x="373.027614" y="529" style="stroke: #000000; stroke-width: 0.8"/>
      </g>
     </g>
     <g id="text_8">
      <!-- 3.5 -->
      <g transform="translate(363.485739 545.118125) scale(0.12 -0.12)">
       <use xlink:href="#DejaVuSans-33"/>
       <use xlink:href="#DejaVuSans-2e" transform="translate(63.623047 0)"/>
       <use xlink:href="#DejaVuSans-35" transform="translate(95.410156 0)"/>
      </g>
     </g>
    </g>
    <g id="xtick_9">
     <g id="line2d_17">
      <path d="M 414.604318 529 
L 414.604318 10.8 
" clip-path="url(#pb1117851ba)" style="fill: none; stroke: #b0b0b0; stroke-width: 0.8; stroke-linecap: square"/>
     </g>
     <g id="line2d_18">
      <g>
       <use xlink:href="#mb4558e4b08" x="414.604318" y="529" style="stroke: #000000; stroke-width: 0.8"/>
      </g>
     </g>
     <g id="text_9">
      <!-- 4.0 -->
      <g transform="translate(405.062443 545.118125) scale(0.12 -0.12)">
       <defs>
        <path id="DejaVuSans-34" d="M 2419 4116 
L 825 1625 
L 2419 1625 
L 2419 4116 
z
M 2253 4666 
L 3047 4666 
L 3047 1625 
L 3713 1625 
L 3713 1100 
L 3047 1100 
L 3047 0 
L 2419 0 
L 2419 1100 
L 313 1100 
L 313 1709 
L 2253 4666 
z
" transform="scale(0.015625)"/>
       </defs>
       <use xlink:href="#DejaVuSans-34"/>
       <use xlink:href="#DejaVuSans-2e" transform="translate(63.623047 0)"/>
       <use xlink:href="#DejaVuSans-30" transform="translate(95.410156 0)"/>
      </g>
     </g>
    </g>
    <g id="text_10">
     <!-- X -->
     <g transform="translate(243.16 563.011406) scale(0.15 -0.15)">
      <defs>
       <path id="DejaVuSans-58" d="M 403 4666 
L 1081 4666 
L 2241 2931 
L 3406 4666 
L 4084 4666 
L 2584 2425 
L 4184 0 
L 3506 0 
L 2194 1984 
L 872 0 
L 191 0 
L 1856 2491 
L 403 4666 
z
" transform="scale(0.015625)"/>
      </defs>
      <use xlink:href="#DejaVuSans-58"/>
     </g>
    </g>
   </g>
   <g id="matplotlib.axis_2">
    <g id="ytick_1">
     <g id="line2d_19">
      <path d="M 65.36 466.46076 
L 431.235 466.46076 
" clip-path="url(#pb1117851ba)" style="fill: none; stroke: #b0b0b0; stroke-width: 0.8; stroke-linecap: square"/>
     </g>
     <g id="line2d_20">
      <defs>
       <path id="md32e983d2c" d="M 0 0 
L -3.5 0 
" style="stroke: #000000; stroke-width: 0.8"/>
      </defs>
      <g>
       <use xlink:href="#md32e983d2c" x="65.36" y="466.46076" style="stroke: #000000; stroke-width: 0.8"/>
      </g>
     </g>
     <g id="text_11">
      <!-- −1.0 -->
      <g transform="translate(29.220625 471.019822) scale(0.12 -0.12)">
       <defs>
        <path id="DejaVuSans-2212" d="M 678 2272 
L 4684 2272 
L 4684 1741 
L 678 1741 
L 678 2272 
z
" transform="scale(0.015625)"/>
       </defs>
       <use xlink:href="#DejaVuSans-2212"/>
       <use xlink:href="#DejaVuSans-31" transform="translate(83.789062 0)"/>
       <use xlink:href="#DejaVuSans-2e" transform="translate(147.412109 0)"/>
       <use xlink:href="#DejaVuSans-30" transform="translate(179.199219 0)"/>
      </g>
     </g>
    </g>
    <g id="ytick_2">
     <g id="line2d_21">
      <path d="M 65.36 358.585895 
L 431.235 358.585895 
" clip-path="url(#pb1117851ba)" style="fill: none; stroke: #b0b0b0; stroke-width: 0.8; stroke-linecap: square"/>
     </g>
     <g id="line2d_22">
      <g>
       <use xlink:href="#md32e983d2c" x="65.36" y="358.585895" style="stroke: #000000; stroke-width: 0.8"/>
      </g>
     </g>
     <g id="text_12">
      <!-- −0.5 -->
      <g transform="translate(29.220625 363.144957) scale(0.12 -0.12)">
       <use xlink:href="#DejaVuSans-2212"/>
       <use xlink:href="#DejaVuSans-30" transform="translate(83.789062 0)"/>
       <use xlink:href="#DejaVuSans-2e" transform="translate(147.412109 0)"/>
       <use xlink:href="#DejaVuSans-35" transform="translate(179.199219 0)"/>
      </g>
     </g>
    </g>
    <g id="ytick_3">
     <g id="line2d_23">
      <path d="M 65.36 250.71103 
L 431.235 250.71103 
" clip-path="url(#pb1117851ba)" style="fill: none; stroke: #b0b0b0; stroke-width: 0.8; stroke-linecap: square"/>
     </g>
     <g id="line2d_24">
      <g>
       <use xlink:href="#md32e983d2c" x="65.36" y="250.71103" style="stroke: #000000; stroke-width: 0.8"/>
      </g>
     </g>
     <g id="text_13">
      <!-- 0.0 -->
      <g transform="translate(39.27625 255.270093) scale(0.12 -0.12)">
       <use xlink:href="#DejaVuSans-30"/>
       <use xlink:href="#DejaVuSans-2e" transform="translate(63.623047 0)"/>
       <use xlink:href="#DejaVuSans-30" transform="translate(95.410156 0)"/>
      </g>
     </g>
    </g>
    <g id="ytick_4">
     <g id="line2d_25">
      <path d="M 65.36 142.836166 
L 431.235 142.836166 
" clip-path="url(#pb1117851ba)" style="fill: none; stroke: #b0b0b0; stroke-width: 0.8; stroke-linecap: square"/>
     </g>
     <g id="line2d_26">
      <g>
       <use xlink:href="#md32e983d2c" x="65.36" y="142.836166" style="stroke: #000000; stroke-width: 0.8"/>
      </g>
     </g>
     <g id="text_14">
      <!-- 0.5 -->
      <g transform="translate(39.27625 147.395228) scale(0.12 -0.12)">
       <use xlink:href="#DejaVuSans-30"/>
       <use xlink:href="#DejaVuSans-2e" transform="translate(63.623047 0)"/>
       <use xlink:href="#DejaVuSans-35" transform="translate(95.410156 0)"/>
      </g>
     </g>
    </g>
    <g id="ytick_5">
     <g id="line2d_27">
      <path d="M 65.36 34.961301 
L 431.235 34.961301 
" clip-path="url(#pb1117851ba)" style="fill: none; stroke: #b0b0b0; stroke-width: 0.8; stroke-linecap: square"/>
     </g>
     <g id="line2d_28">
      <g>
       <use xlink:href="#md32e983d2c" x="65.36" y="34.961301" style="stroke: #000000; stroke-width: 0.8"/>
      </g>
     </g>
     <g id="text_15">
      <!-- 1.0 -->
      <g transform="translate(39.27625 39.520364) scale(0.12 -0.12)">
       <use xlink:href="#DejaVuSans-31"/>
       <use xlink:href="#DejaVuSans-2e" transform="translate(63.623047 0)"/>
       <use xlink:href="#DejaVuSans-30" transform="translate(95.410156 0)"/>
      </g>
     </g>
    </g>
    <g id="text_16">
     <!-- Y -->
     <g transform="translate(22.101094 274.480859) rotate(-90) scale(0.15 -0.15)">
      <defs>
       <path id="DejaVuSans-59" d="M -13 4666 
L 666 4666 
L 1959 2747 
L 3244 4666 
L 3922 4666 
L 2272 2222 
L 2272 0 
L 1638 0 
L 1638 2222 
L -13 4666 
z
" transform="scale(0.015625)"/>
      </defs>
      <use xlink:href="#DejaVuSans-59"/>
     </g>
    </g>
   </g>
   <g id="line2d_29">
    <path d="M 81.990682 466.46076 
L 165.144091 34.961301 
L 165.144091 34.961301 
L 414.604318 250.71103 
L 414.604318 250.71103 
L 81.990682 466.46076 
L 81.990682 466.46076 
" clip-path="url(#pb1117851ba)" style="fill: none; stroke: #303bc1; stroke-width: 1.5; stroke-linecap: square"/>
   </g>
   <g id="line2d_30">
    <path d="M 81.990682 466.46076 
L 165.144091 34.961301 
L 165.144091 34.961301 
L 414.604318 250.71103 
L 414.604318 250.71103 
L 81.990682 466.46076 
L 81.990682 466.46076 
" clip-path="url(#pb1117851ba)" style="fill: none; stroke: #5835a2; stroke-width: 1.5; stroke-linecap: square"/>
   </g>
   <g id="line2d_31">
    <path d="M 81.990682 466.46076 
L 85.159408 443.625652 
L 88.654625 420.114169 
L 92.461305 395.997785 
L 96.557363 371.370044 
L 101.474706 343.19651 
L 106.669573 314.71403 
L 112.693432 282.966632 
L 119.519903 248.283414 
L 127.062677 211.199264 
L 135.171256 172.447767 
L 144.818051 127.463857 
L 157.095945 71.373972 
L 165.144091 34.961301 
L 165.144091 34.961301 
L 178.426426 37.915469 
L 188.628323 40.405222 
L 198.432517 43.064349 
L 205.519955 45.196666 
L 212.380096 47.465161 
L 219.016289 49.883591 
L 225.434116 52.463597 
L 231.640947 55.214767 
L 237.645516 58.144717 
L 243.457531 61.259183 
L 249.087341 64.56214 
L 254.545652 68.055923 
L 259.843299 71.741367 
L 264.991069 75.617927 
L 269.999564 79.683809 
L 274.87911 83.936069 
L 279.639693 88.370716 
L 284.290923 92.982783 
L 288.842021 97.76639 
L 293.301818 102.714786 
L 299.120759 109.555741 
L 304.811477 116.655764 
L 310.392093 123.991922 
L 315.879909 131.538568 
L 322.634504 141.224186 
L 330.627283 153.133638 
L 342.497099 171.321035 
L 354.38563 189.445931 
L 361.068339 199.268069 
L 366.484497 206.895666 
L 371.983296 214.244285 
L 376.173559 219.527692 
L 380.430268 224.577953 
L 384.762578 229.358874 
L 389.180019 233.832072 
L 392.177157 236.623275 
L 395.219566 239.247093 
L 398.310359 241.690461 
L 401.452727 243.939854 
L 404.649933 245.981281 
L 407.905317 247.800295 
L 411.222287 249.381993 
L 414.604318 250.71103 
L 414.604318 250.71103 
L 407.049472 259.589264 
L 399.331492 269.035599 
L 391.465467 279.006482 
L 383.468768 289.4491 
L 372.636796 303.998995 
L 361.656468 319.110921 
L 345.020989 342.425226 
L 317.27006 381.363518 
L 306.288668 396.406197 
L 295.428399 410.88272 
L 287.379222 421.277511 
L 279.422927 431.21314 
L 271.567311 440.640316 
L 263.818815 449.516177 
L 256.182746 457.804021 
L 251.15669 462.987082 
L 246.18368 467.887135 
L 241.264713 472.497354 
L 236.40069 476.811851 
L 231.592434 480.825604 
L 226.840707 484.534401 
L 222.146224 487.934779 
L 217.509666 491.023963 
L 212.931683 493.799815 
L 208.412912 496.26078 
L 203.953971 498.405836 
L 199.555471 500.234451 
L 195.218014 501.746541 
L 190.942197 502.94245 
L 186.728607 503.823201 
L 182.577556 504.460946 
L 178.488193 504.936198 
L 174.459277 505.25461 
L 168.526431 505.445455 
L 162.72224 505.302487 
L 157.042122 504.837601 
L 151.481402 504.062925 
L 146.035342 502.990751 
L 140.69916 501.633488 
L 135.46804 500.003633 
L 130.337136 498.113756 
L 125.301579 495.976491 
L 120.356472 493.604545 
L 115.496884 491.010713 
L 110.717842 488.207895 
L 106.014324 485.209123 
L 101.381244 482.027593 
L 96.813442 478.676692 
L 90.815494 473.96894 
L 84.911517 469.017375 
L 81.990682 466.46076 
L 81.990682 466.46076 
" clip-path="url(#pb1117851ba)" style="fill: none; stroke: #802f83; stroke-width: 1.5; stroke-linecap: square"/>
   </g>
   <g id="line2d_32">
    <path d="M 81.990682 466.46076 
L 83.527428 462.861788 
L 85.266389 459.408585 
L 87.214353 456.072909 
L 89.378519 452.822496 
L 91.766298 449.619868 
L 94.385029 446.420862 
L 98.247641 442.068705 
L 113.816367 425.122952 
L 118.035049 419.955369 
L 120.956589 416.088126 
L 123.951523 411.823597 
L 127.004029 407.109259 
L 130.094365 401.89341 
L 133.198672 396.127823 
L 136.289043 389.770973 
L 139.333996 382.791654 
L 142.299398 375.172616 
L 145.149895 366.913727 
L 147.85075 358.034098 
L 150.369924 348.572675 
L 152.680142 338.587014 
L 154.760632 328.150292 
L 156.598294 317.346946 
L 158.188139 306.267609 
L 159.532986 295.004081 
L 160.642542 283.644963 
L 161.53206 272.272377 
L 162.220806 260.959894 
L 162.730521 249.771566 
L 163.209395 233.338425 
L 163.412824 217.450986 
L 163.41072 202.215278 
L 163.191287 183.036157 
L 162.618883 156.870305 
L 161.041165 93.896192 
L 160.980905 79.373292 
L 161.157684 68.856076 
L 161.560985 59.614889 
L 162.057969 53.048517 
L 162.718844 47.149122 
L 163.551967 41.860477 
L 164.566152 37.1312 
L 165.144091 34.961301 
L 165.144091 34.961301 
L 166.513705 34.594232 
L 167.949928 34.392996 
L 169.456519 34.357579 
L 171.037379 34.48837 
L 172.69656 34.786177 
L 175.341481 35.548875 
L 178.187243 36.696342 
L 181.249886 38.237083 
L 184.546375 40.182167 
L 188.094376 42.545353 
L 191.911815 45.343114 
L 196.016088 48.594403 
L 200.422856 52.319913 
L 205.144313 56.540408 
L 211.939287 62.967199 
L 219.29658 70.319893 
L 227.17535 78.553844 
L 237.642366 89.856928 
L 250.857078 104.146761 
L 257.632602 111.189056 
L 264.466877 117.9077 
L 269.036672 122.116137 
L 273.603863 126.051333 
L 278.156485 129.672636 
L 282.682155 132.948338 
L 287.168184 135.857027 
L 291.601872 138.388522 
L 295.97094 140.544284 
L 300.264054 142.337246 
L 304.471375 143.791038 
L 308.58506 144.938665 
L 312.599642 145.820756 
L 316.512258 146.483565 
L 322.19024 147.176056 
L 339.659662 148.90995 
L 342.94588 149.49418 
L 346.186 150.248858 
L 349.390215 151.206527 
L 352.568355 152.396842 
L 355.72967 153.846928 
L 358.882659 155.581748 
L 362.034905 157.624453 
L 365.192937 159.996684 
L 368.3621 162.718821 
L 371.546422 165.810147 
L 374.748496 169.288941 
L 377.969351 173.172483 
L 381.208349 177.476967 
L 384.463083 182.217346 
L 387.729304 187.407104 
L 391.000876 193.057987 
L 394.26977 199.17972 
L 397.526089 205.779735 
L 400.758126 212.86295 
L 403.952454 220.431599 
L 407.094009 228.485138 
L 410.166176 237.020182 
L 413.15085 246.030458 
L 414.604318 250.71103 
L 414.604318 250.71103 
L 412.57173 255.725883 
L 410.416332 260.594542 
L 408.142288 265.28348 
L 405.756091 269.761491 
L 403.266449 274.000955 
L 400.684033 277.978989 
L 398.021111 281.678363 
L 395.291097 285.088099 
L 392.508046 288.203707 
L 389.686148 291.027052 
L 386.839254 293.565889 
L 383.980467 295.833139 
L 381.121822 297.845987 
L 378.27406 299.624894 
L 375.446492 301.192608 
L 372.646946 302.573237 
L 367.155946 304.871682 
L 361.835675 306.712472 
L 354.205453 308.9928 
L 344.659899 311.856773 
L 340.116569 313.44048 
L 335.691211 315.215915 
L 331.352183 317.224658 
L 327.064543 319.489278 
L 322.790524 322.01405 
L 318.489893 324.784676 
L 311.896132 329.320846 
L 286.869878 346.844797 
L 280.98387 350.392951 
L 277.909733 352.027798 
L 274.749235 353.530894 
L 271.505231 354.872878 
L 268.182288 356.025279 
L 264.786657 356.961419 
L 261.326153 357.657324 
L 257.809956 358.092545 
L 254.248338 358.250836 
L 250.652331 358.120649 
L 247.03337 357.695381 
L 243.402927 356.973397 
L 239.772171 355.957812 
L 236.151664 354.656086 
L 232.551127 353.079472 
L 228.979264 351.242369 
L 225.443654 349.161638 
L 221.950709 346.855924 
L 218.505681 344.345025 
L 215.112717 341.649326 
L 211.774936 338.789324 
L 208.494532 335.785233 
L 205.272886 332.656681 
L 199.007992 326.100496 
L 192.979198 319.259152 
L 187.179035 312.253469 
L 181.59714 305.302072 
L 176.239676 299.054621 
L 171.122057 293.581124 
L 166.251934 288.88098 
L 161.629601 284.942798 
L 157.249519 281.750714 
L 155.1474 280.429173 
L 153.101948 279.287903 
L 151.11153 278.324999 
L 149.174421 277.538702 
L 147.288828 276.927422 
L 145.452923 276.48975 
L 143.664858 276.224455 
L 141.922787 276.130491 
L 140.224883 276.20699 
L 138.569348 276.453251 
L 136.954429 276.868731 
L 135.378429 277.453029 
L 133.839718 278.205872 
L 132.336741 279.127089 
L 130.868034 280.216593 
L 129.43223 281.474356 
L 128.02807 282.90038 
L 126.654417 284.49467 
L 125.310258 286.257203 
L 123.994717 288.187899 
L 121.446691 292.553008 
L 119.006116 297.587256 
L 116.670737 303.285783 
L 114.439538 309.641925 
L 112.311454 316.648501 
L 110.283576 324.300047 
L 108.349064 332.595505 
L 106.495005 341.540509 
L 104.700421 351.148308 
L 102.049374 366.846549 
L 95.100064 409.727004 
L 92.561226 423.479513 
L 89.593265 437.697176 
L 87.916271 444.908518 
L 86.095566 452.137454 
L 84.12235 459.338417 
L 81.990682 466.46076 
L 81.990682 466.46076 
" clip-path="url(#pb1117851ba)" style="fill: none; stroke: #a72965; stroke-width: 1.5; stroke-linecap: square"/>
   </g>
   <g id="patch_3">
    <path d="M 65.36 529 
L 65.36 10.8 
" style="fill: none; stroke: #000000; stroke-width: 0.8; stroke-linejoin: miter; stroke-linecap: square"/>
   </g>
   <g id="patch_4">
    <path d="M 431.235 529 
L 431.235 10.8 
" style="fill: none; stroke: #000000; stroke-width: 0.8; stroke-linejoin: miter; stroke-linecap: square"/>
   </g>
   <g id="patch_5">
    <path d="M 65.36 529 
L 431.235 529 
" style="fill: none; stroke: #000000; stroke-width: 0.8; stroke-linejoin: miter; stroke-linecap: square"/>
   </g>
   <g id="patch_6">
    <path d="M 65.36 10.8 
L 431.235 10.8 
" style="fill: none; stroke: #000000; stroke-width: 0.8; stroke-linejoin: miter; stroke-linecap: square"/>
   </g>
   <g id="legend_1">
    <g id="patch_7">
     <path d="M 353.678125 84.18375 
L 423.535 84.18375 
Q 425.735 84.18375 425.735 81.98375 
L 425.735 18.5 
Q 425.735 16.3 423.535 16.3 
L 353.678125 16.3 
Q 351.478125 16.3 351.478125 18.5 
L 351.478125 81.98375 
Q 351.478125 84.18375 353.678125 84.18375 
z
" style="fill: #ffffff; opacity: 0.8; stroke: #cccccc; stroke-linejoin: miter"/>
    </g>
    <g id="line2d_33">
     <path d="M 355.878125 25.208281 
L 366.878125 25.208281 
L 377.878125 25.208281 
" style="fill: none; stroke: #303bc1; stroke-width: 1.5; stroke-linecap: square"/>
    </g>
    <g id="text_17">
     <!-- Path 0 -->
     <g transform="translate(386.678125 29.058281) scale(0.11 -0.11)">
      <defs>
       <path id="DejaVuSans-50" d="M 1259 4147 
L 1259 2394 
L 2053 2394 
Q 2494 2394 2734 2622 
Q 2975 2850 2975 3272 
Q 2975 3691 2734 3919 
Q 2494 4147 2053 4147 
L 1259 4147 
z
M 628 4666 
L 2053 4666 
Q 2838 4666 3239 4311 
Q 3641 3956 3641 3272 
Q 3641 2581 3239 2228 
Q 2838 1875 2053 1875 
L 1259 1875 
L 1259 0 
L 628 0 
L 628 4666 
z
" transform="scale(0.015625)"/>
       <path id="DejaVuSans-61" d="M 2194 1759 
Q 1497 1759 1228 1600 
Q 959 1441 959 1056 
Q 959 750 1161 570 
Q 1363 391 1709 391 
Q 2188 391 2477 730 
Q 2766 1069 2766 1631 
L 2766 1759 
L 2194 1759 
z
M 3341 1997 
L 3341 0 
L 2766 0 
L 2766 531 
Q 2569 213 2275 61 
Q 1981 -91 1556 -91 
Q 1019 -91 701 211 
Q 384 513 384 1019 
Q 384 1609 779 1909 
Q 1175 2209 1959 2209 
L 2766 2209 
L 2766 2266 
Q 2766 2663 2505 2880 
Q 2244 3097 1772 3097 
Q 1472 3097 1187 3025 
Q 903 2953 641 2809 
L 641 3341 
Q 956 3463 1253 3523 
Q 1550 3584 1831 3584 
Q 2591 3584 2966 3190 
Q 3341 2797 3341 1997 
z
" transform="scale(0.015625)"/>
       <path id="DejaVuSans-74" d="M 1172 4494 
L 1172 3500 
L 2356 3500 
L 2356 3053 
L 1172 3053 
L 1172 1153 
Q 1172 725 1289 603 
Q 1406 481 1766 481 
L 2356 481 
L 2356 0 
L 1766 0 
Q 1100 0 847 248 
Q 594 497 594 1153 
L 594 3053 
L 172 3053 
L 172 3500 
L 594 3500 
L 594 4494 
L 1172 4494 
z
" transform="scale(0.015625)"/>
       <path id="DejaVuSans-68" d="M 3513 2113 
L 3513 0 
L 2938 0 
L 2938 2094 
Q 2938 2591 2744 2837 
Q 2550 3084 2163 3084 
Q 1697 3084 1428 2787 
Q 1159 2491 1159 1978 
L 1159 0 
L 581 0 
L 581 4863 
L 1159 4863 
L 1159 2956 
Q 1366 3272 1645 3428 
Q 1925 3584 2291 3584 
Q 2894 3584 3203 3211 
Q 3513 2838 3513 2113 
z
" transform="scale(0.015625)"/>
       <path id="DejaVuSans-20" transform="scale(0.015625)"/>
      </defs>
      <use xlink:href="#DejaVuSans-50"/>
      <use xlink:href="#DejaVuSans-61" transform="translate(55.802734 0)"/>
      <use xlink:href="#DejaVuSans-74" transform="translate(117.082031 0)"/>
      <use xlink:href="#DejaVuSans-68" transform="translate(156.291016 0)"/>
      <use xlink:href="#DejaVuSans-20" transform="translate(219.669922 0)"/>
      <use xlink:href="#DejaVuSans-30" transform="translate(251.457031 0)"/>
     </g>
    </g>
    <g id="line2d_34">
     <path d="M 355.878125 41.354219 
L 366.878125 41.354219 
L 377.878125 41.354219 
" style="fill: none; stroke: #5835a2; stroke-width: 1.5; stroke-linecap: square"/>
    </g>
    <g id="text_18">
     <!-- Path 1 -->
     <g transform="translate(386.678125 45.204219) scale(0.11 -0.11)">
      <use xlink:href="#DejaVuSans-50"/>
      <use xlink:href="#DejaVuSans-61" transform="translate(55.802734 0)"/>
      <use xlink:href="#DejaVuSans-74" transform="translate(117.082031 0)"/>
      <use xlink:href="#DejaVuSans-68" transform="translate(156.291016 0)"/>
      <use xlink:href="#DejaVuSans-20" transform="translate(219.669922 0)"/>
      <use xlink:href="#DejaVuSans-31" transform="translate(251.457031 0)"/>
     </g>
    </g>
    <g id="line2d_35">
     <path d="M 355.878125 57.500156 
L 366.878125 57.500156 
L 377.878125 57.500156 
" style="fill: none; stroke: #802f83; stroke-width: 1.5; stroke-linecap: square"/>
    </g>
    <g id="text_19">
     <!-- Path 2 -->
     <g transform="translate(386.678125 61.350156) scale(0.11 -0.11)">
      <use xlink:href="#DejaVuSans-50"/>
      <use xlink:href="#DejaVuSans-61" transform="translate(55.802734 0)"/>
      <use xlink:href="#DejaVuSans-74" transform="translate(117.082031 0)"/>
      <use xlink:href="#DejaVuSans-68" transform="translate(156.291016 0)"/>
      <use xlink:href="#DejaVuSans-20" transform="translate(219.669922 0)"/>
      <use xlink:href="#DejaVuSans-32" transform="translate(251.457031 0)"/>
     </g>
    </g>
    <g id="line2d_36">
     <path d="M 355.878125 73.646094 
L 366.878125 73.646094 
L 377.878125 73.646094 
" style="fill: none; stroke: #a72965; stroke-width: 1.5; stroke-linecap: square"/>
    </g>
    <g id="text_20">
     <!-- Path 3 -->
     <g transform="translate(386.678125 77.496094) scale(0.11 -0.11)">
      <use xlink:href="#DejaVuSans-50"/>
      <use xlink:href="#DejaVuSans-61" transform="translate(55.802734 0)"/>
      <use xlink:href="#DejaVuSans-74" transform="translate(117.082031 0)"/>
      <use xlink:href="#DejaVuSans-68" transform="translate(156.291016 0)"/>
      <use xlink:href="#DejaVuSans-20" transform="translate(219.669922 0)"/>
      <use xlink:href="#DejaVuSans-33" transform="translate(251.457031 0)"/>
     </g>
    </g>
   </g>
  </g>
  <g id="axes_2">
   <g id="patch_8">
    <path d="M 487.325 529 
L 853.2 529 
L 853.2 10.8 
L 487.325 10.8 
z
" style="fill: #ffffff"/>
   </g>
   <g id="matplotlib.axis_3">
    <g id="xtick_10">
     <g id="line2d_37">
      <path d="M 503.955682 529 
L 503.955682 10.8 
" clip-path="url(#pecbb748bec)" style="fill: none; stroke: #b0b0b0; stroke-width: 0.8; stroke-linecap: square"/>
     </g>
     <g id="line2d_38">
      <g>
       <use xlink:href="#mb4558e4b08" x="503.955682" y="529" style="stroke: #000000; stroke-width: 0.8"/>
      </g>
     </g>
     <g id="text_21">
      <!-- 0 -->
      <g transform="translate(500.138182 545.118125) scale(0.12 -0.12)">
       <use xlink:href="#DejaVuSans-30"/>
      </g>
     </g>
    </g>
    <g id="xtick_11">
     <g id="line2d_39">
      <path d="M 573.821846 529 
L 573.821846 10.8 
" clip-path="url(#pecbb748bec)" style="fill: none; stroke: #b0b0b0; stroke-width: 0.8; stroke-linecap: square"/>
     </g>
     <g id="line2d_40">
      <g>
       <use xlink:href="#mb4558e4b08" x="573.821846" y="529" style="stroke: #000000; stroke-width: 0.8"/>
      </g>
     </g>
     <g id="text_22">
      <!-- 2 -->
      <g transform="translate(570.004346 545.118125) scale(0.12 -0.12)">
       <use xlink:href="#DejaVuSans-32"/>
      </g>
     </g>
    </g>
    <g id="xtick_12">
     <g id="line2d_41">
      <path d="M 643.688009 529 
L 643.688009 10.8 
" clip-path="url(#pecbb748bec)" style="fill: none; stroke: #b0b0b0; stroke-width: 0.8; stroke-linecap: square"/>
     </g>
     <g id="line2d_42">
      <g>
       <use xlink:href="#mb4558e4b08" x="643.688009" y="529" style="stroke: #000000; stroke-width: 0.8"/>
      </g>
     </g>
     <g id="text_23">
      <!-- 4 -->
      <g transform="translate(639.870509 545.118125) scale(0.12 -0.12)">
       <use xlink:href="#DejaVuSans-34"/>
      </g>
     </g>
    </g>
    <g id="xtick_13">
     <g id="line2d_43">
      <path d="M 713.554173 529 
L 713.554173 10.8 
" clip-path="url(#pecbb748bec)" style="fill: none; stroke: #b0b0b0; stroke-width: 0.8; stroke-linecap: square"/>
     </g>
     <g id="line2d_44">
      <g>
       <use xlink:href="#mb4558e4b08" x="713.554173" y="529" style="stroke: #000000; stroke-width: 0.8"/>
      </g>
     </g>
     <g id="text_24">
      <!-- 6 -->
      <g transform="translate(709.736673 545.118125) scale(0.12 -0.12)">
       <defs>
        <path id="DejaVuSans-36" d="M 2113 2584 
Q 1688 2584 1439 2293 
Q 1191 2003 1191 1497 
Q 1191 994 1439 701 
Q 1688 409 2113 409 
Q 2538 409 2786 701 
Q 3034 994 3034 1497 
Q 3034 2003 2786 2293 
Q 2538 2584 2113 2584 
z
M 3366 4563 
L 3366 3988 
Q 3128 4100 2886 4159 
Q 2644 4219 2406 4219 
Q 1781 4219 1451 3797 
Q 1122 3375 1075 2522 
Q 1259 2794 1537 2939 
Q 1816 3084 2150 3084 
Q 2853 3084 3261 2657 
Q 3669 2231 3669 1497 
Q 3669 778 3244 343 
Q 2819 -91 2113 -91 
Q 1303 -91 875 529 
Q 447 1150 447 2328 
Q 447 3434 972 4092 
Q 1497 4750 2381 4750 
Q 2619 4750 2861 4703 
Q 3103 4656 3366 4563 
z
" transform="scale(0.015625)"/>
       </defs>
       <use xlink:href="#DejaVuSans-36"/>
      </g>
     </g>
    </g>
    <g id="xtick_14">
     <g id="line2d_45">
      <path d="M 783.420337 529 
L 783.420337 10.8 
" clip-path="url(#pecbb748bec)" style="fill: none; stroke: #b0b0b0; stroke-width: 0.8; stroke-linecap: square"/>
     </g>
     <g id="line2d_46">
      <g>
       <use xlink:href="#mb4558e4b08" x="783.420337" y="529" style="stroke: #000000; stroke-width: 0.8"/>
      </g>
     </g>
     <g id="text_25">
      <!-- 8 -->
      <g transform="translate(779.602837 545.118125) scale(0.12 -0.12)">
       <defs>
        <path id="DejaVuSans-38" d="M 2034 2216 
Q 1584 2216 1326 1975 
Q 1069 1734 1069 1313 
Q 1069 891 1326 650 
Q 1584 409 2034 409 
Q 2484 409 2743 651 
Q 3003 894 3003 1313 
Q 3003 1734 2745 1975 
Q 2488 2216 2034 2216 
z
M 1403 2484 
Q 997 2584 770 2862 
Q 544 3141 544 3541 
Q 544 4100 942 4425 
Q 1341 4750 2034 4750 
Q 2731 4750 3128 4425 
Q 3525 4100 3525 3541 
Q 3525 3141 3298 2862 
Q 3072 2584 2669 2484 
Q 3125 2378 3379 2068 
Q 3634 1759 3634 1313 
Q 3634 634 3220 271 
Q 2806 -91 2034 -91 
Q 1263 -91 848 271 
Q 434 634 434 1313 
Q 434 1759 690 2068 
Q 947 2378 1403 2484 
z
M 1172 3481 
Q 1172 3119 1398 2916 
Q 1625 2713 2034 2713 
Q 2441 2713 2670 2916 
Q 2900 3119 2900 3481 
Q 2900 3844 2670 4047 
Q 2441 4250 2034 4250 
Q 1625 4250 1398 4047 
Q 1172 3844 1172 3481 
z
" transform="scale(0.015625)"/>
       </defs>
       <use xlink:href="#DejaVuSans-38"/>
      </g>
     </g>
    </g>
    <g id="text_26">
     <!-- Time -->
     <g transform="translate(651.912109 563.011406) scale(0.15 -0.15)">
      <defs>
       <path id="DejaVuSans-54" d="M -19 4666 
L 3928 4666 
L 3928 4134 
L 2272 4134 
L 2272 0 
L 1638 0 
L 1638 4134 
L -19 4134 
L -19 4666 
z
" transform="scale(0.015625)"/>
       <path id="DejaVuSans-69" d="M 603 3500 
L 1178 3500 
L 1178 0 
L 603 0 
L 603 3500 
z
M 603 4863 
L 1178 4863 
L 1178 4134 
L 603 4134 
L 603 4863 
z
" transform="scale(0.015625)"/>
       <path id="DejaVuSans-6d" d="M 3328 2828 
Q 3544 3216 3844 3400 
Q 4144 3584 4550 3584 
Q 5097 3584 5394 3201 
Q 5691 2819 5691 2113 
L 5691 0 
L 5113 0 
L 5113 2094 
Q 5113 2597 4934 2840 
Q 4756 3084 4391 3084 
Q 3944 3084 3684 2787 
Q 3425 2491 3425 1978 
L 3425 0 
L 2847 0 
L 2847 2094 
Q 2847 2600 2669 2842 
Q 2491 3084 2119 3084 
Q 1678 3084 1418 2786 
Q 1159 2488 1159 1978 
L 1159 0 
L 581 0 
L 581 3500 
L 1159 3500 
L 1159 2956 
Q 1356 3278 1631 3431 
Q 1906 3584 2284 3584 
Q 2666 3584 2933 3390 
Q 3200 3197 3328 2828 
z
" transform="scale(0.015625)"/>
       <path id="DejaVuSans-65" d="M 3597 1894 
L 3597 1613 
L 953 1613 
Q 991 1019 1311 708 
Q 1631 397 2203 397 
Q 2534 397 2845 478 
Q 3156 559 3463 722 
L 3463 178 
Q 3153 47 2828 -22 
Q 2503 -91 2169 -91 
Q 1331 -91 842 396 
Q 353 884 353 1716 
Q 353 2575 817 3079 
Q 1281 3584 2069 3584 
Q 2775 3584 3186 3129 
Q 3597 2675 3597 1894 
z
M 3022 2063 
Q 3016 2534 2758 2815 
Q 2500 3097 2075 3097 
Q 1594 3097 1305 2825 
Q 1016 2553 972 2059 
L 3022 2063 
z
" transform="scale(0.015625)"/>
      </defs>
      <use xlink:href="#DejaVuSans-54"/>
      <use xlink:href="#DejaVuSans-69" transform="translate(57.958984 0)"/>
      <use xlink:href="#DejaVuSans-6d" transform="translate(85.742188 0)"/>
      <use xlink:href="#DejaVuSans-65" transform="translate(183.154297 0)"/>
     </g>
    </g>
   </g>
   <g id="matplotlib.axis_4">
    <g id="ytick_6">
     <g id="line2d_47">
      <path d="M 487.325 490.74259 
L 853.2 490.74259 
" clip-path="url(#pecbb748bec)" style="fill: none; stroke: #b0b0b0; stroke-width: 0.8; stroke-linecap: square"/>
     </g>
     <g id="line2d_48">
      <g>
       <use xlink:href="#md32e983d2c" x="487.325" y="490.74259" style="stroke: #000000; stroke-width: 0.8"/>
      </g>
     </g>
     <g id="text_27">
      <!-- −3 -->
      <g transform="translate(462.634375 495.301653) scale(0.12 -0.12)">
       <use xlink:href="#DejaVuSans-2212"/>
       <use xlink:href="#DejaVuSans-33" transform="translate(83.789062 0)"/>
      </g>
     </g>
    </g>
    <g id="ytick_7">
     <g id="line2d_49">
      <path d="M 487.325 386.903404 
L 853.2 386.903404 
" clip-path="url(#pecbb748bec)" style="fill: none; stroke: #b0b0b0; stroke-width: 0.8; stroke-linecap: square"/>
     </g>
     <g id="line2d_50">
      <g>
       <use xlink:href="#md32e983d2c" x="487.325" y="386.903404" style="stroke: #000000; stroke-width: 0.8"/>
      </g>
     </g>
     <g id="text_28">
      <!-- −2 -->
      <g transform="translate(462.634375 391.462467) scale(0.12 -0.12)">
       <use xlink:href="#DejaVuSans-2212"/>
       <use xlink:href="#DejaVuSans-32" transform="translate(83.789062 0)"/>
      </g>
     </g>
    </g>
    <g id="ytick_8">
     <g id="line2d_51">
      <path d="M 487.325 283.064218 
L 853.2 283.064218 
" clip-path="url(#pecbb748bec)" style="fill: none; stroke: #b0b0b0; stroke-width: 0.8; stroke-linecap: square"/>
     </g>
     <g id="line2d_52">
      <g>
       <use xlink:href="#md32e983d2c" x="487.325" y="283.064218" style="stroke: #000000; stroke-width: 0.8"/>
      </g>
     </g>
     <g id="text_29">
      <!-- −1 -->
      <g transform="translate(462.634375 287.623281) scale(0.12 -0.12)">
       <use xlink:href="#DejaVuSans-2212"/>
       <use xlink:href="#DejaVuSans-31" transform="translate(83.789062 0)"/>
      </g>
     </g>
    </g>
    <g id="ytick_9">
     <g id="line2d_53">
      <path d="M 487.325 179.225033 
L 853.2 179.225033 
" clip-path="url(#pecbb748bec)" style="fill: none; stroke: #b0b0b0; stroke-width: 0.8; stroke-linecap: square"/>
     </g>
     <g id="line2d_54">
      <g>
       <use xlink:href="#md32e983d2c" x="487.325" y="179.225033" style="stroke: #000000; stroke-width: 0.8"/>
      </g>
     </g>
     <g id="text_30">
      <!-- 0 -->
      <g transform="translate(472.69 183.784095) scale(0.12 -0.12)">
       <use xlink:href="#DejaVuSans-30"/>
      </g>
     </g>
    </g>
    <g id="ytick_10">
     <g id="line2d_55">
      <path d="M 487.325 75.385847 
L 853.2 75.385847 
" clip-path="url(#pecbb748bec)" style="fill: none; stroke: #b0b0b0; stroke-width: 0.8; stroke-linecap: square"/>
     </g>
     <g id="line2d_56">
      <g>
       <use xlink:href="#md32e983d2c" x="487.325" y="75.385847" style="stroke: #000000; stroke-width: 0.8"/>
      </g>
     </g>
     <g id="text_31">
      <!-- 1 -->
      <g transform="translate(472.69 79.944909) scale(0.12 -0.12)">
       <use xlink:href="#DejaVuSans-31"/>
      </g>
     </g>
    </g>
    <g id="text_32">
     <!-- $\theta$ (rad) -->
     <g transform="translate(455.514844 295.175) rotate(-90) scale(0.15 -0.15)">
      <defs>
       <path id="DejaVuSans-Oblique-3b8" d="M 2913 2219 
L 925 2219 
Q 791 1284 928 888 
Q 1100 400 1566 400 
Q 2034 400 2391 891 
Q 2703 1322 2913 2219 
z
M 3009 2750 
Q 3094 3638 2984 3950 
Q 2813 4444 2353 4444 
Q 1875 4444 1525 3956 
Q 1250 3563 1034 2750 
L 3009 2750 
z
M 2444 4913 
Q 3194 4913 3494 4250 
Q 3794 3591 3566 2422 
Q 3341 1256 2781 594 
Q 2225 -72 1475 -72 
Q 722 -72 425 594 
Q 128 1256 353 2422 
Q 581 3591 1134 4250 
Q 1691 4913 2444 4913 
z
" transform="scale(0.015625)"/>
       <path id="DejaVuSans-28" d="M 1984 4856 
Q 1566 4138 1362 3434 
Q 1159 2731 1159 2009 
Q 1159 1288 1364 580 
Q 1569 -128 1984 -844 
L 1484 -844 
Q 1016 -109 783 600 
Q 550 1309 550 2009 
Q 550 2706 781 3412 
Q 1013 4119 1484 4856 
L 1984 4856 
z
" transform="scale(0.015625)"/>
       <path id="DejaVuSans-72" d="M 2631 2963 
Q 2534 3019 2420 3045 
Q 2306 3072 2169 3072 
Q 1681 3072 1420 2755 
Q 1159 2438 1159 1844 
L 1159 0 
L 581 0 
L 581 3500 
L 1159 3500 
L 1159 2956 
Q 1341 3275 1631 3429 
Q 1922 3584 2338 3584 
Q 2397 3584 2469 3576 
Q 2541 3569 2628 3553 
L 2631 2963 
z
" transform="scale(0.015625)"/>
       <path id="DejaVuSans-64" d="M 2906 2969 
L 2906 4863 
L 3481 4863 
L 3481 0 
L 2906 0 
L 2906 525 
Q 2725 213 2448 61 
Q 2172 -91 1784 -91 
Q 1150 -91 751 415 
Q 353 922 353 1747 
Q 353 2572 751 3078 
Q 1150 3584 1784 3584 
Q 2172 3584 2448 3432 
Q 2725 3281 2906 2969 
z
M 947 1747 
Q 947 1113 1208 752 
Q 1469 391 1925 391 
Q 2381 391 2643 752 
Q 2906 1113 2906 1747 
Q 2906 2381 2643 2742 
Q 2381 3103 1925 3103 
Q 1469 3103 1208 2742 
Q 947 2381 947 1747 
z
" transform="scale(0.015625)"/>
       <path id="DejaVuSans-29" d="M 513 4856 
L 1013 4856 
Q 1481 4119 1714 3412 
Q 1947 2706 1947 2009 
Q 1947 1309 1714 600 
Q 1481 -109 1013 -844 
L 513 -844 
Q 928 -128 1133 580 
Q 1338 1288 1338 2009 
Q 1338 2731 1133 3434 
Q 928 4138 513 4856 
z
" transform="scale(0.015625)"/>
      </defs>
      <use xlink:href="#DejaVuSans-Oblique-3b8" transform="translate(0 0.234375)"/>
      <use xlink:href="#DejaVuSans-20" transform="translate(61.181641 0.234375)"/>
      <use xlink:href="#DejaVuSans-28" transform="translate(92.96875 0.234375)"/>
      <use xlink:href="#DejaVuSans-72" transform="translate(131.982422 0.234375)"/>
      <use xlink:href="#DejaVuSans-61" transform="translate(173.095703 0.234375)"/>
      <use xlink:href="#DejaVuSans-64" transform="translate(234.375 0.234375)"/>
      <use xlink:href="#DejaVuSans-29" transform="translate(297.851562 0.234375)"/>
     </g>
    </g>
   </g>
   <g id="line2d_57">
    <path d="M 503.955682 64.25961 
L 582.068428 64.25961 
L 582.068428 212.635348 
L 692.536532 212.635348 
L 692.536532 480.010025 
L 719.422652 480.007061 
L 836.569318 480.010025 
L 836.569318 480.010025 
" clip-path="url(#pecbb748bec)" style="fill: none; stroke: #303bc1; stroke-width: 1.5; stroke-linecap: square"/>
   </g>
   <g id="line2d_58">
    <path d="M 503.955682 97.669927 
L 553.35852 97.669927 
L 553.35852 228.172692 
L 659.985278 228.172692 
L 659.985278 449.906885 
L 744.977023 449.906885 
L 744.977023 449.906885 
" clip-path="url(#pecbb748bec)" style="fill: none; stroke: #5835a2; stroke-width: 1.5; stroke-linecap: square"/>
   </g>
   <g id="line2d_59">
    <path d="M 503.955682 34.354545 
L 506.647738 35.446491 
L 509.095063 36.68633 
L 511.542387 38.192545 
L 513.989711 39.983085 
L 516.437035 42.058901 
L 519.129092 44.647588 
L 522.310613 48.041847 
L 527.205261 53.651955 
L 532.589375 59.732203 
L 536.015628 63.256564 
L 538.952417 65.968789 
L 540.665544 67.407045 
L 540.665544 196.013004 
L 545.679078 189.179745 
L 549.260174 184.619883 
L 552.841269 180.459943 
L 555.706146 177.4683 
L 558.571022 174.794485 
L 561.435899 172.440366 
L 564.300775 170.396575 
L 567.165652 168.645828 
L 570.030528 167.165847 
L 572.895404 165.931702 
L 575.760281 164.917543 
L 579.341376 163.920292 
L 582.922472 163.179179 
L 586.503568 162.650086 
L 590.800882 162.23872 
L 595.814416 161.989051 
L 602.260388 161.89988 
L 620.165866 161.79706 
L 625.895619 161.461496 
L 630.909153 160.920779 
L 635.206467 160.22354 
L 638.787563 159.44672 
L 642.368658 158.466624 
L 645.949754 157.259693 
L 648.098411 156.417127 
L 648.098411 478.522107 
L 653.568439 475.914643 
L 656.303453 474.826713 
L 658.491464 474.145289 
L 660.679476 473.684966 
L 662.867487 473.490364 
L 664.508495 473.541226 
L 666.149504 473.774009 
L 667.790512 474.196514 
L 669.43152 474.812579 
L 671.072529 475.622135 
L 673.26054 476.995642 
L 675.448551 478.688646 
L 677.636562 480.675555 
L 680.371576 483.524352 
L 683.10659 486.714558 
L 686.388607 490.892682 
L 690.76463 496.860505 
L 696.78166 505.34943 
L 697.875666 505.445379 
L 730.148831 505.445453 
L 730.148831 505.445453 
" clip-path="url(#pecbb748bec)" style="fill: none; stroke: #802f83; stroke-width: 1.5; stroke-linecap: square"/>
   </g>
   <g id="line2d_60">
    <path d="M 503.955682 77.550756 
L 506.853167 79.32224 
L 509.336726 80.589252 
L 511.406359 81.417124 
L 513.062065 81.868001 
L 514.717771 82.054416 
L 515.95955 81.963773 
L 517.20133 81.622375 
L 518.443109 80.977351 
L 519.684889 79.975415 
L 520.926668 78.569098 
L 522.168448 76.725474 
L 523.410227 74.437154 
L 525.065933 70.753362 
L 527.135566 65.452336 
L 529.619125 59.105673 
L 530.860904 56.431948 
L 532.102684 54.356892 
L 532.930537 53.379373 
L 533.75839 52.759381 
L 534.586243 52.509429 
L 535.414096 52.62817 
L 536.241949 53.101267 
L 537.069802 53.902868 
L 537.897655 54.997551 
L 539.139434 57.094392 
L 540.79514 60.485537 
L 546.590111 73.011318 
L 548.245817 75.912492 
L 549.901523 78.384925 
L 551.557229 80.448617 
L 553.212935 82.144822 
L 554.868641 83.521935 
L 556.524347 84.627344 
L 558.180053 85.503409 
L 560.249685 86.329847 
L 562.319318 86.908444 
L 564.38895 87.279035 
L 566.044656 87.443868 
L 566.044656 118.653304 
L 567.898141 119.482912 
L 569.288255 120.325093 
L 570.678369 121.37802 
L 572.068482 122.66726 
L 573.458596 124.224274 
L 574.84871 126.087052 
L 576.238824 128.30051 
L 577.628937 130.916292 
L 579.019051 133.991407 
L 580.409165 137.58479 
L 581.799279 141.750566 
L 583.189392 146.526702 
L 585.042877 153.845892 
L 586.896362 162.107619 
L 591.993446 185.72208 
L 593.38356 191.020639 
L 594.773674 195.33855 
L 595.700416 197.604603 
L 596.627159 199.361133 
L 597.553901 200.611247 
L 598.480644 201.373215 
L 599.407386 201.677967 
L 600.334129 201.566606 
L 601.260871 201.088056 
L 602.187613 200.296845 
L 603.577727 198.651146 
L 605.431212 195.91116 
L 609.138182 190.182454 
L 610.528296 188.39938 
L 611.91841 186.980646 
L 612.845152 186.273071 
L 613.771895 185.775541 
L 614.698637 185.50137 
L 615.62538 185.461651 
L 616.552122 185.665856 
L 617.478865 186.12231 
L 618.405607 186.838536 
L 619.33235 187.821443 
L 620.259092 189.077367 
L 621.185835 190.611957 
L 622.575948 193.446249 
L 623.966062 196.927325 
L 625.356176 201.053641 
L 626.74629 205.807943 
L 628.599775 213.057044 
L 630.45326 221.209273 
L 632.770116 232.366729 
L 635.550343 246.648956 
L 635.550343 467.657814 
L 639.395432 477.936513 
L 640.677128 480.917238 
L 641.958824 483.462624 
L 643.240521 485.518123 
L 644.522217 487.089863 
L 645.803913 488.234651 
L 647.085609 489.042098 
L 649.008154 489.847544 
L 652.853242 491.168839 
L 654.134939 491.794116 
L 655.416635 492.600434 
L 656.698331 493.627 
L 657.980027 494.907316 
L 659.261724 496.471115 
L 660.54342 498.345394 
L 661.825116 500.552578 
L 663.106812 503.079751 
L 663.747661 504.709734 
L 664.388509 505.444673 
L 688.740737 505.3852 
L 689.381585 501.507862 
L 692.585826 486.659817 
L 694.50837 479.197191 
L 696.430915 472.822405 
L 698.353459 467.357333 
L 700.276003 462.590036 
L 702.839396 456.9557 
L 716.938054 427.934268 
L 718.219751 425.920881 
L 719.501447 424.278194 
L 720.783143 423.040299 
L 722.064839 422.22215 
L 723.346536 421.825038 
L 724.628232 421.841113 
L 725.909928 422.254771 
L 727.191624 423.039819 
L 728.473321 424.152389 
L 730.395865 426.269308 
L 731.677561 427.808316 
L 731.677561 427.808316 
" clip-path="url(#pecbb748bec)" style="fill: none; stroke: #a72965; stroke-width: 1.5; stroke-linecap: square"/>
   </g>
   <g id="patch_9">
    <path d="M 487.325 529 
L 487.325 10.8 
" style="fill: none; stroke: #000000; stroke-width: 0.8; stroke-linejoin: miter; stroke-linecap: square"/>
   </g>
   <g id="patch_10">
    <path d="M 853.2 529 
L 853.2 10.8 
" style="fill: none; stroke: #000000; stroke-width: 0.8; stroke-linejoin: miter; stroke-linecap: square"/>
   </g>
   <g id="patch_11">
    <path d="M 487.325 529 
L 853.2 529 
" style="fill: none; stroke: #000000; stroke-width: 0.8; stroke-linejoin: miter; stroke-linecap: square"/>
   </g>
   <g id="patch_12">
    <path d="M 487.325 10.8 
L 853.2 10.8 
" style="fill: none; stroke: #000000; stroke-width: 0.8; stroke-linejoin: miter; stroke-linecap: square"/>
   </g>
  </g>
 </g>
 <defs>
  <clipPath id="pb1117851ba">
   <rect x="65.36" y="10.8" width="365.875" height="518.2"/>
  </clipPath>
  <clipPath id="pecbb748bec">
   <rect x="487.325" y="10.8" width="365.875" height="518.2"/>
  </clipPath>
 </defs>
</svg>
