<svg xmlns="http://www.w3.org/2000/svg" viewBox="-6 -6 112 134.98700000000002" width="112" height="134.98700000000002"><g transform="translate(0.00,0)"><path d="M 86.531 32.386 L 86.968 33.368 L 87.304 34.398 L 87.537 35.473 L 87.668 36.591 L 87.695 37.748 L 87.619 38.942 L 87.440 40.169 L 87.158 41.425 L 86.775 42.708 L 86.290 44.013 L 85.707 45.337 L 85.025 46.678 L 84.247 48.029 L 83.375 49.389 L 82.412 50.754 L 81.360 52.119 L 80.223 53.481 L 79.002 54.836 L 77.702 56.181 L 76.326 57.512 L 74.877 58.824 L 73.361 60.116 L 71.780 61.382 L 70.140 62.620 L 68.445 63.826 L 66.699 64.996 L 64.907 66.129 L 63.074 67.220 L 61.206 68.266 L 59.307 69.266 L 57.382 70.215 L 55.437 71.111 L 53.477 71.953 L 51.508 72.736 L 49.535 73.461 L 47.563 74.124 L 45.597 74.723 L 43.644 75.257 L 41.708 75.725 L 39.794 76.125 L 37.909 76.457 L 36.057 76.718 L 34.243 76.909 L 32.472 77.029 L 30.749 77.078 L 29.079 77.055 L 27.467 76.960 L 25.916 76.795 L 24.431 76.559 L 23.016 76.253 L 21.676 75.877 L 20.412 75.434 L 19.230 74.923 L 18.133 74.347 L 17.122 73.707 L 16.202 73.004 L 15.374 72.242 L 14.642 71.421 L 14.006 70.544 L 13.469 69.614 L 13.032 68.632 L 12.696 67.602 L 12.463 66.527 L 12.332 65.409 L 12.305 64.252 L 12.381 63.058 L 12.560 61.831 L 12.842 60.575 L 13.225 59.292 L 13.710 57.987 L 14.293 56.663 L 14.975 55.322 L 15.753 53.971 L 16.625 52.611 L 17.588 51.246 L 18.640 49.881 L 19.777 48.519 L 20.998 47.164 L 22.298 45.819 L 23.674 44.488 L 25.123 43.176 L 26.639 41.884 L 28.220 40.618 L 29.860 39.380 L 31.555 38.174 L 33.301 37.004 L 35.093 35.871 L 36.926 34.780 L 38.794 33.734 L 40.693 32.734 L 42.618 31.785 L 44.563 30.889 L 46.523 30.047 L 48.492 29.264 L 50.465 28.539 L 52.437 27.876 L 54.403 27.277 L 56.356 26.743 L 58.292 26.275 L 60.206 25.875 L 62.091 25.543 L 63.943 25.282 L 65.757 25.091 L 67.528 24.971 L 69.251 24.922 L 70.921 24.945 L 72.533 25.040 L 74.084 25.205 L 75.569 25.441 L 76.984 25.747 L 78.324 26.123 L 79.588 26.566 L 80.770 27.077 L 81.867 27.653 L 82.878 28.293 L 83.798 28.996 L 84.626 29.758 L 85.358 30.579 L 85.994 31.456 L 86.531 32.386 Z" fill="none" stroke="#5C6A8F" stroke-width="1.9"/>
<path d="M 64.256 43.736 L 64.427 44.119 L 64.558 44.521 L 64.649 44.941 L 64.700 45.377 L 64.710 45.829 L 64.681 46.294 L 64.611 46.773 L 64.501 47.263 L 64.351 47.764 L 64.162 48.273 L 63.934 48.790 L 63.668 49.313 L 63.365 49.841 L 63.025 50.372 L 62.649 50.904 L 62.238 51.437 L 61.794 51.968 L 61.318 52.497 L 60.810 53.022 L 60.273 53.541 L 59.708 54.053 L 59.116 54.557 L 58.500 55.051 L 57.860 55.535 L 57.198 56.005 L 56.517 56.462 L 55.817 56.904 L 55.102 57.330 L 54.373 57.738 L 53.632 58.128 L 52.881 58.498 L 52.122 58.848 L 51.357 59.177 L 50.589 59.483 L 49.818 59.765 L 49.049 60.024 L 48.282 60.258 L 47.519 60.466 L 46.764 60.649 L 46.017 60.805 L 45.282 60.934 L 44.559 61.036 L 43.851 61.111 L 43.160 61.158 L 42.488 61.177 L 41.836 61.168 L 41.207 61.131 L 40.601 61.066 L 40.022 60.974 L 39.470 60.855 L 38.947 60.708 L 38.454 60.535 L 37.992 60.336 L 37.564 60.111 L 37.170 59.861 L 36.811 59.587 L 36.488 59.289 L 36.202 58.969 L 35.954 58.627 L 35.744 58.264 L 35.573 57.881 L 35.442 57.479 L 35.351 57.059 L 35.300 56.623 L 35.290 56.171 L 35.319 55.706 L 35.389 55.227 L 35.499 54.737 L 35.649 54.236 L 35.838 53.727 L 36.066 53.210 L 36.332 52.687 L 36.635 52.159 L 36.975 51.628 L 37.351 51.096 L 37.762 50.563 L 38.206 50.032 L 38.682 49.503 L 39.190 48.978 L 39.727 48.459 L 40.292 47.947 L 40.884 47.443 L 41.500 46.949 L 42.140 46.465 L 42.802 45.995 L 43.483 45.538 L 44.183 45.096 L 44.898 44.670 L 45.627 44.262 L 46.368 43.872 L 47.119 43.502 L 47.878 43.152 L 48.643 42.823 L 49.411 42.517 L 50.182 42.235 L 50.951 41.976 L 51.718 41.742 L 52.481 41.534 L 53.236 41.351 L 53.983 41.195 L 54.718 41.066 L 55.441 40.964 L 56.149 40.889 L 56.840 40.842 L 57.512 40.823 L 58.164 40.832 L 58.793 40.869 L 59.399 40.934 L 59.978 41.026 L 60.530 41.145 L 61.053 41.292 L 61.546 41.465 L 62.008 41.664 L 62.436 41.889 L 62.830 42.139 L 63.189 42.413 L 63.512 42.711 L 63.798 43.031 L 64.046 43.373 L 64.256 43.736 Z" fill="none" stroke="#5C6A8F" stroke-width="1.4" stroke-dasharray="2.0 2.7" opacity="0.9"/>
<path d="M 35.421 55.065 L 35.403 54.769 L 35.402 54.465 L 35.419 54.153 L 35.455 53.833 L 35.509 53.505 L 35.582 53.170 L 35.674 52.828 L 35.785 52.479 L 35.915 52.124 L 36.064 51.764 L 36.233 51.398 L 36.420 51.027 L 36.626 50.651 L 36.852 50.272 L 37.096 49.889 L 37.360 49.502 L 37.642 49.113 L 37.942 48.722 L 38.261 48.329 L 38.598 47.934 L 38.954 47.539 L 39.326 47.143 L 39.717 46.748 L 40.124 46.353 L 40.548 45.960 L 40.988 45.568 L 41.445 45.179 L 41.917 44.792 L 42.404 44.409 L 42.906 44.030 L 43.422 43.655 L 43.951 43.285 L 44.494 42.920 L 45.050 42.561 L 45.617 42.209 L 46.196 41.864 L 46.785 41.526 L 47.385 41.196 L 47.994 40.875 L 48.612 40.562 L 49.238 40.259 L 49.872 39.967 L 50.512 39.684 L 51.158 39.412 L 51.809 39.152 L 52.465 38.904 L 53.124 38.667 L 53.786 38.443 L 54.450 38.233 L 55.115 38.035 L 55.781 37.852 L 56.446 37.682 L 57.110 37.527 L 57.771 37.387 L 58.430 37.262 L 59.085 37.152 L 59.735 37.058 L 60.380 36.980 L 61.018 36.919 L 61.649 36.873 L 62.271 36.845 L 62.885 36.833 L 63.489 36.838 L 64.082 36.860 L 64.664 36.899 L 65.233 36.956 L 65.789 37.031 L 66.332 37.122 L 66.859 37.232 L 67.371 37.359 L 67.867 37.503 L 68.346 37.665 L 68.806 37.844 L 69.249 38.041 L 69.672 38.256 L 70.075 38.487 L 70.457 38.735 L 70.819 39.001 L 71.158 39.283 L 71.475 39.581 L 71.769 39.896 L 72.039 40.227 L 72.286 40.574 L 72.507 40.936 L 72.704 41.313 L 72.875 41.705 L 73.020 42.111 L 73.138 42.531 L 73.230 42.965 L 73.295 43.413 L 73.332 43.873 L 73.342 44.345 L 73.324 44.829 L 73.278 45.324 L 73.204 45.831 L 73.102 46.347 L 72.971 46.873 L 72.811 47.409 L 72.623 47.953 L 72.407 48.505 L 72.162 49.064 L 71.888 49.630 L 71.587 50.202 L 71.257 50.779 L 70.899 51.362 L 70.514 51.948 L 70.101 52.538 L 69.661 53.130 L 69.194 53.725 L 68.701 54.320 L 68.182 54.917 L 67.637 55.513 L 67.067 56.108 L 66.472 56.702 L 65.854 57.293 L 65.211 57.882 L 64.546 58.466 L 63.859 59.046 L 63.150 59.621 L 62.420 60.190 L 61.671 60.751 L 60.901 61.306 L 60.114 61.852 L 59.308 62.389 L 58.486 62.917 L 57.647 63.434 L 56.794 63.940 L 55.926 64.435 L 55.045 64.917 L 54.152 65.386 L 53.248 65.841 L 52.333 66.282 L 51.409 66.707 L 50.477 67.117 L 49.538 67.511 L 48.593 67.888 L 47.643 68.248 L 46.690 68.589 L 45.733 68.912 L 44.776 69.216 L 43.817 69.501 L 42.860 69.765 L 41.905 70.009 L 40.952 70.233 L 40.004 70.434 L 39.062 70.615 L 38.126 70.773 L 37.198 70.909 L 36.279 71.022 L 35.370 71.112 L 34.472 71.179 L 33.587 71.223 L 32.716 71.243 L 31.859 71.239 L 31.018 71.211 L 30.194 71.159 L 29.388 71.083 L 28.602 70.983 L 27.835 70.858 L 27.090 70.709 L 26.367 70.536 L 25.668 70.339 L 24.993 70.117 L 24.343 69.872 L 23.719 69.602 L 23.123 69.309 L 22.554 68.993 L 22.014 68.653 L 21.504 68.290 L 21.025 67.905 L 20.577 67.497 L 20.160 67.067 L 19.777 66.616 L 19.426 66.144 L 19.110 65.650 L 18.828 65.137 L 18.582 64.603 L 18.370 64.050 L 18.195 63.479 L 18.057 62.889 L 17.955 62.282 L 17.890 61.658 L 17.863 61.017 L 17.874 60.361 L 17.922 59.690 L 18.009 59.005 L 18.134 58.306 L 18.297 57.595 L 18.499 56.871 L 18.738 56.137 L 19.017 55.392 L 19.333 54.638 L 19.687 53.874 L 20.079 53.104 L 20.508 52.326 L 20.975 51.542 L 21.479 50.753 L 22.019 49.960 L 22.595 49.163 L 23.206 48.364 L 23.853 47.564 L 24.534 46.763 L 25.249 45.963 L 25.997 45.164 L 26.777 44.368 L 27.590 43.574 L 28.433 42.786 L 29.306 42.002 L 30.208 41.225 L 31.139 40.455 L 32.097 39.693 L 33.081 38.940 L 34.091 38.197 L 35.125 37.465 L 36.181 36.745 L 37.260 36.038 L 38.360 35.345 L 39.480 34.666 L 40.618 34.003 L 41.773 33.357 L 42.944 32.727 L 44.129 32.116 L 45.328 31.524 L 46.538 30.951 L 47.759 30.399 L 48.989 29.868 L 50.227 29.360 L 51.471 28.874 L 52.720 28.411 L 53.973 27.973 L 55.227 27.559 L 56.481 27.171 L 57.735 26.808 L 58.986 26.473 L 60.232 26.164 L 61.473 25.883 L 62.708 25.630 L 63.933 25.405 L 65.149 25.210 L 66.352 25.043" fill="none" stroke="#F2B454" stroke-width="2.7" stroke-linecap="round"/>
<circle cx="53.786" cy="38.443" r="1.900" fill="#F8C766"/>
<circle cx="73.102" cy="46.347" r="1.900" fill="#F8C766"/>
<circle cx="40.952" cy="70.233" r="1.900" fill="#F8C766"/>
<circle cx="19.333" cy="54.638" r="1.900" fill="#F8C766"/>
<circle cx="35.421" cy="55.065" r="2.400" fill="#EEF2FB" stroke="#F2B454" stroke-width="1.300"/>
<circle cx="66.352" cy="25.043" r="3.400" fill="none" stroke="#F2B454" stroke-width="1.500"/>
<circle cx="66.352" cy="25.043" r="1.500" fill="#F8C766"/>
<circle cx="50.000" cy="51.000" r="7.400" fill="#EEF2FB"/>
<circle cx="47.700" cy="49.100" r="1.500" fill="#5C6A8F" opacity="0.32"/>
<circle cx="52.100" cy="52.500" r="1.050" fill="#5C6A8F" opacity="0.32"/>
<circle cx="50.200" cy="53.700" r="0.700" fill="#5C6A8F" opacity="0.32"/></g><g transform="translate(10.45,101.01)"><path d="M5.616 -12.366V-4.131Q5.616 -3.294 6.0075 -2.9295Q6.399 -2.565 7.344 -2.565H9.234V0.0H6.804Q4.725 0.0 3.618 -0.972Q2.511 -1.944 2.511 -4.131V-12.366H0.756V-14.877H2.511V-18.576H5.616V-14.877H9.234V-12.366Z M26.061 -14.877 16.935000000000002 6.993H13.749L16.773 -0.243L10.914 -14.877H14.343L18.528 -3.537L22.875 -14.877Z M35.247 -15.12Q37.946999999999996 -15.12 39.71549999999999 -13.837499999999999Q41.483999999999995 -12.555 42.105 -10.179H38.784Q38.379 -11.286 37.488 -11.907Q36.596999999999994 -12.528 35.247 -12.528Q33.357 -12.528 32.2365 -11.191500000000001Q31.116 -9.855 31.116 -7.452Q31.116 -5.049 32.2365 -3.699Q33.357 -2.3489999999999998 35.247 -2.3489999999999998Q37.92 -2.3489999999999998 38.784 -4.6979999999999995H42.105Q41.457 -2.43 39.675 -1.0935000000000001Q37.893 0.243 35.247 0.243Q33.114 0.243 31.467 -0.7155Q29.82 -1.674 28.8885 -3.4154999999999998Q27.956999999999997 -5.157 27.956999999999997 -7.452Q27.956999999999997 -9.747 28.8885 -11.4885Q29.82 -13.23 31.467 -14.175Q33.114 -15.12 35.247 -15.12Z M59.39099999999999 -8.775V0.0H56.339999999999996V-8.316Q56.339999999999996 -10.314 55.340999999999994 -11.3805Q54.342 -12.447 52.614 -12.447Q50.885999999999996 -12.447 49.87349999999999 -11.3805Q48.861 -10.314 48.861 -8.316V0.0H45.782999999999994V-19.98H48.861V-13.149Q49.644 -14.094 50.8455 -14.607Q52.047 -15.12 53.477999999999994 -15.12Q55.178999999999995 -15.12 56.515499999999996 -14.390999999999998Q57.852 -13.661999999999999 58.6215 -12.231Q59.39099999999999 -10.8 59.39099999999999 -8.775Z M62.907000000000004 -7.452Q62.907000000000004 -9.72 63.906000000000006 -11.475000000000001Q64.905 -13.23 66.63300000000001 -14.175Q68.361 -15.12 70.494 -15.12Q72.627 -15.12 74.35499999999999 -14.175Q76.083 -13.23 77.082 -11.475000000000001Q78.081 -9.72 78.081 -7.452Q78.081 -5.184 77.055 -3.4290000000000003Q76.029 -1.674 74.26050000000001 -0.7155Q72.492 0.243 70.359 0.243Q68.253 0.243 66.55199999999999 -0.7155Q64.851 -1.674 63.879000000000005 -3.4154999999999998Q62.907000000000004 -5.157 62.907000000000004 -7.452ZM74.922 -7.452Q74.922 -9.072 74.301 -10.192499999999999Q73.68 -11.313 72.654 -11.879999999999999Q71.628 -12.447 70.44 -12.447Q69.252 -12.447 68.23949999999999 -11.879999999999999Q67.227 -11.313 66.63300000000001 -10.192499999999999Q66.039 -9.072 66.039 -7.452Q66.039 -5.049 67.2675 -3.7395000000000005Q68.496 -2.43 70.359 -2.43Q71.547 -2.43 72.5865 -2.997Q73.626 -3.564 74.274 -4.698Q74.922 -5.832 74.922 -7.452Z" fill="#EEF2FB"/></g></svg>