<svg xmlns="http://www.w3.org/2000/svg" viewBox="0 0 900 430" width="900" height="430"><rect width="900" height="430" fill="#F4F5F8"/>
<g transform="translate(250,52)"><path d="M14.669999999999998 -9.918 11.591999999999999 0.0H9.431999999999999L7.433999999999999 -7.326L5.436 0.0H3.276L0.18 -9.918H2.268L4.338 -1.944L6.444 -9.918H8.585999999999999L10.601999999999999 -1.9799999999999998L12.654 -9.918Z M16.23 -12.546Q16.23 -13.104 16.608 -13.482Q16.986 -13.86 17.544 -13.86Q18.084 -13.86 18.462 -13.482Q18.84 -13.104 18.84 -12.546Q18.84 -11.988 18.462 -11.61Q18.084 -11.232 17.544 -11.232Q16.986 -11.232 16.608 -11.61Q16.23 -11.988 16.23 -12.546ZM18.552 -9.918V0.0H16.5V-9.918Z M23.945999999999998 -8.244V-2.754Q23.945999999999998 -2.1959999999999997 24.206999999999997 -1.9529999999999998Q24.467999999999996 -1.71 25.098 -1.71H26.357999999999997V0.0H24.738Q23.351999999999997 0.0 22.613999999999997 -0.6479999999999999Q21.875999999999998 -1.2959999999999998 21.875999999999998 -2.754V-8.244H20.706V-9.918H21.875999999999998V-12.383999999999999H23.945999999999998V-9.918H26.357999999999997V-8.244Z M37.62 -5.85V0.0H35.586V-5.544Q35.586 -6.8759999999999994 34.92 -7.587Q34.254 -8.298 33.102 -8.298Q31.949999999999996 -8.298 31.275 -7.587Q30.599999999999998 -6.8759999999999994 30.599999999999998 -5.544V0.0H28.548V-13.319999999999999H30.599999999999998V-8.766Q31.121999999999996 -9.395999999999999 31.922999999999995 -9.738Q32.724 -10.08 33.678 -10.08Q34.812 -10.08 35.702999999999996 -9.594Q36.593999999999994 -9.107999999999999 37.107 -8.154Q37.62 -7.199999999999999 37.62 -5.85Z  M54.58199999999999 -5.85V0.0H52.54799999999999V-5.544Q52.54799999999999 -6.8759999999999994 51.88199999999999 -7.587Q51.21599999999999 -8.298 50.06399999999999 -8.298Q48.91199999999999 -8.298 48.236999999999995 -7.587Q47.56199999999999 -6.8759999999999994 47.56199999999999 -5.544V0.0H45.50999999999999V-9.918H47.56199999999999V-8.783999999999999Q48.06599999999999 -9.395999999999999 48.84899999999999 -9.738Q49.63199999999999 -10.08 50.51399999999999 -10.08Q51.68399999999999 -10.08 52.61099999999999 -9.594Q53.53799999999999 -9.107999999999999 54.05999999999999 -8.154Q54.58199999999999 -7.199999999999999 54.58199999999999 -5.85Z M61.487999999999985 -10.08Q62.65799999999999 -10.08 63.530999999999985 -9.620999999999999Q64.40399999999998 -9.161999999999999 64.92599999999999 -8.478V-9.918H66.99599999999998V0.0H64.92599999999999V-1.476Q64.40399999999998 -0.7739999999999999 63.503999999999984 -0.30599999999999994Q62.603999999999985 0.16199999999999998 61.45199999999999 0.16199999999999998Q60.17399999999999 0.16199999999999998 59.111999999999995 -0.495Q58.04999999999999 -1.152 57.42899999999999 -2.331Q56.807999999999986 -3.51 56.807999999999986 -5.004Q56.807999999999986 -6.497999999999999 57.42899999999999 -7.6499999999999995Q58.04999999999999 -8.802 59.12099999999999 -9.440999999999999Q60.191999999999986 -10.08 61.487999999999985 -10.08ZM61.91999999999999 -8.298Q61.127999999999986 -8.298 60.44399999999999 -7.911Q59.75999999999999 -7.523999999999999 59.33699999999999 -6.776999999999999Q58.91399999999999 -6.029999999999999 58.91399999999999 -5.004Q58.91399999999999 -3.9779999999999998 59.33699999999999 -3.2039999999999997Q59.75999999999999 -2.4299999999999997 60.45299999999999 -2.025Q61.14599999999999 -1.6199999999999999 61.91999999999999 -1.6199999999999999Q62.71199999999999 -1.6199999999999999 63.39599999999999 -2.016Q64.07999999999998 -2.412 64.50299999999999 -3.1769999999999996Q64.92599999999999 -3.9419999999999997 64.92599999999999 -4.968Q64.92599999999999 -5.994 64.50299999999999 -6.75Q64.07999999999998 -7.505999999999999 63.39599999999999 -7.901999999999999Q62.71199999999999 -8.298 61.91999999999999 -8.298Z M86.088 -5.85V0.0H84.05399999999999V-5.544Q84.05399999999999 -6.8759999999999994 83.38799999999998 -7.587Q82.72199999999998 -8.298 81.57 -8.298Q80.41799999999998 -8.298 79.74299999999998 -7.587Q79.06799999999998 -6.8759999999999994 79.06799999999998 -5.544V0.0H77.03399999999999V-5.544Q77.03399999999999 -6.8759999999999994 76.368 -7.587Q75.70199999999998 -8.298 74.54999999999998 -8.298Q73.39799999999998 -8.298 72.72299999999998 -7.587Q72.04799999999999 -6.8759999999999994 72.04799999999999 -5.544V0.0H69.99599999999998V-9.918H72.04799999999999V-8.783999999999999Q72.55199999999999 -9.395999999999999 73.326 -9.738Q74.09999999999998 -10.08 74.98199999999999 -10.08Q76.16999999999999 -10.08 77.106 -9.576Q78.04199999999999 -9.072 78.54599999999999 -8.117999999999999Q78.99599999999998 -9.017999999999999 79.94999999999999 -9.549Q80.90399999999998 -10.08 82.00199999999998 -10.08Q83.17199999999998 -10.08 84.09899999999999 -9.594Q85.02599999999998 -9.107999999999999 85.55699999999999 -8.154Q86.088 -7.199999999999999 86.088 -5.85Z M98.01599999999998 -4.194H90.43799999999999Q90.52799999999998 -3.006 91.31999999999998 -2.2859999999999996Q92.11199999999998 -1.5659999999999998 93.26399999999998 -1.5659999999999998Q94.91999999999999 -1.5659999999999998 95.60399999999998 -2.952H97.81799999999998Q97.36799999999998 -1.5839999999999999 96.18899999999998 -0.711Q95.00999999999998 0.16199999999999998 93.26399999999998 0.16199999999999998Q91.84199999999998 0.16199999999999998 90.71699999999998 -0.477Q89.59199999999998 -1.1159999999999999 88.95299999999997 -2.2769999999999997Q88.31399999999998 -3.4379999999999997 88.31399999999998 -4.968Q88.31399999999998 -6.497999999999999 88.93499999999997 -7.658999999999999Q89.55599999999998 -8.819999999999999 90.68099999999998 -9.45Q91.80599999999998 -10.08 93.26399999999998 -10.08Q94.66799999999998 -10.08 95.76599999999998 -9.468Q96.86399999999998 -8.856 97.47599999999997 -7.749Q98.08799999999998 -6.6419999999999995 98.08799999999998 -5.202Q98.08799999999998 -4.643999999999999 98.01599999999998 -4.194ZM95.94599999999998 -5.85Q95.92799999999998 -6.983999999999999 95.13599999999998 -7.667999999999999Q94.34399999999998 -8.351999999999999 93.17399999999998 -8.351999999999999Q92.11199999999998 -8.351999999999999 91.35599999999998 -7.677Q90.59999999999998 -7.002 90.45599999999999 -5.85Z" fill="#15213D"/></g>
<g transform="translate(640,52)"><path d="M1.0799999999999998 -12.546Q1.0799999999999998 -13.104 1.4579999999999997 -13.482Q1.8359999999999999 -13.86 2.3939999999999997 -13.86Q2.9339999999999997 -13.86 3.3119999999999994 -13.482Q3.6899999999999995 -13.104 3.6899999999999995 -12.546Q3.6899999999999995 -11.988 3.3119999999999994 -11.61Q2.9339999999999997 -11.232 2.3939999999999997 -11.232Q1.8359999999999999 -11.232 1.4579999999999997 -11.61Q1.0799999999999998 -11.988 1.0799999999999998 -12.546ZM3.4019999999999997 -9.918V0.0H1.3499999999999999V-9.918Z M10.578 -10.08Q12.378 -10.08 13.556999999999999 -9.225Q14.735999999999999 -8.37 15.149999999999999 -6.786H12.936Q12.665999999999999 -7.523999999999999 12.072 -7.937999999999999Q11.477999999999998 -8.351999999999999 10.578 -8.351999999999999Q9.318 -8.351999999999999 8.571 -7.4609999999999985Q7.824 -6.569999999999999 7.824 -4.968Q7.824 -3.3659999999999997 8.571 -2.4659999999999997Q9.318 -1.5659999999999998 10.578 -1.5659999999999998Q12.36 -1.5659999999999998 12.936 -3.1319999999999997H15.149999999999999Q14.717999999999998 -1.6199999999999999 13.529999999999998 -0.729Q12.341999999999999 0.16199999999999998 10.578 0.16199999999999998Q9.155999999999999 0.16199999999999998 8.058 -0.477Q6.959999999999999 -1.1159999999999999 6.3389999999999995 -2.2769999999999997Q5.718 -3.4379999999999997 5.718 -4.968Q5.718 -6.497999999999999 6.3389999999999995 -7.658999999999999Q6.959999999999999 -8.819999999999999 8.058 -9.45Q9.155999999999999 -10.08 10.578 -10.08Z M16.836000000000002 -4.968Q16.836000000000002 -6.4799999999999995 17.502000000000002 -7.649999999999999Q18.168 -8.819999999999999 19.32 -9.45Q20.472 -10.08 21.894000000000002 -10.08Q23.316000000000003 -10.08 24.468000000000004 -9.45Q25.62 -8.819999999999999 26.286 -7.649999999999999Q26.951999999999998 -6.4799999999999995 26.951999999999998 -4.968Q26.951999999999998 -3.4559999999999995 26.268 -2.2859999999999996Q25.584 -1.1159999999999999 24.405 -0.477Q23.226 0.16199999999999998 21.804000000000002 0.16199999999999998Q20.4 0.16199999999999998 19.266 -0.477Q18.132 -1.1159999999999999 17.484 -2.2769999999999997Q16.836000000000002 -3.4379999999999997 16.836000000000002 -4.968ZM24.846 -4.968Q24.846 -6.047999999999999 24.432000000000002 -6.795Q24.018 -7.542 23.334 -7.92Q22.65 -8.298 21.858 -8.298Q21.066000000000003 -8.298 20.391000000000002 -7.92Q19.716 -7.542 19.32 -6.795Q18.924 -6.047999999999999 18.924 -4.968Q18.924 -3.3659999999999997 19.743000000000002 -2.493Q20.562 -1.6199999999999999 21.804000000000002 -1.6199999999999999Q22.596 -1.6199999999999999 23.289 -1.9979999999999998Q23.982 -2.376 24.414 -3.1319999999999997Q24.846 -3.888 24.846 -4.968Z M38.358 -5.85V0.0H36.324V-5.544Q36.324 -6.8759999999999994 35.658 -7.587Q34.992 -8.298 33.84 -8.298Q32.688 -8.298 32.013000000000005 -7.587Q31.338 -6.8759999999999994 31.338 -5.544V0.0H29.286V-9.918H31.338V-8.783999999999999Q31.842 -9.395999999999999 32.625 -9.738Q33.408 -10.08 34.29 -10.08Q35.46 -10.08 36.387 -9.594Q37.314 -9.107999999999999 37.836 -8.154Q38.358 -7.199999999999999 38.358 -5.85Z  M45.581999999999994 -4.968Q45.581999999999994 -6.4799999999999995 46.24799999999999 -7.649999999999999Q46.913999999999994 -8.819999999999999 48.065999999999995 -9.45Q49.217999999999996 -10.08 50.63999999999999 -10.08Q52.062 -10.08 53.214 -9.45Q54.366 -8.819999999999999 55.032 -7.649999999999999Q55.69799999999999 -6.4799999999999995 55.69799999999999 -4.968Q55.69799999999999 -3.4559999999999995 55.013999999999996 -2.2859999999999996Q54.33 -1.1159999999999999 53.150999999999996 -0.477Q51.971999999999994 0.16199999999999998 50.55 0.16199999999999998Q49.145999999999994 0.16199999999999998 48.01199999999999 -0.477Q46.87799999999999 -1.1159999999999999 46.22999999999999 -2.2769999999999997Q45.581999999999994 -3.4379999999999997 45.581999999999994 -4.968ZM53.592 -4.968Q53.592 -6.047999999999999 53.178 -6.795Q52.763999999999996 -7.542 52.08 -7.92Q51.395999999999994 -8.298 50.604 -8.298Q49.812 -8.298 49.137 -7.92Q48.461999999999996 -7.542 48.065999999999995 -6.795Q47.669999999999995 -6.047999999999999 47.669999999999995 -4.968Q47.669999999999995 -3.3659999999999997 48.48899999999999 -2.493Q49.30799999999999 -1.6199999999999999 50.55 -1.6199999999999999Q51.342 -1.6199999999999999 52.035 -1.9979999999999998Q52.727999999999994 -2.376 53.16 -3.1319999999999997Q53.592 -3.888 53.592 -4.968Z M67.104 -5.85V0.0H65.07V-5.544Q65.07 -6.8759999999999994 64.404 -7.587Q63.73799999999999 -8.298 62.586 -8.298Q61.434 -8.298 60.759 -7.587Q60.083999999999996 -6.8759999999999994 60.083999999999996 -5.544V0.0H58.032V-9.918H60.083999999999996V-8.783999999999999Q60.587999999999994 -9.395999999999999 61.370999999999995 -9.738Q62.153999999999996 -10.08 63.035999999999994 -10.08Q64.20599999999999 -10.08 65.133 -9.594Q66.06 -9.107999999999999 66.582 -8.154Q67.104 -7.199999999999999 67.104 -5.85Z M72.06599999999999 -13.319999999999999V0.0H70.01399999999998V-13.319999999999999Z M83.99399999999997 -9.918 77.90999999999998 4.662H75.78599999999997L77.80199999999998 -0.16199999999999998L73.89599999999999 -9.918H76.18199999999997L78.97199999999998 -2.3579999999999997L81.86999999999998 -9.918Z" fill="#15213D"/></g>
<g transform="translate(40,120)"><path d="M2.1 -10.36V0.0H1.12V-10.36Z M4.3020000000000005 -9.814Q4.3020000000000005 -10.122 4.5120000000000005 -10.325Q4.722 -10.528 5.016 -10.528Q5.3100000000000005 -10.528 5.5200000000000005 -10.325Q5.73 -10.122 5.73 -9.814Q5.73 -9.506 5.5200000000000005 -9.296Q5.3100000000000005 -9.086 5.016 -9.086Q4.722 -9.086 4.5120000000000005 -9.296Q4.3020000000000005 -9.506 4.3020000000000005 -9.814ZM5.506 -7.644V0.0H4.526V-7.644Z M14.162 -5.978V-7.644H15.142V0.196Q15.142 1.246 14.687 2.058Q14.232 2.87 13.42 3.311Q12.608 3.7520000000000002 11.572 3.7520000000000002Q10.102 3.7520000000000002 9.129000000000001 3.052Q8.156 2.352 7.918 1.1480000000000001H8.884Q9.136 1.946 9.843 2.422Q10.55 2.898 11.572 2.898Q12.314 2.898 12.902000000000001 2.583Q13.49 2.2680000000000002 13.826 1.6520000000000001Q14.162 1.036 14.162 0.196V-1.694Q13.798 -0.91 13.007000000000001 -0.399Q12.216000000000001 0.112 11.138000000000002 0.112Q10.088000000000001 0.112 9.255 -0.378Q8.422 -0.868 7.953 -1.764Q7.484 -2.66 7.484 -3.8360000000000003Q7.484 -5.0120000000000005 7.953 -5.901Q8.422 -6.79 9.255 -7.273Q10.088000000000001 -7.756 11.138000000000002 -7.756Q12.216000000000001 -7.756 13.014000000000001 -7.252000000000001Q13.812000000000001 -6.748 14.162 -5.978ZM11.32 -6.902Q10.508000000000001 -6.902 9.864 -6.538Q9.22 -6.174 8.849 -5.481Q8.478 -4.788 8.478 -3.8360000000000003Q8.478 -2.898 8.849 -2.191Q9.22 -1.484 9.864 -1.113Q10.508000000000001 -0.742 11.32 -0.742Q12.104 -0.742 12.754999999999999 -1.12Q13.406 -1.498 13.784 -2.198Q14.162 -2.898 14.162 -3.822Q14.162 -4.746 13.784 -5.446Q13.406 -6.146 12.754999999999999 -6.524Q12.104 -6.902 11.32 -6.902Z M24.274 -4.48V0.0H23.308V-4.368Q23.308 -5.614 22.685000000000002 -6.272Q22.062 -6.93 20.984 -6.93Q19.878 -6.93 19.22 -6.23Q18.562 -5.53 18.562 -4.172V0.0H17.582V-10.36H18.562V-6.3420000000000005Q18.926 -7.0280000000000005 19.633 -7.406000000000001Q20.34 -7.784 21.222 -7.784Q22.09 -7.784 22.783 -7.42Q23.476 -7.056 23.875 -6.307Q24.274 -5.558 24.274 -4.48Z M27.918 -6.8180000000000005V-2.072Q27.918 -1.372 28.184 -1.106Q28.450000000000003 -0.84 29.122 -0.84H30.018V0.0H28.968Q27.932000000000002 0.0 27.428 -0.483Q26.924 -0.966 26.924 -2.072V-6.8180000000000005H25.86V-7.644H26.924V-9.562H27.918V-7.644H30.018V-6.8180000000000005Z" fill="#8390AD"/></g>
<g transform="translate(40,300)"><path d="M4.34 -7.756Q5.348 -7.756 6.16 -7.266Q6.972 -6.776 7.3500000000000005 -5.992V-10.36H8.33V0.0H7.3500000000000005V-1.708Q7.0 -0.91 6.202 -0.399Q5.404 0.112 4.3260000000000005 0.112Q3.2760000000000002 0.112 2.443 -0.378Q1.61 -0.868 1.141 -1.764Q0.672 -2.66 0.672 -3.8360000000000003Q0.672 -5.0120000000000005 1.1480000000000001 -5.901Q1.624 -6.79 2.457 -7.273Q3.29 -7.756 4.34 -7.756ZM4.508 -6.902Q3.696 -6.902 3.052 -6.538Q2.408 -6.174 2.037 -5.481Q1.666 -4.788 1.666 -3.8360000000000003Q1.666 -2.898 2.037 -2.191Q2.408 -1.484 3.052 -1.113Q3.696 -0.742 4.508 -0.742Q5.292 -0.742 5.943 -1.12Q6.594 -1.498 6.972 -2.198Q7.3500000000000005 -2.898 7.3500000000000005 -3.822Q7.3500000000000005 -4.746 6.972 -5.446Q6.594 -6.146 5.943 -6.524Q5.292 -6.902 4.508 -6.902Z M13.976 -7.756Q15.068000000000001 -7.756 15.859 -7.252000000000001Q16.65 -6.748 17.0 -5.964V-7.644H17.98V0.0H17.0V-1.694Q16.636 -0.91 15.844999999999999 -0.399Q15.054 0.112 13.962 0.112Q12.926 0.112 12.093 -0.378Q11.26 -0.868 10.791 -1.764Q10.322000000000001 -2.66 10.322000000000001 -3.8360000000000003Q10.322000000000001 -5.0120000000000005 10.791 -5.901Q11.26 -6.79 12.093 -7.273Q12.926 -7.756 13.976 -7.756ZM14.158000000000001 -6.902Q13.346 -6.902 12.702 -6.538Q12.058 -6.174 11.687000000000001 -5.481Q11.316 -4.788 11.316 -3.8360000000000003Q11.316 -2.898 11.687000000000001 -2.191Q12.058 -1.484 12.702 -1.113Q13.346 -0.742 14.158000000000001 -0.742Q14.942 -0.742 15.593 -1.12Q16.244 -1.498 16.622 -2.198Q17.0 -2.898 17.0 -3.822Q17.0 -4.746 16.622 -5.446Q16.244 -6.146 15.593 -6.524Q14.942 -6.902 14.158000000000001 -6.902Z M24.018 -7.784V-6.7620000000000005H23.752000000000002Q22.688000000000002 -6.7620000000000005 22.044000000000004 -6.188000000000001Q21.400000000000002 -5.614 21.400000000000002 -4.2700000000000005V0.0H20.42V-7.644H21.400000000000002V-6.2860000000000005Q21.722 -7.0 22.387 -7.3919999999999995Q23.052 -7.784 24.018 -7.784Z M29.818 0.0 26.668000000000003 -3.43V0.0H25.688000000000002V-10.36H26.668000000000003V-4.228L29.748 -7.644H31.12L27.494 -3.8360000000000003L31.148000000000003 0.0Z" fill="#8390AD"/></g>
<rect x="160" y="78" width="430" height="150" rx="14" fill="#FFFFFF" stroke="#E4E7EE"/>
<g transform="translate(180,82) scale(1.5)"><g><g><path d="M 86.531 32.386 L 86.968 33.368 L 87.304 34.398 L 87.537 35.473 L 87.668 36.591 L 87.695 37.748 L 87.619 38.942 L 87.440 40.169 L 87.158 41.425 L 86.775 42.708 L 86.290 44.013 L 85.707 45.337 L 85.025 46.678 L 84.247 48.029 L 83.375 49.389 L 82.412 50.754 L 81.360 52.119 L 80.223 53.481 L 79.002 54.836 L 77.702 56.181 L 76.326 57.512 L 74.877 58.824 L 73.361 60.116 L 71.780 61.382 L 70.140 62.620 L 68.445 63.826 L 66.699 64.996 L 64.907 66.129 L 63.074 67.220 L 61.206 68.266 L 59.307 69.266 L 57.382 70.215 L 55.437 71.111 L 53.477 71.953 L 51.508 72.736 L 49.535 73.461 L 47.563 74.124 L 45.597 74.723 L 43.644 75.257 L 41.708 75.725 L 39.794 76.125 L 37.909 76.457 L 36.057 76.718 L 34.243 76.909 L 32.472 77.029 L 30.749 77.078 L 29.079 77.055 L 27.467 76.960 L 25.916 76.795 L 24.431 76.559 L 23.016 76.253 L 21.676 75.877 L 20.412 75.434 L 19.230 74.923 L 18.133 74.347 L 17.122 73.707 L 16.202 73.004 L 15.374 72.242 L 14.642 71.421 L 14.006 70.544 L 13.469 69.614 L 13.032 68.632 L 12.696 67.602 L 12.463 66.527 L 12.332 65.409 L 12.305 64.252 L 12.381 63.058 L 12.560 61.831 L 12.842 60.575 L 13.225 59.292 L 13.710 57.987 L 14.293 56.663 L 14.975 55.322 L 15.753 53.971 L 16.625 52.611 L 17.588 51.246 L 18.640 49.881 L 19.777 48.519 L 20.998 47.164 L 22.298 45.819 L 23.674 44.488 L 25.123 43.176 L 26.639 41.884 L 28.220 40.618 L 29.860 39.380 L 31.555 38.174 L 33.301 37.004 L 35.093 35.871 L 36.926 34.780 L 38.794 33.734 L 40.693 32.734 L 42.618 31.785 L 44.563 30.889 L 46.523 30.047 L 48.492 29.264 L 50.465 28.539 L 52.437 27.876 L 54.403 27.277 L 56.356 26.743 L 58.292 26.275 L 60.206 25.875 L 62.091 25.543 L 63.943 25.282 L 65.757 25.091 L 67.528 24.971 L 69.251 24.922 L 70.921 24.945 L 72.533 25.040 L 74.084 25.205 L 75.569 25.441 L 76.984 25.747 L 78.324 26.123 L 79.588 26.566 L 80.770 27.077 L 81.867 27.653 L 82.878 28.293 L 83.798 28.996 L 84.626 29.758 L 85.358 30.579 L 85.994 31.456 L 86.531 32.386 Z" fill="none" stroke="#A4AFC8" stroke-width="1.9"/>
<path d="M 64.256 43.736 L 64.427 44.119 L 64.558 44.521 L 64.649 44.941 L 64.700 45.377 L 64.710 45.829 L 64.681 46.294 L 64.611 46.773 L 64.501 47.263 L 64.351 47.764 L 64.162 48.273 L 63.934 48.790 L 63.668 49.313 L 63.365 49.841 L 63.025 50.372 L 62.649 50.904 L 62.238 51.437 L 61.794 51.968 L 61.318 52.497 L 60.810 53.022 L 60.273 53.541 L 59.708 54.053 L 59.116 54.557 L 58.500 55.051 L 57.860 55.535 L 57.198 56.005 L 56.517 56.462 L 55.817 56.904 L 55.102 57.330 L 54.373 57.738 L 53.632 58.128 L 52.881 58.498 L 52.122 58.848 L 51.357 59.177 L 50.589 59.483 L 49.818 59.765 L 49.049 60.024 L 48.282 60.258 L 47.519 60.466 L 46.764 60.649 L 46.017 60.805 L 45.282 60.934 L 44.559 61.036 L 43.851 61.111 L 43.160 61.158 L 42.488 61.177 L 41.836 61.168 L 41.207 61.131 L 40.601 61.066 L 40.022 60.974 L 39.470 60.855 L 38.947 60.708 L 38.454 60.535 L 37.992 60.336 L 37.564 60.111 L 37.170 59.861 L 36.811 59.587 L 36.488 59.289 L 36.202 58.969 L 35.954 58.627 L 35.744 58.264 L 35.573 57.881 L 35.442 57.479 L 35.351 57.059 L 35.300 56.623 L 35.290 56.171 L 35.319 55.706 L 35.389 55.227 L 35.499 54.737 L 35.649 54.236 L 35.838 53.727 L 36.066 53.210 L 36.332 52.687 L 36.635 52.159 L 36.975 51.628 L 37.351 51.096 L 37.762 50.563 L 38.206 50.032 L 38.682 49.503 L 39.190 48.978 L 39.727 48.459 L 40.292 47.947 L 40.884 47.443 L 41.500 46.949 L 42.140 46.465 L 42.802 45.995 L 43.483 45.538 L 44.183 45.096 L 44.898 44.670 L 45.627 44.262 L 46.368 43.872 L 47.119 43.502 L 47.878 43.152 L 48.643 42.823 L 49.411 42.517 L 50.182 42.235 L 50.951 41.976 L 51.718 41.742 L 52.481 41.534 L 53.236 41.351 L 53.983 41.195 L 54.718 41.066 L 55.441 40.964 L 56.149 40.889 L 56.840 40.842 L 57.512 40.823 L 58.164 40.832 L 58.793 40.869 L 59.399 40.934 L 59.978 41.026 L 60.530 41.145 L 61.053 41.292 L 61.546 41.465 L 62.008 41.664 L 62.436 41.889 L 62.830 42.139 L 63.189 42.413 L 63.512 42.711 L 63.798 43.031 L 64.046 43.373 L 64.256 43.736 Z" fill="none" stroke="#A4AFC8" stroke-width="1.4" stroke-dasharray="2.0 2.7" opacity="0.9"/>
<path d="M 35.421 55.065 L 35.403 54.769 L 35.402 54.465 L 35.419 54.153 L 35.455 53.833 L 35.509 53.505 L 35.582 53.170 L 35.674 52.828 L 35.785 52.479 L 35.915 52.124 L 36.064 51.764 L 36.233 51.398 L 36.420 51.027 L 36.626 50.651 L 36.852 50.272 L 37.096 49.889 L 37.360 49.502 L 37.642 49.113 L 37.942 48.722 L 38.261 48.329 L 38.598 47.934 L 38.954 47.539 L 39.326 47.143 L 39.717 46.748 L 40.124 46.353 L 40.548 45.960 L 40.988 45.568 L 41.445 45.179 L 41.917 44.792 L 42.404 44.409 L 42.906 44.030 L 43.422 43.655 L 43.951 43.285 L 44.494 42.920 L 45.050 42.561 L 45.617 42.209 L 46.196 41.864 L 46.785 41.526 L 47.385 41.196 L 47.994 40.875 L 48.612 40.562 L 49.238 40.259 L 49.872 39.967 L 50.512 39.684 L 51.158 39.412 L 51.809 39.152 L 52.465 38.904 L 53.124 38.667 L 53.786 38.443 L 54.450 38.233 L 55.115 38.035 L 55.781 37.852 L 56.446 37.682 L 57.110 37.527 L 57.771 37.387 L 58.430 37.262 L 59.085 37.152 L 59.735 37.058 L 60.380 36.980 L 61.018 36.919 L 61.649 36.873 L 62.271 36.845 L 62.885 36.833 L 63.489 36.838 L 64.082 36.860 L 64.664 36.899 L 65.233 36.956 L 65.789 37.031 L 66.332 37.122 L 66.859 37.232 L 67.371 37.359 L 67.867 37.503 L 68.346 37.665 L 68.806 37.844 L 69.249 38.041 L 69.672 38.256 L 70.075 38.487 L 70.457 38.735 L 70.819 39.001 L 71.158 39.283 L 71.475 39.581 L 71.769 39.896 L 72.039 40.227 L 72.286 40.574 L 72.507 40.936 L 72.704 41.313 L 72.875 41.705 L 73.020 42.111 L 73.138 42.531 L 73.230 42.965 L 73.295 43.413 L 73.332 43.873 L 73.342 44.345 L 73.324 44.829 L 73.278 45.324 L 73.204 45.831 L 73.102 46.347 L 72.971 46.873 L 72.811 47.409 L 72.623 47.953 L 72.407 48.505 L 72.162 49.064 L 71.888 49.630 L 71.587 50.202 L 71.257 50.779 L 70.899 51.362 L 70.514 51.948 L 70.101 52.538 L 69.661 53.130 L 69.194 53.725 L 68.701 54.320 L 68.182 54.917 L 67.637 55.513 L 67.067 56.108 L 66.472 56.702 L 65.854 57.293 L 65.211 57.882 L 64.546 58.466 L 63.859 59.046 L 63.150 59.621 L 62.420 60.190 L 61.671 60.751 L 60.901 61.306 L 60.114 61.852 L 59.308 62.389 L 58.486 62.917 L 57.647 63.434 L 56.794 63.940 L 55.926 64.435 L 55.045 64.917 L 54.152 65.386 L 53.248 65.841 L 52.333 66.282 L 51.409 66.707 L 50.477 67.117 L 49.538 67.511 L 48.593 67.888 L 47.643 68.248 L 46.690 68.589 L 45.733 68.912 L 44.776 69.216 L 43.817 69.501 L 42.860 69.765 L 41.905 70.009 L 40.952 70.233 L 40.004 70.434 L 39.062 70.615 L 38.126 70.773 L 37.198 70.909 L 36.279 71.022 L 35.370 71.112 L 34.472 71.179 L 33.587 71.223 L 32.716 71.243 L 31.859 71.239 L 31.018 71.211 L 30.194 71.159 L 29.388 71.083 L 28.602 70.983 L 27.835 70.858 L 27.090 70.709 L 26.367 70.536 L 25.668 70.339 L 24.993 70.117 L 24.343 69.872 L 23.719 69.602 L 23.123 69.309 L 22.554 68.993 L 22.014 68.653 L 21.504 68.290 L 21.025 67.905 L 20.577 67.497 L 20.160 67.067 L 19.777 66.616 L 19.426 66.144 L 19.110 65.650 L 18.828 65.137 L 18.582 64.603 L 18.370 64.050 L 18.195 63.479 L 18.057 62.889 L 17.955 62.282 L 17.890 61.658 L 17.863 61.017 L 17.874 60.361 L 17.922 59.690 L 18.009 59.005 L 18.134 58.306 L 18.297 57.595 L 18.499 56.871 L 18.738 56.137 L 19.017 55.392 L 19.333 54.638 L 19.687 53.874 L 20.079 53.104 L 20.508 52.326 L 20.975 51.542 L 21.479 50.753 L 22.019 49.960 L 22.595 49.163 L 23.206 48.364 L 23.853 47.564 L 24.534 46.763 L 25.249 45.963 L 25.997 45.164 L 26.777 44.368 L 27.590 43.574 L 28.433 42.786 L 29.306 42.002 L 30.208 41.225 L 31.139 40.455 L 32.097 39.693 L 33.081 38.940 L 34.091 38.197 L 35.125 37.465 L 36.181 36.745 L 37.260 36.038 L 38.360 35.345 L 39.480 34.666 L 40.618 34.003 L 41.773 33.357 L 42.944 32.727 L 44.129 32.116 L 45.328 31.524 L 46.538 30.951 L 47.759 30.399 L 48.989 29.868 L 50.227 29.360 L 51.471 28.874 L 52.720 28.411 L 53.973 27.973 L 55.227 27.559 L 56.481 27.171 L 57.735 26.808 L 58.986 26.473 L 60.232 26.164 L 61.473 25.883 L 62.708 25.630 L 63.933 25.405 L 65.149 25.210 L 66.352 25.043" fill="none" stroke="#D9952A" stroke-width="2.7" stroke-linecap="round"/>
<circle cx="53.786" cy="38.443" r="1.900" fill="#F0B441"/>
<circle cx="73.102" cy="46.347" r="1.900" fill="#F0B441"/>
<circle cx="40.952" cy="70.233" r="1.900" fill="#F0B441"/>
<circle cx="19.333" cy="54.638" r="1.900" fill="#F0B441"/>
<circle cx="35.421" cy="55.065" r="2.400" fill="#15213D" stroke="#D9952A" stroke-width="1.300"/>
<circle cx="66.352" cy="25.043" r="3.400" fill="none" stroke="#D9952A" stroke-width="1.500"/>
<circle cx="66.352" cy="25.043" r="1.500" fill="#F0B441"/>
<circle cx="50.000" cy="51.000" r="7.400" fill="#15213D"/>
<circle cx="47.700" cy="49.100" r="1.500" fill="#A4AFC8" opacity="0.32"/>
<circle cx="52.100" cy="52.500" r="1.050" fill="#A4AFC8" opacity="0.32"/>
<circle cx="50.200" cy="53.700" r="0.700" fill="#A4AFC8" opacity="0.32"/></g><g transform="translate(108.00,58.18)"><path d="M7.072000000000001 -15.572000000000001V-5.202Q7.072000000000001 -4.148000000000001 7.565 -3.6890000000000005Q8.058 -3.2300000000000004 9.248000000000001 -3.2300000000000004H11.628V0.0H8.568000000000001Q5.95 0.0 4.556 -1.2240000000000002Q3.1620000000000004 -2.4480000000000004 3.1620000000000004 -5.202V-15.572000000000001H0.9520000000000001V-18.734H3.1620000000000004V-23.392000000000003H7.072000000000001V-18.734H11.628V-15.572000000000001Z M32.662000000000006 -18.734 21.17 8.806000000000001H17.158L20.966 -0.30600000000000005L13.588000000000001 -18.734H17.906000000000002L23.176000000000002 -4.454000000000001L28.650000000000002 -18.734Z M44.074000000000005 -19.040000000000003Q47.474000000000004 -19.040000000000003 49.70100000000001 -17.425Q51.928000000000004 -15.81 52.71000000000001 -12.818000000000001H48.528000000000006Q48.018 -14.212000000000002 46.896 -14.994000000000002Q45.774 -15.776000000000002 44.074000000000005 -15.776000000000002Q41.694 -15.776000000000002 40.283 -14.093Q38.872 -12.41 38.872 -9.384Q38.872 -6.3580000000000005 40.283 -4.658Q41.694 -2.958 44.074000000000005 -2.958Q47.440000000000005 -2.958 48.528000000000006 -5.916H52.71000000000001Q51.894000000000005 -3.06 49.650000000000006 -1.377Q47.406000000000006 0.30600000000000005 44.074000000000005 0.30600000000000005Q41.388000000000005 0.30600000000000005 39.31400000000001 -0.901Q37.24 -2.108 36.06700000000001 -4.301Q34.894000000000005 -6.494000000000001 34.894000000000005 -9.384Q34.894000000000005 -12.274000000000001 36.06700000000001 -14.467Q37.24 -16.66 39.31400000000001 -17.85Q41.388000000000005 -19.040000000000003 44.074000000000005 -19.040000000000003Z M74.322 -11.05V0.0H70.48000000000002V-10.472000000000001Q70.48000000000002 -12.988000000000001 69.22200000000001 -14.331000000000001Q67.96400000000001 -15.674000000000001 65.78800000000001 -15.674000000000001Q63.61200000000001 -15.674000000000001 62.33700000000001 -14.331000000000001Q61.06200000000001 -12.988000000000001 61.06200000000001 -10.472000000000001V0.0H57.18600000000001V-25.16H61.06200000000001V-16.558Q62.04800000000001 -17.748 63.56100000000001 -18.394000000000002Q65.07400000000001 -19.040000000000003 66.876 -19.040000000000003Q69.01800000000001 -19.040000000000003 70.70100000000002 -18.122Q72.38400000000001 -17.204 73.35300000000001 -15.402000000000001Q74.322 -13.600000000000001 74.322 -11.05Z M78.59400000000002 -9.384Q78.59400000000002 -12.24 79.85200000000003 -14.45Q81.11000000000003 -16.66 83.28600000000003 -17.85Q85.46200000000002 -19.040000000000003 88.14800000000002 -19.040000000000003Q90.83400000000002 -19.040000000000003 93.01000000000002 -17.85Q95.18600000000002 -16.66 96.44400000000002 -14.45Q97.70200000000003 -12.24 97.70200000000003 -9.384Q97.70200000000003 -6.5280000000000005 96.41000000000003 -4.3180000000000005Q95.11800000000002 -2.108 92.89100000000002 -0.901Q90.66400000000002 0.30600000000000005 87.97800000000002 0.30600000000000005Q85.32600000000002 0.30600000000000005 83.18400000000003 -0.901Q81.04200000000002 -2.108 79.81800000000001 -4.301Q78.59400000000002 -6.494000000000001 78.59400000000002 -9.384ZM93.72400000000002 -9.384Q93.72400000000002 -11.424000000000001 92.94200000000002 -12.835Q92.16000000000003 -14.246 90.86800000000002 -14.96Q89.57600000000002 -15.674000000000001 88.08000000000003 -15.674000000000001Q86.58400000000002 -15.674000000000001 85.30900000000003 -14.96Q84.03400000000002 -14.246 83.28600000000003 -12.835Q82.53800000000003 -11.424000000000001 82.53800000000003 -9.384Q82.53800000000003 -6.3580000000000005 84.08500000000002 -4.7090000000000005Q85.63200000000002 -3.06 87.97800000000002 -3.06Q89.47400000000002 -3.06 90.78300000000002 -3.774Q92.09200000000003 -4.488 92.90800000000002 -5.916Q93.72400000000002 -7.344 93.72400000000002 -9.384Z" fill="#15213D"/></g></g></g>
<rect x="160" y="252" width="430" height="150" rx="14" fill="#0E1426"/>
<g transform="translate(180,256) scale(1.5)"><g><g><path d="M 86.531 32.386 L 86.968 33.368 L 87.304 34.398 L 87.537 35.473 L 87.668 36.591 L 87.695 37.748 L 87.619 38.942 L 87.440 40.169 L 87.158 41.425 L 86.775 42.708 L 86.290 44.013 L 85.707 45.337 L 85.025 46.678 L 84.247 48.029 L 83.375 49.389 L 82.412 50.754 L 81.360 52.119 L 80.223 53.481 L 79.002 54.836 L 77.702 56.181 L 76.326 57.512 L 74.877 58.824 L 73.361 60.116 L 71.780 61.382 L 70.140 62.620 L 68.445 63.826 L 66.699 64.996 L 64.907 66.129 L 63.074 67.220 L 61.206 68.266 L 59.307 69.266 L 57.382 70.215 L 55.437 71.111 L 53.477 71.953 L 51.508 72.736 L 49.535 73.461 L 47.563 74.124 L 45.597 74.723 L 43.644 75.257 L 41.708 75.725 L 39.794 76.125 L 37.909 76.457 L 36.057 76.718 L 34.243 76.909 L 32.472 77.029 L 30.749 77.078 L 29.079 77.055 L 27.467 76.960 L 25.916 76.795 L 24.431 76.559 L 23.016 76.253 L 21.676 75.877 L 20.412 75.434 L 19.230 74.923 L 18.133 74.347 L 17.122 73.707 L 16.202 73.004 L 15.374 72.242 L 14.642 71.421 L 14.006 70.544 L 13.469 69.614 L 13.032 68.632 L 12.696 67.602 L 12.463 66.527 L 12.332 65.409 L 12.305 64.252 L 12.381 63.058 L 12.560 61.831 L 12.842 60.575 L 13.225 59.292 L 13.710 57.987 L 14.293 56.663 L 14.975 55.322 L 15.753 53.971 L 16.625 52.611 L 17.588 51.246 L 18.640 49.881 L 19.777 48.519 L 20.998 47.164 L 22.298 45.819 L 23.674 44.488 L 25.123 43.176 L 26.639 41.884 L 28.220 40.618 L 29.860 39.380 L 31.555 38.174 L 33.301 37.004 L 35.093 35.871 L 36.926 34.780 L 38.794 33.734 L 40.693 32.734 L 42.618 31.785 L 44.563 30.889 L 46.523 30.047 L 48.492 29.264 L 50.465 28.539 L 52.437 27.876 L 54.403 27.277 L 56.356 26.743 L 58.292 26.275 L 60.206 25.875 L 62.091 25.543 L 63.943 25.282 L 65.757 25.091 L 67.528 24.971 L 69.251 24.922 L 70.921 24.945 L 72.533 25.040 L 74.084 25.205 L 75.569 25.441 L 76.984 25.747 L 78.324 26.123 L 79.588 26.566 L 80.770 27.077 L 81.867 27.653 L 82.878 28.293 L 83.798 28.996 L 84.626 29.758 L 85.358 30.579 L 85.994 31.456 L 86.531 32.386 Z" fill="none" stroke="#5C6A8F" stroke-width="1.9"/>
<path d="M 64.256 43.736 L 64.427 44.119 L 64.558 44.521 L 64.649 44.941 L 64.700 45.377 L 64.710 45.829 L 64.681 46.294 L 64.611 46.773 L 64.501 47.263 L 64.351 47.764 L 64.162 48.273 L 63.934 48.790 L 63.668 49.313 L 63.365 49.841 L 63.025 50.372 L 62.649 50.904 L 62.238 51.437 L 61.794 51.968 L 61.318 52.497 L 60.810 53.022 L 60.273 53.541 L 59.708 54.053 L 59.116 54.557 L 58.500 55.051 L 57.860 55.535 L 57.198 56.005 L 56.517 56.462 L 55.817 56.904 L 55.102 57.330 L 54.373 57.738 L 53.632 58.128 L 52.881 58.498 L 52.122 58.848 L 51.357 59.177 L 50.589 59.483 L 49.818 59.765 L 49.049 60.024 L 48.282 60.258 L 47.519 60.466 L 46.764 60.649 L 46.017 60.805 L 45.282 60.934 L 44.559 61.036 L 43.851 61.111 L 43.160 61.158 L 42.488 61.177 L 41.836 61.168 L 41.207 61.131 L 40.601 61.066 L 40.022 60.974 L 39.470 60.855 L 38.947 60.708 L 38.454 60.535 L 37.992 60.336 L 37.564 60.111 L 37.170 59.861 L 36.811 59.587 L 36.488 59.289 L 36.202 58.969 L 35.954 58.627 L 35.744 58.264 L 35.573 57.881 L 35.442 57.479 L 35.351 57.059 L 35.300 56.623 L 35.290 56.171 L 35.319 55.706 L 35.389 55.227 L 35.499 54.737 L 35.649 54.236 L 35.838 53.727 L 36.066 53.210 L 36.332 52.687 L 36.635 52.159 L 36.975 51.628 L 37.351 51.096 L 37.762 50.563 L 38.206 50.032 L 38.682 49.503 L 39.190 48.978 L 39.727 48.459 L 40.292 47.947 L 40.884 47.443 L 41.500 46.949 L 42.140 46.465 L 42.802 45.995 L 43.483 45.538 L 44.183 45.096 L 44.898 44.670 L 45.627 44.262 L 46.368 43.872 L 47.119 43.502 L 47.878 43.152 L 48.643 42.823 L 49.411 42.517 L 50.182 42.235 L 50.951 41.976 L 51.718 41.742 L 52.481 41.534 L 53.236 41.351 L 53.983 41.195 L 54.718 41.066 L 55.441 40.964 L 56.149 40.889 L 56.840 40.842 L 57.512 40.823 L 58.164 40.832 L 58.793 40.869 L 59.399 40.934 L 59.978 41.026 L 60.530 41.145 L 61.053 41.292 L 61.546 41.465 L 62.008 41.664 L 62.436 41.889 L 62.830 42.139 L 63.189 42.413 L 63.512 42.711 L 63.798 43.031 L 64.046 43.373 L 64.256 43.736 Z" fill="none" stroke="#5C6A8F" stroke-width="1.4" stroke-dasharray="2.0 2.7" opacity="0.9"/>
<path d="M 35.421 55.065 L 35.403 54.769 L 35.402 54.465 L 35.419 54.153 L 35.455 53.833 L 35.509 53.505 L 35.582 53.170 L 35.674 52.828 L 35.785 52.479 L 35.915 52.124 L 36.064 51.764 L 36.233 51.398 L 36.420 51.027 L 36.626 50.651 L 36.852 50.272 L 37.096 49.889 L 37.360 49.502 L 37.642 49.113 L 37.942 48.722 L 38.261 48.329 L 38.598 47.934 L 38.954 47.539 L 39.326 47.143 L 39.717 46.748 L 40.124 46.353 L 40.548 45.960 L 40.988 45.568 L 41.445 45.179 L 41.917 44.792 L 42.404 44.409 L 42.906 44.030 L 43.422 43.655 L 43.951 43.285 L 44.494 42.920 L 45.050 42.561 L 45.617 42.209 L 46.196 41.864 L 46.785 41.526 L 47.385 41.196 L 47.994 40.875 L 48.612 40.562 L 49.238 40.259 L 49.872 39.967 L 50.512 39.684 L 51.158 39.412 L 51.809 39.152 L 52.465 38.904 L 53.124 38.667 L 53.786 38.443 L 54.450 38.233 L 55.115 38.035 L 55.781 37.852 L 56.446 37.682 L 57.110 37.527 L 57.771 37.387 L 58.430 37.262 L 59.085 37.152 L 59.735 37.058 L 60.380 36.980 L 61.018 36.919 L 61.649 36.873 L 62.271 36.845 L 62.885 36.833 L 63.489 36.838 L 64.082 36.860 L 64.664 36.899 L 65.233 36.956 L 65.789 37.031 L 66.332 37.122 L 66.859 37.232 L 67.371 37.359 L 67.867 37.503 L 68.346 37.665 L 68.806 37.844 L 69.249 38.041 L 69.672 38.256 L 70.075 38.487 L 70.457 38.735 L 70.819 39.001 L 71.158 39.283 L 71.475 39.581 L 71.769 39.896 L 72.039 40.227 L 72.286 40.574 L 72.507 40.936 L 72.704 41.313 L 72.875 41.705 L 73.020 42.111 L 73.138 42.531 L 73.230 42.965 L 73.295 43.413 L 73.332 43.873 L 73.342 44.345 L 73.324 44.829 L 73.278 45.324 L 73.204 45.831 L 73.102 46.347 L 72.971 46.873 L 72.811 47.409 L 72.623 47.953 L 72.407 48.505 L 72.162 49.064 L 71.888 49.630 L 71.587 50.202 L 71.257 50.779 L 70.899 51.362 L 70.514 51.948 L 70.101 52.538 L 69.661 53.130 L 69.194 53.725 L 68.701 54.320 L 68.182 54.917 L 67.637 55.513 L 67.067 56.108 L 66.472 56.702 L 65.854 57.293 L 65.211 57.882 L 64.546 58.466 L 63.859 59.046 L 63.150 59.621 L 62.420 60.190 L 61.671 60.751 L 60.901 61.306 L 60.114 61.852 L 59.308 62.389 L 58.486 62.917 L 57.647 63.434 L 56.794 63.940 L 55.926 64.435 L 55.045 64.917 L 54.152 65.386 L 53.248 65.841 L 52.333 66.282 L 51.409 66.707 L 50.477 67.117 L 49.538 67.511 L 48.593 67.888 L 47.643 68.248 L 46.690 68.589 L 45.733 68.912 L 44.776 69.216 L 43.817 69.501 L 42.860 69.765 L 41.905 70.009 L 40.952 70.233 L 40.004 70.434 L 39.062 70.615 L 38.126 70.773 L 37.198 70.909 L 36.279 71.022 L 35.370 71.112 L 34.472 71.179 L 33.587 71.223 L 32.716 71.243 L 31.859 71.239 L 31.018 71.211 L 30.194 71.159 L 29.388 71.083 L 28.602 70.983 L 27.835 70.858 L 27.090 70.709 L 26.367 70.536 L 25.668 70.339 L 24.993 70.117 L 24.343 69.872 L 23.719 69.602 L 23.123 69.309 L 22.554 68.993 L 22.014 68.653 L 21.504 68.290 L 21.025 67.905 L 20.577 67.497 L 20.160 67.067 L 19.777 66.616 L 19.426 66.144 L 19.110 65.650 L 18.828 65.137 L 18.582 64.603 L 18.370 64.050 L 18.195 63.479 L 18.057 62.889 L 17.955 62.282 L 17.890 61.658 L 17.863 61.017 L 17.874 60.361 L 17.922 59.690 L 18.009 59.005 L 18.134 58.306 L 18.297 57.595 L 18.499 56.871 L 18.738 56.137 L 19.017 55.392 L 19.333 54.638 L 19.687 53.874 L 20.079 53.104 L 20.508 52.326 L 20.975 51.542 L 21.479 50.753 L 22.019 49.960 L 22.595 49.163 L 23.206 48.364 L 23.853 47.564 L 24.534 46.763 L 25.249 45.963 L 25.997 45.164 L 26.777 44.368 L 27.590 43.574 L 28.433 42.786 L 29.306 42.002 L 30.208 41.225 L 31.139 40.455 L 32.097 39.693 L 33.081 38.940 L 34.091 38.197 L 35.125 37.465 L 36.181 36.745 L 37.260 36.038 L 38.360 35.345 L 39.480 34.666 L 40.618 34.003 L 41.773 33.357 L 42.944 32.727 L 44.129 32.116 L 45.328 31.524 L 46.538 30.951 L 47.759 30.399 L 48.989 29.868 L 50.227 29.360 L 51.471 28.874 L 52.720 28.411 L 53.973 27.973 L 55.227 27.559 L 56.481 27.171 L 57.735 26.808 L 58.986 26.473 L 60.232 26.164 L 61.473 25.883 L 62.708 25.630 L 63.933 25.405 L 65.149 25.210 L 66.352 25.043" fill="none" stroke="#F2B454" stroke-width="2.7" stroke-linecap="round"/>
<circle cx="53.786" cy="38.443" r="1.900" fill="#F8C766"/>
<circle cx="73.102" cy="46.347" r="1.900" fill="#F8C766"/>
<circle cx="40.952" cy="70.233" r="1.900" fill="#F8C766"/>
<circle cx="19.333" cy="54.638" r="1.900" fill="#F8C766"/>
<circle cx="35.421" cy="55.065" r="2.400" fill="#EEF2FB" stroke="#F2B454" stroke-width="1.300"/>
<circle cx="66.352" cy="25.043" r="3.400" fill="none" stroke="#F2B454" stroke-width="1.500"/>
<circle cx="66.352" cy="25.043" r="1.500" fill="#F8C766"/>
<circle cx="50.000" cy="51.000" r="7.400" fill="#EEF2FB"/>
<circle cx="47.700" cy="49.100" r="1.500" fill="#5C6A8F" opacity="0.32"/>
<circle cx="52.100" cy="52.500" r="1.050" fill="#5C6A8F" opacity="0.32"/>
<circle cx="50.200" cy="53.700" r="0.700" fill="#5C6A8F" opacity="0.32"/></g><g transform="translate(108.00,58.18)"><path d="M7.072000000000001 -15.572000000000001V-5.202Q7.072000000000001 -4.148000000000001 7.565 -3.6890000000000005Q8.058 -3.2300000000000004 9.248000000000001 -3.2300000000000004H11.628V0.0H8.568000000000001Q5.95 0.0 4.556 -1.2240000000000002Q3.1620000000000004 -2.4480000000000004 3.1620000000000004 -5.202V-15.572000000000001H0.9520000000000001V-18.734H3.1620000000000004V-23.392000000000003H7.072000000000001V-18.734H11.628V-15.572000000000001Z M32.662000000000006 -18.734 21.17 8.806000000000001H17.158L20.966 -0.30600000000000005L13.588000000000001 -18.734H17.906000000000002L23.176000000000002 -4.454000000000001L28.650000000000002 -18.734Z M44.074000000000005 -19.040000000000003Q47.474000000000004 -19.040000000000003 49.70100000000001 -17.425Q51.928000000000004 -15.81 52.71000000000001 -12.818000000000001H48.528000000000006Q48.018 -14.212000000000002 46.896 -14.994000000000002Q45.774 -15.776000000000002 44.074000000000005 -15.776000000000002Q41.694 -15.776000000000002 40.283 -14.093Q38.872 -12.41 38.872 -9.384Q38.872 -6.3580000000000005 40.283 -4.658Q41.694 -2.958 44.074000000000005 -2.958Q47.440000000000005 -2.958 48.528000000000006 -5.916H52.71000000000001Q51.894000000000005 -3.06 49.650000000000006 -1.377Q47.406000000000006 0.30600000000000005 44.074000000000005 0.30600000000000005Q41.388000000000005 0.30600000000000005 39.31400000000001 -0.901Q37.24 -2.108 36.06700000000001 -4.301Q34.894000000000005 -6.494000000000001 34.894000000000005 -9.384Q34.894000000000005 -12.274000000000001 36.06700000000001 -14.467Q37.24 -16.66 39.31400000000001 -17.85Q41.388000000000005 -19.040000000000003 44.074000000000005 -19.040000000000003Z M74.322 -11.05V0.0H70.48000000000002V-10.472000000000001Q70.48000000000002 -12.988000000000001 69.22200000000001 -14.331000000000001Q67.96400000000001 -15.674000000000001 65.78800000000001 -15.674000000000001Q63.61200000000001 -15.674000000000001 62.33700000000001 -14.331000000000001Q61.06200000000001 -12.988000000000001 61.06200000000001 -10.472000000000001V0.0H57.18600000000001V-25.16H61.06200000000001V-16.558Q62.04800000000001 -17.748 63.56100000000001 -18.394000000000002Q65.07400000000001 -19.040000000000003 66.876 -19.040000000000003Q69.01800000000001 -19.040000000000003 70.70100000000002 -18.122Q72.38400000000001 -17.204 73.35300000000001 -15.402000000000001Q74.322 -13.600000000000001 74.322 -11.05Z M78.59400000000002 -9.384Q78.59400000000002 -12.24 79.85200000000003 -14.45Q81.11000000000003 -16.66 83.28600000000003 -17.85Q85.46200000000002 -19.040000000000003 88.14800000000002 -19.040000000000003Q90.83400000000002 -19.040000000000003 93.01000000000002 -17.85Q95.18600000000002 -16.66 96.44400000000002 -14.45Q97.70200000000003 -12.24 97.70200000000003 -9.384Q97.70200000000003 -6.5280000000000005 96.41000000000003 -4.3180000000000005Q95.11800000000002 -2.108 92.89100000000002 -0.901Q90.66400000000002 0.30600000000000005 87.97800000000002 0.30600000000000005Q85.32600000000002 0.30600000000000005 83.18400000000003 -0.901Q81.04200000000002 -2.108 79.81800000000001 -4.301Q78.59400000000002 -6.494000000000001 78.59400000000002 -9.384ZM93.72400000000002 -9.384Q93.72400000000002 -11.424000000000001 92.94200000000002 -12.835Q92.16000000000003 -14.246 90.86800000000002 -14.96Q89.57600000000002 -15.674000000000001 88.08000000000003 -15.674000000000001Q86.58400000000002 -15.674000000000001 85.30900000000003 -14.96Q84.03400000000002 -14.246 83.28600000000003 -12.835Q82.53800000000003 -11.424000000000001 82.53800000000003 -9.384Q82.53800000000003 -6.3580000000000005 84.08500000000002 -4.7090000000000005Q85.63200000000002 -3.06 87.97800000000002 -3.06Q89.47400000000002 -3.06 90.78300000000002 -3.774Q92.09200000000003 -4.488 92.90800000000002 -5.916Q93.72400000000002 -7.344 93.72400000000002 -9.384Z" fill="#EEF2FB"/></g></g></g>
<rect x="612" y="78" width="150" height="150" rx="14" fill="#FFFFFF" stroke="#E4E7EE"/>
<g transform="translate(617,83) scale(1.4)"><path d="M 86.531 32.386 L 86.968 33.368 L 87.304 34.398 L 87.537 35.473 L 87.668 36.591 L 87.695 37.748 L 87.619 38.942 L 87.440 40.169 L 87.158 41.425 L 86.775 42.708 L 86.290 44.013 L 85.707 45.337 L 85.025 46.678 L 84.247 48.029 L 83.375 49.389 L 82.412 50.754 L 81.360 52.119 L 80.223 53.481 L 79.002 54.836 L 77.702 56.181 L 76.326 57.512 L 74.877 58.824 L 73.361 60.116 L 71.780 61.382 L 70.140 62.620 L 68.445 63.826 L 66.699 64.996 L 64.907 66.129 L 63.074 67.220 L 61.206 68.266 L 59.307 69.266 L 57.382 70.215 L 55.437 71.111 L 53.477 71.953 L 51.508 72.736 L 49.535 73.461 L 47.563 74.124 L 45.597 74.723 L 43.644 75.257 L 41.708 75.725 L 39.794 76.125 L 37.909 76.457 L 36.057 76.718 L 34.243 76.909 L 32.472 77.029 L 30.749 77.078 L 29.079 77.055 L 27.467 76.960 L 25.916 76.795 L 24.431 76.559 L 23.016 76.253 L 21.676 75.877 L 20.412 75.434 L 19.230 74.923 L 18.133 74.347 L 17.122 73.707 L 16.202 73.004 L 15.374 72.242 L 14.642 71.421 L 14.006 70.544 L 13.469 69.614 L 13.032 68.632 L 12.696 67.602 L 12.463 66.527 L 12.332 65.409 L 12.305 64.252 L 12.381 63.058 L 12.560 61.831 L 12.842 60.575 L 13.225 59.292 L 13.710 57.987 L 14.293 56.663 L 14.975 55.322 L 15.753 53.971 L 16.625 52.611 L 17.588 51.246 L 18.640 49.881 L 19.777 48.519 L 20.998 47.164 L 22.298 45.819 L 23.674 44.488 L 25.123 43.176 L 26.639 41.884 L 28.220 40.618 L 29.860 39.380 L 31.555 38.174 L 33.301 37.004 L 35.093 35.871 L 36.926 34.780 L 38.794 33.734 L 40.693 32.734 L 42.618 31.785 L 44.563 30.889 L 46.523 30.047 L 48.492 29.264 L 50.465 28.539 L 52.437 27.876 L 54.403 27.277 L 56.356 26.743 L 58.292 26.275 L 60.206 25.875 L 62.091 25.543 L 63.943 25.282 L 65.757 25.091 L 67.528 24.971 L 69.251 24.922 L 70.921 24.945 L 72.533 25.040 L 74.084 25.205 L 75.569 25.441 L 76.984 25.747 L 78.324 26.123 L 79.588 26.566 L 80.770 27.077 L 81.867 27.653 L 82.878 28.293 L 83.798 28.996 L 84.626 29.758 L 85.358 30.579 L 85.994 31.456 L 86.531 32.386 Z" fill="none" stroke="#A4AFC8" stroke-width="1.9"/>
<path d="M 64.256 43.736 L 64.427 44.119 L 64.558 44.521 L 64.649 44.941 L 64.700 45.377 L 64.710 45.829 L 64.681 46.294 L 64.611 46.773 L 64.501 47.263 L 64.351 47.764 L 64.162 48.273 L 63.934 48.790 L 63.668 49.313 L 63.365 49.841 L 63.025 50.372 L 62.649 50.904 L 62.238 51.437 L 61.794 51.968 L 61.318 52.497 L 60.810 53.022 L 60.273 53.541 L 59.708 54.053 L 59.116 54.557 L 58.500 55.051 L 57.860 55.535 L 57.198 56.005 L 56.517 56.462 L 55.817 56.904 L 55.102 57.330 L 54.373 57.738 L 53.632 58.128 L 52.881 58.498 L 52.122 58.848 L 51.357 59.177 L 50.589 59.483 L 49.818 59.765 L 49.049 60.024 L 48.282 60.258 L 47.519 60.466 L 46.764 60.649 L 46.017 60.805 L 45.282 60.934 L 44.559 61.036 L 43.851 61.111 L 43.160 61.158 L 42.488 61.177 L 41.836 61.168 L 41.207 61.131 L 40.601 61.066 L 40.022 60.974 L 39.470 60.855 L 38.947 60.708 L 38.454 60.535 L 37.992 60.336 L 37.564 60.111 L 37.170 59.861 L 36.811 59.587 L 36.488 59.289 L 36.202 58.969 L 35.954 58.627 L 35.744 58.264 L 35.573 57.881 L 35.442 57.479 L 35.351 57.059 L 35.300 56.623 L 35.290 56.171 L 35.319 55.706 L 35.389 55.227 L 35.499 54.737 L 35.649 54.236 L 35.838 53.727 L 36.066 53.210 L 36.332 52.687 L 36.635 52.159 L 36.975 51.628 L 37.351 51.096 L 37.762 50.563 L 38.206 50.032 L 38.682 49.503 L 39.190 48.978 L 39.727 48.459 L 40.292 47.947 L 40.884 47.443 L 41.500 46.949 L 42.140 46.465 L 42.802 45.995 L 43.483 45.538 L 44.183 45.096 L 44.898 44.670 L 45.627 44.262 L 46.368 43.872 L 47.119 43.502 L 47.878 43.152 L 48.643 42.823 L 49.411 42.517 L 50.182 42.235 L 50.951 41.976 L 51.718 41.742 L 52.481 41.534 L 53.236 41.351 L 53.983 41.195 L 54.718 41.066 L 55.441 40.964 L 56.149 40.889 L 56.840 40.842 L 57.512 40.823 L 58.164 40.832 L 58.793 40.869 L 59.399 40.934 L 59.978 41.026 L 60.530 41.145 L 61.053 41.292 L 61.546 41.465 L 62.008 41.664 L 62.436 41.889 L 62.830 42.139 L 63.189 42.413 L 63.512 42.711 L 63.798 43.031 L 64.046 43.373 L 64.256 43.736 Z" fill="none" stroke="#A4AFC8" stroke-width="1.4" stroke-dasharray="2.0 2.7" opacity="0.9"/>
<path d="M 35.421 55.065 L 35.403 54.769 L 35.402 54.465 L 35.419 54.153 L 35.455 53.833 L 35.509 53.505 L 35.582 53.170 L 35.674 52.828 L 35.785 52.479 L 35.915 52.124 L 36.064 51.764 L 36.233 51.398 L 36.420 51.027 L 36.626 50.651 L 36.852 50.272 L 37.096 49.889 L 37.360 49.502 L 37.642 49.113 L 37.942 48.722 L 38.261 48.329 L 38.598 47.934 L 38.954 47.539 L 39.326 47.143 L 39.717 46.748 L 40.124 46.353 L 40.548 45.960 L 40.988 45.568 L 41.445 45.179 L 41.917 44.792 L 42.404 44.409 L 42.906 44.030 L 43.422 43.655 L 43.951 43.285 L 44.494 42.920 L 45.050 42.561 L 45.617 42.209 L 46.196 41.864 L 46.785 41.526 L 47.385 41.196 L 47.994 40.875 L 48.612 40.562 L 49.238 40.259 L 49.872 39.967 L 50.512 39.684 L 51.158 39.412 L 51.809 39.152 L 52.465 38.904 L 53.124 38.667 L 53.786 38.443 L 54.450 38.233 L 55.115 38.035 L 55.781 37.852 L 56.446 37.682 L 57.110 37.527 L 57.771 37.387 L 58.430 37.262 L 59.085 37.152 L 59.735 37.058 L 60.380 36.980 L 61.018 36.919 L 61.649 36.873 L 62.271 36.845 L 62.885 36.833 L 63.489 36.838 L 64.082 36.860 L 64.664 36.899 L 65.233 36.956 L 65.789 37.031 L 66.332 37.122 L 66.859 37.232 L 67.371 37.359 L 67.867 37.503 L 68.346 37.665 L 68.806 37.844 L 69.249 38.041 L 69.672 38.256 L 70.075 38.487 L 70.457 38.735 L 70.819 39.001 L 71.158 39.283 L 71.475 39.581 L 71.769 39.896 L 72.039 40.227 L 72.286 40.574 L 72.507 40.936 L 72.704 41.313 L 72.875 41.705 L 73.020 42.111 L 73.138 42.531 L 73.230 42.965 L 73.295 43.413 L 73.332 43.873 L 73.342 44.345 L 73.324 44.829 L 73.278 45.324 L 73.204 45.831 L 73.102 46.347 L 72.971 46.873 L 72.811 47.409 L 72.623 47.953 L 72.407 48.505 L 72.162 49.064 L 71.888 49.630 L 71.587 50.202 L 71.257 50.779 L 70.899 51.362 L 70.514 51.948 L 70.101 52.538 L 69.661 53.130 L 69.194 53.725 L 68.701 54.320 L 68.182 54.917 L 67.637 55.513 L 67.067 56.108 L 66.472 56.702 L 65.854 57.293 L 65.211 57.882 L 64.546 58.466 L 63.859 59.046 L 63.150 59.621 L 62.420 60.190 L 61.671 60.751 L 60.901 61.306 L 60.114 61.852 L 59.308 62.389 L 58.486 62.917 L 57.647 63.434 L 56.794 63.940 L 55.926 64.435 L 55.045 64.917 L 54.152 65.386 L 53.248 65.841 L 52.333 66.282 L 51.409 66.707 L 50.477 67.117 L 49.538 67.511 L 48.593 67.888 L 47.643 68.248 L 46.690 68.589 L 45.733 68.912 L 44.776 69.216 L 43.817 69.501 L 42.860 69.765 L 41.905 70.009 L 40.952 70.233 L 40.004 70.434 L 39.062 70.615 L 38.126 70.773 L 37.198 70.909 L 36.279 71.022 L 35.370 71.112 L 34.472 71.179 L 33.587 71.223 L 32.716 71.243 L 31.859 71.239 L 31.018 71.211 L 30.194 71.159 L 29.388 71.083 L 28.602 70.983 L 27.835 70.858 L 27.090 70.709 L 26.367 70.536 L 25.668 70.339 L 24.993 70.117 L 24.343 69.872 L 23.719 69.602 L 23.123 69.309 L 22.554 68.993 L 22.014 68.653 L 21.504 68.290 L 21.025 67.905 L 20.577 67.497 L 20.160 67.067 L 19.777 66.616 L 19.426 66.144 L 19.110 65.650 L 18.828 65.137 L 18.582 64.603 L 18.370 64.050 L 18.195 63.479 L 18.057 62.889 L 17.955 62.282 L 17.890 61.658 L 17.863 61.017 L 17.874 60.361 L 17.922 59.690 L 18.009 59.005 L 18.134 58.306 L 18.297 57.595 L 18.499 56.871 L 18.738 56.137 L 19.017 55.392 L 19.333 54.638 L 19.687 53.874 L 20.079 53.104 L 20.508 52.326 L 20.975 51.542 L 21.479 50.753 L 22.019 49.960 L 22.595 49.163 L 23.206 48.364 L 23.853 47.564 L 24.534 46.763 L 25.249 45.963 L 25.997 45.164 L 26.777 44.368 L 27.590 43.574 L 28.433 42.786 L 29.306 42.002 L 30.208 41.225 L 31.139 40.455 L 32.097 39.693 L 33.081 38.940 L 34.091 38.197 L 35.125 37.465 L 36.181 36.745 L 37.260 36.038 L 38.360 35.345 L 39.480 34.666 L 40.618 34.003 L 41.773 33.357 L 42.944 32.727 L 44.129 32.116 L 45.328 31.524 L 46.538 30.951 L 47.759 30.399 L 48.989 29.868 L 50.227 29.360 L 51.471 28.874 L 52.720 28.411 L 53.973 27.973 L 55.227 27.559 L 56.481 27.171 L 57.735 26.808 L 58.986 26.473 L 60.232 26.164 L 61.473 25.883 L 62.708 25.630 L 63.933 25.405 L 65.149 25.210 L 66.352 25.043" fill="none" stroke="#D9952A" stroke-width="2.7" stroke-linecap="round"/>
<circle cx="53.786" cy="38.443" r="1.900" fill="#F0B441"/>
<circle cx="73.102" cy="46.347" r="1.900" fill="#F0B441"/>
<circle cx="40.952" cy="70.233" r="1.900" fill="#F0B441"/>
<circle cx="19.333" cy="54.638" r="1.900" fill="#F0B441"/>
<circle cx="35.421" cy="55.065" r="2.400" fill="#15213D" stroke="#D9952A" stroke-width="1.300"/>
<circle cx="66.352" cy="25.043" r="3.400" fill="none" stroke="#D9952A" stroke-width="1.500"/>
<circle cx="66.352" cy="25.043" r="1.500" fill="#F0B441"/>
<circle cx="50.000" cy="51.000" r="7.400" fill="#15213D"/>
<circle cx="47.700" cy="49.100" r="1.500" fill="#A4AFC8" opacity="0.32"/>
<circle cx="52.100" cy="52.500" r="1.050" fill="#A4AFC8" opacity="0.32"/>
<circle cx="50.200" cy="53.700" r="0.700" fill="#A4AFC8" opacity="0.32"/></g>
<rect x="612" y="252" width="150" height="150" rx="14" fill="#0E1426"/>
<g transform="translate(617,257) scale(1.4)"><path d="M 86.531 32.386 L 86.968 33.368 L 87.304 34.398 L 87.537 35.473 L 87.668 36.591 L 87.695 37.748 L 87.619 38.942 L 87.440 40.169 L 87.158 41.425 L 86.775 42.708 L 86.290 44.013 L 85.707 45.337 L 85.025 46.678 L 84.247 48.029 L 83.375 49.389 L 82.412 50.754 L 81.360 52.119 L 80.223 53.481 L 79.002 54.836 L 77.702 56.181 L 76.326 57.512 L 74.877 58.824 L 73.361 60.116 L 71.780 61.382 L 70.140 62.620 L 68.445 63.826 L 66.699 64.996 L 64.907 66.129 L 63.074 67.220 L 61.206 68.266 L 59.307 69.266 L 57.382 70.215 L 55.437 71.111 L 53.477 71.953 L 51.508 72.736 L 49.535 73.461 L 47.563 74.124 L 45.597 74.723 L 43.644 75.257 L 41.708 75.725 L 39.794 76.125 L 37.909 76.457 L 36.057 76.718 L 34.243 76.909 L 32.472 77.029 L 30.749 77.078 L 29.079 77.055 L 27.467 76.960 L 25.916 76.795 L 24.431 76.559 L 23.016 76.253 L 21.676 75.877 L 20.412 75.434 L 19.230 74.923 L 18.133 74.347 L 17.122 73.707 L 16.202 73.004 L 15.374 72.242 L 14.642 71.421 L 14.006 70.544 L 13.469 69.614 L 13.032 68.632 L 12.696 67.602 L 12.463 66.527 L 12.332 65.409 L 12.305 64.252 L 12.381 63.058 L 12.560 61.831 L 12.842 60.575 L 13.225 59.292 L 13.710 57.987 L 14.293 56.663 L 14.975 55.322 L 15.753 53.971 L 16.625 52.611 L 17.588 51.246 L 18.640 49.881 L 19.777 48.519 L 20.998 47.164 L 22.298 45.819 L 23.674 44.488 L 25.123 43.176 L 26.639 41.884 L 28.220 40.618 L 29.860 39.380 L 31.555 38.174 L 33.301 37.004 L 35.093 35.871 L 36.926 34.780 L 38.794 33.734 L 40.693 32.734 L 42.618 31.785 L 44.563 30.889 L 46.523 30.047 L 48.492 29.264 L 50.465 28.539 L 52.437 27.876 L 54.403 27.277 L 56.356 26.743 L 58.292 26.275 L 60.206 25.875 L 62.091 25.543 L 63.943 25.282 L 65.757 25.091 L 67.528 24.971 L 69.251 24.922 L 70.921 24.945 L 72.533 25.040 L 74.084 25.205 L 75.569 25.441 L 76.984 25.747 L 78.324 26.123 L 79.588 26.566 L 80.770 27.077 L 81.867 27.653 L 82.878 28.293 L 83.798 28.996 L 84.626 29.758 L 85.358 30.579 L 85.994 31.456 L 86.531 32.386 Z" fill="none" stroke="#5C6A8F" stroke-width="1.9"/>
<path d="M 64.256 43.736 L 64.427 44.119 L 64.558 44.521 L 64.649 44.941 L 64.700 45.377 L 64.710 45.829 L 64.681 46.294 L 64.611 46.773 L 64.501 47.263 L 64.351 47.764 L 64.162 48.273 L 63.934 48.790 L 63.668 49.313 L 63.365 49.841 L 63.025 50.372 L 62.649 50.904 L 62.238 51.437 L 61.794 51.968 L 61.318 52.497 L 60.810 53.022 L 60.273 53.541 L 59.708 54.053 L 59.116 54.557 L 58.500 55.051 L 57.860 55.535 L 57.198 56.005 L 56.517 56.462 L 55.817 56.904 L 55.102 57.330 L 54.373 57.738 L 53.632 58.128 L 52.881 58.498 L 52.122 58.848 L 51.357 59.177 L 50.589 59.483 L 49.818 59.765 L 49.049 60.024 L 48.282 60.258 L 47.519 60.466 L 46.764 60.649 L 46.017 60.805 L 45.282 60.934 L 44.559 61.036 L 43.851 61.111 L 43.160 61.158 L 42.488 61.177 L 41.836 61.168 L 41.207 61.131 L 40.601 61.066 L 40.022 60.974 L 39.470 60.855 L 38.947 60.708 L 38.454 60.535 L 37.992 60.336 L 37.564 60.111 L 37.170 59.861 L 36.811 59.587 L 36.488 59.289 L 36.202 58.969 L 35.954 58.627 L 35.744 58.264 L 35.573 57.881 L 35.442 57.479 L 35.351 57.059 L 35.300 56.623 L 35.290 56.171 L 35.319 55.706 L 35.389 55.227 L 35.499 54.737 L 35.649 54.236 L 35.838 53.727 L 36.066 53.210 L 36.332 52.687 L 36.635 52.159 L 36.975 51.628 L 37.351 51.096 L 37.762 50.563 L 38.206 50.032 L 38.682 49.503 L 39.190 48.978 L 39.727 48.459 L 40.292 47.947 L 40.884 47.443 L 41.500 46.949 L 42.140 46.465 L 42.802 45.995 L 43.483 45.538 L 44.183 45.096 L 44.898 44.670 L 45.627 44.262 L 46.368 43.872 L 47.119 43.502 L 47.878 43.152 L 48.643 42.823 L 49.411 42.517 L 50.182 42.235 L 50.951 41.976 L 51.718 41.742 L 52.481 41.534 L 53.236 41.351 L 53.983 41.195 L 54.718 41.066 L 55.441 40.964 L 56.149 40.889 L 56.840 40.842 L 57.512 40.823 L 58.164 40.832 L 58.793 40.869 L 59.399 40.934 L 59.978 41.026 L 60.530 41.145 L 61.053 41.292 L 61.546 41.465 L 62.008 41.664 L 62.436 41.889 L 62.830 42.139 L 63.189 42.413 L 63.512 42.711 L 63.798 43.031 L 64.046 43.373 L 64.256 43.736 Z" fill="none" stroke="#5C6A8F" stroke-width="1.4" stroke-dasharray="2.0 2.7" opacity="0.9"/>
<path d="M 35.421 55.065 L 35.403 54.769 L 35.402 54.465 L 35.419 54.153 L 35.455 53.833 L 35.509 53.505 L 35.582 53.170 L 35.674 52.828 L 35.785 52.479 L 35.915 52.124 L 36.064 51.764 L 36.233 51.398 L 36.420 51.027 L 36.626 50.651 L 36.852 50.272 L 37.096 49.889 L 37.360 49.502 L 37.642 49.113 L 37.942 48.722 L 38.261 48.329 L 38.598 47.934 L 38.954 47.539 L 39.326 47.143 L 39.717 46.748 L 40.124 46.353 L 40.548 45.960 L 40.988 45.568 L 41.445 45.179 L 41.917 44.792 L 42.404 44.409 L 42.906 44.030 L 43.422 43.655 L 43.951 43.285 L 44.494 42.920 L 45.050 42.561 L 45.617 42.209 L 46.196 41.864 L 46.785 41.526 L 47.385 41.196 L 47.994 40.875 L 48.612 40.562 L 49.238 40.259 L 49.872 39.967 L 50.512 39.684 L 51.158 39.412 L 51.809 39.152 L 52.465 38.904 L 53.124 38.667 L 53.786 38.443 L 54.450 38.233 L 55.115 38.035 L 55.781 37.852 L 56.446 37.682 L 57.110 37.527 L 57.771 37.387 L 58.430 37.262 L 59.085 37.152 L 59.735 37.058 L 60.380 36.980 L 61.018 36.919 L 61.649 36.873 L 62.271 36.845 L 62.885 36.833 L 63.489 36.838 L 64.082 36.860 L 64.664 36.899 L 65.233 36.956 L 65.789 37.031 L 66.332 37.122 L 66.859 37.232 L 67.371 37.359 L 67.867 37.503 L 68.346 37.665 L 68.806 37.844 L 69.249 38.041 L 69.672 38.256 L 70.075 38.487 L 70.457 38.735 L 70.819 39.001 L 71.158 39.283 L 71.475 39.581 L 71.769 39.896 L 72.039 40.227 L 72.286 40.574 L 72.507 40.936 L 72.704 41.313 L 72.875 41.705 L 73.020 42.111 L 73.138 42.531 L 73.230 42.965 L 73.295 43.413 L 73.332 43.873 L 73.342 44.345 L 73.324 44.829 L 73.278 45.324 L 73.204 45.831 L 73.102 46.347 L 72.971 46.873 L 72.811 47.409 L 72.623 47.953 L 72.407 48.505 L 72.162 49.064 L 71.888 49.630 L 71.587 50.202 L 71.257 50.779 L 70.899 51.362 L 70.514 51.948 L 70.101 52.538 L 69.661 53.130 L 69.194 53.725 L 68.701 54.320 L 68.182 54.917 L 67.637 55.513 L 67.067 56.108 L 66.472 56.702 L 65.854 57.293 L 65.211 57.882 L 64.546 58.466 L 63.859 59.046 L 63.150 59.621 L 62.420 60.190 L 61.671 60.751 L 60.901 61.306 L 60.114 61.852 L 59.308 62.389 L 58.486 62.917 L 57.647 63.434 L 56.794 63.940 L 55.926 64.435 L 55.045 64.917 L 54.152 65.386 L 53.248 65.841 L 52.333 66.282 L 51.409 66.707 L 50.477 67.117 L 49.538 67.511 L 48.593 67.888 L 47.643 68.248 L 46.690 68.589 L 45.733 68.912 L 44.776 69.216 L 43.817 69.501 L 42.860 69.765 L 41.905 70.009 L 40.952 70.233 L 40.004 70.434 L 39.062 70.615 L 38.126 70.773 L 37.198 70.909 L 36.279 71.022 L 35.370 71.112 L 34.472 71.179 L 33.587 71.223 L 32.716 71.243 L 31.859 71.239 L 31.018 71.211 L 30.194 71.159 L 29.388 71.083 L 28.602 70.983 L 27.835 70.858 L 27.090 70.709 L 26.367 70.536 L 25.668 70.339 L 24.993 70.117 L 24.343 69.872 L 23.719 69.602 L 23.123 69.309 L 22.554 68.993 L 22.014 68.653 L 21.504 68.290 L 21.025 67.905 L 20.577 67.497 L 20.160 67.067 L 19.777 66.616 L 19.426 66.144 L 19.110 65.650 L 18.828 65.137 L 18.582 64.603 L 18.370 64.050 L 18.195 63.479 L 18.057 62.889 L 17.955 62.282 L 17.890 61.658 L 17.863 61.017 L 17.874 60.361 L 17.922 59.690 L 18.009 59.005 L 18.134 58.306 L 18.297 57.595 L 18.499 56.871 L 18.738 56.137 L 19.017 55.392 L 19.333 54.638 L 19.687 53.874 L 20.079 53.104 L 20.508 52.326 L 20.975 51.542 L 21.479 50.753 L 22.019 49.960 L 22.595 49.163 L 23.206 48.364 L 23.853 47.564 L 24.534 46.763 L 25.249 45.963 L 25.997 45.164 L 26.777 44.368 L 27.590 43.574 L 28.433 42.786 L 29.306 42.002 L 30.208 41.225 L 31.139 40.455 L 32.097 39.693 L 33.081 38.940 L 34.091 38.197 L 35.125 37.465 L 36.181 36.745 L 37.260 36.038 L 38.360 35.345 L 39.480 34.666 L 40.618 34.003 L 41.773 33.357 L 42.944 32.727 L 44.129 32.116 L 45.328 31.524 L 46.538 30.951 L 47.759 30.399 L 48.989 29.868 L 50.227 29.360 L 51.471 28.874 L 52.720 28.411 L 53.973 27.973 L 55.227 27.559 L 56.481 27.171 L 57.735 26.808 L 58.986 26.473 L 60.232 26.164 L 61.473 25.883 L 62.708 25.630 L 63.933 25.405 L 65.149 25.210 L 66.352 25.043" fill="none" stroke="#F2B454" stroke-width="2.7" stroke-linecap="round"/>
<circle cx="53.786" cy="38.443" r="1.900" fill="#F8C766"/>
<circle cx="73.102" cy="46.347" r="1.900" fill="#F8C766"/>
<circle cx="40.952" cy="70.233" r="1.900" fill="#F8C766"/>
<circle cx="19.333" cy="54.638" r="1.900" fill="#F8C766"/>
<circle cx="35.421" cy="55.065" r="2.400" fill="#EEF2FB" stroke="#F2B454" stroke-width="1.300"/>
<circle cx="66.352" cy="25.043" r="3.400" fill="none" stroke="#F2B454" stroke-width="1.500"/>
<circle cx="66.352" cy="25.043" r="1.500" fill="#F8C766"/>
<circle cx="50.000" cy="51.000" r="7.400" fill="#EEF2FB"/>
<circle cx="47.700" cy="49.100" r="1.500" fill="#5C6A8F" opacity="0.32"/>
<circle cx="52.100" cy="52.500" r="1.050" fill="#5C6A8F" opacity="0.32"/>
<circle cx="50.200" cy="53.700" r="0.700" fill="#5C6A8F" opacity="0.32"/></g></svg>