<?xml version="1.0" encoding="utf-8" standalone="no"?>
<!DOCTYPE svg PUBLIC "-//W3C//DTD SVG 1.1//EN"
  "http://www.w3.org/Graphics/SVG/1.1/DTD/svg11.dtd">
<svg xmlns:xlink="http://www.w3.org/1999/xlink" width="864pt" height="576pt" viewBox="0 0 864 576" xmlns="http://www.w3.org/2000/svg" version="1.1">
 <metadata>
  <rdf:RDF xmlns:dc="http://purl.org/dc/elements/1.1/" xmlns:cc="http://creativecommons.org/ns#" xmlns:rdf="http://www.w3.org/1999/02/22-rdf-syntax-ns#">
   <cc:Work>
    <dc:type rdf:resource="http://purl.org/dc/dcmitype/StillImage"/>
    <dc:date>2026-02-28T19:15:35.380545</dc:date>
    <dc:format>image/svg+xml</dc:format>
    <dc:creator>
     <cc:Agent>
      <dc:title>Matplotlib v3.10.8, https://matplotlib.org/</dc:title>
     </cc:Agent>
    </dc:creator>
   </cc:Work>
  </rdf:RDF>
 </metadata>
 <defs>
  <style type="text/css">*{stroke-linejoin: round; stroke-linecap: butt}</style>
 </defs>
 <g id="figure_1">
  <g id="patch_1">
   <path d="M 0 576 
L 864 576 
L 864 0 
L 0 0 
z
" style="fill: #ffffff"/>
  </g>
  <g id="axes_1">
   <g id="patch_2">
    <path d="M 47.81 258.48 
L 853.2 258.48 
L 853.2 10.8 
L 47.81 10.8 
z
" style="fill: #ffffff"/>
   </g>
   <g id="matplotlib.axis_1">
    <g id="xtick_1">
     <g id="line2d_1">
      <path d="M 84.418636 258.48 
L 84.418636 10.8 
" clip-path="url(#pbd2b7834d5)" style="fill: none; stroke: #b0b0b0; stroke-width: 0.8; stroke-linecap: square"/>
     </g>
     <g id="line2d_2">
      <defs>
       <path id="m03006a007e" d="M 0 0 
L 0 3.5 
" style="stroke: #000000; stroke-width: 0.8"/>
      </defs>
      <g>
       <use xlink:href="#m03006a007e" x="84.418636" y="258.48" style="stroke: #000000; stroke-width: 0.8"/>
      </g>
     </g>
     <g id="text_1">
      <!-- 0 -->
      <g transform="translate(81.237386 273.078438) scale(0.1 -0.1)">
       <defs>
        <path id="DejaVuSans-30" d="M 2034 4250 
Q 1547 4250 1301 3770 
Q 1056 3291 1056 2328 
Q 1056 1369 1301 889 
Q 1547 409 2034 409 
Q 2525 409 2770 889 
Q 3016 1369 3016 2328 
Q 3016 3291 2770 3770 
Q 2525 4250 2034 4250 
z
M 2034 4750 
Q 2819 4750 3233 4129 
Q 3647 3509 3647 2328 
Q 3647 1150 3233 529 
Q 2819 -91 2034 -91 
Q 1250 -91 836 529 
Q 422 1150 422 2328 
Q 422 3509 836 4129 
Q 1250 4750 2034 4750 
z
" transform="scale(0.015625)"/>
       </defs>
       <use xlink:href="#DejaVuSans-30"/>
      </g>
     </g>
    </g>
    <g id="xtick_2">
     <g id="line2d_3">
      <path d="M 262.769704 258.48 
L 262.769704 10.8 
" clip-path="url(#pbd2b7834d5)" style="fill: none; stroke: #b0b0b0; stroke-width: 0.8; stroke-linecap: square"/>
     </g>
     <g id="line2d_4">
      <g>
       <use xlink:href="#m03006a007e" x="262.769704" y="258.48" style="stroke: #000000; stroke-width: 0.8"/>
      </g>
     </g>
     <g id="text_2">
      <!-- 5 -->
      <g transform="translate(259.588454 273.078438) scale(0.1 -0.1)">
       <defs>
        <path id="DejaVuSans-35" d="M 691 4666 
L 3169 4666 
L 3169 4134 
L 1269 4134 
L 1269 2991 
Q 1406 3038 1543 3061 
Q 1681 3084 1819 3084 
Q 2600 3084 3056 2656 
Q 3513 2228 3513 1497 
Q 3513 744 3044 326 
Q 2575 -91 1722 -91 
Q 1428 -91 1123 -41 
Q 819 9 494 109 
L 494 744 
Q 775 591 1075 516 
Q 1375 441 1709 441 
Q 2250 441 2565 725 
Q 2881 1009 2881 1497 
Q 2881 1984 2565 2268 
Q 2250 2553 1709 2553 
Q 1456 2553 1204 2497 
Q 953 2441 691 2322 
L 691 4666 
z
" transform="scale(0.015625)"/>
       </defs>
       <use xlink:href="#DejaVuSans-35"/>
      </g>
     </g>
    </g>
    <g id="xtick_3">
     <g id="line2d_5">
      <path d="M 441.120772 258.48 
L 441.120772 10.8 
" clip-path="url(#pbd2b7834d5)" style="fill: none; stroke: #b0b0b0; stroke-width: 0.8; stroke-linecap: square"/>
     </g>
     <g id="line2d_6">
      <g>
       <use xlink:href="#m03006a007e" x="441.120772" y="258.48" style="stroke: #000000; stroke-width: 0.8"/>
      </g>
     </g>
     <g id="text_3">
      <!-- 10 -->
      <g transform="translate(434.758272 273.078438) scale(0.1 -0.1)">
       <defs>
        <path id="DejaVuSans-31" d="M 794 531 
L 1825 531 
L 1825 4091 
L 703 3866 
L 703 4441 
L 1819 4666 
L 2450 4666 
L 2450 531 
L 3481 531 
L 3481 0 
L 794 0 
L 794 531 
z
" transform="scale(0.015625)"/>
       </defs>
       <use xlink:href="#DejaVuSans-31"/>
       <use xlink:href="#DejaVuSans-30" transform="translate(63.623047 0)"/>
      </g>
     </g>
    </g>
    <g id="xtick_4">
     <g id="line2d_7">
      <path d="M 619.47184 258.48 
L 619.47184 10.8 
" clip-path="url(#pbd2b7834d5)" style="fill: none; stroke: #b0b0b0; stroke-width: 0.8; stroke-linecap: square"/>
     </g>
     <g id="line2d_8">
      <g>
       <use xlink:href="#m03006a007e" x="619.47184" y="258.48" style="stroke: #000000; stroke-width: 0.8"/>
      </g>
     </g>
     <g id="text_4">
      <!-- 15 -->
      <g transform="translate(613.10934 273.078438) scale(0.1 -0.1)">
       <use xlink:href="#DejaVuSans-31"/>
       <use xlink:href="#DejaVuSans-35" transform="translate(63.623047 0)"/>
      </g>
     </g>
    </g>
    <g id="xtick_5">
     <g id="line2d_9">
      <path d="M 797.822908 258.48 
L 797.822908 10.8 
" clip-path="url(#pbd2b7834d5)" style="fill: none; stroke: #b0b0b0; stroke-width: 0.8; stroke-linecap: square"/>
     </g>
     <g id="line2d_10">
      <g>
       <use xlink:href="#m03006a007e" x="797.822908" y="258.48" style="stroke: #000000; stroke-width: 0.8"/>
      </g>
     </g>
     <g id="text_5">
      <!-- 20 -->
      <g transform="translate(791.460408 273.078438) scale(0.1 -0.1)">
       <defs>
        <path id="DejaVuSans-32" d="M 1228 531 
L 3431 531 
L 3431 0 
L 469 0 
L 469 531 
Q 828 903 1448 1529 
Q 2069 2156 2228 2338 
Q 2531 2678 2651 2914 
Q 2772 3150 2772 3378 
Q 2772 3750 2511 3984 
Q 2250 4219 1831 4219 
Q 1534 4219 1204 4116 
Q 875 4013 500 3803 
L 500 4441 
Q 881 4594 1212 4672 
Q 1544 4750 1819 4750 
Q 2544 4750 2975 4387 
Q 3406 4025 3406 3419 
Q 3406 3131 3298 2873 
Q 3191 2616 2906 2266 
Q 2828 2175 2409 1742 
Q 1991 1309 1228 531 
z
" transform="scale(0.015625)"/>
       </defs>
       <use xlink:href="#DejaVuSans-32"/>
       <use xlink:href="#DejaVuSans-30" transform="translate(63.623047 0)"/>
      </g>
     </g>
    </g>
   </g>
   <g id="matplotlib.axis_2">
    <g id="ytick_1">
     <g id="line2d_11">
      <path d="M 47.81 247.221818 
L 853.2 247.221818 
" clip-path="url(#pbd2b7834d5)" style="fill: none; stroke: #b0b0b0; stroke-width: 0.8; stroke-linecap: square"/>
     </g>
     <g id="line2d_12">
      <defs>
       <path id="med43b96afb" d="M 0 0 
L -3.5 0 
" style="stroke: #000000; stroke-width: 0.8"/>
      </defs>
      <g>
       <use xlink:href="#med43b96afb" x="47.81" y="247.221818" style="stroke: #000000; stroke-width: 0.8"/>
      </g>
     </g>
     <g id="text_6">
      <!-- 0.0 -->
      <g transform="translate(24.906875 251.021037) scale(0.1 -0.1)">
       <defs>
        <path id="DejaVuSans-2e" d="M 684 794 
L 1344 794 
L 1344 0 
L 684 0 
L 684 794 
z
" transform="scale(0.015625)"/>
       </defs>
       <use xlink:href="#DejaVuSans-30"/>
       <use xlink:href="#DejaVuSans-2e" transform="translate(63.623047 0)"/>
       <use xlink:href="#DejaVuSans-30" transform="translate(95.410156 0)"/>
      </g>
     </g>
    </g>
    <g id="ytick_2">
     <g id="line2d_13">
      <path d="M 47.81 211.385912 
L 853.2 211.385912 
" clip-path="url(#pbd2b7834d5)" style="fill: none; stroke: #b0b0b0; stroke-width: 0.8; stroke-linecap: square"/>
     </g>
     <g id="line2d_14">
      <g>
       <use xlink:href="#med43b96afb" x="47.81" y="211.385912" style="stroke: #000000; stroke-width: 0.8"/>
      </g>
     </g>
     <g id="text_7">
      <!-- 0.5 -->
      <g transform="translate(24.906875 215.185131) scale(0.1 -0.1)">
       <use xlink:href="#DejaVuSans-30"/>
       <use xlink:href="#DejaVuSans-2e" transform="translate(63.623047 0)"/>
       <use xlink:href="#DejaVuSans-35" transform="translate(95.410156 0)"/>
      </g>
     </g>
    </g>
    <g id="ytick_3">
     <g id="line2d_15">
      <path d="M 47.81 175.550007 
L 853.2 175.550007 
" clip-path="url(#pbd2b7834d5)" style="fill: none; stroke: #b0b0b0; stroke-width: 0.8; stroke-linecap: square"/>
     </g>
     <g id="line2d_16">
      <g>
       <use xlink:href="#med43b96afb" x="47.81" y="175.550007" style="stroke: #000000; stroke-width: 0.8"/>
      </g>
     </g>
     <g id="text_8">
      <!-- 1.0 -->
      <g transform="translate(24.906875 179.349225) scale(0.1 -0.1)">
       <use xlink:href="#DejaVuSans-31"/>
       <use xlink:href="#DejaVuSans-2e" transform="translate(63.623047 0)"/>
       <use xlink:href="#DejaVuSans-30" transform="translate(95.410156 0)"/>
      </g>
     </g>
    </g>
    <g id="ytick_4">
     <g id="line2d_17">
      <path d="M 47.81 139.714101 
L 853.2 139.714101 
" clip-path="url(#pbd2b7834d5)" style="fill: none; stroke: #b0b0b0; stroke-width: 0.8; stroke-linecap: square"/>
     </g>
     <g id="line2d_18">
      <g>
       <use xlink:href="#med43b96afb" x="47.81" y="139.714101" style="stroke: #000000; stroke-width: 0.8"/>
      </g>
     </g>
     <g id="text_9">
      <!-- 1.5 -->
      <g transform="translate(24.906875 143.51332) scale(0.1 -0.1)">
       <use xlink:href="#DejaVuSans-31"/>
       <use xlink:href="#DejaVuSans-2e" transform="translate(63.623047 0)"/>
       <use xlink:href="#DejaVuSans-35" transform="translate(95.410156 0)"/>
      </g>
     </g>
    </g>
    <g id="ytick_5">
     <g id="line2d_19">
      <path d="M 47.81 103.878195 
L 853.2 103.878195 
" clip-path="url(#pbd2b7834d5)" style="fill: none; stroke: #b0b0b0; stroke-width: 0.8; stroke-linecap: square"/>
     </g>
     <g id="line2d_20">
      <g>
       <use xlink:href="#med43b96afb" x="47.81" y="103.878195" style="stroke: #000000; stroke-width: 0.8"/>
      </g>
     </g>
     <g id="text_10">
      <!-- 2.0 -->
      <g transform="translate(24.906875 107.677414) scale(0.1 -0.1)">
       <use xlink:href="#DejaVuSans-32"/>
       <use xlink:href="#DejaVuSans-2e" transform="translate(63.623047 0)"/>
       <use xlink:href="#DejaVuSans-30" transform="translate(95.410156 0)"/>
      </g>
     </g>
    </g>
    <g id="ytick_6">
     <g id="line2d_21">
      <path d="M 47.81 68.04229 
L 853.2 68.04229 
" clip-path="url(#pbd2b7834d5)" style="fill: none; stroke: #b0b0b0; stroke-width: 0.8; stroke-linecap: square"/>
     </g>
     <g id="line2d_22">
      <g>
       <use xlink:href="#med43b96afb" x="47.81" y="68.04229" style="stroke: #000000; stroke-width: 0.8"/>
      </g>
     </g>
     <g id="text_11">
      <!-- 2.5 -->
      <g transform="translate(24.906875 71.841508) scale(0.1 -0.1)">
       <use xlink:href="#DejaVuSans-32"/>
       <use xlink:href="#DejaVuSans-2e" transform="translate(63.623047 0)"/>
       <use xlink:href="#DejaVuSans-35" transform="translate(95.410156 0)"/>
      </g>
     </g>
    </g>
    <g id="ytick_7">
     <g id="line2d_23">
      <path d="M 47.81 32.206384 
L 853.2 32.206384 
" clip-path="url(#pbd2b7834d5)" style="fill: none; stroke: #b0b0b0; stroke-width: 0.8; stroke-linecap: square"/>
     </g>
     <g id="line2d_24">
      <g>
       <use xlink:href="#med43b96afb" x="47.81" y="32.206384" style="stroke: #000000; stroke-width: 0.8"/>
      </g>
     </g>
     <g id="text_12">
      <!-- 3.0 -->
      <g transform="translate(24.906875 36.005603) scale(0.1 -0.1)">
       <defs>
        <path id="DejaVuSans-33" d="M 2597 2516 
Q 3050 2419 3304 2112 
Q 3559 1806 3559 1356 
Q 3559 666 3084 287 
Q 2609 -91 1734 -91 
Q 1441 -91 1130 -33 
Q 819 25 488 141 
L 488 750 
Q 750 597 1062 519 
Q 1375 441 1716 441 
Q 2309 441 2620 675 
Q 2931 909 2931 1356 
Q 2931 1769 2642 2001 
Q 2353 2234 1838 2234 
L 1294 2234 
L 1294 2753 
L 1863 2753 
Q 2328 2753 2575 2939 
Q 2822 3125 2822 3475 
Q 2822 3834 2567 4026 
Q 2313 4219 1838 4219 
Q 1578 4219 1281 4162 
Q 984 4106 628 3988 
L 628 4550 
Q 988 4650 1302 4700 
Q 1616 4750 1894 4750 
Q 2613 4750 3031 4423 
Q 3450 4097 3450 3541 
Q 3450 3153 3228 2886 
Q 3006 2619 2597 2516 
z
" transform="scale(0.015625)"/>
       </defs>
       <use xlink:href="#DejaVuSans-33"/>
       <use xlink:href="#DejaVuSans-2e" transform="translate(63.623047 0)"/>
       <use xlink:href="#DejaVuSans-30" transform="translate(95.410156 0)"/>
      </g>
     </g>
    </g>
    <g id="text_13">
     <!-- Phase Angle (rad) -->
     <g transform="translate(18.827187 179.17125) rotate(-90) scale(0.1 -0.1)">
      <defs>
       <path id="DejaVuSans-50" d="M 1259 4147 
L 1259 2394 
L 2053 2394 
Q 2494 2394 2734 2622 
Q 2975 2850 2975 3272 
Q 2975 3691 2734 3919 
Q 2494 4147 2053 4147 
L 1259 4147 
z
M 628 4666 
L 2053 4666 
Q 2838 4666 3239 4311 
Q 3641 3956 3641 3272 
Q 3641 2581 3239 2228 
Q 2838 1875 2053 1875 
L 1259 1875 
L 1259 0 
L 628 0 
L 628 4666 
z
" transform="scale(0.015625)"/>
       <path id="DejaVuSans-68" d="M 3513 2113 
L 3513 0 
L 2938 0 
L 2938 2094 
Q 2938 2591 2744 2837 
Q 2550 3084 2163 3084 
Q 1697 3084 1428 2787 
Q 1159 2491 1159 1978 
L 1159 0 
L 581 0 
L 581 4863 
L 1159 4863 
L 1159 2956 
Q 1366 3272 1645 3428 
Q 1925 3584 2291 3584 
Q 2894 3584 3203 3211 
Q 3513 2838 3513 2113 
z
" transform="scale(0.015625)"/>
       <path id="DejaVuSans-61" d="M 2194 1759 
Q 1497 1759 1228 1600 
Q 959 1441 959 1056 
Q 959 750 1161 570 
Q 1363 391 1709 391 
Q 2188 391 2477 730 
Q 2766 1069 2766 1631 
L 2766 1759 
L 2194 1759 
z
M 3341 1997 
L 3341 0 
L 2766 0 
L 2766 531 
Q 2569 213 2275 61 
Q 1981 -91 1556 -91 
Q 1019 -91 701 211 
Q 384 513 384 1019 
Q 384 1609 779 1909 
Q 1175 2209 1959 2209 
L 2766 2209 
L 2766 2266 
Q 2766 2663 2505 2880 
Q 2244 3097 1772 3097 
Q 1472 3097 1187 3025 
Q 903 2953 641 2809 
L 641 3341 
Q 956 3463 1253 3523 
Q 1550 3584 1831 3584 
Q 2591 3584 2966 3190 
Q 3341 2797 3341 1997 
z
" transform="scale(0.015625)"/>
       <path id="DejaVuSans-73" d="M 2834 3397 
L 2834 2853 
Q 2591 2978 2328 3040 
Q 2066 3103 1784 3103 
Q 1356 3103 1142 2972 
Q 928 2841 928 2578 
Q 928 2378 1081 2264 
Q 1234 2150 1697 2047 
L 1894 2003 
Q 2506 1872 2764 1633 
Q 3022 1394 3022 966 
Q 3022 478 2636 193 
Q 2250 -91 1575 -91 
Q 1294 -91 989 -36 
Q 684 19 347 128 
L 347 722 
Q 666 556 975 473 
Q 1284 391 1588 391 
Q 1994 391 2212 530 
Q 2431 669 2431 922 
Q 2431 1156 2273 1281 
Q 2116 1406 1581 1522 
L 1381 1569 
Q 847 1681 609 1914 
Q 372 2147 372 2553 
Q 372 3047 722 3315 
Q 1072 3584 1716 3584 
Q 2034 3584 2315 3537 
Q 2597 3491 2834 3397 
z
" transform="scale(0.015625)"/>
       <path id="DejaVuSans-65" d="M 3597 1894 
L 3597 1613 
L 953 1613 
Q 991 1019 1311 708 
Q 1631 397 2203 397 
Q 2534 397 2845 478 
Q 3156 559 3463 722 
L 3463 178 
Q 3153 47 2828 -22 
Q 2503 -91 2169 -91 
Q 1331 -91 842 396 
Q 353 884 353 1716 
Q 353 2575 817 3079 
Q 1281 3584 2069 3584 
Q 2775 3584 3186 3129 
Q 3597 2675 3597 1894 
z
M 3022 2063 
Q 3016 2534 2758 2815 
Q 2500 3097 2075 3097 
Q 1594 3097 1305 2825 
Q 1016 2553 972 2059 
L 3022 2063 
z
" transform="scale(0.015625)"/>
       <path id="DejaVuSans-20" transform="scale(0.015625)"/>
       <path id="DejaVuSans-41" d="M 2188 4044 
L 1331 1722 
L 3047 1722 
L 2188 4044 
z
M 1831 4666 
L 2547 4666 
L 4325 0 
L 3669 0 
L 3244 1197 
L 1141 1197 
L 716 0 
L 50 0 
L 1831 4666 
z
" transform="scale(0.015625)"/>
       <path id="DejaVuSans-6e" d="M 3513 2113 
L 3513 0 
L 2938 0 
L 2938 2094 
Q 2938 2591 2744 2837 
Q 2550 3084 2163 3084 
Q 1697 3084 1428 2787 
Q 1159 2491 1159 1978 
L 1159 0 
L 581 0 
L 581 3500 
L 1159 3500 
L 1159 2956 
Q 1366 3272 1645 3428 
Q 1925 3584 2291 3584 
Q 2894 3584 3203 3211 
Q 3513 2838 3513 2113 
z
" transform="scale(0.015625)"/>
       <path id="DejaVuSans-67" d="M 2906 1791 
Q 2906 2416 2648 2759 
Q 2391 3103 1925 3103 
Q 1463 3103 1205 2759 
Q 947 2416 947 1791 
Q 947 1169 1205 825 
Q 1463 481 1925 481 
Q 2391 481 2648 825 
Q 2906 1169 2906 1791 
z
M 3481 434 
Q 3481 -459 3084 -895 
Q 2688 -1331 1869 -1331 
Q 1566 -1331 1297 -1286 
Q 1028 -1241 775 -1147 
L 775 -588 
Q 1028 -725 1275 -790 
Q 1522 -856 1778 -856 
Q 2344 -856 2625 -561 
Q 2906 -266 2906 331 
L 2906 616 
Q 2728 306 2450 153 
Q 2172 0 1784 0 
Q 1141 0 747 490 
Q 353 981 353 1791 
Q 353 2603 747 3093 
Q 1141 3584 1784 3584 
Q 2172 3584 2450 3431 
Q 2728 3278 2906 2969 
L 2906 3500 
L 3481 3500 
L 3481 434 
z
" transform="scale(0.015625)"/>
       <path id="DejaVuSans-6c" d="M 603 4863 
L 1178 4863 
L 1178 0 
L 603 0 
L 603 4863 
z
" transform="scale(0.015625)"/>
       <path id="DejaVuSans-28" d="M 1984 4856 
Q 1566 4138 1362 3434 
Q 1159 2731 1159 2009 
Q 1159 1288 1364 580 
Q 1569 -128 1984 -844 
L 1484 -844 
Q 1016 -109 783 600 
Q 550 1309 550 2009 
Q 550 2706 781 3412 
Q 1013 4119 1484 4856 
L 1984 4856 
z
" transform="scale(0.015625)"/>
       <path id="DejaVuSans-72" d="M 2631 2963 
Q 2534 3019 2420 3045 
Q 2306 3072 2169 3072 
Q 1681 3072 1420 2755 
Q 1159 2438 1159 1844 
L 1159 0 
L 581 0 
L 581 3500 
L 1159 3500 
L 1159 2956 
Q 1341 3275 1631 3429 
Q 1922 3584 2338 3584 
Q 2397 3584 2469 3576 
Q 2541 3569 2628 3553 
L 2631 2963 
z
" transform="scale(0.015625)"/>
       <path id="DejaVuSans-64" d="M 2906 2969 
L 2906 4863 
L 3481 4863 
L 3481 0 
L 2906 0 
L 2906 525 
Q 2725 213 2448 61 
Q 2172 -91 1784 -91 
Q 1150 -91 751 415 
Q 353 922 353 1747 
Q 353 2572 751 3078 
Q 1150 3584 1784 3584 
Q 2172 3584 2448 3432 
Q 2725 3281 2906 2969 
z
M 947 1747 
Q 947 1113 1208 752 
Q 1469 391 1925 391 
Q 2381 391 2643 752 
Q 2906 1113 2906 1747 
Q 2906 2381 2643 2742 
Q 2381 3103 1925 3103 
Q 1469 3103 1208 2742 
Q 947 2381 947 1747 
z
" transform="scale(0.015625)"/>
       <path id="DejaVuSans-29" d="M 513 4856 
L 1013 4856 
Q 1481 4119 1714 3412 
Q 1947 2706 1947 2009 
Q 1947 1309 1714 600 
Q 1481 -109 1013 -844 
L 513 -844 
Q 928 -128 1133 580 
Q 1338 1288 1338 2009 
Q 1338 2731 1133 3434 
Q 928 4138 513 4856 
z
" transform="scale(0.015625)"/>
      </defs>
      <use xlink:href="#DejaVuSans-50"/>
      <use xlink:href="#DejaVuSans-68" transform="translate(60.302734 0)"/>
      <use xlink:href="#DejaVuSans-61" transform="translate(123.681641 0)"/>
      <use xlink:href="#DejaVuSans-73" transform="translate(184.960938 0)"/>
      <use xlink:href="#DejaVuSans-65" transform="translate(237.060547 0)"/>
      <use xlink:href="#DejaVuSans-20" transform="translate(298.583984 0)"/>
      <use xlink:href="#DejaVuSans-41" transform="translate(330.371094 0)"/>
      <use xlink:href="#DejaVuSans-6e" transform="translate(398.779297 0)"/>
      <use xlink:href="#DejaVuSans-67" transform="translate(462.158203 0)"/>
      <use xlink:href="#DejaVuSans-6c" transform="translate(525.634766 0)"/>
      <use xlink:href="#DejaVuSans-65" transform="translate(553.417969 0)"/>
      <use xlink:href="#DejaVuSans-20" transform="translate(614.941406 0)"/>
      <use xlink:href="#DejaVuSans-28" transform="translate(646.728516 0)"/>
      <use xlink:href="#DejaVuSans-72" transform="translate(685.742188 0)"/>
      <use xlink:href="#DejaVuSans-61" transform="translate(726.855469 0)"/>
      <use xlink:href="#DejaVuSans-64" transform="translate(788.134766 0)"/>
      <use xlink:href="#DejaVuSans-29" transform="translate(851.611328 0)"/>
     </g>
    </g>
   </g>
   <g id="line2d_25">
    <path d="M 84.418636 247.221818 
L 816.591364 247.221818 
L 816.591364 247.221818 
" clip-path="url(#pbd2b7834d5)" style="fill: none; stroke: #303bc1; stroke-width: 1.5; stroke-linecap: square"/>
   </g>
   <g id="line2d_26">
    <path d="M 84.418636 222.203636 
L 191.80397 222.295562 
L 221.090879 222.646101 
L 255.258939 223.313744 
L 299.189303 224.157049 
L 338.238515 224.616682 
L 367.525424 225.018684 
L 387.05003 225.512008 
L 401.693485 226.071688 
L 416.336939 226.815616 
L 430.980394 227.740264 
L 445.623848 228.890084 
L 460.267303 230.284481 
L 474.910758 231.909187 
L 499.316515 234.927046 
L 518.841121 237.304602 
L 533.484576 238.905855 
L 548.12803 240.288294 
L 562.771485 241.433976 
L 577.414939 242.353699 
L 592.058394 243.079165 
L 611.583 243.821462 
L 640.869909 244.676391 
L 709.20603 246.394286 
L 738.492939 246.89759 
L 767.779848 247.152271 
L 806.829061 247.221494 
L 816.591364 247.221817 
L 816.591364 247.221817 
" clip-path="url(#pbd2b7834d5)" style="fill: none; stroke: #4039b5; stroke-width: 1.5; stroke-linecap: square"/>
   </g>
   <g id="line2d_27">
    <path d="M 84.418636 197.185455 
L 177.160515 197.263904 
L 201.566273 197.583187 
L 225.97203 198.156589 
L 255.258939 199.116864 
L 318.713909 201.287588 
L 357.763121 202.617014 
L 377.287727 203.526108 
L 391.931182 204.421425 
L 401.693485 205.195912 
L 411.455788 206.160629 
L 421.218091 207.343371 
L 430.980394 208.756428 
L 440.742697 210.397127 
L 450.505 212.247771 
L 460.267303 214.277289 
L 474.910758 217.56331 
L 504.197667 224.305677 
L 518.841121 227.365964 
L 528.603424 229.194907 
L 538.365727 230.833804 
L 548.12803 232.280032 
L 557.890333 233.542416 
L 567.652636 234.638904 
L 582.296091 236.02783 
L 601.820697 237.559201 
L 675.03797 242.934138 
L 699.443727 244.655764 
L 714.087182 245.510728 
L 728.730636 246.18619 
L 743.374091 246.672326 
L 762.898697 247.052323 
L 782.423303 247.201575 
L 816.591364 247.221817 
L 816.591364 247.221817 
" clip-path="url(#pbd2b7834d5)" style="fill: none; stroke: #5036a8; stroke-width: 1.5; stroke-linecap: square"/>
   </g>
   <g id="line2d_28">
    <path d="M 84.418636 172.167273 
L 167.398212 172.210965 
L 186.922818 172.516786 
L 206.447424 173.064238 
L 221.090879 173.662311 
L 235.734333 174.457998 
L 250.377788 175.521531 
L 265.021242 176.881559 
L 279.664697 178.510257 
L 299.189303 180.99312 
L 367.525424 190.121294 
L 387.05003 192.680072 
L 401.693485 194.896893 
L 411.455788 196.570636 
L 421.218091 198.41393 
L 430.980394 200.443649 
L 440.742697 202.66358 
L 450.505 205.066567 
L 465.148455 208.961124 
L 484.673061 214.502468 
L 504.197667 220.057492 
L 518.841121 223.960794 
L 528.603424 226.356787 
L 538.365727 228.55744 
L 548.12803 230.549925 
L 557.890333 232.331893 
L 567.652636 233.909768 
L 577.414939 235.297362 
L 587.177242 236.514406 
L 601.820697 238.073397 
L 616.464152 239.391979 
L 635.988758 240.920484 
L 665.275667 242.976627 
L 689.681424 244.511087 
L 709.20603 245.537575 
L 728.730636 246.316743 
L 748.255242 246.829489 
L 767.779848 247.105258 
L 792.185606 247.218032 
L 816.591364 247.221817 
L 816.591364 247.221817 
" clip-path="url(#pbd2b7834d5)" style="fill: none; stroke: #60349c; stroke-width: 1.5; stroke-linecap: square"/>
   </g>
   <g id="line2d_29">
    <path d="M 84.418636 147.149091 
L 138.111303 147.188811 
L 152.754758 147.412715 
L 167.398212 147.860563 
L 177.160515 148.321901 
L 186.922818 148.937875 
L 196.685121 149.724737 
L 206.447424 150.692297 
L 216.209727 151.842138 
L 225.97203 153.166546 
L 240.615485 155.440531 
L 255.258939 157.974746 
L 294.308152 164.958549 
L 313.832758 168.103708 
L 348.000818 173.427138 
L 357.763121 175.110901 
L 367.525424 176.969245 
L 377.287727 179.037273 
L 387.05003 181.330051 
L 396.812333 183.854509 
L 406.574636 186.599074 
L 416.336939 189.543823 
L 426.099242 192.681258 
L 440.742697 197.68499 
L 489.554212 214.820508 
L 499.316515 217.914917 
L 509.078818 220.783832 
L 518.841121 223.401063 
L 528.603424 225.756797 
L 538.365727 227.855368 
L 548.12803 229.712128 
L 557.890333 231.350282 
L 567.652636 232.797958 
L 582.296091 234.679145 
L 596.939545 236.302693 
L 616.464152 238.223129 
L 645.751061 240.845505 
L 670.156818 242.828599 
L 689.681424 244.235542 
L 709.20603 245.396373 
L 723.849485 246.070211 
L 738.492939 246.569628 
L 758.017545 246.985666 
L 777.542152 247.17516 
L 811.710212 247.221015 
L 816.591364 247.221817 
L 816.591364 247.221817 
" clip-path="url(#pbd2b7834d5)" style="fill: none; stroke: #70318f; stroke-width: 1.5; stroke-linecap: square"/>
   </g>
   <g id="line2d_30">
    <path d="M 84.418636 122.130909 
L 138.111303 122.097281 
L 147.873606 122.330589 
L 157.635909 122.745078 
L 167.398212 123.38159 
L 177.160515 124.274077 
L 186.922818 125.446935 
L 196.685121 126.9128 
L 206.447424 128.670988 
L 216.209727 130.706766 
L 225.97203 132.991666 
L 235.734333 135.484998 
L 250.377788 139.50441 
L 289.427 150.549554 
L 304.070455 154.402453 
L 318.713909 158.015157 
L 338.238515 162.555766 
L 367.525424 169.337808 
L 382.168879 173.000026 
L 391.931182 175.619131 
L 401.693485 178.406159 
L 411.455788 181.370647 
L 421.218091 184.508823 
L 435.861545 189.500513 
L 450.505 194.742942 
L 489.554212 208.897269 
L 504.197667 213.877334 
L 513.95997 216.986514 
L 523.722273 219.893442 
L 533.484576 222.582458 
L 543.246879 225.047687 
L 553.009182 227.291043 
L 562.771485 229.320373 
L 572.533788 231.147762 
L 582.296091 232.788242 
L 592.058394 234.259288 
L 606.701848 236.192475 
L 621.345303 237.867794 
L 640.869909 239.832356 
L 665.275667 242.012464 
L 684.800273 243.5659 
L 704.324879 244.90244 
L 718.968333 245.720961 
L 733.611788 246.352667 
L 748.255242 246.786814 
L 767.779848 247.108656 
L 787.304455 247.210377 
L 816.591364 247.221817 
L 816.591364 247.221817 
" clip-path="url(#pbd2b7834d5)" style="fill: none; stroke: #802f83; stroke-width: 1.5; stroke-linecap: square"/>
   </g>
   <g id="line2d_31">
    <path d="M 84.418636 97.112727 
L 108.824394 96.997427 
L 128.349 96.91878 
L 142.992455 97.084265 
L 152.754758 97.396986 
L 162.517061 97.930719 
L 172.279364 98.730499 
L 182.041667 99.832607 
L 191.80397 101.261654 
L 201.566273 103.028345 
L 211.328576 105.128094 
L 221.090879 107.540698 
L 230.853182 110.231237 
L 240.615485 113.1523 
L 255.258939 117.841399 
L 299.189303 132.329238 
L 313.832758 136.865951 
L 333.357364 142.647861 
L 357.763121 149.814443 
L 372.406576 154.3614 
L 382.168879 157.592991 
L 391.931182 161.027196 
L 401.693485 164.68623 
L 411.455788 168.576268 
L 421.218091 172.68547 
L 435.861545 179.189541 
L 455.386152 188.218795 
L 474.910758 197.170047 
L 484.673061 201.443289 
L 494.435364 205.49259 
L 504.197667 209.260998 
L 513.95997 212.708872 
L 523.722273 215.818109 
L 533.484576 218.590588 
L 543.246879 221.045284 
L 553.009182 223.215042 
L 562.771485 225.143338 
L 572.533788 226.880183 
L 587.177242 229.240578 
L 665.275667 241.080917 
L 679.919121 243.051483 
L 689.681424 244.180745 
L 699.443727 245.128113 
L 709.20603 245.882778 
L 718.968333 246.452253 
L 728.730636 246.855264 
L 743.374091 247.205538 
L 772.661 247.101197 
L 816.591364 247.221817 
L 816.591364 247.221817 
" clip-path="url(#pbd2b7834d5)" style="fill: none; stroke: #8f2d78; stroke-width: 1.5; stroke-linecap: square"/>
   </g>
   <g id="line2d_32">
    <path d="M 84.418636 72.094545 
L 108.824394 71.978692 
L 128.349 71.907747 
L 142.992455 72.089095 
L 152.754758 72.417742 
L 162.517061 72.971226 
L 172.279364 73.793755 
L 182.041667 74.920569 
L 191.80397 76.375231 
L 201.566273 78.16759 
L 211.328576 80.29258 
L 221.090879 82.730034 
L 230.853182 85.445685 
L 240.615485 88.393449 
L 255.258939 93.13018 
L 313.832758 112.657107 
L 357.763121 126.707184 
L 367.525424 130.070548 
L 377.287727 133.628032 
L 387.05003 137.419084 
L 396.812333 141.47038 
L 406.574636 145.792376 
L 416.336939 150.377014 
L 426.099242 155.196978 
L 440.742697 162.764783 
L 479.791909 183.333051 
L 489.554212 188.17459 
L 499.316515 192.763375 
L 509.078818 197.052397 
L 518.841121 201.01733 
L 528.603424 204.655182 
L 538.365727 207.979173 
L 548.12803 211.015721 
L 557.890333 213.801715 
L 567.652636 216.381103 
L 582.296091 219.965295 
L 601.820697 224.440776 
L 645.751061 234.189073 
L 660.394515 237.288854 
L 675.03797 240.145361 
L 684.800273 241.847767 
L 694.562576 243.346852 
L 704.324879 244.616378 
L 714.087182 245.642091 
L 723.849485 246.42345 
L 733.611788 246.973818 
L 738.492939 247.170059 
L 772.661 246.937371 
L 816.591364 247.221817 
L 816.591364 247.221817 
" clip-path="url(#pbd2b7834d5)" style="fill: none; stroke: #9f2a6b; stroke-width: 1.5; stroke-linecap: square"/>
   </g>
   <g id="line2d_33">
    <path d="M 84.418636 47.076364 
L 108.824394 46.957693 
L 128.349 46.891117 
L 142.992455 47.088344 
L 152.754758 47.435493 
L 162.517061 48.013916 
L 172.279364 48.867152 
L 182.041667 50.029256 
L 191.80397 51.5223 
L 201.566273 53.354564 
L 211.328576 55.519559 
L 221.090879 57.99606 
L 230.853182 60.749284 
L 240.615485 63.733306 
L 255.258939 68.524168 
L 279.664697 76.892497 
L 304.070455 85.190336 
L 352.88197 101.571799 
L 362.644273 105.127313 
L 372.406576 108.897967 
L 382.168879 112.929857 
L 391.931182 117.256925 
L 401.693485 121.896761 
L 411.455788 126.847547 
L 421.218091 132.086562 
L 430.980394 137.570624 
L 445.623848 146.119228 
L 474.910758 163.422848 
L 484.673061 168.965232 
L 494.435364 174.27763 
L 504.197667 179.307476 
L 513.95997 184.022818 
L 523.722273 188.417563 
L 533.484576 192.507058 
L 543.246879 196.320583 
L 553.009182 199.897881 
L 562.771485 203.284888 
L 577.414939 208.111912 
L 601.820697 215.819317 
L 640.869909 227.894016 
L 655.513364 232.202125 
L 665.275667 234.904563 
L 675.03797 237.415139 
L 684.800273 239.688369 
L 694.562576 241.686265 
L 704.324879 243.3822 
L 714.087182 244.763569 
L 723.849485 245.833015 
L 733.611788 246.6082 
L 743.374091 247.120228 
L 748.255242 247.153304 
L 758.017545 246.955205 
L 772.661 246.916485 
L 816.591364 247.221817 
L 816.591364 247.221817 
" clip-path="url(#pbd2b7834d5)" style="fill: none; stroke: #af285f; stroke-width: 1.5; stroke-linecap: square"/>
   </g>
   <g id="line2d_34">
    <path d="M 84.418636 22.058182 
L 108.824394 22.195034 
L 128.349 22.309626 
L 142.992455 22.160808 
L 147.873606 22.087481 
L 157.635909 22.517629 
L 167.398212 23.213755 
L 177.160515 24.221742 
L 186.922818 25.576369 
L 196.685121 27.29867 
L 206.447424 29.39416 
L 216.209727 31.852108 
L 225.97203 34.64598 
L 235.734333 37.73518 
L 245.496636 41.068083 
L 260.140091 46.395773 
L 284.545848 55.67012 
L 308.951606 64.8791 
L 352.88197 81.272421 
L 362.644273 85.15939 
L 372.406576 89.259748 
L 382.168879 93.632667 
L 391.931182 98.329421 
L 401.693485 103.386494 
L 411.455788 108.817732 
L 421.218091 114.608168 
L 430.980394 120.712279 
L 440.742697 127.0567 
L 470.029606 146.416589 
L 479.791909 152.626658 
L 489.554212 158.588875 
L 499.316515 164.250256 
L 509.078818 169.577847 
L 518.841121 174.561537 
L 528.603424 179.213104 
L 538.365727 183.562614 
L 548.12803 187.653645 
L 557.890333 191.538114 
L 572.533788 197.097714 
L 606.701848 209.643484 
L 650.632212 225.791503 
L 660.394515 229.195957 
L 670.156818 232.421146 
L 679.919121 235.408774 
L 689.681424 238.105987 
L 699.443727 240.470282 
L 709.20603 242.4734 
L 718.968333 244.103824 
L 728.730636 245.367716 
L 738.492939 246.288278 
L 748.255242 246.903689 
L 753.136394 247.11217 
L 758.017545 247.179793 
L 767.779848 247.017437 
L 782.423303 247.013229 
L 816.591364 247.221817 
L 816.591364 247.221817 
" clip-path="url(#pbd2b7834d5)" style="fill: none; stroke: #bf2552; stroke-width: 1.5; stroke-linecap: square"/>
   </g>
   <g id="patch_3">
    <path d="M 47.81 258.48 
L 47.81 10.8 
" style="fill: none; stroke: #000000; stroke-width: 0.8; stroke-linejoin: miter; stroke-linecap: square"/>
   </g>
   <g id="patch_4">
    <path d="M 853.2 258.48 
L 853.2 10.8 
" style="fill: none; stroke: #000000; stroke-width: 0.8; stroke-linejoin: miter; stroke-linecap: square"/>
   </g>
   <g id="patch_5">
    <path d="M 47.81 258.48 
L 853.2 258.48 
" style="fill: none; stroke: #000000; stroke-width: 0.8; stroke-linejoin: miter; stroke-linecap: square"/>
   </g>
   <g id="patch_6">
    <path d="M 47.81 10.8 
L 853.2 10.8 
" style="fill: none; stroke: #000000; stroke-width: 0.8; stroke-linejoin: miter; stroke-linecap: square"/>
   </g>
   <g id="legend_1">
    <g id="patch_7">
     <path d="M 787.959375 165.58125 
L 846.2 165.58125 
Q 848.2 165.58125 848.2 163.58125 
L 848.2 17.8 
Q 848.2 15.8 846.2 15.8 
L 787.959375 15.8 
Q 785.959375 15.8 785.959375 17.8 
L 785.959375 163.58125 
Q 785.959375 165.58125 787.959375 165.58125 
z
" style="fill: #ffffff; opacity: 0.8; stroke: #cccccc; stroke-linejoin: miter"/>
    </g>
    <g id="line2d_35">
     <path d="M 789.959375 23.898438 
L 799.959375 23.898438 
L 809.959375 23.898438 
" style="fill: none; stroke: #303bc1; stroke-width: 1.5; stroke-linecap: square"/>
    </g>
    <g id="text_14">
     <!-- S/C 0 -->
     <g transform="translate(817.959375 27.398438) scale(0.1 -0.1)">
      <defs>
       <path id="DejaVuSans-53" d="M 3425 4513 
L 3425 3897 
Q 3066 4069 2747 4153 
Q 2428 4238 2131 4238 
Q 1616 4238 1336 4038 
Q 1056 3838 1056 3469 
Q 1056 3159 1242 3001 
Q 1428 2844 1947 2747 
L 2328 2669 
Q 3034 2534 3370 2195 
Q 3706 1856 3706 1288 
Q 3706 609 3251 259 
Q 2797 -91 1919 -91 
Q 1588 -91 1214 -16 
Q 841 59 441 206 
L 441 856 
Q 825 641 1194 531 
Q 1563 422 1919 422 
Q 2459 422 2753 634 
Q 3047 847 3047 1241 
Q 3047 1584 2836 1778 
Q 2625 1972 2144 2069 
L 1759 2144 
Q 1053 2284 737 2584 
Q 422 2884 422 3419 
Q 422 4038 858 4394 
Q 1294 4750 2059 4750 
Q 2388 4750 2728 4690 
Q 3069 4631 3425 4513 
z
" transform="scale(0.015625)"/>
       <path id="DejaVuSans-2f" d="M 1625 4666 
L 2156 4666 
L 531 -594 
L 0 -594 
L 1625 4666 
z
" transform="scale(0.015625)"/>
       <path id="DejaVuSans-43" d="M 4122 4306 
L 4122 3641 
Q 3803 3938 3442 4084 
Q 3081 4231 2675 4231 
Q 1875 4231 1450 3742 
Q 1025 3253 1025 2328 
Q 1025 1406 1450 917 
Q 1875 428 2675 428 
Q 3081 428 3442 575 
Q 3803 722 4122 1019 
L 4122 359 
Q 3791 134 3420 21 
Q 3050 -91 2638 -91 
Q 1578 -91 968 557 
Q 359 1206 359 2328 
Q 359 3453 968 4101 
Q 1578 4750 2638 4750 
Q 3056 4750 3426 4639 
Q 3797 4528 4122 4306 
z
" transform="scale(0.015625)"/>
      </defs>
      <use xlink:href="#DejaVuSans-53"/>
      <use xlink:href="#DejaVuSans-2f" transform="translate(63.476562 0)"/>
      <use xlink:href="#DejaVuSans-43" transform="translate(97.167969 0)"/>
      <use xlink:href="#DejaVuSans-20" transform="translate(166.992188 0)"/>
      <use xlink:href="#DejaVuSans-30" transform="translate(198.779297 0)"/>
     </g>
    </g>
    <g id="line2d_36">
     <path d="M 789.959375 38.576563 
L 799.959375 38.576563 
L 809.959375 38.576563 
" style="fill: none; stroke: #4039b5; stroke-width: 1.5; stroke-linecap: square"/>
    </g>
    <g id="text_15">
     <!-- S/C 1 -->
     <g transform="translate(817.959375 42.076563) scale(0.1 -0.1)">
      <use xlink:href="#DejaVuSans-53"/>
      <use xlink:href="#DejaVuSans-2f" transform="translate(63.476562 0)"/>
      <use xlink:href="#DejaVuSans-43" transform="translate(97.167969 0)"/>
      <use xlink:href="#DejaVuSans-20" transform="translate(166.992188 0)"/>
      <use xlink:href="#DejaVuSans-31" transform="translate(198.779297 0)"/>
     </g>
    </g>
    <g id="line2d_37">
     <path d="M 789.959375 53.254688 
L 799.959375 53.254688 
L 809.959375 53.254688 
" style="fill: none; stroke: #5036a8; stroke-width: 1.5; stroke-linecap: square"/>
    </g>
    <g id="text_16">
     <!-- S/C 2 -->
     <g transform="translate(817.959375 56.754688) scale(0.1 -0.1)">
      <use xlink:href="#DejaVuSans-53"/>
      <use xlink:href="#DejaVuSans-2f" transform="translate(63.476562 0)"/>
      <use xlink:href="#DejaVuSans-43" transform="translate(97.167969 0)"/>
      <use xlink:href="#DejaVuSans-20" transform="translate(166.992188 0)"/>
      <use xlink:href="#DejaVuSans-32" transform="translate(198.779297 0)"/>
     </g>
    </g>
    <g id="line2d_38">
     <path d="M 789.959375 67.932813 
L 799.959375 67.932813 
L 809.959375 67.932813 
" style="fill: none; stroke: #60349c; stroke-width: 1.5; stroke-linecap: square"/>
    </g>
    <g id="text_17">
     <!-- S/C 3 -->
     <g transform="translate(817.959375 71.432813) scale(0.1 -0.1)">
      <use xlink:href="#DejaVuSans-53"/>
      <use xlink:href="#DejaVuSans-2f" transform="translate(63.476562 0)"/>
      <use xlink:href="#DejaVuSans-43" transform="translate(97.167969 0)"/>
      <use xlink:href="#DejaVuSans-20" transform="translate(166.992188 0)"/>
      <use xlink:href="#DejaVuSans-33" transform="translate(198.779297 0)"/>
     </g>
    </g>
    <g id="line2d_39">
     <path d="M 789.959375 82.610938 
L 799.959375 82.610938 
L 809.959375 82.610938 
" style="fill: none; stroke: #70318f; stroke-width: 1.5; stroke-linecap: square"/>
    </g>
    <g id="text_18">
     <!-- S/C 4 -->
     <g transform="translate(817.959375 86.110938) scale(0.1 -0.1)">
      <defs>
       <path id="DejaVuSans-34" d="M 2419 4116 
L 825 1625 
L 2419 1625 
L 2419 4116 
z
M 2253 4666 
L 3047 4666 
L 3047 1625 
L 3713 1625 
L 3713 1100 
L 3047 1100 
L 3047 0 
L 2419 0 
L 2419 1100 
L 313 1100 
L 313 1709 
L 2253 4666 
z
" transform="scale(0.015625)"/>
      </defs>
      <use xlink:href="#DejaVuSans-53"/>
      <use xlink:href="#DejaVuSans-2f" transform="translate(63.476562 0)"/>
      <use xlink:href="#DejaVuSans-43" transform="translate(97.167969 0)"/>
      <use xlink:href="#DejaVuSans-20" transform="translate(166.992188 0)"/>
      <use xlink:href="#DejaVuSans-34" transform="translate(198.779297 0)"/>
     </g>
    </g>
    <g id="line2d_40">
     <path d="M 789.959375 97.289063 
L 799.959375 97.289063 
L 809.959375 97.289063 
" style="fill: none; stroke: #802f83; stroke-width: 1.5; stroke-linecap: square"/>
    </g>
    <g id="text_19">
     <!-- S/C 5 -->
     <g transform="translate(817.959375 100.789063) scale(0.1 -0.1)">
      <use xlink:href="#DejaVuSans-53"/>
      <use xlink:href="#DejaVuSans-2f" transform="translate(63.476562 0)"/>
      <use xlink:href="#DejaVuSans-43" transform="translate(97.167969 0)"/>
      <use xlink:href="#DejaVuSans-20" transform="translate(166.992188 0)"/>
      <use xlink:href="#DejaVuSans-35" transform="translate(198.779297 0)"/>
     </g>
    </g>
    <g id="line2d_41">
     <path d="M 789.959375 111.967188 
L 799.959375 111.967188 
L 809.959375 111.967188 
" style="fill: none; stroke: #8f2d78; stroke-width: 1.5; stroke-linecap: square"/>
    </g>
    <g id="text_20">
     <!-- S/C 6 -->
     <g transform="translate(817.959375 115.467188) scale(0.1 -0.1)">
      <defs>
       <path id="DejaVuSans-36" d="M 2113 2584 
Q 1688 2584 1439 2293 
Q 1191 2003 1191 1497 
Q 1191 994 1439 701 
Q 1688 409 2113 409 
Q 2538 409 2786 701 
Q 3034 994 3034 1497 
Q 3034 2003 2786 2293 
Q 2538 2584 2113 2584 
z
M 3366 4563 
L 3366 3988 
Q 3128 4100 2886 4159 
Q 2644 4219 2406 4219 
Q 1781 4219 1451 3797 
Q 1122 3375 1075 2522 
Q 1259 2794 1537 2939 
Q 1816 3084 2150 3084 
Q 2853 3084 3261 2657 
Q 3669 2231 3669 1497 
Q 3669 778 3244 343 
Q 2819 -91 2113 -91 
Q 1303 -91 875 529 
Q 447 1150 447 2328 
Q 447 3434 972 4092 
Q 1497 4750 2381 4750 
Q 2619 4750 2861 4703 
Q 3103 4656 3366 4563 
z
" transform="scale(0.015625)"/>
      </defs>
      <use xlink:href="#DejaVuSans-53"/>
      <use xlink:href="#DejaVuSans-2f" transform="translate(63.476562 0)"/>
      <use xlink:href="#DejaVuSans-43" transform="translate(97.167969 0)"/>
      <use xlink:href="#DejaVuSans-20" transform="translate(166.992188 0)"/>
      <use xlink:href="#DejaVuSans-36" transform="translate(198.779297 0)"/>
     </g>
    </g>
    <g id="line2d_42">
     <path d="M 789.959375 126.645313 
L 799.959375 126.645313 
L 809.959375 126.645313 
" style="fill: none; stroke: #9f2a6b; stroke-width: 1.5; stroke-linecap: square"/>
    </g>
    <g id="text_21">
     <!-- S/C 7 -->
     <g transform="translate(817.959375 130.145313) scale(0.1 -0.1)">
      <defs>
       <path id="DejaVuSans-37" d="M 525 4666 
L 3525 4666 
L 3525 4397 
L 1831 0 
L 1172 0 
L 2766 4134 
L 525 4134 
L 525 4666 
z
" transform="scale(0.015625)"/>
      </defs>
      <use xlink:href="#DejaVuSans-53"/>
      <use xlink:href="#DejaVuSans-2f" transform="translate(63.476562 0)"/>
      <use xlink:href="#DejaVuSans-43" transform="translate(97.167969 0)"/>
      <use xlink:href="#DejaVuSans-20" transform="translate(166.992188 0)"/>
      <use xlink:href="#DejaVuSans-37" transform="translate(198.779297 0)"/>
     </g>
    </g>
    <g id="line2d_43">
     <path d="M 789.959375 141.323438 
L 799.959375 141.323438 
L 809.959375 141.323438 
" style="fill: none; stroke: #af285f; stroke-width: 1.5; stroke-linecap: square"/>
    </g>
    <g id="text_22">
     <!-- S/C 8 -->
     <g transform="translate(817.959375 144.823438) scale(0.1 -0.1)">
      <defs>
       <path id="DejaVuSans-38" d="M 2034 2216 
Q 1584 2216 1326 1975 
Q 1069 1734 1069 1313 
Q 1069 891 1326 650 
Q 1584 409 2034 409 
Q 2484 409 2743 651 
Q 3003 894 3003 1313 
Q 3003 1734 2745 1975 
Q 2488 2216 2034 2216 
z
M 1403 2484 
Q 997 2584 770 2862 
Q 544 3141 544 3541 
Q 544 4100 942 4425 
Q 1341 4750 2034 4750 
Q 2731 4750 3128 4425 
Q 3525 4100 3525 3541 
Q 3525 3141 3298 2862 
Q 3072 2584 2669 2484 
Q 3125 2378 3379 2068 
Q 3634 1759 3634 1313 
Q 3634 634 3220 271 
Q 2806 -91 2034 -91 
Q 1263 -91 848 271 
Q 434 634 434 1313 
Q 434 1759 690 2068 
Q 947 2378 1403 2484 
z
M 1172 3481 
Q 1172 3119 1398 2916 
Q 1625 2713 2034 2713 
Q 2441 2713 2670 2916 
Q 2900 3119 2900 3481 
Q 2900 3844 2670 4047 
Q 2441 4250 2034 4250 
Q 1625 4250 1398 4047 
Q 1172 3844 1172 3481 
z
" transform="scale(0.015625)"/>
      </defs>
      <use xlink:href="#DejaVuSans-53"/>
      <use xlink:href="#DejaVuSans-2f" transform="translate(63.476562 0)"/>
      <use xlink:href="#DejaVuSans-43" transform="translate(97.167969 0)"/>
      <use xlink:href="#DejaVuSans-20" transform="translate(166.992188 0)"/>
      <use xlink:href="#DejaVuSans-38" transform="translate(198.779297 0)"/>
     </g>
    </g>
    <g id="line2d_44">
     <path d="M 789.959375 156.001563 
L 799.959375 156.001563 
L 809.959375 156.001563 
" style="fill: none; stroke: #bf2552; stroke-width: 1.5; stroke-linecap: square"/>
    </g>
    <g id="text_23">
     <!-- S/C 9 -->
     <g transform="translate(817.959375 159.501563) scale(0.1 -0.1)">
      <defs>
       <path id="DejaVuSans-39" d="M 703 97 
L 703 672 
Q 941 559 1184 500 
Q 1428 441 1663 441 
Q 2288 441 2617 861 
Q 2947 1281 2994 2138 
Q 2813 1869 2534 1725 
Q 2256 1581 1919 1581 
Q 1219 1581 811 2004 
Q 403 2428 403 3163 
Q 403 3881 828 4315 
Q 1253 4750 1959 4750 
Q 2769 4750 3195 4129 
Q 3622 3509 3622 2328 
Q 3622 1225 3098 567 
Q 2575 -91 1691 -91 
Q 1453 -91 1209 -44 
Q 966 3 703 97 
z
M 1959 2075 
Q 2384 2075 2632 2365 
Q 2881 2656 2881 3163 
Q 2881 3666 2632 3958 
Q 2384 4250 1959 4250 
Q 1534 4250 1286 3958 
Q 1038 3666 1038 3163 
Q 1038 2656 1286 2365 
Q 1534 2075 1959 2075 
z
" transform="scale(0.015625)"/>
      </defs>
      <use xlink:href="#DejaVuSans-53"/>
      <use xlink:href="#DejaVuSans-2f" transform="translate(63.476562 0)"/>
      <use xlink:href="#DejaVuSans-43" transform="translate(97.167969 0)"/>
      <use xlink:href="#DejaVuSans-20" transform="translate(166.992188 0)"/>
      <use xlink:href="#DejaVuSans-39" transform="translate(198.779297 0)"/>
     </g>
    </g>
   </g>
  </g>
  <g id="axes_2">
   <g id="patch_8">
    <path d="M 47.81 534.04 
L 853.2 534.04 
L 853.2 286.36 
L 47.81 286.36 
z
" style="fill: #ffffff"/>
   </g>
   <g id="matplotlib.axis_3">
    <g id="xtick_6">
     <g id="line2d_45">
      <path d="M 84.418636 534.04 
L 84.418636 286.36 
" clip-path="url(#pb483f82091)" style="fill: none; stroke: #b0b0b0; stroke-width: 0.8; stroke-linecap: square"/>
     </g>
     <g id="line2d_46">
      <g>
       <use xlink:href="#m03006a007e" x="84.418636" y="534.04" style="stroke: #000000; stroke-width: 0.8"/>
      </g>
     </g>
     <g id="text_24">
      <!-- 0 -->
      <g transform="translate(81.237386 548.638438) scale(0.1 -0.1)">
       <use xlink:href="#DejaVuSans-30"/>
      </g>
     </g>
    </g>
    <g id="xtick_7">
     <g id="line2d_47">
      <path d="M 262.769704 534.04 
L 262.769704 286.36 
" clip-path="url(#pb483f82091)" style="fill: none; stroke: #b0b0b0; stroke-width: 0.8; stroke-linecap: square"/>
     </g>
     <g id="line2d_48">
      <g>
       <use xlink:href="#m03006a007e" x="262.769704" y="534.04" style="stroke: #000000; stroke-width: 0.8"/>
      </g>
     </g>
     <g id="text_25">
      <!-- 5 -->
      <g transform="translate(259.588454 548.638438) scale(0.1 -0.1)">
       <use xlink:href="#DejaVuSans-35"/>
      </g>
     </g>
    </g>
    <g id="xtick_8">
     <g id="line2d_49">
      <path d="M 441.120772 534.04 
L 441.120772 286.36 
" clip-path="url(#pb483f82091)" style="fill: none; stroke: #b0b0b0; stroke-width: 0.8; stroke-linecap: square"/>
     </g>
     <g id="line2d_50">
      <g>
       <use xlink:href="#m03006a007e" x="441.120772" y="534.04" style="stroke: #000000; stroke-width: 0.8"/>
      </g>
     </g>
     <g id="text_26">
      <!-- 10 -->
      <g transform="translate(434.758272 548.638438) scale(0.1 -0.1)">
       <use xlink:href="#DejaVuSans-31"/>
       <use xlink:href="#DejaVuSans-30" transform="translate(63.623047 0)"/>
      </g>
     </g>
    </g>
    <g id="xtick_9">
     <g id="line2d_51">
      <path d="M 619.47184 534.04 
L 619.47184 286.36 
" clip-path="url(#pb483f82091)" style="fill: none; stroke: #b0b0b0; stroke-width: 0.8; stroke-linecap: square"/>
     </g>
     <g id="line2d_52">
      <g>
       <use xlink:href="#m03006a007e" x="619.47184" y="534.04" style="stroke: #000000; stroke-width: 0.8"/>
      </g>
     </g>
     <g id="text_27">
      <!-- 15 -->
      <g transform="translate(613.10934 548.638438) scale(0.1 -0.1)">
       <use xlink:href="#DejaVuSans-31"/>
       <use xlink:href="#DejaVuSans-35" transform="translate(63.623047 0)"/>
      </g>
     </g>
    </g>
    <g id="xtick_10">
     <g id="line2d_53">
      <path d="M 797.822908 534.04 
L 797.822908 286.36 
" clip-path="url(#pb483f82091)" style="fill: none; stroke: #b0b0b0; stroke-width: 0.8; stroke-linecap: square"/>
     </g>
     <g id="line2d_54">
      <g>
       <use xlink:href="#m03006a007e" x="797.822908" y="534.04" style="stroke: #000000; stroke-width: 0.8"/>
      </g>
     </g>
     <g id="text_28">
      <!-- 20 -->
      <g transform="translate(791.460408 548.638438) scale(0.1 -0.1)">
       <use xlink:href="#DejaVuSans-32"/>
       <use xlink:href="#DejaVuSans-30" transform="translate(63.623047 0)"/>
      </g>
     </g>
    </g>
    <g id="text_29">
     <!-- Time (ND) -->
     <g transform="translate(425.190156 562.316562) scale(0.1 -0.1)">
      <defs>
       <path id="DejaVuSans-54" d="M -19 4666 
L 3928 4666 
L 3928 4134 
L 2272 4134 
L 2272 0 
L 1638 0 
L 1638 4134 
L -19 4134 
L -19 4666 
z
" transform="scale(0.015625)"/>
       <path id="DejaVuSans-69" d="M 603 3500 
L 1178 3500 
L 1178 0 
L 603 0 
L 603 3500 
z
M 603 4863 
L 1178 4863 
L 1178 4134 
L 603 4134 
L 603 4863 
z
" transform="scale(0.015625)"/>
       <path id="DejaVuSans-6d" d="M 3328 2828 
Q 3544 3216 3844 3400 
Q 4144 3584 4550 3584 
Q 5097 3584 5394 3201 
Q 5691 2819 5691 2113 
L 5691 0 
L 5113 0 
L 5113 2094 
Q 5113 2597 4934 2840 
Q 4756 3084 4391 3084 
Q 3944 3084 3684 2787 
Q 3425 2491 3425 1978 
L 3425 0 
L 2847 0 
L 2847 2094 
Q 2847 2600 2669 2842 
Q 2491 3084 2119 3084 
Q 1678 3084 1418 2786 
Q 1159 2488 1159 1978 
L 1159 0 
L 581 0 
L 581 3500 
L 1159 3500 
L 1159 2956 
Q 1356 3278 1631 3431 
Q 1906 3584 2284 3584 
Q 2666 3584 2933 3390 
Q 3200 3197 3328 2828 
z
" transform="scale(0.015625)"/>
       <path id="DejaVuSans-4e" d="M 628 4666 
L 1478 4666 
L 3547 763 
L 3547 4666 
L 4159 4666 
L 4159 0 
L 3309 0 
L 1241 3903 
L 1241 0 
L 628 0 
L 628 4666 
z
" transform="scale(0.015625)"/>
       <path id="DejaVuSans-44" d="M 1259 4147 
L 1259 519 
L 2022 519 
Q 2988 519 3436 956 
Q 3884 1394 3884 2338 
Q 3884 3275 3436 3711 
Q 2988 4147 2022 4147 
L 1259 4147 
z
M 628 4666 
L 1925 4666 
Q 3281 4666 3915 4102 
Q 4550 3538 4550 2338 
Q 4550 1131 3912 565 
Q 3275 0 1925 0 
L 628 0 
L 628 4666 
z
" transform="scale(0.015625)"/>
      </defs>
      <use xlink:href="#DejaVuSans-54"/>
      <use xlink:href="#DejaVuSans-69" transform="translate(57.958984 0)"/>
      <use xlink:href="#DejaVuSans-6d" transform="translate(85.742188 0)"/>
      <use xlink:href="#DejaVuSans-65" transform="translate(183.154297 0)"/>
      <use xlink:href="#DejaVuSans-20" transform="translate(244.677734 0)"/>
      <use xlink:href="#DejaVuSans-28" transform="translate(276.464844 0)"/>
      <use xlink:href="#DejaVuSans-4e" transform="translate(315.478516 0)"/>
      <use xlink:href="#DejaVuSans-44" transform="translate(390.283203 0)"/>
      <use xlink:href="#DejaVuSans-29" transform="translate(467.285156 0)"/>
     </g>
    </g>
   </g>
   <g id="matplotlib.axis_4">
    <g id="ytick_8">
     <g id="line2d_55">
      <path d="M 47.81 487.860576 
L 853.2 487.860576 
" clip-path="url(#pb483f82091)" style="fill: none; stroke: #b0b0b0; stroke-width: 0.8; stroke-linecap: square"/>
     </g>
     <g id="line2d_56">
      <g>
       <use xlink:href="#med43b96afb" x="47.81" y="487.860576" style="stroke: #000000; stroke-width: 0.8"/>
      </g>
     </g>
     <g id="text_30">
      <!-- 0.2 -->
      <g transform="translate(24.906875 491.659794) scale(0.1 -0.1)">
       <use xlink:href="#DejaVuSans-30"/>
       <use xlink:href="#DejaVuSans-2e" transform="translate(63.623047 0)"/>
       <use xlink:href="#DejaVuSans-32" transform="translate(95.410156 0)"/>
      </g>
     </g>
    </g>
    <g id="ytick_9">
     <g id="line2d_57">
      <path d="M 47.81 440.299977 
L 853.2 440.299977 
" clip-path="url(#pb483f82091)" style="fill: none; stroke: #b0b0b0; stroke-width: 0.8; stroke-linecap: square"/>
     </g>
     <g id="line2d_58">
      <g>
       <use xlink:href="#med43b96afb" x="47.81" y="440.299977" style="stroke: #000000; stroke-width: 0.8"/>
      </g>
     </g>
     <g id="text_31">
      <!-- 0.4 -->
      <g transform="translate(24.906875 444.099196) scale(0.1 -0.1)">
       <use xlink:href="#DejaVuSans-30"/>
       <use xlink:href="#DejaVuSans-2e" transform="translate(63.623047 0)"/>
       <use xlink:href="#DejaVuSans-34" transform="translate(95.410156 0)"/>
      </g>
     </g>
    </g>
    <g id="ytick_10">
     <g id="line2d_59">
      <path d="M 47.81 392.739379 
L 853.2 392.739379 
" clip-path="url(#pb483f82091)" style="fill: none; stroke: #b0b0b0; stroke-width: 0.8; stroke-linecap: square"/>
     </g>
     <g id="line2d_60">
      <g>
       <use xlink:href="#med43b96afb" x="47.81" y="392.739379" style="stroke: #000000; stroke-width: 0.8"/>
      </g>
     </g>
     <g id="text_32">
      <!-- 0.6 -->
      <g transform="translate(24.906875 396.538598) scale(0.1 -0.1)">
       <use xlink:href="#DejaVuSans-30"/>
       <use xlink:href="#DejaVuSans-2e" transform="translate(63.623047 0)"/>
       <use xlink:href="#DejaVuSans-36" transform="translate(95.410156 0)"/>
      </g>
     </g>
    </g>
    <g id="ytick_11">
     <g id="line2d_61">
      <path d="M 47.81 345.17878 
L 853.2 345.17878 
" clip-path="url(#pb483f82091)" style="fill: none; stroke: #b0b0b0; stroke-width: 0.8; stroke-linecap: square"/>
     </g>
     <g id="line2d_62">
      <g>
       <use xlink:href="#med43b96afb" x="47.81" y="345.17878" style="stroke: #000000; stroke-width: 0.8"/>
      </g>
     </g>
     <g id="text_33">
      <!-- 0.8 -->
      <g transform="translate(24.906875 348.977999) scale(0.1 -0.1)">
       <use xlink:href="#DejaVuSans-30"/>
       <use xlink:href="#DejaVuSans-2e" transform="translate(63.623047 0)"/>
       <use xlink:href="#DejaVuSans-38" transform="translate(95.410156 0)"/>
      </g>
     </g>
    </g>
    <g id="ytick_12">
     <g id="line2d_63">
      <path d="M 47.81 297.618182 
L 853.2 297.618182 
" clip-path="url(#pb483f82091)" style="fill: none; stroke: #b0b0b0; stroke-width: 0.8; stroke-linecap: square"/>
     </g>
     <g id="line2d_64">
      <g>
       <use xlink:href="#med43b96afb" x="47.81" y="297.618182" style="stroke: #000000; stroke-width: 0.8"/>
      </g>
     </g>
     <g id="text_34">
      <!-- 1.0 -->
      <g transform="translate(24.906875 301.417401) scale(0.1 -0.1)">
       <use xlink:href="#DejaVuSans-31"/>
       <use xlink:href="#DejaVuSans-2e" transform="translate(63.623047 0)"/>
       <use xlink:href="#DejaVuSans-30" transform="translate(95.410156 0)"/>
      </g>
     </g>
    </g>
    <g id="text_35">
     <!-- Control Magnitude -->
     <g transform="translate(18.827187 456.35) rotate(-90) scale(0.1 -0.1)">
      <defs>
       <path id="DejaVuSans-6f" d="M 1959 3097 
Q 1497 3097 1228 2736 
Q 959 2375 959 1747 
Q 959 1119 1226 758 
Q 1494 397 1959 397 
Q 2419 397 2687 759 
Q 2956 1122 2956 1747 
Q 2956 2369 2687 2733 
Q 2419 3097 1959 3097 
z
M 1959 3584 
Q 2709 3584 3137 3096 
Q 3566 2609 3566 1747 
Q 3566 888 3137 398 
Q 2709 -91 1959 -91 
Q 1206 -91 779 398 
Q 353 888 353 1747 
Q 353 2609 779 3096 
Q 1206 3584 1959 3584 
z
" transform="scale(0.015625)"/>
       <path id="DejaVuSans-74" d="M 1172 4494 
L 1172 3500 
L 2356 3500 
L 2356 3053 
L 1172 3053 
L 1172 1153 
Q 1172 725 1289 603 
Q 1406 481 1766 481 
L 2356 481 
L 2356 0 
L 1766 0 
Q 1100 0 847 248 
Q 594 497 594 1153 
L 594 3053 
L 172 3053 
L 172 3500 
L 594 3500 
L 594 4494 
L 1172 4494 
z
" transform="scale(0.015625)"/>
       <path id="DejaVuSans-4d" d="M 628 4666 
L 1569 4666 
L 2759 1491 
L 3956 4666 
L 4897 4666 
L 4897 0 
L 4281 0 
L 4281 4097 
L 3078 897 
L 2444 897 
L 1241 4097 
L 1241 0 
L 628 0 
L 628 4666 
z
" transform="scale(0.015625)"/>
       <path id="DejaVuSans-75" d="M 544 1381 
L 544 3500 
L 1119 3500 
L 1119 1403 
Q 1119 906 1312 657 
Q 1506 409 1894 409 
Q 2359 409 2629 706 
Q 2900 1003 2900 1516 
L 2900 3500 
L 3475 3500 
L 3475 0 
L 2900 0 
L 2900 538 
Q 2691 219 2414 64 
Q 2138 -91 1772 -91 
Q 1169 -91 856 284 
Q 544 659 544 1381 
z
M 1991 3584 
L 1991 3584 
z
" transform="scale(0.015625)"/>
      </defs>
      <use xlink:href="#DejaVuSans-43"/>
      <use xlink:href="#DejaVuSans-6f" transform="translate(69.824219 0)"/>
      <use xlink:href="#DejaVuSans-6e" transform="translate(131.005859 0)"/>
      <use xlink:href="#DejaVuSans-74" transform="translate(194.384766 0)"/>
      <use xlink:href="#DejaVuSans-72" transform="translate(233.59375 0)"/>
      <use xlink:href="#DejaVuSans-6f" transform="translate(272.457031 0)"/>
      <use xlink:href="#DejaVuSans-6c" transform="translate(333.638672 0)"/>
      <use xlink:href="#DejaVuSans-20" transform="translate(361.421875 0)"/>
      <use xlink:href="#DejaVuSans-4d" transform="translate(393.208984 0)"/>
      <use xlink:href="#DejaVuSans-61" transform="translate(479.488281 0)"/>
      <use xlink:href="#DejaVuSans-67" transform="translate(540.767578 0)"/>
      <use xlink:href="#DejaVuSans-6e" transform="translate(604.244141 0)"/>
      <use xlink:href="#DejaVuSans-69" transform="translate(667.623047 0)"/>
      <use xlink:href="#DejaVuSans-74" transform="translate(695.40625 0)"/>
      <use xlink:href="#DejaVuSans-75" transform="translate(734.615234 0)"/>
      <use xlink:href="#DejaVuSans-64" transform="translate(797.994141 0)"/>
      <use xlink:href="#DejaVuSans-65" transform="translate(861.470703 0)"/>
     </g>
    </g>
   </g>
   <g id="line2d_65">
    <path d="M 84.418636 297.618182 
L 816.591364 297.618182 
L 816.591364 297.618182 
" clip-path="url(#pb483f82091)" style="fill: none; stroke: #303bc1; stroke-width: 1.5; stroke-linecap: square"/>
   </g>
   <g id="line2d_66">
    <path d="M 84.418636 331.246312 
L 89.299788 331.246312 
L 94.180939 332.758271 
L 99.062091 332.758271 
L 103.943242 334.590426 
L 108.824394 334.590426 
L 113.705545 336.528922 
L 118.586697 336.528922 
L 123.467848 338.476739 
L 128.349 338.476739 
L 133.230152 340.2945 
L 138.111303 340.2945 
L 142.992455 341.848894 
L 147.873606 341.848894 
L 152.754758 343.040067 
L 157.635909 343.040067 
L 162.517061 343.823194 
L 167.398212 343.823194 
L 172.279364 344.214256 
L 196.685121 344.134124 
L 201.566273 343.898229 
L 206.447424 343.898229 
L 211.328576 343.709795 
L 225.97203 343.699525 
L 230.853182 343.987913 
L 235.734333 343.987913 
L 240.615485 344.686292 
L 245.496636 344.686292 
L 250.377788 345.902349 
L 255.258939 345.902349 
L 260.140091 347.743572 
L 265.021242 347.743572 
L 269.902394 350.312508 
L 274.783545 350.312508 
L 279.664697 353.692799 
L 284.545848 353.692799 
L 289.427 357.929885 
L 294.308152 357.929885 
L 299.189303 363.009256 
L 304.070455 363.009256 
L 308.951606 368.836175 
L 313.832758 368.836175 
L 318.713909 375.219934 
L 323.595061 375.219934 
L 328.476212 381.862506 
L 333.357364 381.862506 
L 338.238515 388.39697 
L 343.119667 388.39697 
L 348.000818 394.539838 
L 352.88197 394.539838 
L 357.763121 400.277975 
L 362.644273 400.277975 
L 367.525424 405.926398 
L 372.406576 405.926398 
L 377.287727 412.430058 
L 382.168879 412.430058 
L 387.05003 421.902529 
L 391.931182 421.902529 
L 396.812333 436.600976 
L 401.693485 436.600976 
L 406.574636 451.55681 
L 411.455788 451.55681 
L 416.336939 490.254194 
L 421.218091 490.254194 
L 426.099242 444.067738 
L 430.980394 444.067738 
L 435.861545 473.684933 
L 440.742697 473.684933 
L 445.623848 473.823808 
L 450.505 473.823808 
L 455.386152 481.592054 
L 460.267303 481.592054 
L 465.148455 480.591848 
L 470.029606 480.591848 
L 474.910758 472.5691 
L 479.791909 472.5691 
L 484.673061 462.088089 
L 489.554212 462.088089 
L 494.435364 450.896927 
L 499.316515 450.896927 
L 504.197667 439.921005 
L 509.078818 439.921005 
L 513.95997 430.711248 
L 518.841121 430.711248 
L 523.722273 423.020409 
L 528.603424 423.020409 
L 533.484576 416.996704 
L 538.365727 416.996704 
L 543.246879 412.687201 
L 548.12803 412.687201 
L 553.009182 409.871866 
L 557.890333 409.871866 
L 562.771485 408.33839 
L 567.652636 408.33839 
L 572.533788 407.627373 
L 577.414939 407.627373 
L 582.296091 407.472831 
L 596.939545 407.430844 
L 601.820697 406.910533 
L 606.701848 406.910533 
L 611.583 405.21549 
L 616.464152 405.21549 
L 621.345303 401.788242 
L 626.226455 401.788242 
L 631.107606 396.550889 
L 635.988758 396.550889 
L 640.869909 390.320652 
L 645.751061 390.320652 
L 650.632212 385.439198 
L 655.513364 385.439198 
L 660.394515 386.892095 
L 665.275667 386.892095 
L 670.156818 381.931532 
L 675.03797 381.931532 
L 679.919121 378.344371 
L 684.800273 378.344371 
L 689.681424 372.945302 
L 694.562576 372.945302 
L 699.443727 365.838996 
L 704.324879 365.838996 
L 709.20603 358.849849 
L 714.087182 358.849849 
L 718.968333 352.605586 
L 723.849485 352.605586 
L 728.730636 347.164608 
L 733.611788 347.164608 
L 738.492939 342.496084 
L 743.374091 342.496084 
L 748.255242 338.517001 
L 753.136394 338.517001 
L 758.017545 335.110343 
L 762.898697 335.110343 
L 767.779848 332.15866 
L 772.661 332.15866 
L 777.542152 329.551157 
L 782.423303 329.551157 
L 787.304455 327.192975 
L 792.185606 327.192975 
L 797.066758 325.008725 
L 801.947909 325.008725 
L 806.829061 322.939501 
L 816.591364 322.939501 
L 816.591364 322.939501 
" clip-path="url(#pb483f82091)" style="fill: none; stroke: #4039b5; stroke-width: 1.5; stroke-linecap: square"/>
   </g>
   <g id="line2d_67">
    <path d="M 84.418636 361.398628 
L 89.299788 361.398628 
L 94.180939 363.648175 
L 99.062091 363.648175 
L 103.943242 365.883124 
L 108.824394 365.883124 
L 113.705545 368.054443 
L 118.586697 368.054443 
L 123.467848 370.119381 
L 128.349 370.119381 
L 133.230152 372.047401 
L 138.111303 372.047401 
L 142.992455 373.825014 
L 147.873606 373.825014 
L 152.754758 375.457317 
L 157.635909 375.457317 
L 162.517061 376.963377 
L 167.398212 376.963377 
L 172.279364 378.370716 
L 177.160515 378.370716 
L 182.041667 379.731502 
L 186.922818 379.731502 
L 191.80397 381.123064 
L 196.685121 381.123064 
L 201.566273 382.616156 
L 206.447424 382.616156 
L 211.328576 384.334173 
L 216.209727 384.334173 
L 221.090879 386.384031 
L 225.97203 386.384031 
L 230.853182 388.64001 
L 235.734333 388.64001 
L 240.615485 390.827066 
L 245.496636 390.827066 
L 250.377788 393.299612 
L 255.258939 393.299612 
L 260.140091 396.629794 
L 265.021242 396.629794 
L 269.902394 401.051462 
L 274.783545 401.051462 
L 279.664697 406.807671 
L 284.545848 406.807671 
L 289.427 414.098931 
L 294.308152 414.098931 
L 299.189303 422.85842 
L 304.070455 422.85842 
L 308.951606 432.610133 
L 313.832758 432.610133 
L 318.713909 442.717479 
L 323.595061 442.717479 
L 328.476212 452.739331 
L 333.357364 452.739331 
L 338.238515 462.63763 
L 343.119667 462.63763 
L 348.000818 472.673297 
L 352.88197 472.673297 
L 357.763121 483.323564 
L 362.644273 483.323564 
L 367.525424 493.006347 
L 372.406576 493.006347 
L 377.287727 485.802744 
L 382.168879 485.802744 
L 387.05003 448.845133 
L 391.931182 448.845133 
L 396.812333 453.547894 
L 401.693485 453.547894 
L 406.574636 455.666495 
L 411.455788 455.666495 
L 416.336939 458.854642 
L 421.218091 458.854642 
L 426.099242 460.318106 
L 430.980394 460.318106 
L 435.861545 460.590357 
L 440.742697 460.590357 
L 445.623848 459.386366 
L 450.505 459.386366 
L 455.386152 456.957352 
L 460.267303 456.957352 
L 465.148455 453.846622 
L 470.029606 453.846622 
L 474.910758 450.577438 
L 479.791909 450.577438 
L 484.673061 447.585145 
L 489.554212 447.585145 
L 494.435364 445.044571 
L 499.316515 445.044571 
L 504.197667 443.066305 
L 509.078818 443.066305 
L 513.95997 441.693918 
L 518.841121 441.693918 
L 523.722273 440.94517 
L 528.603424 440.94517 
L 533.484576 440.763224 
L 538.365727 440.763224 
L 543.246879 441.024886 
L 548.12803 441.024886 
L 553.009182 441.625626 
L 557.890333 441.625626 
L 562.771485 442.540725 
L 567.652636 442.540725 
L 572.533788 443.862504 
L 577.414939 443.862504 
L 582.296091 445.534818 
L 587.177242 445.534818 
L 592.058394 447.278687 
L 596.939545 447.278687 
L 601.820697 448.657609 
L 606.701848 448.657609 
L 611.583 449.104326 
L 616.464152 449.104326 
L 621.345303 447.998056 
L 626.226455 447.998056 
L 631.107606 444.85091 
L 635.988758 444.85091 
L 640.869909 439.551433 
L 645.751061 439.551433 
L 650.632212 432.452254 
L 655.513364 432.452254 
L 660.394515 424.319058 
L 665.275667 424.319058 
L 670.156818 416.134783 
L 675.03797 416.134783 
L 679.919121 408.73465 
L 684.800273 408.73465 
L 689.681424 402.488227 
L 694.562576 402.488227 
L 699.443727 397.283334 
L 704.324879 397.283334 
L 709.20603 392.804863 
L 714.087182 392.804863 
L 718.968333 388.81154 
L 723.849485 388.81154 
L 728.730636 385.240559 
L 733.611788 385.240559 
L 738.492939 382.186472 
L 743.374091 382.186472 
L 748.255242 379.823335 
L 753.136394 379.823335 
L 758.017545 378.324652 
L 762.898697 378.324652 
L 767.779848 377.81528 
L 772.661 377.81528 
L 777.542152 378.065359 
L 792.185606 378.173586 
L 797.066758 375.942039 
L 801.947909 375.942039 
L 806.829061 368.548799 
L 816.591364 368.548799 
L 816.591364 368.548799 
" clip-path="url(#pb483f82091)" style="fill: none; stroke: #5036a8; stroke-width: 1.5; stroke-linecap: square"/>
   </g>
   <g id="line2d_68">
    <path d="M 84.418636 427.227603 
L 89.299788 427.227603 
L 94.180939 427.754805 
L 99.062091 427.754805 
L 103.943242 428.466943 
L 108.824394 428.466943 
L 113.705545 429.614544 
L 118.586697 429.614544 
L 123.467848 430.998916 
L 128.349 430.998916 
L 133.230152 432.706631 
L 138.111303 432.706631 
L 142.992455 434.937075 
L 147.873606 434.937075 
L 152.754758 438.706105 
L 157.635909 438.706105 
L 162.517061 445.662134 
L 167.398212 445.662134 
L 172.279364 457.258231 
L 177.160515 457.258231 
L 182.041667 473.601357 
L 186.922818 473.601357 
L 191.80397 491.902382 
L 196.685121 491.902382 
L 201.566273 500.799634 
L 206.447424 500.799634 
L 211.328576 469.438161 
L 216.209727 469.438161 
L 221.090879 503.767164 
L 225.97203 503.767164 
L 230.853182 442.245191 
L 235.734333 442.245191 
L 240.615485 448.953307 
L 245.496636 448.953307 
L 250.377788 455.716342 
L 255.258939 455.716342 
L 260.140091 462.119688 
L 265.021242 462.119688 
L 269.902394 468.144371 
L 274.783545 468.144371 
L 279.664697 473.889477 
L 284.545848 473.889477 
L 289.427 479.16295 
L 294.308152 479.16295 
L 299.189303 484.49537 
L 304.070455 484.49537 
L 308.951606 489.927536 
L 313.832758 489.927536 
L 318.713909 495.295483 
L 323.595061 495.295483 
L 328.476212 498.24884 
L 333.357364 498.24884 
L 338.238515 497.301419 
L 343.119667 497.301419 
L 348.000818 492.633662 
L 352.88197 492.633662 
L 357.763121 469.638376 
L 362.644273 469.638376 
L 367.525424 449.35438 
L 372.406576 449.35438 
L 377.287727 464.616569 
L 382.168879 464.616569 
L 387.05003 480.725745 
L 391.931182 480.725745 
L 396.812333 493.729173 
L 401.693485 493.729173 
L 406.574636 495.536445 
L 411.455788 495.536445 
L 416.336939 491.767112 
L 421.218091 491.767112 
L 426.099242 484.742538 
L 430.980394 484.742538 
L 435.861545 469.511184 
L 440.742697 469.511184 
L 445.623848 458.837908 
L 450.505 458.837908 
L 455.386152 461.987564 
L 460.267303 461.987564 
L 465.148455 465.344199 
L 470.029606 465.344199 
L 474.910758 466.200877 
L 479.791909 466.200877 
L 484.673061 467.37926 
L 489.554212 467.37926 
L 494.435364 468.005488 
L 499.316515 468.005488 
L 504.197667 466.390396 
L 509.078818 466.390396 
L 513.95997 465.256392 
L 518.841121 465.256392 
L 523.722273 463.777293 
L 528.603424 463.777293 
L 533.484576 461.856476 
L 538.365727 461.856476 
L 543.246879 460.730049 
L 548.12803 460.730049 
L 553.009182 459.642215 
L 557.890333 459.642215 
L 562.771485 459.350136 
L 567.652636 459.350136 
L 572.533788 459.988703 
L 577.414939 459.988703 
L 582.296091 461.479031 
L 587.177242 461.479031 
L 592.058394 463.57789 
L 596.939545 463.57789 
L 601.820697 466.09428 
L 606.701848 466.09428 
L 611.583 468.880142 
L 616.464152 468.880142 
L 621.345303 471.765787 
L 626.226455 471.765787 
L 631.107606 474.416876 
L 635.988758 474.416876 
L 640.869909 476.16161 
L 645.751061 476.16161 
L 650.632212 475.933813 
L 655.513364 475.933813 
L 660.394515 472.59942 
L 665.275667 472.59942 
L 670.156818 465.532294 
L 675.03797 465.532294 
L 679.919121 455.09518 
L 684.800273 455.09518 
L 689.681424 442.452276 
L 694.562576 442.452276 
L 699.443727 429.123601 
L 704.324879 429.123601 
L 709.20603 416.400079 
L 714.087182 416.400079 
L 718.968333 404.964157 
L 723.849485 404.964157 
L 728.730636 394.920864 
L 733.611788 394.920864 
L 738.492939 386.101055 
L 743.374091 386.101055 
L 748.255242 378.314116 
L 753.136394 378.314116 
L 758.017545 371.434563 
L 762.898697 371.434563 
L 767.779848 365.381242 
L 772.661 365.381242 
L 777.542152 360.105964 
L 782.423303 360.105964 
L 787.304455 355.537357 
L 792.185606 355.537357 
L 797.066758 351.647796 
L 801.947909 351.647796 
L 806.829061 348.396738 
L 816.591364 348.396738 
L 816.591364 348.396738 
" clip-path="url(#pb483f82091)" style="fill: none; stroke: #60349c; stroke-width: 1.5; stroke-linecap: square"/>
   </g>
   <g id="line2d_69">
    <path d="M 84.418636 480.774906 
L 89.299788 480.774906 
L 94.180939 480.34425 
L 99.062091 480.34425 
L 103.943242 478.750115 
L 108.824394 478.750115 
L 113.705545 475.693833 
L 118.586697 475.693833 
L 123.467848 471.530391 
L 128.349 471.530391 
L 133.230152 467.423399 
L 138.111303 467.423399 
L 142.992455 464.683071 
L 147.873606 464.683071 
L 152.754758 463.620463 
L 167.398212 463.60227 
L 172.279364 464.01172 
L 177.160515 464.01172 
L 182.041667 464.517101 
L 186.922818 464.517101 
L 191.80397 464.986432 
L 196.685121 464.986432 
L 201.566273 465.397091 
L 206.447424 465.397091 
L 211.328576 465.734361 
L 216.209727 465.734361 
L 221.090879 466.121718 
L 225.97203 466.121718 
L 230.853182 466.718853 
L 235.734333 466.718853 
L 240.615485 467.774076 
L 245.496636 467.774076 
L 250.377788 469.802414 
L 255.258939 469.802414 
L 260.140091 481.777709 
L 265.021242 481.777709 
L 269.902394 469.116325 
L 274.783545 469.116325 
L 279.664697 461.78373 
L 284.545848 461.78373 
L 289.427 460.381902 
L 294.308152 460.381902 
L 299.189303 460.107976 
L 304.070455 460.107976 
L 308.951606 461.622644 
L 313.832758 461.622644 
L 318.713909 477.701562 
L 323.595061 477.701562 
L 328.476212 464.62415 
L 333.357364 464.62415 
L 338.238515 453.493549 
L 343.119667 453.493549 
L 348.000818 457.672469 
L 352.88197 457.672469 
L 357.763121 468.926432 
L 362.644273 468.926432 
L 367.525424 477.78503 
L 372.406576 477.78503 
L 377.287727 487.065529 
L 382.168879 487.065529 
L 387.05003 472.059132 
L 391.931182 472.059132 
L 396.812333 488.694528 
L 401.693485 488.694528 
L 406.574636 474.334475 
L 411.455788 474.334475 
L 416.336939 446.320763 
L 421.218091 446.320763 
L 426.099242 447.057087 
L 430.980394 447.057087 
L 435.861545 449.505688 
L 440.742697 449.505688 
L 445.623848 450.82828 
L 450.505 450.82828 
L 455.386152 451.723113 
L 460.267303 451.723113 
L 465.148455 452.473554 
L 470.029606 452.473554 
L 474.910758 453.337184 
L 479.791909 453.337184 
L 484.673061 454.535692 
L 489.554212 454.535692 
L 494.435364 456.253549 
L 499.316515 456.253549 
L 504.197667 458.568858 
L 509.078818 458.568858 
L 513.95997 461.447632 
L 518.841121 461.447632 
L 523.722273 464.641915 
L 528.603424 464.641915 
L 533.484576 467.745185 
L 538.365727 467.745185 
L 543.246879 470.379046 
L 548.12803 470.379046 
L 553.009182 472.30355 
L 557.890333 472.30355 
L 562.771485 473.392071 
L 567.652636 473.392071 
L 572.533788 473.682425 
L 577.414939 473.682425 
L 582.296091 473.344784 
L 587.177242 473.344784 
L 592.058394 472.589999 
L 596.939545 472.589999 
L 601.820697 471.764231 
L 606.701848 471.764231 
L 611.583 471.317892 
L 616.464152 471.317892 
L 621.345303 471.650913 
L 626.226455 471.650913 
L 631.107606 473.018712 
L 635.988758 473.018712 
L 640.869909 473.512914 
L 645.751061 473.512914 
L 650.632212 473.296846 
L 655.513364 473.296846 
L 660.394515 470.773538 
L 665.275667 470.773538 
L 670.156818 465.855125 
L 675.03797 465.855125 
L 679.919121 458.283974 
L 684.800273 458.283974 
L 689.681424 447.259073 
L 694.562576 447.259073 
L 699.443727 438.778368 
L 704.324879 438.778368 
L 709.20603 435.788814 
L 714.087182 435.788814 
L 718.968333 426.299467 
L 723.849485 426.299467 
L 728.730636 416.636556 
L 733.611788 416.636556 
L 738.492939 407.224373 
L 743.374091 407.224373 
L 748.255242 397.651984 
L 753.136394 397.651984 
L 758.017545 389.324086 
L 762.898697 389.324086 
L 767.779848 380.508247 
L 772.661 380.508247 
L 777.542152 373.142281 
L 782.423303 373.142281 
L 787.304455 367.061409 
L 792.185606 367.061409 
L 797.066758 361.332301 
L 801.947909 361.332301 
L 806.829061 356.570062 
L 816.591364 356.570062 
L 816.591364 356.570062 
" clip-path="url(#pb483f82091)" style="fill: none; stroke: #70318f; stroke-width: 1.5; stroke-linecap: square"/>
   </g>
   <g id="line2d_70">
    <path d="M 84.418636 437.004531 
L 89.299788 437.004531 
L 94.180939 437.754682 
L 99.062091 437.754682 
L 103.943242 438.806297 
L 108.824394 438.806297 
L 113.705545 440.045766 
L 118.586697 440.045766 
L 123.467848 441.415001 
L 128.349 441.415001 
L 133.230152 442.878626 
L 138.111303 442.878626 
L 142.992455 444.406139 
L 147.873606 444.406139 
L 152.754758 445.969427 
L 157.635909 445.969427 
L 162.517061 447.539933 
L 167.398212 447.539933 
L 172.279364 449.077026 
L 177.160515 449.077026 
L 182.041667 450.539434 
L 186.922818 450.539434 
L 191.80397 451.888809 
L 196.685121 451.888809 
L 201.566273 453.083654 
L 206.447424 453.083654 
L 211.328576 454.090423 
L 216.209727 454.090423 
L 221.090879 454.881097 
L 225.97203 454.881097 
L 230.853182 455.471807 
L 235.734333 455.471807 
L 240.615485 455.993892 
L 245.496636 455.993892 
L 250.377788 455.651527 
L 255.258939 455.651527 
L 260.140091 455.22372 
L 265.021242 455.22372 
L 269.902394 454.496972 
L 274.783545 454.496972 
L 279.664697 453.558976 
L 284.545848 453.558976 
L 289.427 452.48616 
L 294.308152 452.48616 
L 299.189303 451.383686 
L 304.070455 451.383686 
L 308.951606 450.455057 
L 323.595061 450.512153 
L 328.476212 452.479091 
L 333.357364 452.479091 
L 338.238515 455.093887 
L 343.119667 455.093887 
L 348.000818 457.097257 
L 352.88197 457.097257 
L 357.763121 462.3624 
L 362.644273 462.3624 
L 367.525424 462.631539 
L 372.406576 462.631539 
L 377.287727 462.868557 
L 382.168879 462.868557 
L 387.05003 463.457518 
L 391.931182 463.457518 
L 396.812333 464.172815 
L 401.693485 464.172815 
L 406.574636 465.4444 
L 411.455788 465.4444 
L 416.336939 467.580846 
L 421.218091 467.580846 
L 426.099242 465.785425 
L 430.980394 465.785425 
L 435.861545 445.227198 
L 440.742697 445.227198 
L 445.623848 454.519487 
L 450.505 454.519487 
L 455.386152 469.865617 
L 460.267303 469.865617 
L 465.148455 449.179532 
L 470.029606 449.179532 
L 474.910758 429.45778 
L 479.791909 429.45778 
L 484.673061 426.752344 
L 499.316515 426.755291 
L 504.197667 427.69714 
L 518.841121 427.711985 
L 523.722273 429.033359 
L 528.603424 429.033359 
L 533.484576 431.236076 
L 538.365727 431.236076 
L 543.246879 433.814535 
L 548.12803 433.814535 
L 553.009182 436.561424 
L 557.890333 436.561424 
L 562.771485 440.244216 
L 567.652636 440.244216 
L 572.533788 444.82348 
L 577.414939 444.82348 
L 582.296091 449.009598 
L 587.177242 449.009598 
L 592.058394 451.406152 
L 596.939545 451.406152 
L 601.820697 450.871328 
L 606.701848 450.871328 
L 611.583 448.494193 
L 616.464152 448.494193 
L 621.345303 450.211276 
L 626.226455 450.211276 
L 631.107606 457.33325 
L 635.988758 457.33325 
L 640.869909 465.013851 
L 645.751061 465.013851 
L 650.632212 472.379135 
L 655.513364 472.379135 
L 660.394515 478.030998 
L 665.275667 478.030998 
L 670.156818 480.753622 
L 675.03797 480.753622 
L 679.919121 480.2359 
L 684.800273 480.2359 
L 689.681424 475.472301 
L 694.562576 475.472301 
L 699.443727 466.501076 
L 704.324879 466.501076 
L 709.20603 449.868063 
L 714.087182 449.868063 
L 718.968333 448.733664 
L 723.849485 448.733664 
L 728.730636 432.347851 
L 733.611788 432.347851 
L 738.492939 429.042354 
L 743.374091 429.042354 
L 748.255242 431.192653 
L 753.136394 431.192653 
L 758.017545 403.189313 
L 762.898697 403.189313 
L 767.779848 409.23407 
L 772.661 409.23407 
L 777.542152 401.088607 
L 782.423303 401.088607 
L 787.304455 393.370126 
L 792.185606 393.370126 
L 797.066758 418.525583 
L 801.947909 418.525583 
L 806.829061 392.181452 
L 816.591364 392.181452 
L 816.591364 392.181452 
" clip-path="url(#pb483f82091)" style="fill: none; stroke: #802f83; stroke-width: 1.5; stroke-linecap: square"/>
   </g>
   <g id="line2d_71">
    <path d="M 84.418636 393.059353 
L 99.062091 393.034565 
L 103.943242 393.252868 
L 108.824394 393.252868 
L 113.705545 393.807817 
L 118.586697 393.807817 
L 123.467848 394.768409 
L 128.349 394.768409 
L 133.230152 396.174826 
L 138.111303 396.174826 
L 142.992455 398.032991 
L 147.873606 398.032991 
L 152.754758 400.312689 
L 157.635909 400.312689 
L 162.517061 402.946941 
L 167.398212 402.946941 
L 172.279364 405.834734 
L 177.160515 405.834734 
L 182.041667 408.84919 
L 186.922818 408.84919 
L 191.80397 411.852169 
L 196.685121 411.852169 
L 201.566273 414.713546 
L 206.447424 414.713546 
L 211.328576 417.332024 
L 216.209727 417.332024 
L 221.090879 419.648638 
L 225.97203 419.648638 
L 230.853182 421.650964 
L 235.734333 421.650964 
L 240.615485 423.36848 
L 245.496636 423.36848 
L 250.377788 424.862109 
L 255.258939 424.862109 
L 260.140091 426.215035 
L 265.021242 426.215035 
L 269.902394 427.526485 
L 274.783545 427.526485 
L 279.664697 428.901772 
L 284.545848 428.901772 
L 289.427 430.438941 
L 294.308152 430.438941 
L 299.189303 432.185149 
L 304.070455 432.185149 
L 308.951606 434.100045 
L 313.832758 434.100045 
L 318.713909 436.033173 
L 323.595061 436.033173 
L 328.476212 437.744421 
L 333.357364 437.744421 
L 338.238515 438.946929 
L 343.119667 438.946929 
L 348.000818 439.368076 
L 352.88197 439.368076 
L 357.763121 438.840402 
L 362.644273 438.840402 
L 367.525424 437.355039 
L 372.406576 437.355039 
L 377.287727 435.036108 
L 382.168879 435.036108 
L 387.05003 432.084997 
L 391.931182 432.084997 
L 396.812333 428.713186 
L 401.693485 428.713186 
L 406.574636 425.059505 
L 411.455788 425.059505 
L 416.336939 421.111439 
L 421.218091 421.111439 
L 426.099242 416.649464 
L 430.980394 416.649464 
L 435.861545 411.358053 
L 440.742697 411.358053 
L 445.623848 405.220878 
L 450.505 405.220878 
L 455.386152 404.250906 
L 460.267303 404.250906 
L 465.148455 399.554454 
L 470.029606 399.554454 
L 474.910758 396.782788 
L 479.791909 396.782788 
L 484.673061 394.831305 
L 489.554212 394.831305 
L 494.435364 392.574904 
L 499.316515 392.574904 
L 504.197667 388.799065 
L 509.078818 388.799065 
L 513.95997 387.1208 
L 518.841121 387.1208 
L 523.722273 388.860772 
L 528.603424 388.860772 
L 533.484576 390.381953 
L 538.365727 390.381953 
L 543.246879 391.060502 
L 548.12803 391.060502 
L 553.009182 391.357415 
L 557.890333 391.357415 
L 562.771485 391.61656 
L 567.652636 391.61656 
L 572.533788 392.006249 
L 577.414939 392.006249 
L 582.296091 392.646358 
L 587.177242 392.646358 
L 592.058394 393.68669 
L 596.939545 393.68669 
L 601.820697 395.375509 
L 606.701848 395.375509 
L 611.583 398.133641 
L 616.464152 398.133641 
L 621.345303 402.665975 
L 626.226455 402.665975 
L 631.107606 410.176715 
L 635.988758 410.176715 
L 640.869909 422.713203 
L 645.751061 422.713203 
L 650.632212 442.793907 
L 655.513364 442.793907 
L 660.394515 469.902599 
L 665.275667 469.902599 
L 670.156818 496.530825 
L 675.03797 496.530825 
L 679.919121 514.469608 
L 684.800273 514.469608 
L 689.681424 522.781818 
L 694.562576 522.781818 
L 699.443727 518.782491 
L 704.324879 518.782491 
L 709.20603 511.109451 
L 714.087182 511.109451 
L 718.968333 503.575845 
L 723.849485 503.575845 
L 728.730636 498.903869 
L 733.611788 498.903869 
L 738.492939 501.229586 
L 743.374091 501.229586 
L 748.255242 507.02433 
L 753.136394 507.02433 
L 758.017545 507.90897 
L 762.898697 507.90897 
L 767.779848 482.104304 
L 772.661 482.104304 
L 777.542152 495.625496 
L 782.423303 495.625496 
L 787.304455 491.971292 
L 792.185606 491.971292 
L 797.066758 488.697685 
L 801.947909 488.697685 
L 806.829061 464.441479 
L 816.591364 464.441479 
L 816.591364 464.441479 
" clip-path="url(#pb483f82091)" style="fill: none; stroke: #8f2d78; stroke-width: 1.5; stroke-linecap: square"/>
   </g>
   <g id="line2d_72">
    <path d="M 84.418636 370.776713 
L 89.299788 370.776713 
L 94.180939 372.928416 
L 99.062091 372.928416 
L 103.943242 375.365905 
L 108.824394 375.365905 
L 113.705545 378.024047 
L 118.586697 378.024047 
L 123.467848 380.811927 
L 128.349 380.811927 
L 133.230152 383.616971 
L 138.111303 383.616971 
L 142.992455 386.318261 
L 147.873606 386.318261 
L 152.754758 388.808474 
L 157.635909 388.808474 
L 162.517061 391.011655 
L 167.398212 391.011655 
L 172.279364 392.883133 
L 177.160515 392.883133 
L 182.041667 394.392655 
L 186.922818 394.392655 
L 191.80397 395.509368 
L 196.685121 395.509368 
L 201.566273 396.207352 
L 206.447424 396.207352 
L 211.328576 396.490091 
L 225.97203 396.414301 
L 230.853182 396.095847 
L 235.734333 396.095847 
L 240.615485 395.693408 
L 245.496636 395.693408 
L 250.377788 395.378153 
L 265.021242 395.307182 
L 269.902394 395.617689 
L 274.783545 395.617689 
L 279.664697 396.436466 
L 284.545848 396.436466 
L 289.427 397.891574 
L 294.308152 397.891574 
L 299.189303 400.106963 
L 304.070455 400.106963 
L 308.951606 403.241602 
L 313.832758 403.241602 
L 318.713909 407.268346 
L 323.595061 407.268346 
L 328.476212 411.938717 
L 333.357364 411.938717 
L 338.238515 416.780509 
L 343.119667 416.780509 
L 348.000818 421.122727 
L 352.88197 421.122727 
L 357.763121 424.468878 
L 362.644273 424.468878 
L 367.525424 426.606325 
L 372.406576 426.606325 
L 377.287727 427.738734 
L 382.168879 427.738734 
L 387.05003 428.375096 
L 391.931182 428.375096 
L 396.812333 429.005106 
L 401.693485 429.005106 
L 406.574636 429.898427 
L 411.455788 429.898427 
L 416.336939 431.028041 
L 421.218091 431.028041 
L 426.099242 432.131458 
L 430.980394 432.131458 
L 435.861545 432.85936 
L 450.505 432.917325 
L 455.386152 432.152913 
L 460.267303 432.152913 
L 465.148455 430.616718 
L 470.029606 430.616718 
L 474.910758 427.438301 
L 479.791909 427.438301 
L 484.673061 423.532985 
L 489.554212 423.532985 
L 494.435364 418.224584 
L 499.316515 418.224584 
L 504.197667 413.242813 
L 509.078818 413.242813 
L 513.95997 406.766818 
L 518.841121 406.766818 
L 523.722273 411.239464 
L 528.603424 411.239464 
L 533.484576 410.401615 
L 538.365727 410.401615 
L 543.246879 403.911596 
L 548.12803 403.911596 
L 553.009182 396.432336 
L 557.890333 396.432336 
L 562.771485 389.604888 
L 567.652636 389.604888 
L 572.533788 384.185199 
L 577.414939 384.185199 
L 582.296091 380.238256 
L 587.177242 380.238256 
L 592.058394 377.512803 
L 596.939545 377.512803 
L 601.820697 375.794962 
L 606.701848 375.794962 
L 611.583 375.036851 
L 616.464152 375.036851 
L 621.345303 375.360806 
L 626.226455 375.360806 
L 631.107606 377.042063 
L 635.988758 377.042063 
L 640.869909 380.489928 
L 645.751061 380.489928 
L 650.632212 386.22226 
L 655.513364 386.22226 
L 660.394515 394.822014 
L 665.275667 394.822014 
L 670.156818 406.786048 
L 675.03797 406.786048 
L 679.919121 422.079094 
L 684.800273 422.079094 
L 689.681424 439.506701 
L 694.562576 439.506701 
L 699.443727 456.603364 
L 704.324879 456.603364 
L 709.20603 470.406947 
L 714.087182 470.406947 
L 718.968333 478.522656 
L 723.849485 478.522656 
L 728.730636 479.754262 
L 733.611788 479.754262 
L 738.492939 474.475218 
L 743.374091 474.475218 
L 748.255242 464.935625 
L 753.136394 464.935625 
L 758.017545 454.336319 
L 762.898697 454.336319 
L 767.779848 445.045868 
L 772.661 445.045868 
L 777.542152 437.964991 
L 782.423303 437.964991 
L 787.304455 432.97418 
L 792.185606 432.97418 
L 797.066758 429.959507 
L 801.947909 429.959507 
L 806.829061 429.001622 
L 816.591364 429.001622 
L 816.591364 429.001622 
" clip-path="url(#pb483f82091)" style="fill: none; stroke: #9f2a6b; stroke-width: 1.5; stroke-linecap: square"/>
   </g>
   <g id="line2d_73">
    <path d="M 84.418636 340.768284 
L 89.299788 340.768284 
L 94.180939 343.984773 
L 99.062091 343.984773 
L 103.943242 348.014422 
L 108.824394 348.014422 
L 113.705545 352.916342 
L 118.586697 352.916342 
L 123.467848 358.582542 
L 128.349 358.582542 
L 133.230152 364.555151 
L 138.111303 364.555151 
L 142.992455 370.09428 
L 147.873606 370.09428 
L 152.754758 374.545549 
L 157.635909 374.545549 
L 162.517061 377.621338 
L 167.398212 377.621338 
L 172.279364 379.282385 
L 177.160515 379.282385 
L 182.041667 379.523244 
L 186.922818 379.523244 
L 191.80397 378.401152 
L 196.685121 378.401152 
L 201.566273 376.120432 
L 206.447424 376.120432 
L 211.328576 373.024741 
L 216.209727 373.024741 
L 221.090879 369.524245 
L 225.97203 369.524245 
L 230.853182 366.023796 
L 235.734333 366.023796 
L 240.615485 362.868699 
L 245.496636 362.868699 
L 250.377788 360.314208 
L 255.258939 360.314208 
L 260.140091 358.524491 
L 265.021242 358.524491 
L 269.902394 357.592759 
L 284.545848 357.566199 
L 289.427 358.466081 
L 294.308152 358.466081 
L 299.189303 360.30499 
L 304.070455 360.30499 
L 308.951606 363.101254 
L 313.832758 363.101254 
L 318.713909 366.896339 
L 323.595061 366.896339 
L 328.476212 371.768318 
L 333.357364 371.768318 
L 338.238515 377.765318 
L 343.119667 377.765318 
L 348.000818 384.689739 
L 352.88197 384.689739 
L 357.763121 391.948303 
L 362.644273 391.948303 
L 367.525424 398.875629 
L 372.406576 398.875629 
L 377.287727 405.292859 
L 382.168879 405.292859 
L 387.05003 411.653442 
L 391.931182 411.653442 
L 396.812333 418.570953 
L 401.693485 418.570953 
L 406.574636 426.238156 
L 411.455788 426.238156 
L 416.336939 434.296165 
L 421.218091 434.296165 
L 426.099242 441.902942 
L 430.980394 441.902942 
L 435.861545 447.925299 
L 440.742697 447.925299 
L 445.623848 451.418656 
L 450.505 451.418656 
L 455.386152 452.042793 
L 460.267303 452.042793 
L 465.148455 450.095018 
L 470.029606 450.095018 
L 474.910758 446.272708 
L 479.791909 446.272708 
L 484.673061 442.169378 
L 489.554212 442.169378 
L 494.435364 434.896433 
L 499.316515 434.896433 
L 504.197667 425.432717 
L 518.841121 425.361966 
L 523.722273 421.40162 
L 528.603424 421.40162 
L 533.484576 413.308023 
L 538.365727 413.308023 
L 543.246879 399.81604 
L 548.12803 399.81604 
L 553.009182 384.819701 
L 557.890333 384.819701 
L 562.771485 372.336343 
L 567.652636 372.336343 
L 572.533788 363.563113 
L 577.414939 363.563113 
L 582.296091 357.313623 
L 587.177242 357.313623 
L 592.058394 352.498515 
L 596.939545 352.498515 
L 601.820697 348.683393 
L 606.701848 348.683393 
L 611.583 345.69613 
L 616.464152 345.69613 
L 621.345303 343.449121 
L 626.226455 343.449121 
L 631.107606 341.893857 
L 635.988758 341.893857 
L 640.869909 341.011189 
L 645.751061 341.011189 
L 650.632212 340.807256 
L 655.513364 340.807256 
L 660.394515 341.32669 
L 665.275667 341.32669 
L 670.156818 342.647338 
L 675.03797 342.647338 
L 679.919121 344.843908 
L 684.800273 344.843908 
L 689.681424 347.966376 
L 694.562576 347.966376 
L 699.443727 351.974375 
L 704.324879 351.974375 
L 709.20603 356.669089 
L 714.087182 356.669089 
L 718.968333 361.640281 
L 723.849485 361.640281 
L 728.730636 366.286314 
L 733.611788 366.286314 
L 738.492939 369.948382 
L 743.374091 369.948382 
L 748.255242 372.10547 
L 753.136394 372.10547 
L 758.017545 372.51342 
L 762.898697 372.51342 
L 767.779848 371.232985 
L 772.661 371.232985 
L 777.542152 368.584869 
L 782.423303 368.584869 
L 787.304455 364.97789 
L 792.185606 364.97789 
L 797.066758 361.209499 
L 801.947909 361.209499 
L 806.829061 357.613638 
L 816.591364 357.613638 
L 816.591364 357.613638 
" clip-path="url(#pb483f82091)" style="fill: none; stroke: #af285f; stroke-width: 1.5; stroke-linecap: square"/>
   </g>
   <g id="line2d_74">
    <path d="M 84.418636 297.618182 
L 816.591364 297.618182 
L 816.591364 297.618182 
" clip-path="url(#pb483f82091)" style="fill: none; stroke: #bf2552; stroke-width: 1.5; stroke-linecap: square"/>
   </g>
   <g id="patch_9">
    <path d="M 47.81 534.04 
L 47.81 286.36 
" style="fill: none; stroke: #000000; stroke-width: 0.8; stroke-linejoin: miter; stroke-linecap: square"/>
   </g>
   <g id="patch_10">
    <path d="M 853.2 534.04 
L 853.2 286.36 
" style="fill: none; stroke: #000000; stroke-width: 0.8; stroke-linejoin: miter; stroke-linecap: square"/>
   </g>
   <g id="patch_11">
    <path d="M 47.81 534.04 
L 853.2 534.04 
" style="fill: none; stroke: #000000; stroke-width: 0.8; stroke-linejoin: miter; stroke-linecap: square"/>
   </g>
   <g id="patch_12">
    <path d="M 47.81 286.36 
L 853.2 286.36 
" style="fill: none; stroke: #000000; stroke-width: 0.8; stroke-linejoin: miter; stroke-linecap: square"/>
   </g>
  </g>
 </g>
 <defs>
  <clipPath id="pbd2b7834d5">
   <rect x="47.81" y="10.8" width="805.39" height="247.68"/>
  </clipPath>
  <clipPath id="pb483f82091">
   <rect x="47.81" y="286.36" width="805.39" height="247.68"/>
  </clipPath>
 </defs>
</svg>
