<?xml version="1.0" encoding="utf-8" standalone="no"?>
<!DOCTYPE svg PUBLIC "-//W3C//DTD SVG 1.1//EN"
  "http://www.w3.org/Graphics/SVG/1.1/DTD/svg11.dtd">
<svg xmlns:xlink="http://www.w3.org/1999/xlink" width="864pt" height="576pt" viewBox="0 0 864 576" xmlns="http://www.w3.org/2000/svg" version="1.1">
 <metadata>
  <rdf:RDF xmlns:dc="http://purl.org/dc/elements/1.1/" xmlns:cc="http://creativecommons.org/ns#" xmlns:rdf="http://www.w3.org/1999/02/22-rdf-syntax-ns#">
   <cc:Work>
    <dc:type rdf:resource="http://purl.org/dc/dcmitype/StillImage"/>
    <dc:date>2026-03-01T18:52:14.141828</dc:date>
    <dc:format>image/svg+xml</dc:format>
    <dc:creator>
     <cc:Agent>
      <dc:title>Matplotlib v3.10.8, https://matplotlib.org/</dc:title>
     </cc:Agent>
    </dc:creator>
   </cc:Work>
  </rdf:RDF>
 </metadata>
 <defs>
  <style type="text/css">*{stroke-linejoin: round; stroke-linecap: butt}</style>
 </defs>
 <g id="figure_1">
  <g id="patch_1">
   <path d="M 0 576 
L 864 576 
L 864 0 
L 0 0 
z
" style="fill: #ffffff"/>
  </g>
  <g id="axes_1">
   <g id="patch_2">
    <path d="M 47.81 258.48 
L 853.2 258.48 
L 853.2 10.8 
L 47.81 10.8 
z
" style="fill: #ffffff"/>
   </g>
   <g id="matplotlib.axis_1">
    <g id="xtick_1">
     <g id="line2d_1">
      <path d="M 84.418637 258.48 
L 84.418637 10.8 
" clip-path="url(#p97eb8fb2c0)" style="fill: none; stroke: #b0b0b0; stroke-width: 0.8; stroke-linecap: square"/>
     </g>
     <g id="line2d_2">
      <defs>
       <path id="m9edd40da1b" d="M 0 0 
L 0 3.5 
" style="stroke: #000000; stroke-width: 0.8"/>
      </defs>
      <g>
       <use xlink:href="#m9edd40da1b" x="84.418637" y="258.48" style="stroke: #000000; stroke-width: 0.8"/>
      </g>
     </g>
     <g id="text_1">
      <!-- 0 -->
      <g transform="translate(81.237387 273.078438) scale(0.1 -0.1)">
       <defs>
        <path id="DejaVuSans-30" d="M 2034 4250 
Q 1547 4250 1301 3770 
Q 1056 3291 1056 2328 
Q 1056 1369 1301 889 
Q 1547 409 2034 409 
Q 2525 409 2770 889 
Q 3016 1369 3016 2328 
Q 3016 3291 2770 3770 
Q 2525 4250 2034 4250 
z
M 2034 4750 
Q 2819 4750 3233 4129 
Q 3647 3509 3647 2328 
Q 3647 1150 3233 529 
Q 2819 -91 2034 -91 
Q 1250 -91 836 529 
Q 422 1150 422 2328 
Q 422 3509 836 4129 
Q 1250 4750 2034 4750 
z
" transform="scale(0.015625)"/>
       </defs>
       <use xlink:href="#DejaVuSans-30"/>
      </g>
     </g>
    </g>
    <g id="xtick_2">
     <g id="line2d_3">
      <path d="M 187.872324 258.48 
L 187.872324 10.8 
" clip-path="url(#p97eb8fb2c0)" style="fill: none; stroke: #b0b0b0; stroke-width: 0.8; stroke-linecap: square"/>
     </g>
     <g id="line2d_4">
      <g>
       <use xlink:href="#m9edd40da1b" x="187.872324" y="258.48" style="stroke: #000000; stroke-width: 0.8"/>
      </g>
     </g>
     <g id="text_2">
      <!-- 2 -->
      <g transform="translate(184.691074 273.078438) scale(0.1 -0.1)">
       <defs>
        <path id="DejaVuSans-32" d="M 1228 531 
L 3431 531 
L 3431 0 
L 469 0 
L 469 531 
Q 828 903 1448 1529 
Q 2069 2156 2228 2338 
Q 2531 2678 2651 2914 
Q 2772 3150 2772 3378 
Q 2772 3750 2511 3984 
Q 2250 4219 1831 4219 
Q 1534 4219 1204 4116 
Q 875 4013 500 3803 
L 500 4441 
Q 881 4594 1212 4672 
Q 1544 4750 1819 4750 
Q 2544 4750 2975 4387 
Q 3406 4025 3406 3419 
Q 3406 3131 3298 2873 
Q 3191 2616 2906 2266 
Q 2828 2175 2409 1742 
Q 1991 1309 1228 531 
z
" transform="scale(0.015625)"/>
       </defs>
       <use xlink:href="#DejaVuSans-32"/>
      </g>
     </g>
    </g>
    <g id="xtick_3">
     <g id="line2d_5">
      <path d="M 291.326012 258.48 
L 291.326012 10.8 
" clip-path="url(#p97eb8fb2c0)" style="fill: none; stroke: #b0b0b0; stroke-width: 0.8; stroke-linecap: square"/>
     </g>
     <g id="line2d_6">
      <g>
       <use xlink:href="#m9edd40da1b" x="291.326012" y="258.48" style="stroke: #000000; stroke-width: 0.8"/>
      </g>
     </g>
     <g id="text_3">
      <!-- 4 -->
      <g transform="translate(288.144762 273.078438) scale(0.1 -0.1)">
       <defs>
        <path id="DejaVuSans-34" d="M 2419 4116 
L 825 1625 
L 2419 1625 
L 2419 4116 
z
M 2253 4666 
L 3047 4666 
L 3047 1625 
L 3713 1625 
L 3713 1100 
L 3047 1100 
L 3047 0 
L 2419 0 
L 2419 1100 
L 313 1100 
L 313 1709 
L 2253 4666 
z
" transform="scale(0.015625)"/>
       </defs>
       <use xlink:href="#DejaVuSans-34"/>
      </g>
     </g>
    </g>
    <g id="xtick_4">
     <g id="line2d_7">
      <path d="M 394.779699 258.48 
L 394.779699 10.8 
" clip-path="url(#p97eb8fb2c0)" style="fill: none; stroke: #b0b0b0; stroke-width: 0.8; stroke-linecap: square"/>
     </g>
     <g id="line2d_8">
      <g>
       <use xlink:href="#m9edd40da1b" x="394.779699" y="258.48" style="stroke: #000000; stroke-width: 0.8"/>
      </g>
     </g>
     <g id="text_4">
      <!-- 6 -->
      <g transform="translate(391.598449 273.078438) scale(0.1 -0.1)">
       <defs>
        <path id="DejaVuSans-36" d="M 2113 2584 
Q 1688 2584 1439 2293 
Q 1191 2003 1191 1497 
Q 1191 994 1439 701 
Q 1688 409 2113 409 
Q 2538 409 2786 701 
Q 3034 994 3034 1497 
Q 3034 2003 2786 2293 
Q 2538 2584 2113 2584 
z
M 3366 4563 
L 3366 3988 
Q 3128 4100 2886 4159 
Q 2644 4219 2406 4219 
Q 1781 4219 1451 3797 
Q 1122 3375 1075 2522 
Q 1259 2794 1537 2939 
Q 1816 3084 2150 3084 
Q 2853 3084 3261 2657 
Q 3669 2231 3669 1497 
Q 3669 778 3244 343 
Q 2819 -91 2113 -91 
Q 1303 -91 875 529 
Q 447 1150 447 2328 
Q 447 3434 972 4092 
Q 1497 4750 2381 4750 
Q 2619 4750 2861 4703 
Q 3103 4656 3366 4563 
z
" transform="scale(0.015625)"/>
       </defs>
       <use xlink:href="#DejaVuSans-36"/>
      </g>
     </g>
    </g>
    <g id="xtick_5">
     <g id="line2d_9">
      <path d="M 498.233387 258.48 
L 498.233387 10.8 
" clip-path="url(#p97eb8fb2c0)" style="fill: none; stroke: #b0b0b0; stroke-width: 0.8; stroke-linecap: square"/>
     </g>
     <g id="line2d_10">
      <g>
       <use xlink:href="#m9edd40da1b" x="498.233387" y="258.48" style="stroke: #000000; stroke-width: 0.8"/>
      </g>
     </g>
     <g id="text_5">
      <!-- 8 -->
      <g transform="translate(495.052137 273.078438) scale(0.1 -0.1)">
       <defs>
        <path id="DejaVuSans-38" d="M 2034 2216 
Q 1584 2216 1326 1975 
Q 1069 1734 1069 1313 
Q 1069 891 1326 650 
Q 1584 409 2034 409 
Q 2484 409 2743 651 
Q 3003 894 3003 1313 
Q 3003 1734 2745 1975 
Q 2488 2216 2034 2216 
z
M 1403 2484 
Q 997 2584 770 2862 
Q 544 3141 544 3541 
Q 544 4100 942 4425 
Q 1341 4750 2034 4750 
Q 2731 4750 3128 4425 
Q 3525 4100 3525 3541 
Q 3525 3141 3298 2862 
Q 3072 2584 2669 2484 
Q 3125 2378 3379 2068 
Q 3634 1759 3634 1313 
Q 3634 634 3220 271 
Q 2806 -91 2034 -91 
Q 1263 -91 848 271 
Q 434 634 434 1313 
Q 434 1759 690 2068 
Q 947 2378 1403 2484 
z
M 1172 3481 
Q 1172 3119 1398 2916 
Q 1625 2713 2034 2713 
Q 2441 2713 2670 2916 
Q 2900 3119 2900 3481 
Q 2900 3844 2670 4047 
Q 2441 4250 2034 4250 
Q 1625 4250 1398 4047 
Q 1172 3844 1172 3481 
z
" transform="scale(0.015625)"/>
       </defs>
       <use xlink:href="#DejaVuSans-38"/>
      </g>
     </g>
    </g>
    <g id="xtick_6">
     <g id="line2d_11">
      <path d="M 601.687075 258.48 
L 601.687075 10.8 
" clip-path="url(#p97eb8fb2c0)" style="fill: none; stroke: #b0b0b0; stroke-width: 0.8; stroke-linecap: square"/>
     </g>
     <g id="line2d_12">
      <g>
       <use xlink:href="#m9edd40da1b" x="601.687075" y="258.48" style="stroke: #000000; stroke-width: 0.8"/>
      </g>
     </g>
     <g id="text_6">
      <!-- 10 -->
      <g transform="translate(595.324575 273.078438) scale(0.1 -0.1)">
       <defs>
        <path id="DejaVuSans-31" d="M 794 531 
L 1825 531 
L 1825 4091 
L 703 3866 
L 703 4441 
L 1819 4666 
L 2450 4666 
L 2450 531 
L 3481 531 
L 3481 0 
L 794 0 
L 794 531 
z
" transform="scale(0.015625)"/>
       </defs>
       <use xlink:href="#DejaVuSans-31"/>
       <use xlink:href="#DejaVuSans-30" transform="translate(63.623047 0)"/>
      </g>
     </g>
    </g>
    <g id="xtick_7">
     <g id="line2d_13">
      <path d="M 705.140762 258.48 
L 705.140762 10.8 
" clip-path="url(#p97eb8fb2c0)" style="fill: none; stroke: #b0b0b0; stroke-width: 0.8; stroke-linecap: square"/>
     </g>
     <g id="line2d_14">
      <g>
       <use xlink:href="#m9edd40da1b" x="705.140762" y="258.48" style="stroke: #000000; stroke-width: 0.8"/>
      </g>
     </g>
     <g id="text_7">
      <!-- 12 -->
      <g transform="translate(698.778262 273.078438) scale(0.1 -0.1)">
       <use xlink:href="#DejaVuSans-31"/>
       <use xlink:href="#DejaVuSans-32" transform="translate(63.623047 0)"/>
      </g>
     </g>
    </g>
    <g id="xtick_8">
     <g id="line2d_15">
      <path d="M 808.59445 258.48 
L 808.59445 10.8 
" clip-path="url(#p97eb8fb2c0)" style="fill: none; stroke: #b0b0b0; stroke-width: 0.8; stroke-linecap: square"/>
     </g>
     <g id="line2d_16">
      <g>
       <use xlink:href="#m9edd40da1b" x="808.59445" y="258.48" style="stroke: #000000; stroke-width: 0.8"/>
      </g>
     </g>
     <g id="text_8">
      <!-- 14 -->
      <g transform="translate(802.23195 273.078438) scale(0.1 -0.1)">
       <use xlink:href="#DejaVuSans-31"/>
       <use xlink:href="#DejaVuSans-34" transform="translate(63.623047 0)"/>
      </g>
     </g>
    </g>
   </g>
   <g id="matplotlib.axis_2">
    <g id="ytick_1">
     <g id="line2d_17">
      <path d="M 47.81 247.221818 
L 853.2 247.221818 
" clip-path="url(#p97eb8fb2c0)" style="fill: none; stroke: #b0b0b0; stroke-width: 0.8; stroke-linecap: square"/>
     </g>
     <g id="line2d_18">
      <defs>
       <path id="mcebc425d3e" d="M 0 0 
L -3.5 0 
" style="stroke: #000000; stroke-width: 0.8"/>
      </defs>
      <g>
       <use xlink:href="#mcebc425d3e" x="47.81" y="247.221818" style="stroke: #000000; stroke-width: 0.8"/>
      </g>
     </g>
     <g id="text_9">
      <!-- 0.0 -->
      <g transform="translate(24.906875 251.021037) scale(0.1 -0.1)">
       <defs>
        <path id="DejaVuSans-2e" d="M 684 794 
L 1344 794 
L 1344 0 
L 684 0 
L 684 794 
z
" transform="scale(0.015625)"/>
       </defs>
       <use xlink:href="#DejaVuSans-30"/>
       <use xlink:href="#DejaVuSans-2e" transform="translate(63.623047 0)"/>
       <use xlink:href="#DejaVuSans-30" transform="translate(95.410156 0)"/>
      </g>
     </g>
    </g>
    <g id="ytick_2">
     <g id="line2d_19">
      <path d="M 47.81 211.385909 
L 853.2 211.385909 
" clip-path="url(#p97eb8fb2c0)" style="fill: none; stroke: #b0b0b0; stroke-width: 0.8; stroke-linecap: square"/>
     </g>
     <g id="line2d_20">
      <g>
       <use xlink:href="#mcebc425d3e" x="47.81" y="211.385909" style="stroke: #000000; stroke-width: 0.8"/>
      </g>
     </g>
     <g id="text_10">
      <!-- 0.5 -->
      <g transform="translate(24.906875 215.185128) scale(0.1 -0.1)">
       <defs>
        <path id="DejaVuSans-35" d="M 691 4666 
L 3169 4666 
L 3169 4134 
L 1269 4134 
L 1269 2991 
Q 1406 3038 1543 3061 
Q 1681 3084 1819 3084 
Q 2600 3084 3056 2656 
Q 3513 2228 3513 1497 
Q 3513 744 3044 326 
Q 2575 -91 1722 -91 
Q 1428 -91 1123 -41 
Q 819 9 494 109 
L 494 744 
Q 775 591 1075 516 
Q 1375 441 1709 441 
Q 2250 441 2565 725 
Q 2881 1009 2881 1497 
Q 2881 1984 2565 2268 
Q 2250 2553 1709 2553 
Q 1456 2553 1204 2497 
Q 953 2441 691 2322 
L 691 4666 
z
" transform="scale(0.015625)"/>
       </defs>
       <use xlink:href="#DejaVuSans-30"/>
       <use xlink:href="#DejaVuSans-2e" transform="translate(63.623047 0)"/>
       <use xlink:href="#DejaVuSans-35" transform="translate(95.410156 0)"/>
      </g>
     </g>
    </g>
    <g id="ytick_3">
     <g id="line2d_21">
      <path d="M 47.81 175.55 
L 853.2 175.55 
" clip-path="url(#p97eb8fb2c0)" style="fill: none; stroke: #b0b0b0; stroke-width: 0.8; stroke-linecap: square"/>
     </g>
     <g id="line2d_22">
      <g>
       <use xlink:href="#mcebc425d3e" x="47.81" y="175.55" style="stroke: #000000; stroke-width: 0.8"/>
      </g>
     </g>
     <g id="text_11">
      <!-- 1.0 -->
      <g transform="translate(24.906875 179.349218) scale(0.1 -0.1)">
       <use xlink:href="#DejaVuSans-31"/>
       <use xlink:href="#DejaVuSans-2e" transform="translate(63.623047 0)"/>
       <use xlink:href="#DejaVuSans-30" transform="translate(95.410156 0)"/>
      </g>
     </g>
    </g>
    <g id="ytick_4">
     <g id="line2d_23">
      <path d="M 47.81 139.71409 
L 853.2 139.71409 
" clip-path="url(#p97eb8fb2c0)" style="fill: none; stroke: #b0b0b0; stroke-width: 0.8; stroke-linecap: square"/>
     </g>
     <g id="line2d_24">
      <g>
       <use xlink:href="#mcebc425d3e" x="47.81" y="139.71409" style="stroke: #000000; stroke-width: 0.8"/>
      </g>
     </g>
     <g id="text_12">
      <!-- 1.5 -->
      <g transform="translate(24.906875 143.513309) scale(0.1 -0.1)">
       <use xlink:href="#DejaVuSans-31"/>
       <use xlink:href="#DejaVuSans-2e" transform="translate(63.623047 0)"/>
       <use xlink:href="#DejaVuSans-35" transform="translate(95.410156 0)"/>
      </g>
     </g>
    </g>
    <g id="ytick_5">
     <g id="line2d_25">
      <path d="M 47.81 103.878181 
L 853.2 103.878181 
" clip-path="url(#p97eb8fb2c0)" style="fill: none; stroke: #b0b0b0; stroke-width: 0.8; stroke-linecap: square"/>
     </g>
     <g id="line2d_26">
      <g>
       <use xlink:href="#mcebc425d3e" x="47.81" y="103.878181" style="stroke: #000000; stroke-width: 0.8"/>
      </g>
     </g>
     <g id="text_13">
      <!-- 2.0 -->
      <g transform="translate(24.906875 107.6774) scale(0.1 -0.1)">
       <use xlink:href="#DejaVuSans-32"/>
       <use xlink:href="#DejaVuSans-2e" transform="translate(63.623047 0)"/>
       <use xlink:href="#DejaVuSans-30" transform="translate(95.410156 0)"/>
      </g>
     </g>
    </g>
    <g id="ytick_6">
     <g id="line2d_27">
      <path d="M 47.81 68.042272 
L 853.2 68.042272 
" clip-path="url(#p97eb8fb2c0)" style="fill: none; stroke: #b0b0b0; stroke-width: 0.8; stroke-linecap: square"/>
     </g>
     <g id="line2d_28">
      <g>
       <use xlink:href="#mcebc425d3e" x="47.81" y="68.042272" style="stroke: #000000; stroke-width: 0.8"/>
      </g>
     </g>
     <g id="text_14">
      <!-- 2.5 -->
      <g transform="translate(24.906875 71.841491) scale(0.1 -0.1)">
       <use xlink:href="#DejaVuSans-32"/>
       <use xlink:href="#DejaVuSans-2e" transform="translate(63.623047 0)"/>
       <use xlink:href="#DejaVuSans-35" transform="translate(95.410156 0)"/>
      </g>
     </g>
    </g>
    <g id="ytick_7">
     <g id="line2d_29">
      <path d="M 47.81 32.206363 
L 853.2 32.206363 
" clip-path="url(#p97eb8fb2c0)" style="fill: none; stroke: #b0b0b0; stroke-width: 0.8; stroke-linecap: square"/>
     </g>
     <g id="line2d_30">
      <g>
       <use xlink:href="#mcebc425d3e" x="47.81" y="32.206363" style="stroke: #000000; stroke-width: 0.8"/>
      </g>
     </g>
     <g id="text_15">
      <!-- 3.0 -->
      <g transform="translate(24.906875 36.005581) scale(0.1 -0.1)">
       <defs>
        <path id="DejaVuSans-33" d="M 2597 2516 
Q 3050 2419 3304 2112 
Q 3559 1806 3559 1356 
Q 3559 666 3084 287 
Q 2609 -91 1734 -91 
Q 1441 -91 1130 -33 
Q 819 25 488 141 
L 488 750 
Q 750 597 1062 519 
Q 1375 441 1716 441 
Q 2309 441 2620 675 
Q 2931 909 2931 1356 
Q 2931 1769 2642 2001 
Q 2353 2234 1838 2234 
L 1294 2234 
L 1294 2753 
L 1863 2753 
Q 2328 2753 2575 2939 
Q 2822 3125 2822 3475 
Q 2822 3834 2567 4026 
Q 2313 4219 1838 4219 
Q 1578 4219 1281 4162 
Q 984 4106 628 3988 
L 628 4550 
Q 988 4650 1302 4700 
Q 1616 4750 1894 4750 
Q 2613 4750 3031 4423 
Q 3450 4097 3450 3541 
Q 3450 3153 3228 2886 
Q 3006 2619 2597 2516 
z
" transform="scale(0.015625)"/>
       </defs>
       <use xlink:href="#DejaVuSans-33"/>
       <use xlink:href="#DejaVuSans-2e" transform="translate(63.623047 0)"/>
       <use xlink:href="#DejaVuSans-30" transform="translate(95.410156 0)"/>
      </g>
     </g>
    </g>
    <g id="text_16">
     <!-- Phase Angle (rad) -->
     <g transform="translate(18.827187 179.17125) rotate(-90) scale(0.1 -0.1)">
      <defs>
       <path id="DejaVuSans-50" d="M 1259 4147 
L 1259 2394 
L 2053 2394 
Q 2494 2394 2734 2622 
Q 2975 2850 2975 3272 
Q 2975 3691 2734 3919 
Q 2494 4147 2053 4147 
L 1259 4147 
z
M 628 4666 
L 2053 4666 
Q 2838 4666 3239 4311 
Q 3641 3956 3641 3272 
Q 3641 2581 3239 2228 
Q 2838 1875 2053 1875 
L 1259 1875 
L 1259 0 
L 628 0 
L 628 4666 
z
" transform="scale(0.015625)"/>
       <path id="DejaVuSans-68" d="M 3513 2113 
L 3513 0 
L 2938 0 
L 2938 2094 
Q 2938 2591 2744 2837 
Q 2550 3084 2163 3084 
Q 1697 3084 1428 2787 
Q 1159 2491 1159 1978 
L 1159 0 
L 581 0 
L 581 4863 
L 1159 4863 
L 1159 2956 
Q 1366 3272 1645 3428 
Q 1925 3584 2291 3584 
Q 2894 3584 3203 3211 
Q 3513 2838 3513 2113 
z
" transform="scale(0.015625)"/>
       <path id="DejaVuSans-61" d="M 2194 1759 
Q 1497 1759 1228 1600 
Q 959 1441 959 1056 
Q 959 750 1161 570 
Q 1363 391 1709 391 
Q 2188 391 2477 730 
Q 2766 1069 2766 1631 
L 2766 1759 
L 2194 1759 
z
M 3341 1997 
L 3341 0 
L 2766 0 
L 2766 531 
Q 2569 213 2275 61 
Q 1981 -91 1556 -91 
Q 1019 -91 701 211 
Q 384 513 384 1019 
Q 384 1609 779 1909 
Q 1175 2209 1959 2209 
L 2766 2209 
L 2766 2266 
Q 2766 2663 2505 2880 
Q 2244 3097 1772 3097 
Q 1472 3097 1187 3025 
Q 903 2953 641 2809 
L 641 3341 
Q 956 3463 1253 3523 
Q 1550 3584 1831 3584 
Q 2591 3584 2966 3190 
Q 3341 2797 3341 1997 
z
" transform="scale(0.015625)"/>
       <path id="DejaVuSans-73" d="M 2834 3397 
L 2834 2853 
Q 2591 2978 2328 3040 
Q 2066 3103 1784 3103 
Q 1356 3103 1142 2972 
Q 928 2841 928 2578 
Q 928 2378 1081 2264 
Q 1234 2150 1697 2047 
L 1894 2003 
Q 2506 1872 2764 1633 
Q 3022 1394 3022 966 
Q 3022 478 2636 193 
Q 2250 -91 1575 -91 
Q 1294 -91 989 -36 
Q 684 19 347 128 
L 347 722 
Q 666 556 975 473 
Q 1284 391 1588 391 
Q 1994 391 2212 530 
Q 2431 669 2431 922 
Q 2431 1156 2273 1281 
Q 2116 1406 1581 1522 
L 1381 1569 
Q 847 1681 609 1914 
Q 372 2147 372 2553 
Q 372 3047 722 3315 
Q 1072 3584 1716 3584 
Q 2034 3584 2315 3537 
Q 2597 3491 2834 3397 
z
" transform="scale(0.015625)"/>
       <path id="DejaVuSans-65" d="M 3597 1894 
L 3597 1613 
L 953 1613 
Q 991 1019 1311 708 
Q 1631 397 2203 397 
Q 2534 397 2845 478 
Q 3156 559 3463 722 
L 3463 178 
Q 3153 47 2828 -22 
Q 2503 -91 2169 -91 
Q 1331 -91 842 396 
Q 353 884 353 1716 
Q 353 2575 817 3079 
Q 1281 3584 2069 3584 
Q 2775 3584 3186 3129 
Q 3597 2675 3597 1894 
z
M 3022 2063 
Q 3016 2534 2758 2815 
Q 2500 3097 2075 3097 
Q 1594 3097 1305 2825 
Q 1016 2553 972 2059 
L 3022 2063 
z
" transform="scale(0.015625)"/>
       <path id="DejaVuSans-20" transform="scale(0.015625)"/>
       <path id="DejaVuSans-41" d="M 2188 4044 
L 1331 1722 
L 3047 1722 
L 2188 4044 
z
M 1831 4666 
L 2547 4666 
L 4325 0 
L 3669 0 
L 3244 1197 
L 1141 1197 
L 716 0 
L 50 0 
L 1831 4666 
z
" transform="scale(0.015625)"/>
       <path id="DejaVuSans-6e" d="M 3513 2113 
L 3513 0 
L 2938 0 
L 2938 2094 
Q 2938 2591 2744 2837 
Q 2550 3084 2163 3084 
Q 1697 3084 1428 2787 
Q 1159 2491 1159 1978 
L 1159 0 
L 581 0 
L 581 3500 
L 1159 3500 
L 1159 2956 
Q 1366 3272 1645 3428 
Q 1925 3584 2291 3584 
Q 2894 3584 3203 3211 
Q 3513 2838 3513 2113 
z
" transform="scale(0.015625)"/>
       <path id="DejaVuSans-67" d="M 2906 1791 
Q 2906 2416 2648 2759 
Q 2391 3103 1925 3103 
Q 1463 3103 1205 2759 
Q 947 2416 947 1791 
Q 947 1169 1205 825 
Q 1463 481 1925 481 
Q 2391 481 2648 825 
Q 2906 1169 2906 1791 
z
M 3481 434 
Q 3481 -459 3084 -895 
Q 2688 -1331 1869 -1331 
Q 1566 -1331 1297 -1286 
Q 1028 -1241 775 -1147 
L 775 -588 
Q 1028 -725 1275 -790 
Q 1522 -856 1778 -856 
Q 2344 -856 2625 -561 
Q 2906 -266 2906 331 
L 2906 616 
Q 2728 306 2450 153 
Q 2172 0 1784 0 
Q 1141 0 747 490 
Q 353 981 353 1791 
Q 353 2603 747 3093 
Q 1141 3584 1784 3584 
Q 2172 3584 2450 3431 
Q 2728 3278 2906 2969 
L 2906 3500 
L 3481 3500 
L 3481 434 
z
" transform="scale(0.015625)"/>
       <path id="DejaVuSans-6c" d="M 603 4863 
L 1178 4863 
L 1178 0 
L 603 0 
L 603 4863 
z
" transform="scale(0.015625)"/>
       <path id="DejaVuSans-28" d="M 1984 4856 
Q 1566 4138 1362 3434 
Q 1159 2731 1159 2009 
Q 1159 1288 1364 580 
Q 1569 -128 1984 -844 
L 1484 -844 
Q 1016 -109 783 600 
Q 550 1309 550 2009 
Q 550 2706 781 3412 
Q 1013 4119 1484 4856 
L 1984 4856 
z
" transform="scale(0.015625)"/>
       <path id="DejaVuSans-72" d="M 2631 2963 
Q 2534 3019 2420 3045 
Q 2306 3072 2169 3072 
Q 1681 3072 1420 2755 
Q 1159 2438 1159 1844 
L 1159 0 
L 581 0 
L 581 3500 
L 1159 3500 
L 1159 2956 
Q 1341 3275 1631 3429 
Q 1922 3584 2338 3584 
Q 2397 3584 2469 3576 
Q 2541 3569 2628 3553 
L 2631 2963 
z
" transform="scale(0.015625)"/>
       <path id="DejaVuSans-64" d="M 2906 2969 
L 2906 4863 
L 3481 4863 
L 3481 0 
L 2906 0 
L 2906 525 
Q 2725 213 2448 61 
Q 2172 -91 1784 -91 
Q 1150 -91 751 415 
Q 353 922 353 1747 
Q 353 2572 751 3078 
Q 1150 3584 1784 3584 
Q 2172 3584 2448 3432 
Q 2725 3281 2906 2969 
z
M 947 1747 
Q 947 1113 1208 752 
Q 1469 391 1925 391 
Q 2381 391 2643 752 
Q 2906 1113 2906 1747 
Q 2906 2381 2643 2742 
Q 2381 3103 1925 3103 
Q 1469 3103 1208 2742 
Q 947 2381 947 1747 
z
" transform="scale(0.015625)"/>
       <path id="DejaVuSans-29" d="M 513 4856 
L 1013 4856 
Q 1481 4119 1714 3412 
Q 1947 2706 1947 2009 
Q 1947 1309 1714 600 
Q 1481 -109 1013 -844 
L 513 -844 
Q 928 -128 1133 580 
Q 1338 1288 1338 2009 
Q 1338 2731 1133 3434 
Q 928 4138 513 4856 
z
" transform="scale(0.015625)"/>
      </defs>
      <use xlink:href="#DejaVuSans-50"/>
      <use xlink:href="#DejaVuSans-68" transform="translate(60.302734 0)"/>
      <use xlink:href="#DejaVuSans-61" transform="translate(123.681641 0)"/>
      <use xlink:href="#DejaVuSans-73" transform="translate(184.960938 0)"/>
      <use xlink:href="#DejaVuSans-65" transform="translate(237.060547 0)"/>
      <use xlink:href="#DejaVuSans-20" transform="translate(298.583984 0)"/>
      <use xlink:href="#DejaVuSans-41" transform="translate(330.371094 0)"/>
      <use xlink:href="#DejaVuSans-6e" transform="translate(398.779297 0)"/>
      <use xlink:href="#DejaVuSans-67" transform="translate(462.158203 0)"/>
      <use xlink:href="#DejaVuSans-6c" transform="translate(525.634766 0)"/>
      <use xlink:href="#DejaVuSans-65" transform="translate(553.417969 0)"/>
      <use xlink:href="#DejaVuSans-20" transform="translate(614.941406 0)"/>
      <use xlink:href="#DejaVuSans-28" transform="translate(646.728516 0)"/>
      <use xlink:href="#DejaVuSans-72" transform="translate(685.742188 0)"/>
      <use xlink:href="#DejaVuSans-61" transform="translate(726.855469 0)"/>
      <use xlink:href="#DejaVuSans-64" transform="translate(788.134766 0)"/>
      <use xlink:href="#DejaVuSans-29" transform="translate(851.611328 0)"/>
     </g>
    </g>
   </g>
   <g id="line2d_31">
    <path d="M 84.418637 247.221818 
L 814.741387 247.221818 
L 814.741387 247.221818 
" clip-path="url(#p97eb8fb2c0)" style="fill: none; stroke: #303bc1; stroke-width: 1.5; stroke-linecap: square"/>
   </g>
   <g id="line2d_32">
    <path d="M 84.418637 222.20362 
L 89.290957 234.559972 
L 201.354329 234.542668 
L 254.949854 234.692408 
L 303.673059 234.992492 
L 337.779303 235.4081 
L 367.013226 235.981443 
L 396.247149 236.809729 
L 425.481072 237.902972 
L 454.714995 239.225904 
L 498.56588 241.464971 
L 527.799803 243.165484 
L 586.267649 246.696663 
L 596.01229 247.14251 
L 600.884611 247.105426 
L 615.501572 246.634785 
L 634.990854 246.276357 
L 654.480136 246.180859 
L 678.841739 246.313569 
L 776.288149 247.168457 
L 815.266713 247.221813 
L 815.266713 247.221813 
" clip-path="url(#p97eb8fb2c0)" style="fill: none; stroke: #4039b5; stroke-width: 1.5; stroke-linecap: square"/>
   </g>
   <g id="line2d_33">
    <path d="M 84.418637 197.185506 
L 89.292586 221.899984 
L 225.763161 221.799106 
L 264.754754 221.972354 
L 293.998449 222.277546 
L 318.368195 222.716907 
L 347.611889 223.485236 
L 371.981635 224.336631 
L 401.22533 225.600461 
L 430.469025 227.089334 
L 474.334567 229.570411 
L 493.830363 230.825736 
L 513.32616 232.332953 
L 527.948007 233.669424 
L 542.569854 235.206523 
L 562.065651 237.497017 
L 596.183295 241.612598 
L 610.805142 243.177422 
L 625.42699 244.516594 
L 640.048837 245.594735 
L 654.670684 246.405363 
L 669.292532 246.96719 
L 679.04043 247.220794 
L 698.536227 246.949332 
L 722.905972 246.890732 
L 766.771514 247.08257 
L 815.511006 247.221814 
L 815.511006 247.221814 
" clip-path="url(#p97eb8fb2c0)" style="fill: none; stroke: #5036a8; stroke-width: 1.5; stroke-linecap: square"/>
   </g>
   <g id="line2d_34">
    <path d="M 84.418637 172.167251 
L 89.276473 209.264185 
L 147.570511 209.327959 
L 235.011569 209.275415 
L 254.442915 209.51508 
L 273.874261 209.945812 
L 293.305607 210.62116 
L 307.879117 211.311062 
L 327.310463 212.464597 
L 346.741809 213.866364 
L 366.173155 215.477903 
L 390.462338 217.704517 
L 429.32503 221.523085 
L 477.903395 226.491835 
L 502.192578 229.168101 
L 526.481761 232.11142 
L 589.633636 240.101724 
L 604.207145 241.699094 
L 618.780655 243.100981 
L 633.354164 244.277288 
L 647.927674 245.216334 
L 662.501184 245.92542 
L 677.074693 246.431737 
L 696.506039 246.850936 
L 720.795222 247.099215 
L 754.800078 247.175864 
L 813.094116 247.221813 
L 813.094116 247.221813 
" clip-path="url(#p97eb8fb2c0)" style="fill: none; stroke: #60349c; stroke-width: 1.5; stroke-linecap: square"/>
   </g>
   <g id="line2d_35">
    <path d="M 84.418637 147.149067 
L 89.28207 196.598271 
L 181.687302 196.765984 
L 201.141035 197.011936 
L 215.731335 197.340851 
L 230.321635 197.844784 
L 244.911935 198.551286 
L 259.502234 199.458574 
L 274.092534 200.580318 
L 288.682834 201.912693 
L 303.273134 203.446028 
L 322.726867 205.743923 
L 347.044033 208.90377 
L 415.132099 217.970788 
L 444.312699 221.509094 
L 507.537331 228.97537 
L 526.991065 231.621175 
L 546.444798 234.525801 
L 580.488831 239.712798 
L 595.07913 241.680113 
L 609.66943 243.353743 
L 624.25973 244.700359 
L 638.85003 245.727676 
L 653.44033 246.469786 
L 668.030629 246.969255 
L 677.757496 247.182003 
L 740.982129 247.051339 
L 794.479895 247.198979 
L 813.933628 247.221813 
L 813.933628 247.221813 
" clip-path="url(#p97eb8fb2c0)" style="fill: none; stroke: #70318f; stroke-width: 1.5; stroke-linecap: square"/>
   </g>
   <g id="line2d_36">
    <path d="M 84.418637 122.130883 
L 89.290012 183.930676 
L 181.846141 183.874706 
L 201.331642 184.152863 
L 215.945768 184.526645 
L 230.559894 185.086151 
L 245.174019 185.871083 
L 259.788145 186.89056 
L 274.402271 188.165633 
L 289.016397 189.6905 
L 303.630522 191.462468 
L 318.244648 193.451122 
L 332.858774 195.641022 
L 352.344275 198.832529 
L 371.829776 202.263275 
L 401.058027 207.66552 
L 459.51453 218.53321 
L 561.81341 237.005065 
L 576.427536 239.454493 
L 591.041661 241.656331 
L 600.784412 242.949005 
L 610.527162 244.084537 
L 620.269913 245.056077 
L 630.012663 245.864074 
L 639.755414 246.515937 
L 649.498164 247.02295 
L 654.369539 247.216876 
L 668.983665 246.779662 
L 683.597791 246.555748 
L 703.083292 246.494396 
L 732.311543 246.664952 
L 805.382172 247.210229 
L 815.124922 247.221813 
L 815.124922 247.221813 
" clip-path="url(#p97eb8fb2c0)" style="fill: none; stroke: #802f83; stroke-width: 1.5; stroke-linecap: square"/>
   </g>
   <g id="line2d_37">
    <path d="M 84.418637 97.112699 
L 89.292118 171.271412 
L 138.026932 171.019638 
L 167.267821 170.935084 
L 191.635228 171.118328 
L 206.255672 171.427812 
L 220.876116 171.941505 
L 235.49656 172.695829 
L 250.117005 173.727222 
L 264.737449 175.035291 
L 279.357893 176.642231 
L 293.978337 178.544321 
L 308.598782 180.738355 
L 323.219226 183.191441 
L 337.83967 185.872636 
L 352.460114 188.74614 
L 371.95404 192.810091 
L 396.321447 198.140623 
L 435.309298 206.940026 
L 503.538038 222.56049 
L 566.893296 237.256493 
L 581.513741 240.26147 
L 591.260703 242.049998 
L 601.007666 243.623088 
L 610.754629 244.980632 
L 620.501592 246.112574 
L 630.248555 247.019229 
L 635.020361 246.89957 
L 639.792167 246.428049 
L 674.109887 245.711477 
L 688.730332 245.742174 
L 713.097739 246.090769 
L 766.706034 246.975086 
L 795.946923 247.181487 
L 815.440848 247.221813 
L 815.440848 247.221813 
" clip-path="url(#p97eb8fb2c0)" style="fill: none; stroke: #8f2d78; stroke-width: 1.5; stroke-linecap: square"/>
   </g>
   <g id="line2d_38">
    <path d="M 84.418637 72.094514 
L 89.28966 158.62108 
L 123.386828 158.449555 
L 176.96809 158.150432 
L 196.452186 158.304701 
L 211.065257 158.62986 
L 225.678329 159.19227 
L 240.291401 160.032042 
L 254.904472 161.188308 
L 264.64652 162.136083 
L 274.388568 163.235452 
L 289.001639 165.168055 
L 298.743687 166.641636 
L 313.356759 169.123496 
L 327.969831 171.887484 
L 342.582902 174.898134 
L 357.195974 178.114573 
L 376.680069 182.646148 
L 401.035189 188.574059 
L 435.132356 197.130107 
L 483.842595 209.584304 
L 508.197714 215.998467 
L 537.423857 223.956332 
L 561.778977 230.583543 
L 576.392048 234.338761 
L 586.134096 236.670246 
L 595.876144 238.821725 
L 605.618192 240.763955 
L 615.360239 242.476101 
L 625.102287 243.944995 
L 634.844335 245.170035 
L 644.586383 246.157542 
L 654.32843 246.922073 
L 659.199454 247.216351 
L 668.941502 246.74599 
L 683.554574 246.338849 
L 698.167645 246.211092 
L 717.651741 246.311085 
L 805.330171 247.211148 
L 815.072218 247.221813 
L 815.072218 247.221813 
" clip-path="url(#p97eb8fb2c0)" style="fill: none; stroke: #9f2a6b; stroke-width: 1.5; stroke-linecap: square"/>
   </g>
   <g id="line2d_39">
    <path d="M 84.418637 47.071267 
L 89.299788 145.95501 
L 118.586697 145.697344 
L 186.922818 144.854598 
L 201.566273 144.947713 
L 216.209727 145.275341 
L 230.853182 145.904218 
L 240.615485 146.5145 
L 250.377788 147.29889 
L 260.140091 148.247612 
L 269.902394 149.375822 
L 279.664697 150.685075 
L 289.427 152.170882 
L 299.189303 153.828981 
L 313.832758 156.626623 
L 328.476212 159.743385 
L 343.119667 163.132822 
L 357.763121 166.744261 
L 377.287727 171.815388 
L 401.693485 178.426811 
L 435.861546 187.96614 
L 470.029606 197.733395 
L 494.435364 204.903814 
L 513.95997 210.846423 
L 538.365727 218.521126 
L 567.652636 227.736701 
L 582.296091 232.056584 
L 592.058394 234.731419 
L 601.820697 237.197783 
L 611.583 239.425003 
L 621.345303 241.39147 
L 631.107606 243.086045 
L 640.869909 244.508532 
L 650.632212 245.666987 
L 660.394515 246.577058 
L 665.275667 246.946213 
L 670.156818 247.181529 
L 679.919121 246.695661 
L 689.681424 246.38128 
L 704.324879 246.165066 
L 718.968333 246.167255 
L 743.374091 246.433421 
L 797.066758 247.12587 
L 816.591364 247.221813 
L 816.591364 247.221813 
" clip-path="url(#p97eb8fb2c0)" style="fill: none; stroke: #af285f; stroke-width: 1.5; stroke-linecap: square"/>
   </g>
   <g id="line2d_40">
    <path d="M 84.418636 22.058182 
L 89.280543 133.328602 
L 118.451801 133.203137 
L 147.623107 132.800194 
L 186.517923 132.211127 
L 201.103667 132.181667 
L 215.689346 132.374607 
L 230.274961 132.870907 
L 239.998717 133.402785 
L 249.722453 134.125628 
L 259.446626 135.039629 
L 269.17 136.149051 
L 278.893717 137.456218 
L 288.616982 138.957773 
L 298.341154 140.648725 
L 308.064939 142.526646 
L 317.788661 144.572146 
L 332.373755 147.93694 
L 346.959969 151.590417 
L 361.545572 155.475888 
L 380.993142 160.927008 
L 400.440597 166.609516 
L 419.8881 172.486996 
L 439.335598 178.570451 
L 458.783128 184.889171 
L 478.230621 191.472472 
L 492.815957 196.605879 
L 512.263749 203.726226 
L 536.573002 212.960476 
L 560.882499 222.204123 
L 575.468333 227.456746 
L 585.191897 230.729513 
L 594.915641 233.760395 
L 604.639558 236.510376 
L 614.36339 238.951783 
L 624.086973 241.061827 
L 633.810495 242.837515 
L 643.53427 244.291378 
L 653.25816 245.436349 
L 662.981793 246.307665 
L 672.705394 246.930836 
L 677.567212 247.175772 
L 706.738778 246.534255 
L 726.18646 246.56525 
L 760.219515 246.954259 
L 789.390668 247.203379 
L 813.700043 247.221504 
L 813.700043 247.221504 
" clip-path="url(#p97eb8fb2c0)" style="fill: none; stroke: #bf2552; stroke-width: 1.5; stroke-linecap: square"/>
   </g>
   <g id="patch_3">
    <path d="M 47.81 258.48 
L 47.81 10.8 
" style="fill: none; stroke: #000000; stroke-width: 0.8; stroke-linejoin: miter; stroke-linecap: square"/>
   </g>
   <g id="patch_4">
    <path d="M 853.2 258.48 
L 853.2 10.8 
" style="fill: none; stroke: #000000; stroke-width: 0.8; stroke-linejoin: miter; stroke-linecap: square"/>
   </g>
   <g id="patch_5">
    <path d="M 47.81 258.48 
L 853.2 258.48 
" style="fill: none; stroke: #000000; stroke-width: 0.8; stroke-linejoin: miter; stroke-linecap: square"/>
   </g>
   <g id="patch_6">
    <path d="M 47.81 10.8 
L 853.2 10.8 
" style="fill: none; stroke: #000000; stroke-width: 0.8; stroke-linejoin: miter; stroke-linecap: square"/>
   </g>
   <g id="legend_1">
    <g id="patch_7">
     <path d="M 787.959375 165.58125 
L 846.2 165.58125 
Q 848.2 165.58125 848.2 163.58125 
L 848.2 17.8 
Q 848.2 15.8 846.2 15.8 
L 787.959375 15.8 
Q 785.959375 15.8 785.959375 17.8 
L 785.959375 163.58125 
Q 785.959375 165.58125 787.959375 165.58125 
z
" style="fill: #ffffff; opacity: 0.8; stroke: #cccccc; stroke-linejoin: miter"/>
    </g>
    <g id="line2d_41">
     <path d="M 789.959375 23.898438 
L 799.959375 23.898438 
L 809.959375 23.898438 
" style="fill: none; stroke: #303bc1; stroke-width: 1.5; stroke-linecap: square"/>
    </g>
    <g id="text_17">
     <!-- S/C 0 -->
     <g transform="translate(817.959375 27.398438) scale(0.1 -0.1)">
      <defs>
       <path id="DejaVuSans-53" d="M 3425 4513 
L 3425 3897 
Q 3066 4069 2747 4153 
Q 2428 4238 2131 4238 
Q 1616 4238 1336 4038 
Q 1056 3838 1056 3469 
Q 1056 3159 1242 3001 
Q 1428 2844 1947 2747 
L 2328 2669 
Q 3034 2534 3370 2195 
Q 3706 1856 3706 1288 
Q 3706 609 3251 259 
Q 2797 -91 1919 -91 
Q 1588 -91 1214 -16 
Q 841 59 441 206 
L 441 856 
Q 825 641 1194 531 
Q 1563 422 1919 422 
Q 2459 422 2753 634 
Q 3047 847 3047 1241 
Q 3047 1584 2836 1778 
Q 2625 1972 2144 2069 
L 1759 2144 
Q 1053 2284 737 2584 
Q 422 2884 422 3419 
Q 422 4038 858 4394 
Q 1294 4750 2059 4750 
Q 2388 4750 2728 4690 
Q 3069 4631 3425 4513 
z
" transform="scale(0.015625)"/>
       <path id="DejaVuSans-2f" d="M 1625 4666 
L 2156 4666 
L 531 -594 
L 0 -594 
L 1625 4666 
z
" transform="scale(0.015625)"/>
       <path id="DejaVuSans-43" d="M 4122 4306 
L 4122 3641 
Q 3803 3938 3442 4084 
Q 3081 4231 2675 4231 
Q 1875 4231 1450 3742 
Q 1025 3253 1025 2328 
Q 1025 1406 1450 917 
Q 1875 428 2675 428 
Q 3081 428 3442 575 
Q 3803 722 4122 1019 
L 4122 359 
Q 3791 134 3420 21 
Q 3050 -91 2638 -91 
Q 1578 -91 968 557 
Q 359 1206 359 2328 
Q 359 3453 968 4101 
Q 1578 4750 2638 4750 
Q 3056 4750 3426 4639 
Q 3797 4528 4122 4306 
z
" transform="scale(0.015625)"/>
      </defs>
      <use xlink:href="#DejaVuSans-53"/>
      <use xlink:href="#DejaVuSans-2f" transform="translate(63.476562 0)"/>
      <use xlink:href="#DejaVuSans-43" transform="translate(97.167969 0)"/>
      <use xlink:href="#DejaVuSans-20" transform="translate(166.992188 0)"/>
      <use xlink:href="#DejaVuSans-30" transform="translate(198.779297 0)"/>
     </g>
    </g>
    <g id="line2d_42">
     <path d="M 789.959375 38.576563 
L 799.959375 38.576563 
L 809.959375 38.576563 
" style="fill: none; stroke: #4039b5; stroke-width: 1.5; stroke-linecap: square"/>
    </g>
    <g id="text_18">
     <!-- S/C 1 -->
     <g transform="translate(817.959375 42.076563) scale(0.1 -0.1)">
      <use xlink:href="#DejaVuSans-53"/>
      <use xlink:href="#DejaVuSans-2f" transform="translate(63.476562 0)"/>
      <use xlink:href="#DejaVuSans-43" transform="translate(97.167969 0)"/>
      <use xlink:href="#DejaVuSans-20" transform="translate(166.992188 0)"/>
      <use xlink:href="#DejaVuSans-31" transform="translate(198.779297 0)"/>
     </g>
    </g>
    <g id="line2d_43">
     <path d="M 789.959375 53.254688 
L 799.959375 53.254688 
L 809.959375 53.254688 
" style="fill: none; stroke: #5036a8; stroke-width: 1.5; stroke-linecap: square"/>
    </g>
    <g id="text_19">
     <!-- S/C 2 -->
     <g transform="translate(817.959375 56.754688) scale(0.1 -0.1)">
      <use xlink:href="#DejaVuSans-53"/>
      <use xlink:href="#DejaVuSans-2f" transform="translate(63.476562 0)"/>
      <use xlink:href="#DejaVuSans-43" transform="translate(97.167969 0)"/>
      <use xlink:href="#DejaVuSans-20" transform="translate(166.992188 0)"/>
      <use xlink:href="#DejaVuSans-32" transform="translate(198.779297 0)"/>
     </g>
    </g>
    <g id="line2d_44">
     <path d="M 789.959375 67.932813 
L 799.959375 67.932813 
L 809.959375 67.932813 
" style="fill: none; stroke: #60349c; stroke-width: 1.5; stroke-linecap: square"/>
    </g>
    <g id="text_20">
     <!-- S/C 3 -->
     <g transform="translate(817.959375 71.432813) scale(0.1 -0.1)">
      <use xlink:href="#DejaVuSans-53"/>
      <use xlink:href="#DejaVuSans-2f" transform="translate(63.476562 0)"/>
      <use xlink:href="#DejaVuSans-43" transform="translate(97.167969 0)"/>
      <use xlink:href="#DejaVuSans-20" transform="translate(166.992188 0)"/>
      <use xlink:href="#DejaVuSans-33" transform="translate(198.779297 0)"/>
     </g>
    </g>
    <g id="line2d_45">
     <path d="M 789.959375 82.610938 
L 799.959375 82.610938 
L 809.959375 82.610938 
" style="fill: none; stroke: #70318f; stroke-width: 1.5; stroke-linecap: square"/>
    </g>
    <g id="text_21">
     <!-- S/C 4 -->
     <g transform="translate(817.959375 86.110938) scale(0.1 -0.1)">
      <use xlink:href="#DejaVuSans-53"/>
      <use xlink:href="#DejaVuSans-2f" transform="translate(63.476562 0)"/>
      <use xlink:href="#DejaVuSans-43" transform="translate(97.167969 0)"/>
      <use xlink:href="#DejaVuSans-20" transform="translate(166.992188 0)"/>
      <use xlink:href="#DejaVuSans-34" transform="translate(198.779297 0)"/>
     </g>
    </g>
    <g id="line2d_46">
     <path d="M 789.959375 97.289063 
L 799.959375 97.289063 
L 809.959375 97.289063 
" style="fill: none; stroke: #802f83; stroke-width: 1.5; stroke-linecap: square"/>
    </g>
    <g id="text_22">
     <!-- S/C 5 -->
     <g transform="translate(817.959375 100.789063) scale(0.1 -0.1)">
      <use xlink:href="#DejaVuSans-53"/>
      <use xlink:href="#DejaVuSans-2f" transform="translate(63.476562 0)"/>
      <use xlink:href="#DejaVuSans-43" transform="translate(97.167969 0)"/>
      <use xlink:href="#DejaVuSans-20" transform="translate(166.992188 0)"/>
      <use xlink:href="#DejaVuSans-35" transform="translate(198.779297 0)"/>
     </g>
    </g>
    <g id="line2d_47">
     <path d="M 789.959375 111.967188 
L 799.959375 111.967188 
L 809.959375 111.967188 
" style="fill: none; stroke: #8f2d78; stroke-width: 1.5; stroke-linecap: square"/>
    </g>
    <g id="text_23">
     <!-- S/C 6 -->
     <g transform="translate(817.959375 115.467188) scale(0.1 -0.1)">
      <use xlink:href="#DejaVuSans-53"/>
      <use xlink:href="#DejaVuSans-2f" transform="translate(63.476562 0)"/>
      <use xlink:href="#DejaVuSans-43" transform="translate(97.167969 0)"/>
      <use xlink:href="#DejaVuSans-20" transform="translate(166.992188 0)"/>
      <use xlink:href="#DejaVuSans-36" transform="translate(198.779297 0)"/>
     </g>
    </g>
    <g id="line2d_48">
     <path d="M 789.959375 126.645313 
L 799.959375 126.645313 
L 809.959375 126.645313 
" style="fill: none; stroke: #9f2a6b; stroke-width: 1.5; stroke-linecap: square"/>
    </g>
    <g id="text_24">
     <!-- S/C 7 -->
     <g transform="translate(817.959375 130.145313) scale(0.1 -0.1)">
      <defs>
       <path id="DejaVuSans-37" d="M 525 4666 
L 3525 4666 
L 3525 4397 
L 1831 0 
L 1172 0 
L 2766 4134 
L 525 4134 
L 525 4666 
z
" transform="scale(0.015625)"/>
      </defs>
      <use xlink:href="#DejaVuSans-53"/>
      <use xlink:href="#DejaVuSans-2f" transform="translate(63.476562 0)"/>
      <use xlink:href="#DejaVuSans-43" transform="translate(97.167969 0)"/>
      <use xlink:href="#DejaVuSans-20" transform="translate(166.992188 0)"/>
      <use xlink:href="#DejaVuSans-37" transform="translate(198.779297 0)"/>
     </g>
    </g>
    <g id="line2d_49">
     <path d="M 789.959375 141.323438 
L 799.959375 141.323438 
L 809.959375 141.323438 
" style="fill: none; stroke: #af285f; stroke-width: 1.5; stroke-linecap: square"/>
    </g>
    <g id="text_25">
     <!-- S/C 8 -->
     <g transform="translate(817.959375 144.823438) scale(0.1 -0.1)">
      <use xlink:href="#DejaVuSans-53"/>
      <use xlink:href="#DejaVuSans-2f" transform="translate(63.476562 0)"/>
      <use xlink:href="#DejaVuSans-43" transform="translate(97.167969 0)"/>
      <use xlink:href="#DejaVuSans-20" transform="translate(166.992188 0)"/>
      <use xlink:href="#DejaVuSans-38" transform="translate(198.779297 0)"/>
     </g>
    </g>
    <g id="line2d_50">
     <path d="M 789.959375 156.001563 
L 799.959375 156.001563 
L 809.959375 156.001563 
" style="fill: none; stroke: #bf2552; stroke-width: 1.5; stroke-linecap: square"/>
    </g>
    <g id="text_26">
     <!-- S/C 9 -->
     <g transform="translate(817.959375 159.501563) scale(0.1 -0.1)">
      <defs>
       <path id="DejaVuSans-39" d="M 703 97 
L 703 672 
Q 941 559 1184 500 
Q 1428 441 1663 441 
Q 2288 441 2617 861 
Q 2947 1281 2994 2138 
Q 2813 1869 2534 1725 
Q 2256 1581 1919 1581 
Q 1219 1581 811 2004 
Q 403 2428 403 3163 
Q 403 3881 828 4315 
Q 1253 4750 1959 4750 
Q 2769 4750 3195 4129 
Q 3622 3509 3622 2328 
Q 3622 1225 3098 567 
Q 2575 -91 1691 -91 
Q 1453 -91 1209 -44 
Q 966 3 703 97 
z
M 1959 2075 
Q 2384 2075 2632 2365 
Q 2881 2656 2881 3163 
Q 2881 3666 2632 3958 
Q 2384 4250 1959 4250 
Q 1534 4250 1286 3958 
Q 1038 3666 1038 3163 
Q 1038 2656 1286 2365 
Q 1534 2075 1959 2075 
z
" transform="scale(0.015625)"/>
      </defs>
      <use xlink:href="#DejaVuSans-53"/>
      <use xlink:href="#DejaVuSans-2f" transform="translate(63.476562 0)"/>
      <use xlink:href="#DejaVuSans-43" transform="translate(97.167969 0)"/>
      <use xlink:href="#DejaVuSans-20" transform="translate(166.992188 0)"/>
      <use xlink:href="#DejaVuSans-39" transform="translate(198.779297 0)"/>
     </g>
    </g>
   </g>
  </g>
  <g id="axes_2">
   <g id="patch_8">
    <path d="M 47.81 534.04 
L 853.2 534.04 
L 853.2 286.36 
L 47.81 286.36 
z
" style="fill: #ffffff"/>
   </g>
   <g id="matplotlib.axis_3">
    <g id="xtick_9">
     <g id="line2d_51">
      <path d="M 84.418637 534.04 
L 84.418637 286.36 
" clip-path="url(#pe658bad293)" style="fill: none; stroke: #b0b0b0; stroke-width: 0.8; stroke-linecap: square"/>
     </g>
     <g id="line2d_52">
      <g>
       <use xlink:href="#m9edd40da1b" x="84.418637" y="534.04" style="stroke: #000000; stroke-width: 0.8"/>
      </g>
     </g>
     <g id="text_27">
      <!-- 0 -->
      <g transform="translate(81.237387 548.638438) scale(0.1 -0.1)">
       <use xlink:href="#DejaVuSans-30"/>
      </g>
     </g>
    </g>
    <g id="xtick_10">
     <g id="line2d_53">
      <path d="M 187.872324 534.04 
L 187.872324 286.36 
" clip-path="url(#pe658bad293)" style="fill: none; stroke: #b0b0b0; stroke-width: 0.8; stroke-linecap: square"/>
     </g>
     <g id="line2d_54">
      <g>
       <use xlink:href="#m9edd40da1b" x="187.872324" y="534.04" style="stroke: #000000; stroke-width: 0.8"/>
      </g>
     </g>
     <g id="text_28">
      <!-- 2 -->
      <g transform="translate(184.691074 548.638438) scale(0.1 -0.1)">
       <use xlink:href="#DejaVuSans-32"/>
      </g>
     </g>
    </g>
    <g id="xtick_11">
     <g id="line2d_55">
      <path d="M 291.326012 534.04 
L 291.326012 286.36 
" clip-path="url(#pe658bad293)" style="fill: none; stroke: #b0b0b0; stroke-width: 0.8; stroke-linecap: square"/>
     </g>
     <g id="line2d_56">
      <g>
       <use xlink:href="#m9edd40da1b" x="291.326012" y="534.04" style="stroke: #000000; stroke-width: 0.8"/>
      </g>
     </g>
     <g id="text_29">
      <!-- 4 -->
      <g transform="translate(288.144762 548.638438) scale(0.1 -0.1)">
       <use xlink:href="#DejaVuSans-34"/>
      </g>
     </g>
    </g>
    <g id="xtick_12">
     <g id="line2d_57">
      <path d="M 394.779699 534.04 
L 394.779699 286.36 
" clip-path="url(#pe658bad293)" style="fill: none; stroke: #b0b0b0; stroke-width: 0.8; stroke-linecap: square"/>
     </g>
     <g id="line2d_58">
      <g>
       <use xlink:href="#m9edd40da1b" x="394.779699" y="534.04" style="stroke: #000000; stroke-width: 0.8"/>
      </g>
     </g>
     <g id="text_30">
      <!-- 6 -->
      <g transform="translate(391.598449 548.638438) scale(0.1 -0.1)">
       <use xlink:href="#DejaVuSans-36"/>
      </g>
     </g>
    </g>
    <g id="xtick_13">
     <g id="line2d_59">
      <path d="M 498.233387 534.04 
L 498.233387 286.36 
" clip-path="url(#pe658bad293)" style="fill: none; stroke: #b0b0b0; stroke-width: 0.8; stroke-linecap: square"/>
     </g>
     <g id="line2d_60">
      <g>
       <use xlink:href="#m9edd40da1b" x="498.233387" y="534.04" style="stroke: #000000; stroke-width: 0.8"/>
      </g>
     </g>
     <g id="text_31">
      <!-- 8 -->
      <g transform="translate(495.052137 548.638438) scale(0.1 -0.1)">
       <use xlink:href="#DejaVuSans-38"/>
      </g>
     </g>
    </g>
    <g id="xtick_14">
     <g id="line2d_61">
      <path d="M 601.687075 534.04 
L 601.687075 286.36 
" clip-path="url(#pe658bad293)" style="fill: none; stroke: #b0b0b0; stroke-width: 0.8; stroke-linecap: square"/>
     </g>
     <g id="line2d_62">
      <g>
       <use xlink:href="#m9edd40da1b" x="601.687075" y="534.04" style="stroke: #000000; stroke-width: 0.8"/>
      </g>
     </g>
     <g id="text_32">
      <!-- 10 -->
      <g transform="translate(595.324575 548.638438) scale(0.1 -0.1)">
       <use xlink:href="#DejaVuSans-31"/>
       <use xlink:href="#DejaVuSans-30" transform="translate(63.623047 0)"/>
      </g>
     </g>
    </g>
    <g id="xtick_15">
     <g id="line2d_63">
      <path d="M 705.140762 534.04 
L 705.140762 286.36 
" clip-path="url(#pe658bad293)" style="fill: none; stroke: #b0b0b0; stroke-width: 0.8; stroke-linecap: square"/>
     </g>
     <g id="line2d_64">
      <g>
       <use xlink:href="#m9edd40da1b" x="705.140762" y="534.04" style="stroke: #000000; stroke-width: 0.8"/>
      </g>
     </g>
     <g id="text_33">
      <!-- 12 -->
      <g transform="translate(698.778262 548.638438) scale(0.1 -0.1)">
       <use xlink:href="#DejaVuSans-31"/>
       <use xlink:href="#DejaVuSans-32" transform="translate(63.623047 0)"/>
      </g>
     </g>
    </g>
    <g id="xtick_16">
     <g id="line2d_65">
      <path d="M 808.59445 534.04 
L 808.59445 286.36 
" clip-path="url(#pe658bad293)" style="fill: none; stroke: #b0b0b0; stroke-width: 0.8; stroke-linecap: square"/>
     </g>
     <g id="line2d_66">
      <g>
       <use xlink:href="#m9edd40da1b" x="808.59445" y="534.04" style="stroke: #000000; stroke-width: 0.8"/>
      </g>
     </g>
     <g id="text_34">
      <!-- 14 -->
      <g transform="translate(802.23195 548.638438) scale(0.1 -0.1)">
       <use xlink:href="#DejaVuSans-31"/>
       <use xlink:href="#DejaVuSans-34" transform="translate(63.623047 0)"/>
      </g>
     </g>
    </g>
    <g id="text_35">
     <!-- Time (ND) -->
     <g transform="translate(425.190156 562.316562) scale(0.1 -0.1)">
      <defs>
       <path id="DejaVuSans-54" d="M -19 4666 
L 3928 4666 
L 3928 4134 
L 2272 4134 
L 2272 0 
L 1638 0 
L 1638 4134 
L -19 4134 
L -19 4666 
z
" transform="scale(0.015625)"/>
       <path id="DejaVuSans-69" d="M 603 3500 
L 1178 3500 
L 1178 0 
L 603 0 
L 603 3500 
z
M 603 4863 
L 1178 4863 
L 1178 4134 
L 603 4134 
L 603 4863 
z
" transform="scale(0.015625)"/>
       <path id="DejaVuSans-6d" d="M 3328 2828 
Q 3544 3216 3844 3400 
Q 4144 3584 4550 3584 
Q 5097 3584 5394 3201 
Q 5691 2819 5691 2113 
L 5691 0 
L 5113 0 
L 5113 2094 
Q 5113 2597 4934 2840 
Q 4756 3084 4391 3084 
Q 3944 3084 3684 2787 
Q 3425 2491 3425 1978 
L 3425 0 
L 2847 0 
L 2847 2094 
Q 2847 2600 2669 2842 
Q 2491 3084 2119 3084 
Q 1678 3084 1418 2786 
Q 1159 2488 1159 1978 
L 1159 0 
L 581 0 
L 581 3500 
L 1159 3500 
L 1159 2956 
Q 1356 3278 1631 3431 
Q 1906 3584 2284 3584 
Q 2666 3584 2933 3390 
Q 3200 3197 3328 2828 
z
" transform="scale(0.015625)"/>
       <path id="DejaVuSans-4e" d="M 628 4666 
L 1478 4666 
L 3547 763 
L 3547 4666 
L 4159 4666 
L 4159 0 
L 3309 0 
L 1241 3903 
L 1241 0 
L 628 0 
L 628 4666 
z
" transform="scale(0.015625)"/>
       <path id="DejaVuSans-44" d="M 1259 4147 
L 1259 519 
L 2022 519 
Q 2988 519 3436 956 
Q 3884 1394 3884 2338 
Q 3884 3275 3436 3711 
Q 2988 4147 2022 4147 
L 1259 4147 
z
M 628 4666 
L 1925 4666 
Q 3281 4666 3915 4102 
Q 4550 3538 4550 2338 
Q 4550 1131 3912 565 
Q 3275 0 1925 0 
L 628 0 
L 628 4666 
z
" transform="scale(0.015625)"/>
      </defs>
      <use xlink:href="#DejaVuSans-54"/>
      <use xlink:href="#DejaVuSans-69" transform="translate(57.958984 0)"/>
      <use xlink:href="#DejaVuSans-6d" transform="translate(85.742188 0)"/>
      <use xlink:href="#DejaVuSans-65" transform="translate(183.154297 0)"/>
      <use xlink:href="#DejaVuSans-20" transform="translate(244.677734 0)"/>
      <use xlink:href="#DejaVuSans-28" transform="translate(276.464844 0)"/>
      <use xlink:href="#DejaVuSans-4e" transform="translate(315.478516 0)"/>
      <use xlink:href="#DejaVuSans-44" transform="translate(390.283203 0)"/>
      <use xlink:href="#DejaVuSans-29" transform="translate(467.285156 0)"/>
     </g>
    </g>
   </g>
   <g id="matplotlib.axis_4">
    <g id="ytick_8">
     <g id="line2d_67">
      <path d="M 47.81 524.346633 
L 853.2 524.346633 
" clip-path="url(#pe658bad293)" style="fill: none; stroke: #b0b0b0; stroke-width: 0.8; stroke-linecap: square"/>
     </g>
     <g id="line2d_68">
      <g>
       <use xlink:href="#mcebc425d3e" x="47.81" y="524.346633" style="stroke: #000000; stroke-width: 0.8"/>
      </g>
     </g>
     <g id="text_36">
      <!-- 0 -->
      <g transform="translate(34.4475 528.145851) scale(0.1 -0.1)">
       <use xlink:href="#DejaVuSans-30"/>
      </g>
     </g>
    </g>
    <g id="ytick_9">
     <g id="line2d_69">
      <path d="M 47.81 479.304279 
L 853.2 479.304279 
" clip-path="url(#pe658bad293)" style="fill: none; stroke: #b0b0b0; stroke-width: 0.8; stroke-linecap: square"/>
     </g>
     <g id="line2d_70">
      <g>
       <use xlink:href="#mcebc425d3e" x="47.81" y="479.304279" style="stroke: #000000; stroke-width: 0.8"/>
      </g>
     </g>
     <g id="text_37">
      <!-- 2 -->
      <g transform="translate(34.4475 483.103498) scale(0.1 -0.1)">
       <use xlink:href="#DejaVuSans-32"/>
      </g>
     </g>
    </g>
    <g id="ytick_10">
     <g id="line2d_71">
      <path d="M 47.81 434.261926 
L 853.2 434.261926 
" clip-path="url(#pe658bad293)" style="fill: none; stroke: #b0b0b0; stroke-width: 0.8; stroke-linecap: square"/>
     </g>
     <g id="line2d_72">
      <g>
       <use xlink:href="#mcebc425d3e" x="47.81" y="434.261926" style="stroke: #000000; stroke-width: 0.8"/>
      </g>
     </g>
     <g id="text_38">
      <!-- 4 -->
      <g transform="translate(34.4475 438.061144) scale(0.1 -0.1)">
       <use xlink:href="#DejaVuSans-34"/>
      </g>
     </g>
    </g>
    <g id="ytick_11">
     <g id="line2d_73">
      <path d="M 47.81 389.219572 
L 853.2 389.219572 
" clip-path="url(#pe658bad293)" style="fill: none; stroke: #b0b0b0; stroke-width: 0.8; stroke-linecap: square"/>
     </g>
     <g id="line2d_74">
      <g>
       <use xlink:href="#mcebc425d3e" x="47.81" y="389.219572" style="stroke: #000000; stroke-width: 0.8"/>
      </g>
     </g>
     <g id="text_39">
      <!-- 6 -->
      <g transform="translate(34.4475 393.018791) scale(0.1 -0.1)">
       <use xlink:href="#DejaVuSans-36"/>
      </g>
     </g>
    </g>
    <g id="ytick_12">
     <g id="line2d_75">
      <path d="M 47.81 344.177219 
L 853.2 344.177219 
" clip-path="url(#pe658bad293)" style="fill: none; stroke: #b0b0b0; stroke-width: 0.8; stroke-linecap: square"/>
     </g>
     <g id="line2d_76">
      <g>
       <use xlink:href="#mcebc425d3e" x="47.81" y="344.177219" style="stroke: #000000; stroke-width: 0.8"/>
      </g>
     </g>
     <g id="text_40">
      <!-- 8 -->
      <g transform="translate(34.4475 347.976437) scale(0.1 -0.1)">
       <use xlink:href="#DejaVuSans-38"/>
      </g>
     </g>
    </g>
    <g id="ytick_13">
     <g id="line2d_77">
      <path d="M 47.81 299.134865 
L 853.2 299.134865 
" clip-path="url(#pe658bad293)" style="fill: none; stroke: #b0b0b0; stroke-width: 0.8; stroke-linecap: square"/>
     </g>
     <g id="line2d_78">
      <g>
       <use xlink:href="#mcebc425d3e" x="47.81" y="299.134865" style="stroke: #000000; stroke-width: 0.8"/>
      </g>
     </g>
     <g id="text_41">
      <!-- 10 -->
      <g transform="translate(28.085 302.934084) scale(0.1 -0.1)">
       <use xlink:href="#DejaVuSans-31"/>
       <use xlink:href="#DejaVuSans-30" transform="translate(63.623047 0)"/>
      </g>
     </g>
    </g>
    <g id="text_42">
     <!-- Control Magnitude -->
     <g transform="translate(22.005312 456.35) rotate(-90) scale(0.1 -0.1)">
      <defs>
       <path id="DejaVuSans-6f" d="M 1959 3097 
Q 1497 3097 1228 2736 
Q 959 2375 959 1747 
Q 959 1119 1226 758 
Q 1494 397 1959 397 
Q 2419 397 2687 759 
Q 2956 1122 2956 1747 
Q 2956 2369 2687 2733 
Q 2419 3097 1959 3097 
z
M 1959 3584 
Q 2709 3584 3137 3096 
Q 3566 2609 3566 1747 
Q 3566 888 3137 398 
Q 2709 -91 1959 -91 
Q 1206 -91 779 398 
Q 353 888 353 1747 
Q 353 2609 779 3096 
Q 1206 3584 1959 3584 
z
" transform="scale(0.015625)"/>
       <path id="DejaVuSans-74" d="M 1172 4494 
L 1172 3500 
L 2356 3500 
L 2356 3053 
L 1172 3053 
L 1172 1153 
Q 1172 725 1289 603 
Q 1406 481 1766 481 
L 2356 481 
L 2356 0 
L 1766 0 
Q 1100 0 847 248 
Q 594 497 594 1153 
L 594 3053 
L 172 3053 
L 172 3500 
L 594 3500 
L 594 4494 
L 1172 4494 
z
" transform="scale(0.015625)"/>
       <path id="DejaVuSans-4d" d="M 628 4666 
L 1569 4666 
L 2759 1491 
L 3956 4666 
L 4897 4666 
L 4897 0 
L 4281 0 
L 4281 4097 
L 3078 897 
L 2444 897 
L 1241 4097 
L 1241 0 
L 628 0 
L 628 4666 
z
" transform="scale(0.015625)"/>
       <path id="DejaVuSans-75" d="M 544 1381 
L 544 3500 
L 1119 3500 
L 1119 1403 
Q 1119 906 1312 657 
Q 1506 409 1894 409 
Q 2359 409 2629 706 
Q 2900 1003 2900 1516 
L 2900 3500 
L 3475 3500 
L 3475 0 
L 2900 0 
L 2900 538 
Q 2691 219 2414 64 
Q 2138 -91 1772 -91 
Q 1169 -91 856 284 
Q 544 659 544 1381 
z
M 1991 3584 
L 1991 3584 
z
" transform="scale(0.015625)"/>
      </defs>
      <use xlink:href="#DejaVuSans-43"/>
      <use xlink:href="#DejaVuSans-6f" transform="translate(69.824219 0)"/>
      <use xlink:href="#DejaVuSans-6e" transform="translate(131.005859 0)"/>
      <use xlink:href="#DejaVuSans-74" transform="translate(194.384766 0)"/>
      <use xlink:href="#DejaVuSans-72" transform="translate(233.59375 0)"/>
      <use xlink:href="#DejaVuSans-6f" transform="translate(272.457031 0)"/>
      <use xlink:href="#DejaVuSans-6c" transform="translate(333.638672 0)"/>
      <use xlink:href="#DejaVuSans-20" transform="translate(361.421875 0)"/>
      <use xlink:href="#DejaVuSans-4d" transform="translate(393.208984 0)"/>
      <use xlink:href="#DejaVuSans-61" transform="translate(479.488281 0)"/>
      <use xlink:href="#DejaVuSans-67" transform="translate(540.767578 0)"/>
      <use xlink:href="#DejaVuSans-6e" transform="translate(604.244141 0)"/>
      <use xlink:href="#DejaVuSans-69" transform="translate(667.623047 0)"/>
      <use xlink:href="#DejaVuSans-74" transform="translate(695.40625 0)"/>
      <use xlink:href="#DejaVuSans-75" transform="translate(734.615234 0)"/>
      <use xlink:href="#DejaVuSans-64" transform="translate(797.994141 0)"/>
      <use xlink:href="#DejaVuSans-65" transform="translate(861.470703 0)"/>
     </g>
    </g>
   </g>
   <g id="line2d_79">
    <path d="M 84.418637 498.022185 
L 89.287449 498.022185 
L 94.156261 500.124608 
L 99.025082 500.124608 
L 103.893903 501.184053 
L 108.762722 501.184053 
L 113.63154 501.364666 
L 118.500372 501.364666 
L 123.369204 500.95232 
L 128.237979 500.95232 
L 133.106779 500.35902 
L 137.975619 500.35902 
L 142.844437 500.000618 
L 157.45091 500.086003 
L 162.31974 500.478639 
L 167.188768 500.478639 
L 172.057797 500.816701 
L 186.663832 500.785359 
L 191.532642 500.338679 
L 196.401453 500.338679 
L 201.270264 499.719076 
L 206.138862 499.719076 
L 211.00746 499.274294 
L 225.614319 499.212154 
L 230.483137 499.474098 
L 235.352013 499.474098 
L 240.220889 499.808242 
L 245.089549 499.808242 
L 249.958208 499.959764 
L 254.827138 499.959764 
L 259.696068 499.826788 
L 264.564909 499.826788 
L 269.433734 499.486464 
L 274.302554 499.486464 
L 279.171374 499.109602 
L 284.04012 499.109602 
L 288.908866 498.845309 
L 313.253158 498.818107 
L 318.122037 498.971496 
L 322.990774 498.971496 
L 327.85951 499.149429 
L 332.728354 499.149429 
L 337.597198 499.303 
L 371.678923 499.246183 
L 376.547775 499.01279 
L 381.416579 499.01279 
L 386.285383 498.773232 
L 410.629454 498.84032 
L 415.498255 499.140237 
L 430.104738 499.094756 
L 434.973564 497.821126 
L 439.842407 497.821126 
L 444.711249 494.013906 
L 449.580034 494.013906 
L 454.44882 485.524016 
L 459.317645 485.524016 
L 464.186462 468.417594 
L 469.055283 468.417594 
L 473.924103 439.3168 
L 478.792935 439.3168 
L 483.661767 423.485177 
L 488.530574 423.485177 
L 493.399381 474.106705 
L 498.268202 474.106705 
L 503.137023 484.510897 
L 508.005823 484.510897 
L 512.874623 467.190951 
L 517.743452 467.190951 
L 522.612281 297.618182 
L 527.481103 297.618182 
L 532.349921 452.661233 
L 537.218741 452.661233 
L 542.08756 479.961479 
L 546.956379 479.961479 
L 551.825198 484.70059 
L 556.694017 484.70059 
L 561.562836 487.697024 
L 566.431647 487.697024 
L 571.300458 490.579145 
L 576.16939 490.579145 
L 581.038323 493.248281 
L 585.907041 493.248281 
L 590.775759 495.451953 
L 595.644554 495.451953 
L 600.513382 497.063585 
L 605.382194 497.063585 
L 610.251007 498.124431 
L 615.119876 498.124431 
L 619.988746 498.776483 
L 624.857522 498.776483 
L 629.726298 499.18087 
L 634.595082 499.18087 
L 639.463865 499.466967 
L 644.332784 499.466967 
L 649.201703 499.716011 
L 654.070454 499.716011 
L 658.939205 499.964823 
L 663.808042 499.964823 
L 668.67684 500.215473 
L 673.54557 500.215473 
L 678.414301 500.445606 
L 683.283046 500.445606 
L 688.151792 500.621442 
L 731.971633 500.691369 
L 756.315599 500.872644 
L 761.184398 500.872644 
L 766.053197 500.68947 
L 770.922019 500.68947 
L 775.790841 500.138649 
L 780.659656 500.138649 
L 785.52847 499.101418 
L 790.397307 499.101418 
L 795.266144 497.405218 
L 800.134949 497.405218 
L 805.003755 494.620721 
L 814.741387 494.620721 
L 814.741387 494.620721 
" clip-path="url(#pe658bad293)" style="fill: none; stroke: #303bc1; stroke-width: 1.5; stroke-linecap: square"/>
   </g>
   <g id="line2d_80">
    <path d="M 84.418637 503.172509 
L 138.014162 503.199591 
L 152.631124 503.3769 
L 167.248085 503.462612 
L 181.865047 503.663108 
L 186.737367 503.663108 
L 191.609688 503.803351 
L 196.482008 503.803351 
L 201.354329 503.988077 
L 206.226649 503.988077 
L 211.09897 504.237125 
L 215.97129 504.237125 
L 220.843611 504.577251 
L 225.715931 504.577251 
L 230.588252 505.036198 
L 235.460572 505.036198 
L 240.332893 505.597862 
L 245.205213 505.597862 
L 250.077534 506.216305 
L 254.949854 506.216305 
L 259.822175 506.917769 
L 264.694495 506.917769 
L 269.566816 507.609768 
L 274.439136 507.609768 
L 279.311457 508.160273 
L 284.183777 508.160273 
L 289.056098 508.518579 
L 293.928418 508.518579 
L 298.800739 508.693662 
L 323.162342 508.599137 
L 328.034662 508.346983 
L 332.906983 508.346983 
L 337.779303 507.974912 
L 342.651624 507.974912 
L 347.523944 507.472591 
L 352.396265 507.472591 
L 357.268585 506.925366 
L 362.140906 506.925366 
L 367.013226 506.389581 
L 371.885547 506.389581 
L 376.757867 505.873944 
L 381.630188 505.873944 
L 386.502508 505.423948 
L 391.374829 505.423948 
L 396.247149 505.059433 
L 401.11947 505.059433 
L 405.99179 504.786449 
L 410.864111 504.786449 
L 415.736431 504.614486 
L 440.098034 504.5557 
L 444.970354 504.773011 
L 449.842675 504.773011 
L 454.714995 506.442435 
L 459.587316 506.442435 
L 464.459636 504.571557 
L 469.331957 504.571557 
L 474.204277 520.9424 
L 479.076598 520.9424 
L 483.948918 518.536348 
L 488.821239 518.536348 
L 493.693559 517.56296 
L 498.56588 517.56296 
L 503.4382 519.633959 
L 508.310521 519.633959 
L 513.182841 520.795347 
L 518.055162 520.795347 
L 522.927482 519.489876 
L 527.799803 519.489876 
L 532.672123 517.374943 
L 537.544444 517.374943 
L 542.416764 514.050638 
L 547.289085 514.050638 
L 552.161405 510.682583 
L 557.033726 510.682583 
L 561.906046 508.152402 
L 566.778367 508.152402 
L 571.650687 506.642123 
L 576.523008 506.642123 
L 581.395328 505.656995 
L 586.267649 505.656995 
L 591.13997 505.077135 
L 596.01229 505.077135 
L 600.884611 504.74726 
L 605.756931 504.74726 
L 610.629252 504.568814 
L 654.480136 504.57578 
L 659.352457 504.717039 
L 664.224777 504.717039 
L 669.097098 504.970811 
L 673.969418 504.970811 
L 678.841739 505.397631 
L 683.714059 505.397631 
L 688.58638 506.004137 
L 693.4587 506.004137 
L 698.331021 506.83236 
L 703.203341 506.83236 
L 708.075662 507.866022 
L 712.947982 507.866022 
L 717.820303 508.785234 
L 722.692623 508.785234 
L 727.564944 509.794364 
L 732.437264 509.794364 
L 737.309585 510.827855 
L 742.181905 510.827855 
L 747.054226 511.397502 
L 761.671187 511.338195 
L 766.543508 510.692821 
L 771.415828 510.692821 
L 776.288149 509.571547 
L 781.160469 509.571547 
L 786.03279 508.148271 
L 790.90511 508.148271 
L 795.777431 506.446458 
L 800.649751 506.446458 
L 805.522072 505.200044 
L 815.266713 505.200044 
L 815.266713 505.200044 
" clip-path="url(#pe658bad293)" style="fill: none; stroke: #4039b5; stroke-width: 1.5; stroke-linecap: square"/>
   </g>
   <g id="line2d_81">
    <path d="M 84.418637 503.745318 
L 108.788382 503.84137 
L 147.779975 504.278611 
L 152.653924 504.491625 
L 157.527874 504.491625 
L 162.401823 504.74516 
L 167.275772 504.74516 
L 172.149721 505.057762 
L 177.02367 505.057762 
L 181.897619 505.45063 
L 186.771568 505.45063 
L 191.645517 505.844191 
L 196.519467 505.844191 
L 201.393416 506.532872 
L 206.267365 506.532872 
L 211.141314 506.995151 
L 216.015263 506.995151 
L 220.889212 507.607882 
L 225.763161 507.607882 
L 230.63711 506.926473 
L 235.51106 506.926473 
L 240.385009 509.509163 
L 245.258958 509.509163 
L 250.132907 505.763366 
L 255.006856 505.763366 
L 259.880805 509.009713 
L 264.754754 509.009713 
L 269.628703 511.037018 
L 274.502653 511.037018 
L 279.376602 511.798029 
L 284.250551 511.798029 
L 289.1245 512.148248 
L 293.998449 512.148248 
L 298.872398 512.430485 
L 303.746347 512.430485 
L 308.620296 512.66826 
L 332.990042 512.627479 
L 337.863991 512.182849 
L 342.73794 512.182849 
L 347.611889 511.477667 
L 352.485839 511.477667 
L 357.359788 510.669926 
L 362.233737 510.669926 
L 367.107686 509.982453 
L 371.981635 509.982453 
L 376.855584 509.566753 
L 381.729533 509.566753 
L 386.603482 508.939316 
L 391.477432 508.939316 
L 396.351381 508.614121 
L 401.22533 508.614121 
L 406.099279 508.236023 
L 410.973228 508.236023 
L 415.847177 509.489636 
L 420.721126 509.489636 
L 425.595075 511.8255 
L 430.469025 511.8255 
L 435.342974 517.874871 
L 440.216923 517.874871 
L 445.090872 522.781818 
L 449.964821 522.781818 
L 454.83877 520.225153 
L 459.712719 520.225153 
L 464.586668 516.968122 
L 469.460618 516.968122 
L 474.334567 513.606546 
L 479.208516 513.606546 
L 484.082465 515.070508 
L 488.956414 515.070508 
L 493.830363 516.461655 
L 498.704312 516.461655 
L 503.578261 516.148265 
L 518.200109 516.206928 
L 523.074058 515.960387 
L 527.948007 515.960387 
L 532.821956 515.128432 
L 537.695905 515.128432 
L 542.569854 513.753303 
L 547.443804 513.753303 
L 552.317753 512.149421 
L 557.191702 512.149421 
L 562.065651 510.710679 
L 566.9396 510.710679 
L 571.813549 509.612776 
L 576.687498 509.612776 
L 581.561448 508.835211 
L 586.435397 508.835211 
L 591.309346 508.304751 
L 596.183295 508.304751 
L 601.057244 507.9592 
L 605.931193 507.9592 
L 610.805142 507.758721 
L 635.174888 507.726236 
L 640.048837 507.908024 
L 644.922786 507.908024 
L 649.796735 508.234773 
L 654.670684 508.234773 
L 659.544634 508.706325 
L 664.418583 508.706325 
L 669.292532 509.324711 
L 674.166481 509.324711 
L 679.04043 510.090494 
L 683.914379 510.090494 
L 688.788328 510.993366 
L 693.662277 510.993366 
L 698.536227 512.001013 
L 703.410176 512.001013 
L 708.284125 513.008909 
L 713.158074 513.008909 
L 718.032023 513.985732 
L 722.905972 513.985732 
L 727.779921 514.835444 
L 732.65387 514.835444 
L 737.52782 515.756662 
L 742.401769 515.756662 
L 747.275718 516.370361 
L 752.149667 516.370361 
L 757.023616 516.839293 
L 761.897565 516.839293 
L 766.771514 517.101656 
L 791.14126 517.109527 
L 796.015209 516.826836 
L 800.889158 516.826836 
L 805.763107 515.347416 
L 815.511006 515.347416 
L 815.511006 515.347416 
" clip-path="url(#pe658bad293)" style="fill: none; stroke: #5036a8; stroke-width: 1.5; stroke-linecap: square"/>
   </g>
   <g id="line2d_82">
    <path d="M 84.418637 507.409817 
L 98.992146 507.518047 
L 103.849983 507.718344 
L 108.707819 507.718344 
L 113.565656 507.921895 
L 118.423492 507.921895 
L 123.281329 508.126411 
L 128.139165 508.126411 
L 132.997002 508.338977 
L 137.854838 508.338977 
L 142.712675 508.591184 
L 147.570511 508.591184 
L 152.428348 508.979539 
L 157.286185 508.979539 
L 162.144021 509.697151 
L 167.001858 509.697151 
L 171.859694 510.789447 
L 176.717531 510.789447 
L 181.575367 511.611593 
L 186.433204 511.611593 
L 191.29104 512.328567 
L 196.148877 512.328567 
L 201.006713 513.363025 
L 205.86455 513.363025 
L 210.722386 514.484176 
L 215.580223 514.484176 
L 220.438059 515.414402 
L 225.295896 515.414402 
L 230.153732 516.10653 
L 235.011569 516.10653 
L 239.869406 516.570153 
L 244.727242 516.570153 
L 249.585079 516.83846 
L 254.442915 516.83846 
L 259.300752 516.961628 
L 283.589934 516.904735 
L 288.447771 516.780749 
L 293.305607 516.780749 
L 298.163444 516.630406 
L 303.02128 516.630406 
L 307.879117 516.478385 
L 312.736953 516.478385 
L 317.59479 516.346757 
L 332.1683 516.251455 
L 346.741809 516.158765 
L 361.315319 516.092665 
L 366.173155 515.912224 
L 371.030992 515.912224 
L 375.888828 515.655477 
L 380.746665 515.655477 
L 385.604501 515.380072 
L 390.462338 515.380072 
L 395.320174 515.083414 
L 400.178011 515.083414 
L 405.035848 514.738261 
L 409.893684 514.738261 
L 414.751521 514.361842 
L 419.609357 514.361842 
L 424.467194 513.871147 
L 429.32503 513.871147 
L 434.182867 513.263195 
L 439.040703 513.263195 
L 443.89854 512.503974 
L 448.756376 512.503974 
L 453.614213 511.433707 
L 458.472049 511.433707 
L 463.329886 509.933954 
L 468.187722 509.933954 
L 473.045559 509.63103 
L 477.903395 509.63103 
L 482.761232 508.584497 
L 487.619068 508.584497 
L 492.476905 505.611972 
L 497.334742 505.611972 
L 502.192578 506.350811 
L 516.766088 506.277745 
L 521.623924 509.442334 
L 526.481761 509.442334 
L 531.339597 517.622651 
L 536.197434 517.622651 
L 541.05527 513.581812 
L 545.913107 513.581812 
L 550.770943 508.861493 
L 555.62878 508.861493 
L 560.486616 502.778031 
L 575.060126 502.744187 
L 579.917963 505.346955 
L 584.775799 505.346955 
L 589.633636 505.172948 
L 594.491472 505.172948 
L 599.349309 508.000554 
L 604.207145 508.000554 
L 609.064982 510.019266 
L 613.922818 510.019266 
L 618.780655 512.616587 
L 623.638491 512.616587 
L 628.496328 515.184926 
L 643.069837 515.101436 
L 647.927674 509.334372 
L 652.78551 509.334372 
L 657.643347 508.3476 
L 662.501184 508.3476 
L 667.35902 509.989215 
L 672.216857 509.989215 
L 677.074693 512.075679 
L 681.93253 512.075679 
L 686.790366 515.034333 
L 691.648203 515.034333 
L 696.506039 515.978028 
L 701.363876 515.978028 
L 706.221712 516.152424 
L 711.079549 516.152424 
L 715.937385 516.414216 
L 720.795222 516.414216 
L 725.653058 516.753001 
L 730.510895 516.753001 
L 735.368731 517.11361 
L 740.226568 517.11361 
L 745.084405 517.394186 
L 749.942241 517.394186 
L 754.800078 517.562384 
L 779.08926 517.480728 
L 783.947097 517.204979 
L 788.804933 517.204979 
L 793.66277 516.759436 
L 798.520606 516.759436 
L 803.378443 516.136104 
L 813.094116 516.136104 
L 813.094116 516.136104 
" clip-path="url(#pe658bad293)" style="fill: none; stroke: #60349c; stroke-width: 1.5; stroke-linecap: square"/>
   </g>
   <g id="line2d_83">
    <path d="M 84.418637 520.746694 
L 89.28207 520.746694 
L 94.145503 518.238054 
L 99.008936 518.238054 
L 103.87237 521.850748 
L 108.735803 521.850748 
L 113.599236 522.356053 
L 118.46267 522.356053 
L 123.326103 522.577117 
L 128.189536 522.577117 
L 133.052969 521.637766 
L 137.916403 521.637766 
L 142.779836 522.404267 
L 147.643269 522.404267 
L 152.506702 521.946678 
L 157.370136 521.946678 
L 162.233569 521.201836 
L 167.097002 521.201836 
L 171.960436 520.46394 
L 176.823869 520.46394 
L 181.687302 518.685348 
L 186.550735 518.685348 
L 191.414169 518.885012 
L 196.277602 518.885012 
L 201.141035 515.120365 
L 206.004468 515.120365 
L 210.867902 517.395203 
L 215.731335 517.395203 
L 220.594768 518.155998 
L 225.458202 518.155998 
L 230.321635 518.328612 
L 235.185068 518.328612 
L 240.048501 518.201366 
L 244.911935 518.201366 
L 249.775368 517.823387 
L 254.638801 517.823387 
L 259.502234 516.641591 
L 264.365668 516.641591 
L 269.229101 514.800602 
L 274.092534 514.800602 
L 278.955968 513.170407 
L 283.819401 513.170407 
L 288.682834 511.882966 
L 293.546267 511.882966 
L 298.409701 510.577624 
L 303.273134 510.577624 
L 308.136567 509.070185 
L 313 509.070185 
L 317.863434 507.601801 
L 322.726867 507.601801 
L 327.5903 506.354375 
L 332.453734 506.354375 
L 337.317167 505.300328 
L 342.1806 505.300328 
L 347.044033 504.543349 
L 351.907467 504.543349 
L 356.7709 503.970227 
L 361.634333 503.970227 
L 366.497766 503.586316 
L 371.3612 503.586316 
L 376.224633 503.346244 
L 381.088066 503.346244 
L 385.9515 503.188958 
L 400.541799 503.081932 
L 415.132099 502.956148 
L 488.083598 503.054179 
L 492.947032 503.174294 
L 497.810465 503.174294 
L 502.673898 503.358353 
L 507.537331 503.358353 
L 512.400765 503.630456 
L 517.264198 503.630456 
L 522.127631 504.033858 
L 526.991065 504.033858 
L 531.854498 504.714226 
L 536.717931 504.714226 
L 541.581364 506.021672 
L 546.444798 506.021672 
L 551.308231 508.522859 
L 556.171664 508.522859 
L 561.035097 512.764402 
L 565.898531 512.764402 
L 570.761964 515.893409 
L 575.625397 515.893409 
L 580.488831 517.036541 
L 585.352264 517.036541 
L 590.215697 517.170353 
L 595.07913 517.170353 
L 599.942564 516.827735 
L 604.805997 516.827735 
L 609.66943 516.274316 
L 614.532863 516.274316 
L 619.396297 515.913874 
L 624.25973 515.913874 
L 629.123163 516.02544 
L 633.986597 516.02544 
L 638.85003 516.429028 
L 643.713463 516.429028 
L 648.576896 517.247381 
L 653.44033 517.247381 
L 658.303763 520.486338 
L 663.167196 520.486338 
L 668.030629 521.149123 
L 672.894063 521.149123 
L 677.757496 521.314131 
L 692.347796 521.227755 
L 697.211229 521.053589 
L 721.528395 520.969264 
L 726.391829 520.67249 
L 731.255262 520.67249 
L 736.118695 519.711231 
L 750.708995 519.780129 
L 755.572428 521.275936 
L 760.435862 521.275936 
L 765.299295 506.574659 
L 770.162728 506.574659 
L 775.026161 521.205732 
L 789.616461 521.209548 
L 794.479895 518.656895 
L 799.343328 518.656895 
L 804.206761 515.279973 
L 813.933628 515.279973 
L 813.933628 515.279973 
" clip-path="url(#pe658bad293)" style="fill: none; stroke: #70318f; stroke-width: 1.5; stroke-linecap: square"/>
   </g>
   <g id="line2d_84">
    <path d="M 84.418637 520.897755 
L 89.290012 520.897755 
L 94.161387 520.496675 
L 99.032762 520.496675 
L 103.904138 520.081901 
L 108.775513 520.081901 
L 113.646888 519.641093 
L 118.518263 519.641093 
L 123.389639 519.142504 
L 128.261014 519.142504 
L 133.132389 518.742819 
L 138.003764 518.742819 
L 142.875139 518.52219 
L 157.489265 518.414277 
L 167.232016 518.404238 
L 172.103391 517.888365 
L 176.974766 517.888365 
L 181.846141 516.524039 
L 186.717517 516.524039 
L 191.588892 515.973812 
L 196.460267 515.973812 
L 201.331642 515.274977 
L 206.203018 515.274977 
L 211.074393 514.613863 
L 215.945768 514.613863 
L 220.817143 513.802271 
L 225.688519 513.802271 
L 230.559894 516.560393 
L 235.431269 516.560393 
L 240.302644 515.02172 
L 245.174019 515.02172 
L 250.045395 514.550331 
L 264.65952 514.59423 
L 269.530896 510.197778 
L 274.402271 510.197778 
L 279.273646 513.506522 
L 284.145021 513.506522 
L 289.016397 514.267072 
L 293.887772 514.267072 
L 298.759147 517.446231 
L 303.630522 517.446231 
L 308.501898 516.378261 
L 313.373273 516.378261 
L 318.244648 511.370062 
L 323.116023 511.370062 
L 327.987399 507.739951 
L 332.858774 507.739951 
L 337.730149 505.940347 
L 342.601524 505.940347 
L 347.472899 505.012003 
L 352.344275 505.012003 
L 357.21565 504.551773 
L 362.087025 504.551773 
L 366.9584 504.152683 
L 371.829776 504.152683 
L 376.701151 503.878406 
L 381.572526 503.878406 
L 386.443901 503.689047 
L 391.315277 503.689047 
L 396.186652 503.465006 
L 410.800778 503.368884 
L 430.286279 503.281273 
L 454.643155 503.279306 
L 479.000031 503.381329 
L 493.614157 503.633478 
L 498.485532 503.633478 
L 503.356907 503.838997 
L 508.228282 503.838997 
L 513.099658 504.131497 
L 517.971033 504.131497 
L 522.842408 504.575316 
L 527.713783 504.575316 
L 532.585159 505.302657 
L 537.456534 505.302657 
L 542.327909 506.499945 
L 547.199284 506.499945 
L 552.070659 508.466361 
L 556.942035 508.466361 
L 561.81341 511.195982 
L 566.684785 511.195982 
L 571.55616 513.897992 
L 576.427536 513.897992 
L 581.298911 516.021652 
L 586.170286 516.021652 
L 591.041661 517.333195 
L 595.913037 517.333195 
L 600.784412 517.999284 
L 605.655787 517.999284 
L 610.527162 518.312122 
L 615.398538 518.312122 
L 620.269913 518.467237 
L 634.884039 518.564208 
L 649.498164 518.753218 
L 654.369539 518.753218 
L 659.240915 518.873337 
L 664.11229 518.873337 
L 668.983665 519.002997 
L 673.85504 519.002997 
L 678.726416 519.125596 
L 693.340541 519.224196 
L 703.083292 519.292067 
L 722.568793 519.251787 
L 727.440168 519.069671 
L 732.311543 519.069671 
L 737.182919 518.74914 
L 742.054294 518.74914 
L 746.925669 518.136095 
L 751.797044 518.136095 
L 756.66842 517.212566 
L 761.539795 517.212566 
L 766.41117 516.612162 
L 771.282545 516.612162 
L 776.15392 513.887128 
L 781.025296 513.887128 
L 785.896671 514.399526 
L 790.768046 514.399526 
L 795.639421 513.627938 
L 800.510797 513.627938 
L 805.382172 521.025443 
L 815.124922 521.025443 
L 815.124922 521.025443 
" clip-path="url(#pe658bad293)" style="fill: none; stroke: #802f83; stroke-width: 1.5; stroke-linecap: square"/>
   </g>
   <g id="line2d_85">
    <path d="M 84.418637 514.35209 
L 89.292118 514.35209 
L 94.165599 517.555331 
L 99.039081 517.555331 
L 103.912562 518.972981 
L 108.786044 518.972981 
L 113.659525 519.332053 
L 128.279969 519.276495 
L 133.153451 519.061655 
L 138.026932 519.061655 
L 142.900414 518.764655 
L 147.773895 518.764655 
L 152.647376 518.416665 
L 157.520858 518.416665 
L 162.394339 517.945406 
L 167.267821 517.945406 
L 172.141302 517.377712 
L 177.014783 517.377712 
L 181.888265 516.703766 
L 186.761746 516.703766 
L 191.635228 515.942338 
L 196.508709 515.942338 
L 201.38219 515.169813 
L 206.255672 515.169813 
L 211.129153 514.434821 
L 216.002635 514.434821 
L 220.876116 513.668955 
L 225.749598 513.668955 
L 230.623079 512.702604 
L 235.49656 512.702604 
L 240.370042 511.513309 
L 245.243523 511.513309 
L 250.117005 510.352639 
L 254.990486 510.352639 
L 259.863967 509.45634 
L 264.737449 509.45634 
L 269.61093 508.90001 
L 274.484412 508.90001 
L 279.357893 508.646357 
L 313.472263 508.659719 
L 318.345744 508.465846 
L 323.219226 508.465846 
L 328.092707 507.986042 
L 332.966189 507.986042 
L 337.83967 507.154451 
L 342.713151 507.154451 
L 347.586633 506.134252 
L 352.460114 506.134252 
L 357.333596 505.143666 
L 362.207077 505.143666 
L 367.080559 504.322593 
L 371.95404 504.322593 
L 376.827521 503.714459 
L 381.701003 503.714459 
L 386.574484 503.316536 
L 391.447966 503.316536 
L 396.321447 503.051361 
L 401.194928 503.051361 
L 406.06841 502.855421 
L 410.941891 502.855421 
L 415.815373 502.700884 
L 498.664557 502.779516 
L 537.652408 503.262137 
L 542.525889 503.522779 
L 547.399371 503.522779 
L 552.272852 503.896423 
L 557.146334 503.896423 
L 562.019815 504.474002 
L 566.893296 504.474002 
L 571.766778 505.455998 
L 576.640259 505.455998 
L 581.513741 507.142872 
L 586.387222 507.142872 
L 591.260703 509.584388 
L 596.134185 509.584388 
L 601.007666 511.997552 
L 605.881148 511.997552 
L 610.754629 513.988327 
L 615.628111 513.988327 
L 620.501592 515.341514 
L 625.375073 515.341514 
L 630.248555 516.035439 
L 635.020361 516.035439 
L 639.792167 516.323808 
L 654.615962 516.337947 
L 659.489443 516.2109 
L 664.362925 516.2109 
L 669.236406 515.96493 
L 674.109887 515.96493 
L 678.983369 515.627789 
L 683.85685 515.627789 
L 688.730332 515.239838 
L 693.603813 515.239838 
L 698.477295 514.84721 
L 703.350776 514.84721 
L 708.224257 514.484043 
L 713.097739 514.484043 
L 717.97122 514.165397 
L 722.844702 514.165397 
L 727.718183 513.896741 
L 732.591664 513.896741 
L 737.465146 513.672533 
L 742.338627 513.672533 
L 747.212109 513.463229 
L 752.08559 513.463229 
L 756.959071 513.222274 
L 761.832553 513.222274 
L 766.706034 512.859652 
L 771.579516 512.859652 
L 776.452997 512.288325 
L 781.326479 512.288325 
L 786.19996 511.387358 
L 791.073441 511.387358 
L 795.946923 509.591193 
L 800.820404 509.591193 
L 805.693886 508.861977 
L 815.440848 508.861977 
L 815.440848 508.861977 
" clip-path="url(#pe658bad293)" style="fill: none; stroke: #8f2d78; stroke-width: 1.5; stroke-linecap: square"/>
   </g>
   <g id="line2d_86">
    <path d="M 84.418637 512.971856 
L 89.28966 512.971856 
L 94.160684 514.046797 
L 99.031708 514.046797 
L 103.902732 514.819934 
L 108.773756 514.819934 
L 113.64478 515.348593 
L 118.515804 515.348593 
L 123.386828 515.658577 
L 147.741947 515.663201 
L 152.612971 515.353958 
L 157.483995 515.353958 
L 162.355019 514.832995 
L 167.226043 514.832995 
L 172.097066 514.113117 
L 176.96809 514.113117 
L 181.839114 513.234732 
L 186.710138 513.234732 
L 191.581162 512.268431 
L 196.452186 512.268431 
L 201.32321 511.307089 
L 206.194234 511.307089 
L 211.065257 510.428906 
L 215.936281 510.428906 
L 220.807305 509.670975 
L 225.678329 509.670975 
L 230.549353 508.524239 
L 235.420377 508.524239 
L 240.291401 507.973583 
L 245.162425 507.973583 
L 250.033448 507.574534 
L 254.904472 507.574534 
L 259.775496 507.326834 
L 264.64652 507.326834 
L 269.517544 507.208696 
L 293.872663 507.251822 
L 298.743687 507.389221 
L 303.614711 507.389221 
L 308.485735 507.564856 
L 313.356759 507.564856 
L 318.227783 507.729568 
L 342.582902 507.755906 
L 347.453926 507.471818 
L 352.32495 507.471818 
L 357.195974 506.897967 
L 362.066998 506.897967 
L 366.938022 506.266317 
L 371.809045 506.266317 
L 376.680069 505.56382 
L 381.551093 505.56382 
L 386.422117 504.96407 
L 391.293141 504.96407 
L 396.164165 504.498171 
L 401.035189 504.498171 
L 405.906213 504.140049 
L 410.777236 504.140049 
L 415.64826 503.880168 
L 420.519284 503.880168 
L 425.390308 503.682887 
L 430.261332 503.682887 
L 435.132356 503.531369 
L 440.00338 503.531369 
L 444.874404 503.383868 
L 459.487475 503.333498 
L 464.358499 499.552251 
L 469.229523 499.552251 
L 474.100547 502.961441 
L 488.713618 503.013277 
L 527.68181 503.54721 
L 532.552833 503.802568 
L 537.423857 503.802568 
L 542.294881 504.146012 
L 547.165905 504.146012 
L 552.036929 504.601333 
L 556.907953 504.601333 
L 561.778977 505.198095 
L 566.650001 505.198095 
L 571.521024 505.959548 
L 576.392048 505.959548 
L 581.263072 506.904273 
L 586.134096 506.904273 
L 591.00512 507.948471 
L 595.876144 507.948471 
L 600.747168 508.923647 
L 605.618192 508.923647 
L 610.489215 509.749073 
L 615.360239 509.749073 
L 620.231263 510.477661 
L 625.102287 510.477661 
L 629.973311 511.14911 
L 634.844335 511.14911 
L 639.715359 511.730472 
L 644.586383 511.730472 
L 649.457406 512.183659 
L 654.32843 512.183659 
L 659.199454 512.498022 
L 664.070478 512.498022 
L 668.941502 512.677314 
L 693.296621 512.673204 
L 698.167645 512.519472 
L 703.038669 512.519472 
L 707.909693 512.156269 
L 712.780717 512.156269 
L 717.651741 511.935668 
L 722.522765 511.935668 
L 727.393789 511.787054 
L 732.264812 511.787054 
L 737.135836 511.674093 
L 780.975051 511.745106 
L 785.846075 511.869735 
L 815.072218 511.897484 
L 815.072218 511.897484 
" clip-path="url(#pe658bad293)" style="fill: none; stroke: #9f2a6b; stroke-width: 1.5; stroke-linecap: square"/>
   </g>
   <g id="line2d_87">
    <path d="M 84.418637 504.413298 
L 89.299788 504.413298 
L 94.18094 504.82053 
L 99.062091 504.82053 
L 103.943243 504.935831 
L 108.824394 504.935831 
L 113.705546 505.074053 
L 118.586697 505.074053 
L 123.467849 505.325029 
L 128.349 505.325029 
L 133.230152 505.621137 
L 138.111303 505.621137 
L 142.992455 505.80331 
L 177.160515 505.746391 
L 182.041667 505.632623 
L 186.922818 505.632623 
L 191.80397 505.485269 
L 196.685121 505.485269 
L 201.566273 505.316724 
L 206.447424 505.316724 
L 211.328576 505.145201 
L 216.209727 505.145201 
L 221.090879 504.984054 
L 225.972031 504.984054 
L 230.853182 504.832907 
L 235.734334 504.832907 
L 240.615485 504.691385 
L 245.496637 504.691385 
L 250.377788 504.570092 
L 265.021243 504.481373 
L 279.664697 504.441594 
L 294.308152 504.507959 
L 299.189303 504.641464 
L 304.070455 504.641464 
L 308.951606 504.877973 
L 313.832758 504.877973 
L 318.713909 505.267372 
L 323.595061 505.267372 
L 328.476212 505.740679 
L 333.357364 505.740679 
L 338.238515 506.132666 
L 343.119667 506.132666 
L 348.000818 506.430297 
L 352.88197 506.430297 
L 357.763121 506.674373 
L 372.406576 506.750262 
L 377.287727 506.534987 
L 382.168879 506.534987 
L 387.05003 506.111565 
L 391.931182 506.111565 
L 396.812333 505.625587 
L 401.693485 505.625587 
L 406.574637 505.147192 
L 411.455788 505.147192 
L 416.33694 504.70834 
L 421.218091 504.70834 
L 426.099243 504.325218 
L 430.980394 504.325218 
L 435.861546 503.988735 
L 440.742697 503.988735 
L 445.623849 503.648621 
L 450.505 503.648621 
L 455.386152 503.363809 
L 460.267303 503.363809 
L 465.148455 503.158607 
L 470.029606 503.158607 
L 474.910758 500.338941 
L 479.791909 500.338941 
L 484.673061 501.53015 
L 489.554212 501.53015 
L 494.435364 501.781437 
L 499.316515 501.781437 
L 504.197667 502.230919 
L 509.078818 502.230919 
L 513.95997 503.088067 
L 518.841121 503.088067 
L 523.722273 503.250416 
L 528.603424 503.250416 
L 533.484576 503.408206 
L 577.414939 503.507435 
L 592.058394 503.688512 
L 635.988758 503.616051 
L 645.751061 503.557759 
L 684.800273 504.338343 
L 689.681424 504.643257 
L 694.562576 504.643257 
L 699.443727 504.969965 
L 704.324879 504.969965 
L 709.20603 505.302045 
L 714.087182 505.302045 
L 718.968333 505.634535 
L 723.849485 505.634535 
L 728.730636 505.969987 
L 733.611788 505.969987 
L 738.492939 506.317182 
L 743.374091 506.317182 
L 748.255242 506.69176 
L 753.136394 506.69176 
L 758.017545 507.117937 
L 762.898697 507.117937 
L 767.779849 507.629237 
L 772.661 507.629237 
L 777.542152 508.264866 
L 782.423303 508.264866 
L 787.304455 509.062559 
L 792.185606 509.062559 
L 797.066758 510.057162 
L 801.947909 510.057162 
L 806.829061 511.270986 
L 816.591364 511.270986 
L 816.591364 511.270986 
" clip-path="url(#pe658bad293)" style="fill: none; stroke: #af285f; stroke-width: 1.5; stroke-linecap: square"/>
   </g>
   <g id="line2d_88">
    <path d="M 84.418636 500.651981 
L 89.280543 500.651981 
L 94.142417 500.949782 
L 147.623107 500.859902 
L 152.484968 500.700384 
L 157.346919 500.700384 
L 162.208869 500.408302 
L 167.070677 500.408302 
L 171.932485 500.032242 
L 176.794346 500.032242 
L 181.656207 499.643493 
L 186.517923 499.643493 
L 191.379639 499.28208 
L 196.241653 499.28208 
L 201.103667 498.957756 
L 205.965583 498.957756 
L 210.827447 498.672042 
L 215.689346 498.672042 
L 220.551246 498.426745 
L 225.413103 498.426745 
L 230.274961 498.218932 
L 235.136839 498.218932 
L 239.998717 498.035772 
L 244.860585 498.035772 
L 249.722453 497.857321 
L 254.58454 497.857321 
L 259.446626 497.667767 
L 264.308313 497.667767 
L 269.17 497.469047 
L 274.031858 497.469047 
L 278.893717 497.287679 
L 283.755349 497.287679 
L 288.616982 497.166448 
L 312.9268 497.218947 
L 317.788661 497.367074 
L 322.65016 497.367074 
L 327.511659 497.538198 
L 332.373755 497.538198 
L 337.23585 497.703626 
L 342.097909 497.703626 
L 346.959969 497.875492 
L 351.821827 497.875492 
L 356.683685 498.092864 
L 361.545572 498.092864 
L 366.40746 498.376111 
L 371.269341 498.376111 
L 376.131225 498.678288 
L 380.993142 498.678288 
L 385.85506 498.869459 
L 400.440597 498.77177 
L 405.302476 498.162802 
L 410.16435 498.162802 
L 415.026224 496.70557 
L 419.8881 496.70557 
L 424.749975 494.479087 
L 429.611848 494.479087 
L 434.473721 492.258405 
L 439.335598 492.258405 
L 444.197475 490.438 
L 449.059354 490.438 
L 453.921232 489.101374 
L 458.783128 489.101374 
L 463.645025 488.730426 
L 468.506886 488.730426 
L 473.368748 489.606013 
L 478.230621 489.606013 
L 483.092494 491.199511 
L 487.954226 491.199511 
L 492.815957 492.74739 
L 497.677934 492.74739 
L 502.53991 493.927694 
L 507.401863 493.927694 
L 512.263749 494.825682 
L 517.125624 494.825682 
L 521.987499 495.609692 
L 526.84928 495.609692 
L 531.711061 496.358264 
L 536.573002 496.358264 
L 541.434944 497.061443 
L 546.296899 497.061443 
L 551.15885 497.677802 
L 556.020674 497.677802 
L 560.882499 498.176021 
L 565.744564 498.176021 
L 570.60663 498.547536 
L 575.468333 498.547536 
L 580.330037 498.802619 
L 585.191897 498.802619 
L 590.053762 498.962585 
L 604.639558 499.052651 
L 619.225185 499.120063 
L 653.25816 499.216373 
L 667.843576 499.411491 
L 672.705394 499.411491 
L 677.567212 499.567387 
L 682.42925 499.567387 
L 687.291288 499.76434 
L 692.153101 499.76434 
L 697.014915 499.997121 
L 701.876847 499.997121 
L 706.738778 500.251013 
L 711.600654 500.251013 
L 716.462531 500.5017 
L 721.324495 500.5017 
L 726.18646 500.719493 
L 731.048267 500.719493 
L 735.910074 500.876084 
L 760.219515 500.911404 
L 765.081495 500.728608 
L 769.943257 500.728608 
L 774.805018 500.32317 
L 779.666895 500.32317 
L 784.528772 499.533168 
L 789.390668 499.533168 
L 794.252565 498.048659 
L 799.114434 498.048659 
L 803.976303 495.305787 
L 813.700043 495.305787 
L 813.700043 495.305787 
" clip-path="url(#pe658bad293)" style="fill: none; stroke: #bf2552; stroke-width: 1.5; stroke-linecap: square"/>
   </g>
   <g id="patch_9">
    <path d="M 47.81 534.04 
L 47.81 286.36 
" style="fill: none; stroke: #000000; stroke-width: 0.8; stroke-linejoin: miter; stroke-linecap: square"/>
   </g>
   <g id="patch_10">
    <path d="M 853.2 534.04 
L 853.2 286.36 
" style="fill: none; stroke: #000000; stroke-width: 0.8; stroke-linejoin: miter; stroke-linecap: square"/>
   </g>
   <g id="patch_11">
    <path d="M 47.81 534.04 
L 853.2 534.04 
" style="fill: none; stroke: #000000; stroke-width: 0.8; stroke-linejoin: miter; stroke-linecap: square"/>
   </g>
   <g id="patch_12">
    <path d="M 47.81 286.36 
L 853.2 286.36 
" style="fill: none; stroke: #000000; stroke-width: 0.8; stroke-linejoin: miter; stroke-linecap: square"/>
   </g>
  </g>
 </g>
 <defs>
  <clipPath id="p97eb8fb2c0">
   <rect x="47.81" y="10.8" width="805.39" height="247.68"/>
  </clipPath>
  <clipPath id="pe658bad293">
   <rect x="47.81" y="286.36" width="805.39" height="247.68"/>
  </clipPath>
 </defs>
</svg>
