<?xml version="1.0" encoding="utf-8" standalone="no"?>
<!DOCTYPE svg PUBLIC "-//W3C//DTD SVG 1.1//EN"
  "http://www.w3.org/Graphics/SVG/1.1/DTD/svg11.dtd">
<svg xmlns:xlink="http://www.w3.org/1999/xlink" width="864pt" height="576pt" viewBox="0 0 864 576" xmlns="http://www.w3.org/2000/svg" version="1.1">
 <metadata>
  <rdf:RDF xmlns:dc="http://purl.org/dc/elements/1.1/" xmlns:cc="http://creativecommons.org/ns#" xmlns:rdf="http://www.w3.org/1999/02/22-rdf-syntax-ns#">
   <cc:Work>
    <dc:type rdf:resource="http://purl.org/dc/dcmitype/StillImage"/>
    <dc:date>2026-02-28T10:20:07.444518</dc:date>
    <dc:format>image/svg+xml</dc:format>
    <dc:creator>
     <cc:Agent>
      <dc:title>Matplotlib v3.10.8, https://matplotlib.org/</dc:title>
     </cc:Agent>
    </dc:creator>
   </cc:Work>
  </rdf:RDF>
 </metadata>
 <defs>
  <style type="text/css">*{stroke-linejoin: round; stroke-linecap: butt}</style>
 </defs>
 <g id="figure_1">
  <g id="patch_1">
   <path d="M 0 576 
L 864 576 
L 864 0 
L 0 0 
z
" style="fill: #ffffff"/>
  </g>
  <g id="axes_1">
   <g id="patch_2">
    <path d="M 47.81 258.48 
L 853.2 258.48 
L 853.2 10.8 
L 47.81 10.8 
z
" style="fill: #ffffff"/>
   </g>
   <g id="matplotlib.axis_1">
    <g id="xtick_1">
     <g id="line2d_1">
      <path d="M 84.418636 258.48 
L 84.418636 10.8 
" clip-path="url(#p63d451d332)" style="fill: none; stroke: #b0b0b0; stroke-width: 0.8; stroke-linecap: square"/>
     </g>
     <g id="line2d_2">
      <defs>
       <path id="m9d2010d08e" d="M 0 0 
L 0 3.5 
" style="stroke: #000000; stroke-width: 0.8"/>
      </defs>
      <g>
       <use xlink:href="#m9d2010d08e" x="84.418636" y="258.48" style="stroke: #000000; stroke-width: 0.8"/>
      </g>
     </g>
     <g id="text_1">
      <!-- 0 -->
      <g transform="translate(81.237386 273.078438) scale(0.1 -0.1)">
       <defs>
        <path id="DejaVuSans-30" d="M 2034 4250 
Q 1547 4250 1301 3770 
Q 1056 3291 1056 2328 
Q 1056 1369 1301 889 
Q 1547 409 2034 409 
Q 2525 409 2770 889 
Q 3016 1369 3016 2328 
Q 3016 3291 2770 3770 
Q 2525 4250 2034 4250 
z
M 2034 4750 
Q 2819 4750 3233 4129 
Q 3647 3509 3647 2328 
Q 3647 1150 3233 529 
Q 2819 -91 2034 -91 
Q 1250 -91 836 529 
Q 422 1150 422 2328 
Q 422 3509 836 4129 
Q 1250 4750 2034 4750 
z
" transform="scale(0.015625)"/>
       </defs>
       <use xlink:href="#DejaVuSans-30"/>
      </g>
     </g>
    </g>
    <g id="xtick_2">
     <g id="line2d_3">
      <path d="M 262.769704 258.48 
L 262.769704 10.8 
" clip-path="url(#p63d451d332)" style="fill: none; stroke: #b0b0b0; stroke-width: 0.8; stroke-linecap: square"/>
     </g>
     <g id="line2d_4">
      <g>
       <use xlink:href="#m9d2010d08e" x="262.769704" y="258.48" style="stroke: #000000; stroke-width: 0.8"/>
      </g>
     </g>
     <g id="text_2">
      <!-- 5 -->
      <g transform="translate(259.588454 273.078438) scale(0.1 -0.1)">
       <defs>
        <path id="DejaVuSans-35" d="M 691 4666 
L 3169 4666 
L 3169 4134 
L 1269 4134 
L 1269 2991 
Q 1406 3038 1543 3061 
Q 1681 3084 1819 3084 
Q 2600 3084 3056 2656 
Q 3513 2228 3513 1497 
Q 3513 744 3044 326 
Q 2575 -91 1722 -91 
Q 1428 -91 1123 -41 
Q 819 9 494 109 
L 494 744 
Q 775 591 1075 516 
Q 1375 441 1709 441 
Q 2250 441 2565 725 
Q 2881 1009 2881 1497 
Q 2881 1984 2565 2268 
Q 2250 2553 1709 2553 
Q 1456 2553 1204 2497 
Q 953 2441 691 2322 
L 691 4666 
z
" transform="scale(0.015625)"/>
       </defs>
       <use xlink:href="#DejaVuSans-35"/>
      </g>
     </g>
    </g>
    <g id="xtick_3">
     <g id="line2d_5">
      <path d="M 441.120772 258.48 
L 441.120772 10.8 
" clip-path="url(#p63d451d332)" style="fill: none; stroke: #b0b0b0; stroke-width: 0.8; stroke-linecap: square"/>
     </g>
     <g id="line2d_6">
      <g>
       <use xlink:href="#m9d2010d08e" x="441.120772" y="258.48" style="stroke: #000000; stroke-width: 0.8"/>
      </g>
     </g>
     <g id="text_3">
      <!-- 10 -->
      <g transform="translate(434.758272 273.078438) scale(0.1 -0.1)">
       <defs>
        <path id="DejaVuSans-31" d="M 794 531 
L 1825 531 
L 1825 4091 
L 703 3866 
L 703 4441 
L 1819 4666 
L 2450 4666 
L 2450 531 
L 3481 531 
L 3481 0 
L 794 0 
L 794 531 
z
" transform="scale(0.015625)"/>
       </defs>
       <use xlink:href="#DejaVuSans-31"/>
       <use xlink:href="#DejaVuSans-30" transform="translate(63.623047 0)"/>
      </g>
     </g>
    </g>
    <g id="xtick_4">
     <g id="line2d_7">
      <path d="M 619.47184 258.48 
L 619.47184 10.8 
" clip-path="url(#p63d451d332)" style="fill: none; stroke: #b0b0b0; stroke-width: 0.8; stroke-linecap: square"/>
     </g>
     <g id="line2d_8">
      <g>
       <use xlink:href="#m9d2010d08e" x="619.47184" y="258.48" style="stroke: #000000; stroke-width: 0.8"/>
      </g>
     </g>
     <g id="text_4">
      <!-- 15 -->
      <g transform="translate(613.10934 273.078438) scale(0.1 -0.1)">
       <use xlink:href="#DejaVuSans-31"/>
       <use xlink:href="#DejaVuSans-35" transform="translate(63.623047 0)"/>
      </g>
     </g>
    </g>
    <g id="xtick_5">
     <g id="line2d_9">
      <path d="M 797.822907 258.48 
L 797.822907 10.8 
" clip-path="url(#p63d451d332)" style="fill: none; stroke: #b0b0b0; stroke-width: 0.8; stroke-linecap: square"/>
     </g>
     <g id="line2d_10">
      <g>
       <use xlink:href="#m9d2010d08e" x="797.822907" y="258.48" style="stroke: #000000; stroke-width: 0.8"/>
      </g>
     </g>
     <g id="text_5">
      <!-- 20 -->
      <g transform="translate(791.460407 273.078438) scale(0.1 -0.1)">
       <defs>
        <path id="DejaVuSans-32" d="M 1228 531 
L 3431 531 
L 3431 0 
L 469 0 
L 469 531 
Q 828 903 1448 1529 
Q 2069 2156 2228 2338 
Q 2531 2678 2651 2914 
Q 2772 3150 2772 3378 
Q 2772 3750 2511 3984 
Q 2250 4219 1831 4219 
Q 1534 4219 1204 4116 
Q 875 4013 500 3803 
L 500 4441 
Q 881 4594 1212 4672 
Q 1544 4750 1819 4750 
Q 2544 4750 2975 4387 
Q 3406 4025 3406 3419 
Q 3406 3131 3298 2873 
Q 3191 2616 2906 2266 
Q 2828 2175 2409 1742 
Q 1991 1309 1228 531 
z
" transform="scale(0.015625)"/>
       </defs>
       <use xlink:href="#DejaVuSans-32"/>
       <use xlink:href="#DejaVuSans-30" transform="translate(63.623047 0)"/>
      </g>
     </g>
    </g>
   </g>
   <g id="matplotlib.axis_2">
    <g id="ytick_1">
     <g id="line2d_11">
      <path d="M 47.81 247.221818 
L 853.2 247.221818 
" clip-path="url(#p63d451d332)" style="fill: none; stroke: #b0b0b0; stroke-width: 0.8; stroke-linecap: square"/>
     </g>
     <g id="line2d_12">
      <defs>
       <path id="me0c4520b68" d="M 0 0 
L -3.5 0 
" style="stroke: #000000; stroke-width: 0.8"/>
      </defs>
      <g>
       <use xlink:href="#me0c4520b68" x="47.81" y="247.221818" style="stroke: #000000; stroke-width: 0.8"/>
      </g>
     </g>
     <g id="text_6">
      <!-- 0.0 -->
      <g transform="translate(24.906875 251.021037) scale(0.1 -0.1)">
       <defs>
        <path id="DejaVuSans-2e" d="M 684 794 
L 1344 794 
L 1344 0 
L 684 0 
L 684 794 
z
" transform="scale(0.015625)"/>
       </defs>
       <use xlink:href="#DejaVuSans-30"/>
       <use xlink:href="#DejaVuSans-2e" transform="translate(63.623047 0)"/>
       <use xlink:href="#DejaVuSans-30" transform="translate(95.410156 0)"/>
      </g>
     </g>
    </g>
    <g id="ytick_2">
     <g id="line2d_13">
      <path d="M 47.81 211.385912 
L 853.2 211.385912 
" clip-path="url(#p63d451d332)" style="fill: none; stroke: #b0b0b0; stroke-width: 0.8; stroke-linecap: square"/>
     </g>
     <g id="line2d_14">
      <g>
       <use xlink:href="#me0c4520b68" x="47.81" y="211.385912" style="stroke: #000000; stroke-width: 0.8"/>
      </g>
     </g>
     <g id="text_7">
      <!-- 0.5 -->
      <g transform="translate(24.906875 215.185131) scale(0.1 -0.1)">
       <use xlink:href="#DejaVuSans-30"/>
       <use xlink:href="#DejaVuSans-2e" transform="translate(63.623047 0)"/>
       <use xlink:href="#DejaVuSans-35" transform="translate(95.410156 0)"/>
      </g>
     </g>
    </g>
    <g id="ytick_3">
     <g id="line2d_15">
      <path d="M 47.81 175.550007 
L 853.2 175.550007 
" clip-path="url(#p63d451d332)" style="fill: none; stroke: #b0b0b0; stroke-width: 0.8; stroke-linecap: square"/>
     </g>
     <g id="line2d_16">
      <g>
       <use xlink:href="#me0c4520b68" x="47.81" y="175.550007" style="stroke: #000000; stroke-width: 0.8"/>
      </g>
     </g>
     <g id="text_8">
      <!-- 1.0 -->
      <g transform="translate(24.906875 179.349225) scale(0.1 -0.1)">
       <use xlink:href="#DejaVuSans-31"/>
       <use xlink:href="#DejaVuSans-2e" transform="translate(63.623047 0)"/>
       <use xlink:href="#DejaVuSans-30" transform="translate(95.410156 0)"/>
      </g>
     </g>
    </g>
    <g id="ytick_4">
     <g id="line2d_17">
      <path d="M 47.81 139.714101 
L 853.2 139.714101 
" clip-path="url(#p63d451d332)" style="fill: none; stroke: #b0b0b0; stroke-width: 0.8; stroke-linecap: square"/>
     </g>
     <g id="line2d_18">
      <g>
       <use xlink:href="#me0c4520b68" x="47.81" y="139.714101" style="stroke: #000000; stroke-width: 0.8"/>
      </g>
     </g>
     <g id="text_9">
      <!-- 1.5 -->
      <g transform="translate(24.906875 143.51332) scale(0.1 -0.1)">
       <use xlink:href="#DejaVuSans-31"/>
       <use xlink:href="#DejaVuSans-2e" transform="translate(63.623047 0)"/>
       <use xlink:href="#DejaVuSans-35" transform="translate(95.410156 0)"/>
      </g>
     </g>
    </g>
    <g id="ytick_5">
     <g id="line2d_19">
      <path d="M 47.81 103.878195 
L 853.2 103.878195 
" clip-path="url(#p63d451d332)" style="fill: none; stroke: #b0b0b0; stroke-width: 0.8; stroke-linecap: square"/>
     </g>
     <g id="line2d_20">
      <g>
       <use xlink:href="#me0c4520b68" x="47.81" y="103.878195" style="stroke: #000000; stroke-width: 0.8"/>
      </g>
     </g>
     <g id="text_10">
      <!-- 2.0 -->
      <g transform="translate(24.906875 107.677414) scale(0.1 -0.1)">
       <use xlink:href="#DejaVuSans-32"/>
       <use xlink:href="#DejaVuSans-2e" transform="translate(63.623047 0)"/>
       <use xlink:href="#DejaVuSans-30" transform="translate(95.410156 0)"/>
      </g>
     </g>
    </g>
    <g id="ytick_6">
     <g id="line2d_21">
      <path d="M 47.81 68.04229 
L 853.2 68.04229 
" clip-path="url(#p63d451d332)" style="fill: none; stroke: #b0b0b0; stroke-width: 0.8; stroke-linecap: square"/>
     </g>
     <g id="line2d_22">
      <g>
       <use xlink:href="#me0c4520b68" x="47.81" y="68.04229" style="stroke: #000000; stroke-width: 0.8"/>
      </g>
     </g>
     <g id="text_11">
      <!-- 2.5 -->
      <g transform="translate(24.906875 71.841508) scale(0.1 -0.1)">
       <use xlink:href="#DejaVuSans-32"/>
       <use xlink:href="#DejaVuSans-2e" transform="translate(63.623047 0)"/>
       <use xlink:href="#DejaVuSans-35" transform="translate(95.410156 0)"/>
      </g>
     </g>
    </g>
    <g id="ytick_7">
     <g id="line2d_23">
      <path d="M 47.81 32.206384 
L 853.2 32.206384 
" clip-path="url(#p63d451d332)" style="fill: none; stroke: #b0b0b0; stroke-width: 0.8; stroke-linecap: square"/>
     </g>
     <g id="line2d_24">
      <g>
       <use xlink:href="#me0c4520b68" x="47.81" y="32.206384" style="stroke: #000000; stroke-width: 0.8"/>
      </g>
     </g>
     <g id="text_12">
      <!-- 3.0 -->
      <g transform="translate(24.906875 36.005603) scale(0.1 -0.1)">
       <defs>
        <path id="DejaVuSans-33" d="M 2597 2516 
Q 3050 2419 3304 2112 
Q 3559 1806 3559 1356 
Q 3559 666 3084 287 
Q 2609 -91 1734 -91 
Q 1441 -91 1130 -33 
Q 819 25 488 141 
L 488 750 
Q 750 597 1062 519 
Q 1375 441 1716 441 
Q 2309 441 2620 675 
Q 2931 909 2931 1356 
Q 2931 1769 2642 2001 
Q 2353 2234 1838 2234 
L 1294 2234 
L 1294 2753 
L 1863 2753 
Q 2328 2753 2575 2939 
Q 2822 3125 2822 3475 
Q 2822 3834 2567 4026 
Q 2313 4219 1838 4219 
Q 1578 4219 1281 4162 
Q 984 4106 628 3988 
L 628 4550 
Q 988 4650 1302 4700 
Q 1616 4750 1894 4750 
Q 2613 4750 3031 4423 
Q 3450 4097 3450 3541 
Q 3450 3153 3228 2886 
Q 3006 2619 2597 2516 
z
" transform="scale(0.015625)"/>
       </defs>
       <use xlink:href="#DejaVuSans-33"/>
       <use xlink:href="#DejaVuSans-2e" transform="translate(63.623047 0)"/>
       <use xlink:href="#DejaVuSans-30" transform="translate(95.410156 0)"/>
      </g>
     </g>
    </g>
    <g id="text_13">
     <!-- Phase Angle (rad) -->
     <g transform="translate(18.827187 179.17125) rotate(-90) scale(0.1 -0.1)">
      <defs>
       <path id="DejaVuSans-50" d="M 1259 4147 
L 1259 2394 
L 2053 2394 
Q 2494 2394 2734 2622 
Q 2975 2850 2975 3272 
Q 2975 3691 2734 3919 
Q 2494 4147 2053 4147 
L 1259 4147 
z
M 628 4666 
L 2053 4666 
Q 2838 4666 3239 4311 
Q 3641 3956 3641 3272 
Q 3641 2581 3239 2228 
Q 2838 1875 2053 1875 
L 1259 1875 
L 1259 0 
L 628 0 
L 628 4666 
z
" transform="scale(0.015625)"/>
       <path id="DejaVuSans-68" d="M 3513 2113 
L 3513 0 
L 2938 0 
L 2938 2094 
Q 2938 2591 2744 2837 
Q 2550 3084 2163 3084 
Q 1697 3084 1428 2787 
Q 1159 2491 1159 1978 
L 1159 0 
L 581 0 
L 581 4863 
L 1159 4863 
L 1159 2956 
Q 1366 3272 1645 3428 
Q 1925 3584 2291 3584 
Q 2894 3584 3203 3211 
Q 3513 2838 3513 2113 
z
" transform="scale(0.015625)"/>
       <path id="DejaVuSans-61" d="M 2194 1759 
Q 1497 1759 1228 1600 
Q 959 1441 959 1056 
Q 959 750 1161 570 
Q 1363 391 1709 391 
Q 2188 391 2477 730 
Q 2766 1069 2766 1631 
L 2766 1759 
L 2194 1759 
z
M 3341 1997 
L 3341 0 
L 2766 0 
L 2766 531 
Q 2569 213 2275 61 
Q 1981 -91 1556 -91 
Q 1019 -91 701 211 
Q 384 513 384 1019 
Q 384 1609 779 1909 
Q 1175 2209 1959 2209 
L 2766 2209 
L 2766 2266 
Q 2766 2663 2505 2880 
Q 2244 3097 1772 3097 
Q 1472 3097 1187 3025 
Q 903 2953 641 2809 
L 641 3341 
Q 956 3463 1253 3523 
Q 1550 3584 1831 3584 
Q 2591 3584 2966 3190 
Q 3341 2797 3341 1997 
z
" transform="scale(0.015625)"/>
       <path id="DejaVuSans-73" d="M 2834 3397 
L 2834 2853 
Q 2591 2978 2328 3040 
Q 2066 3103 1784 3103 
Q 1356 3103 1142 2972 
Q 928 2841 928 2578 
Q 928 2378 1081 2264 
Q 1234 2150 1697 2047 
L 1894 2003 
Q 2506 1872 2764 1633 
Q 3022 1394 3022 966 
Q 3022 478 2636 193 
Q 2250 -91 1575 -91 
Q 1294 -91 989 -36 
Q 684 19 347 128 
L 347 722 
Q 666 556 975 473 
Q 1284 391 1588 391 
Q 1994 391 2212 530 
Q 2431 669 2431 922 
Q 2431 1156 2273 1281 
Q 2116 1406 1581 1522 
L 1381 1569 
Q 847 1681 609 1914 
Q 372 2147 372 2553 
Q 372 3047 722 3315 
Q 1072 3584 1716 3584 
Q 2034 3584 2315 3537 
Q 2597 3491 2834 3397 
z
" transform="scale(0.015625)"/>
       <path id="DejaVuSans-65" d="M 3597 1894 
L 3597 1613 
L 953 1613 
Q 991 1019 1311 708 
Q 1631 397 2203 397 
Q 2534 397 2845 478 
Q 3156 559 3463 722 
L 3463 178 
Q 3153 47 2828 -22 
Q 2503 -91 2169 -91 
Q 1331 -91 842 396 
Q 353 884 353 1716 
Q 353 2575 817 3079 
Q 1281 3584 2069 3584 
Q 2775 3584 3186 3129 
Q 3597 2675 3597 1894 
z
M 3022 2063 
Q 3016 2534 2758 2815 
Q 2500 3097 2075 3097 
Q 1594 3097 1305 2825 
Q 1016 2553 972 2059 
L 3022 2063 
z
" transform="scale(0.015625)"/>
       <path id="DejaVuSans-20" transform="scale(0.015625)"/>
       <path id="DejaVuSans-41" d="M 2188 4044 
L 1331 1722 
L 3047 1722 
L 2188 4044 
z
M 1831 4666 
L 2547 4666 
L 4325 0 
L 3669 0 
L 3244 1197 
L 1141 1197 
L 716 0 
L 50 0 
L 1831 4666 
z
" transform="scale(0.015625)"/>
       <path id="DejaVuSans-6e" d="M 3513 2113 
L 3513 0 
L 2938 0 
L 2938 2094 
Q 2938 2591 2744 2837 
Q 2550 3084 2163 3084 
Q 1697 3084 1428 2787 
Q 1159 2491 1159 1978 
L 1159 0 
L 581 0 
L 581 3500 
L 1159 3500 
L 1159 2956 
Q 1366 3272 1645 3428 
Q 1925 3584 2291 3584 
Q 2894 3584 3203 3211 
Q 3513 2838 3513 2113 
z
" transform="scale(0.015625)"/>
       <path id="DejaVuSans-67" d="M 2906 1791 
Q 2906 2416 2648 2759 
Q 2391 3103 1925 3103 
Q 1463 3103 1205 2759 
Q 947 2416 947 1791 
Q 947 1169 1205 825 
Q 1463 481 1925 481 
Q 2391 481 2648 825 
Q 2906 1169 2906 1791 
z
M 3481 434 
Q 3481 -459 3084 -895 
Q 2688 -1331 1869 -1331 
Q 1566 -1331 1297 -1286 
Q 1028 -1241 775 -1147 
L 775 -588 
Q 1028 -725 1275 -790 
Q 1522 -856 1778 -856 
Q 2344 -856 2625 -561 
Q 2906 -266 2906 331 
L 2906 616 
Q 2728 306 2450 153 
Q 2172 0 1784 0 
Q 1141 0 747 490 
Q 353 981 353 1791 
Q 353 2603 747 3093 
Q 1141 3584 1784 3584 
Q 2172 3584 2450 3431 
Q 2728 3278 2906 2969 
L 2906 3500 
L 3481 3500 
L 3481 434 
z
" transform="scale(0.015625)"/>
       <path id="DejaVuSans-6c" d="M 603 4863 
L 1178 4863 
L 1178 0 
L 603 0 
L 603 4863 
z
" transform="scale(0.015625)"/>
       <path id="DejaVuSans-28" d="M 1984 4856 
Q 1566 4138 1362 3434 
Q 1159 2731 1159 2009 
Q 1159 1288 1364 580 
Q 1569 -128 1984 -844 
L 1484 -844 
Q 1016 -109 783 600 
Q 550 1309 550 2009 
Q 550 2706 781 3412 
Q 1013 4119 1484 4856 
L 1984 4856 
z
" transform="scale(0.015625)"/>
       <path id="DejaVuSans-72" d="M 2631 2963 
Q 2534 3019 2420 3045 
Q 2306 3072 2169 3072 
Q 1681 3072 1420 2755 
Q 1159 2438 1159 1844 
L 1159 0 
L 581 0 
L 581 3500 
L 1159 3500 
L 1159 2956 
Q 1341 3275 1631 3429 
Q 1922 3584 2338 3584 
Q 2397 3584 2469 3576 
Q 2541 3569 2628 3553 
L 2631 2963 
z
" transform="scale(0.015625)"/>
       <path id="DejaVuSans-64" d="M 2906 2969 
L 2906 4863 
L 3481 4863 
L 3481 0 
L 2906 0 
L 2906 525 
Q 2725 213 2448 61 
Q 2172 -91 1784 -91 
Q 1150 -91 751 415 
Q 353 922 353 1747 
Q 353 2572 751 3078 
Q 1150 3584 1784 3584 
Q 2172 3584 2448 3432 
Q 2725 3281 2906 2969 
z
M 947 1747 
Q 947 1113 1208 752 
Q 1469 391 1925 391 
Q 2381 391 2643 752 
Q 2906 1113 2906 1747 
Q 2906 2381 2643 2742 
Q 2381 3103 1925 3103 
Q 1469 3103 1208 2742 
Q 947 2381 947 1747 
z
" transform="scale(0.015625)"/>
       <path id="DejaVuSans-29" d="M 513 4856 
L 1013 4856 
Q 1481 4119 1714 3412 
Q 1947 2706 1947 2009 
Q 1947 1309 1714 600 
Q 1481 -109 1013 -844 
L 513 -844 
Q 928 -128 1133 580 
Q 1338 1288 1338 2009 
Q 1338 2731 1133 3434 
Q 928 4138 513 4856 
z
" transform="scale(0.015625)"/>
      </defs>
      <use xlink:href="#DejaVuSans-50"/>
      <use xlink:href="#DejaVuSans-68" transform="translate(60.302734 0)"/>
      <use xlink:href="#DejaVuSans-61" transform="translate(123.681641 0)"/>
      <use xlink:href="#DejaVuSans-73" transform="translate(184.960938 0)"/>
      <use xlink:href="#DejaVuSans-65" transform="translate(237.060547 0)"/>
      <use xlink:href="#DejaVuSans-20" transform="translate(298.583984 0)"/>
      <use xlink:href="#DejaVuSans-41" transform="translate(330.371094 0)"/>
      <use xlink:href="#DejaVuSans-6e" transform="translate(398.779297 0)"/>
      <use xlink:href="#DejaVuSans-67" transform="translate(462.158203 0)"/>
      <use xlink:href="#DejaVuSans-6c" transform="translate(525.634766 0)"/>
      <use xlink:href="#DejaVuSans-65" transform="translate(553.417969 0)"/>
      <use xlink:href="#DejaVuSans-20" transform="translate(614.941406 0)"/>
      <use xlink:href="#DejaVuSans-28" transform="translate(646.728516 0)"/>
      <use xlink:href="#DejaVuSans-72" transform="translate(685.742188 0)"/>
      <use xlink:href="#DejaVuSans-61" transform="translate(726.855469 0)"/>
      <use xlink:href="#DejaVuSans-64" transform="translate(788.134766 0)"/>
      <use xlink:href="#DejaVuSans-29" transform="translate(851.611328 0)"/>
     </g>
    </g>
   </g>
   <g id="line2d_25">
    <path d="M 84.418636 247.221818 
L 816.591364 247.221818 
L 816.591364 247.221818 
" clip-path="url(#p63d451d332)" style="fill: none; stroke: #303bc1; stroke-width: 1.5; stroke-linecap: square"/>
   </g>
   <g id="line2d_26">
    <path d="M 84.418636 222.203636 
L 182.041667 222.300369 
L 206.447424 222.589664 
L 230.853182 223.085315 
L 269.902394 224.163299 
L 308.951606 225.187996 
L 372.406576 226.723985 
L 391.931182 227.507314 
L 406.574636 228.290604 
L 421.218091 229.253501 
L 435.861545 230.395399 
L 455.386152 232.172738 
L 479.791909 234.703237 
L 509.078818 237.801362 
L 523.722273 239.181686 
L 538.365727 240.380814 
L 553.009182 241.387885 
L 572.533788 242.456172 
L 592.058394 243.276041 
L 621.345303 244.230436 
L 684.800273 245.993647 
L 714.087182 246.639802 
L 743.374091 247.04021 
L 772.661 247.201311 
L 811.710212 247.22143 
L 811.710212 247.22143 
" clip-path="url(#p63d451d332)" style="fill: none; stroke: #4039b5; stroke-width: 1.5; stroke-linecap: square"/>
   </g>
   <g id="line2d_27">
    <path d="M 84.418636 197.185455 
L 167.398212 197.27461 
L 186.922818 197.58134 
L 206.447424 198.129179 
L 225.97203 198.930931 
L 250.377788 200.215215 
L 318.713909 204.039107 
L 352.88197 205.934071 
L 372.406576 207.280837 
L 387.05003 208.506348 
L 401.693485 209.923136 
L 416.336939 211.59413 
L 426.099242 212.895479 
L 435.861545 214.35777 
L 450.505 216.836579 
L 465.148455 219.598241 
L 489.554212 224.527718 
L 509.078818 228.355127 
L 523.722273 230.933186 
L 533.484576 232.466052 
L 543.246879 233.840454 
L 557.890333 235.613733 
L 572.533788 237.081 
L 587.177242 238.308593 
L 606.701848 239.7033 
L 655.513364 242.830111 
L 689.681424 244.873147 
L 709.20603 245.818562 
L 728.730636 246.514587 
L 748.255242 246.949515 
L 767.779848 247.162705 
L 797.066758 247.214404 
L 811.710212 247.220894 
L 811.710212 247.220894 
" clip-path="url(#p63d451d332)" style="fill: none; stroke: #5036a8; stroke-width: 1.5; stroke-linecap: square"/>
   </g>
   <g id="line2d_28">
    <path d="M 84.418636 172.167273 
L 157.635909 172.196015 
L 172.279364 172.446804 
L 186.922818 172.882382 
L 201.566273 173.527608 
L 216.209727 174.380256 
L 235.734333 175.786695 
L 255.258939 177.462965 
L 274.783545 179.42818 
L 294.308152 181.674661 
L 313.832758 184.168457 
L 338.238515 187.556269 
L 362.644273 191.197125 
L 382.168879 194.293578 
L 396.812333 196.828956 
L 411.455788 199.665165 
L 426.099242 202.820169 
L 440.742697 206.257199 
L 460.267303 211.160838 
L 494.435364 219.932185 
L 509.078818 223.413649 
L 518.841121 225.549657 
L 528.603424 227.515828 
L 538.365727 229.307145 
L 548.12803 230.929143 
L 557.890333 232.39412 
L 572.533788 234.311929 
L 587.177242 235.950387 
L 606.701848 237.826205 
L 635.988758 240.308492 
L 670.156818 243.007774 
L 689.681424 244.385551 
L 709.20603 245.526472 
L 723.849485 246.184087 
L 738.492939 246.662379 
L 758.017545 247.044968 
L 777.542152 247.202646 
L 811.710212 247.220715 
L 811.710212 247.220715 
" clip-path="url(#p63d451d332)" style="fill: none; stroke: #60349c; stroke-width: 1.5; stroke-linecap: square"/>
   </g>
   <g id="line2d_29">
    <path d="M 84.418636 147.149091 
L 138.111303 147.174406 
L 147.873606 147.403495 
L 157.635909 147.791236 
L 167.398212 148.361535 
L 177.160515 149.130952 
L 186.922818 150.106308 
L 196.685121 151.28744 
L 206.447424 152.661044 
L 221.090879 155.025254 
L 240.615485 158.539251 
L 279.664697 165.685586 
L 304.070455 169.923323 
L 352.88197 178.257344 
L 367.525424 181.036238 
L 382.168879 184.114873 
L 391.931182 186.369346 
L 401.693485 188.79814 
L 411.455788 191.399797 
L 426.099242 195.593898 
L 440.742697 200.053688 
L 484.673061 213.725193 
L 499.316515 217.924155 
L 509.078818 220.509795 
L 518.841121 222.896258 
L 528.603424 225.073062 
L 538.365727 227.039944 
L 548.12803 228.805298 
L 557.890333 230.385798 
L 572.533788 232.471529 
L 587.177242 234.31048 
L 606.701848 236.516365 
L 626.226455 238.511621 
L 655.513364 241.264149 
L 679.919121 243.351865 
L 699.443727 244.772804 
L 714.087182 245.631671 
L 728.730636 246.289818 
L 743.374091 246.749688 
L 762.898697 247.094987 
L 782.423303 247.216445 
L 811.710212 247.22057 
L 811.710212 247.22057 
" clip-path="url(#p63d451d332)" style="fill: none; stroke: #70318f; stroke-width: 1.5; stroke-linecap: square"/>
   </g>
   <g id="line2d_30">
    <path d="M 84.418636 122.130909 
L 113.705545 121.99901 
L 133.230152 121.985245 
L 147.873606 122.239917 
L 157.635909 122.623839 
L 167.398212 123.230815 
L 177.160515 124.098072 
L 186.922818 125.253055 
L 196.685121 126.7109 
L 206.447424 128.472482 
L 216.209727 130.523584 
L 225.97203 132.834971 
L 235.734333 135.363836 
L 250.377788 139.445728 
L 289.427 150.603075 
L 304.070455 154.431558 
L 318.713909 157.962007 
L 333.357364 161.241512 
L 372.406576 169.769138 
L 382.168879 172.114471 
L 391.931182 174.633381 
L 401.693485 177.353757 
L 411.455788 180.292261 
L 421.218091 183.45026 
L 430.980394 186.814376 
L 440.742697 190.359066 
L 455.386152 195.932127 
L 489.554212 209.202931 
L 499.316515 212.773344 
L 509.078818 216.12609 
L 518.841121 219.213726 
L 528.603424 222.005965 
L 538.365727 224.489347 
L 548.12803 226.665777 
L 557.890333 228.550602 
L 567.652636 230.17047 
L 577.414939 231.561033 
L 587.177242 232.764537 
L 601.820697 234.32122 
L 665.275667 240.608253 
L 689.681424 243.103469 
L 704.324879 244.405603 
L 718.968333 245.470459 
L 733.611788 246.263834 
L 748.255242 246.790827 
L 762.898697 247.088873 
L 777.542152 247.215437 
L 811.710212 247.219945 
L 811.710212 247.219945 
" clip-path="url(#p63d451d332)" style="fill: none; stroke: #802f83; stroke-width: 1.5; stroke-linecap: square"/>
   </g>
   <g id="line2d_31">
    <path d="M 84.418636 97.112727 
L 108.824394 97.002724 
L 133.230152 96.931574 
L 147.873606 97.162982 
L 157.635909 97.531862 
L 167.398212 98.127238 
L 177.160515 98.989722 
L 186.922818 100.150757 
L 196.685121 101.6299 
L 206.447424 103.432773 
L 216.209727 105.549915 
L 225.97203 107.956762 
L 235.734333 110.614912 
L 245.496636 113.474744 
L 260.140091 118.017024 
L 294.308152 128.814005 
L 308.951606 133.200011 
L 323.595061 137.380135 
L 372.406576 150.988018 
L 382.168879 153.973265 
L 391.931182 157.1454 
L 401.693485 160.531321 
L 411.455788 164.143884 
L 421.218091 167.979955 
L 430.980394 172.020373 
L 445.623848 178.386643 
L 489.554212 197.983652 
L 499.316515 202.036296 
L 509.078818 205.846096 
L 518.841121 209.372274 
L 528.603424 212.591947 
L 538.365727 215.499368 
L 548.12803 218.103935 
L 557.890333 220.427701 
L 567.652636 222.502656 
L 577.414939 224.367055 
L 592.058394 226.862281 
L 611.583 229.853771 
L 694.562576 242.005745 
L 709.20603 243.753841 
L 718.968333 244.739959 
L 728.730636 245.564975 
L 738.492939 246.222519 
L 748.255242 246.713913 
L 758.017545 247.047631 
L 767.779848 247.202409 
L 782.423303 247.12391 
L 811.710212 247.217197 
L 811.710212 247.217197 
" clip-path="url(#p63d451d332)" style="fill: none; stroke: #8f2d78; stroke-width: 1.5; stroke-linecap: square"/>
   </g>
   <g id="line2d_32">
    <path d="M 84.418636 72.094545 
L 108.824394 71.982109 
L 133.230152 71.927446 
L 147.873606 72.190427 
L 157.635909 72.590537 
L 167.398212 73.224115 
L 177.160515 74.12973 
L 186.922818 75.336165 
L 196.685121 76.860072 
L 206.447424 78.704334 
L 216.209727 80.857299 
L 225.97203 83.293095 
L 235.734333 85.973163 
L 245.496636 88.849059 
L 260.140091 93.41058 
L 304.070455 107.352052 
L 328.476212 114.718983 
L 348.000818 120.636295 
L 362.644273 125.330206 
L 372.406576 128.678261 
L 382.168879 132.254135 
L 391.931182 136.090628 
L 401.693485 140.205179 
L 411.455788 144.597128 
L 421.218091 149.246426 
L 430.980394 154.114152 
L 445.623848 161.701121 
L 474.910758 177.034256 
L 484.673061 181.929946 
L 494.435364 186.607771 
L 504.197667 191.015492 
L 513.95997 195.118882 
L 523.722273 198.904405 
L 533.484576 202.378024 
L 543.246879 205.562361 
L 553.009182 208.492986 
L 562.771485 211.214177 
L 577.414939 215.00976 
L 596.939545 219.783701 
L 670.156818 237.327932 
L 679.919121 239.381799 
L 689.681424 241.244416 
L 699.443727 242.879831 
L 709.20603 244.262519 
L 718.968333 245.379788 
L 728.730636 246.232961 
L 738.492939 246.837301 
L 748.255242 247.220704 
L 762.898697 246.976513 
L 777.542152 246.986796 
L 811.710212 247.216482 
L 811.710212 247.216482 
" clip-path="url(#p63d451d332)" style="fill: none; stroke: #9f2a6b; stroke-width: 1.5; stroke-linecap: square"/>
   </g>
   <g id="line2d_33">
    <path d="M 84.418636 47.076364 
L 108.824394 46.954247 
L 128.349 46.868642 
L 142.992455 47.036449 
L 152.754758 47.356472 
L 162.517061 47.902394 
L 172.279364 48.718699 
L 182.041667 49.840572 
L 191.80397 51.291266 
L 201.566273 53.080187 
L 211.328576 55.201851 
L 221.090879 57.635849 
L 230.853182 60.347976 
L 240.615485 63.292601 
L 255.258939 68.027407 
L 279.664697 76.305752 
L 304.070455 84.50349 
L 352.88197 100.577617 
L 362.644273 104.050062 
L 372.406576 107.732405 
L 382.168879 111.672837 
L 391.931182 115.907607 
L 401.693485 120.45642 
L 411.455788 125.319113 
L 421.218091 130.474061 
L 430.980394 135.878648 
L 445.623848 144.316869 
L 474.910758 161.428435 
L 484.673061 166.914147 
L 494.435364 172.173148 
L 504.197667 177.153139 
L 513.95997 181.823553 
L 523.722273 186.177472 
L 533.484576 190.228668 
L 543.246879 194.006965 
L 553.009182 197.553675 
L 567.652636 202.545813 
L 587.177242 208.848598 
L 655.513364 230.470928 
L 665.275667 233.343223 
L 675.03797 236.033837 
L 684.800273 238.492261 
L 694.562576 240.675168 
L 704.324879 242.550569 
L 714.087182 244.100774 
L 723.849485 245.323926 
L 733.611788 246.234066 
L 743.374091 246.859792 
L 753.136394 247.201915 
L 762.898697 247.014654 
L 777.542152 246.981617 
L 811.710212 247.215624 
L 811.710212 247.215624 
" clip-path="url(#p63d451d332)" style="fill: none; stroke: #af285f; stroke-width: 1.5; stroke-linecap: square"/>
   </g>
   <g id="line2d_34">
    <path d="M 84.418636 22.058182 
L 108.824394 22.195034 
L 128.349 22.309626 
L 142.992455 22.160808 
L 147.873606 22.087481 
L 157.635909 22.517629 
L 167.398212 23.213755 
L 177.160515 24.221742 
L 186.922818 25.576369 
L 196.685121 27.29867 
L 206.447424 29.39416 
L 216.209727 31.852108 
L 225.97203 34.64598 
L 235.734333 37.73518 
L 245.496636 41.068083 
L 260.140091 46.395773 
L 284.545848 55.67012 
L 308.951606 64.8791 
L 352.88197 81.272421 
L 362.644273 85.15939 
L 372.406576 89.259748 
L 382.168879 93.632667 
L 391.931182 98.32942 
L 401.693485 103.386494 
L 411.455788 108.817732 
L 421.218091 114.608168 
L 430.980394 120.712279 
L 440.742697 127.0567 
L 470.029606 146.416589 
L 479.791909 152.626658 
L 489.554212 158.588875 
L 499.316515 164.250256 
L 509.078818 169.577847 
L 518.841121 174.561537 
L 528.603424 179.213104 
L 538.365727 183.562614 
L 548.12803 187.653645 
L 557.890333 191.538114 
L 572.533788 197.097714 
L 606.701848 209.643484 
L 650.632212 225.791503 
L 660.394515 229.195957 
L 670.156818 232.421146 
L 679.919121 235.408774 
L 689.681424 238.105987 
L 699.443727 240.470282 
L 709.20603 242.4734 
L 718.968333 244.103824 
L 728.730636 245.367716 
L 738.492939 246.288278 
L 748.255242 246.903689 
L 753.136394 247.11217 
L 758.017545 247.179793 
L 767.779848 247.017437 
L 782.423303 247.013229 
L 811.710212 247.215091 
L 811.710212 247.215091 
" clip-path="url(#p63d451d332)" style="fill: none; stroke: #bf2552; stroke-width: 1.5; stroke-linecap: square"/>
   </g>
   <g id="patch_3">
    <path d="M 47.81 258.48 
L 47.81 10.8 
" style="fill: none; stroke: #000000; stroke-width: 0.8; stroke-linejoin: miter; stroke-linecap: square"/>
   </g>
   <g id="patch_4">
    <path d="M 853.2 258.48 
L 853.2 10.8 
" style="fill: none; stroke: #000000; stroke-width: 0.8; stroke-linejoin: miter; stroke-linecap: square"/>
   </g>
   <g id="patch_5">
    <path d="M 47.81 258.48 
L 853.2 258.48 
" style="fill: none; stroke: #000000; stroke-width: 0.8; stroke-linejoin: miter; stroke-linecap: square"/>
   </g>
   <g id="patch_6">
    <path d="M 47.81 10.8 
L 853.2 10.8 
" style="fill: none; stroke: #000000; stroke-width: 0.8; stroke-linejoin: miter; stroke-linecap: square"/>
   </g>
   <g id="legend_1">
    <g id="patch_7">
     <path d="M 787.959375 165.58125 
L 846.2 165.58125 
Q 848.2 165.58125 848.2 163.58125 
L 848.2 17.8 
Q 848.2 15.8 846.2 15.8 
L 787.959375 15.8 
Q 785.959375 15.8 785.959375 17.8 
L 785.959375 163.58125 
Q 785.959375 165.58125 787.959375 165.58125 
z
" style="fill: #ffffff; opacity: 0.8; stroke: #cccccc; stroke-linejoin: miter"/>
    </g>
    <g id="line2d_35">
     <path d="M 789.959375 23.898438 
L 799.959375 23.898438 
L 809.959375 23.898438 
" style="fill: none; stroke: #303bc1; stroke-width: 1.5; stroke-linecap: square"/>
    </g>
    <g id="text_14">
     <!-- S/C 0 -->
     <g transform="translate(817.959375 27.398438) scale(0.1 -0.1)">
      <defs>
       <path id="DejaVuSans-53" d="M 3425 4513 
L 3425 3897 
Q 3066 4069 2747 4153 
Q 2428 4238 2131 4238 
Q 1616 4238 1336 4038 
Q 1056 3838 1056 3469 
Q 1056 3159 1242 3001 
Q 1428 2844 1947 2747 
L 2328 2669 
Q 3034 2534 3370 2195 
Q 3706 1856 3706 1288 
Q 3706 609 3251 259 
Q 2797 -91 1919 -91 
Q 1588 -91 1214 -16 
Q 841 59 441 206 
L 441 856 
Q 825 641 1194 531 
Q 1563 422 1919 422 
Q 2459 422 2753 634 
Q 3047 847 3047 1241 
Q 3047 1584 2836 1778 
Q 2625 1972 2144 2069 
L 1759 2144 
Q 1053 2284 737 2584 
Q 422 2884 422 3419 
Q 422 4038 858 4394 
Q 1294 4750 2059 4750 
Q 2388 4750 2728 4690 
Q 3069 4631 3425 4513 
z
" transform="scale(0.015625)"/>
       <path id="DejaVuSans-2f" d="M 1625 4666 
L 2156 4666 
L 531 -594 
L 0 -594 
L 1625 4666 
z
" transform="scale(0.015625)"/>
       <path id="DejaVuSans-43" d="M 4122 4306 
L 4122 3641 
Q 3803 3938 3442 4084 
Q 3081 4231 2675 4231 
Q 1875 4231 1450 3742 
Q 1025 3253 1025 2328 
Q 1025 1406 1450 917 
Q 1875 428 2675 428 
Q 3081 428 3442 575 
Q 3803 722 4122 1019 
L 4122 359 
Q 3791 134 3420 21 
Q 3050 -91 2638 -91 
Q 1578 -91 968 557 
Q 359 1206 359 2328 
Q 359 3453 968 4101 
Q 1578 4750 2638 4750 
Q 3056 4750 3426 4639 
Q 3797 4528 4122 4306 
z
" transform="scale(0.015625)"/>
      </defs>
      <use xlink:href="#DejaVuSans-53"/>
      <use xlink:href="#DejaVuSans-2f" transform="translate(63.476562 0)"/>
      <use xlink:href="#DejaVuSans-43" transform="translate(97.167969 0)"/>
      <use xlink:href="#DejaVuSans-20" transform="translate(166.992188 0)"/>
      <use xlink:href="#DejaVuSans-30" transform="translate(198.779297 0)"/>
     </g>
    </g>
    <g id="line2d_36">
     <path d="M 789.959375 38.576563 
L 799.959375 38.576563 
L 809.959375 38.576563 
" style="fill: none; stroke: #4039b5; stroke-width: 1.5; stroke-linecap: square"/>
    </g>
    <g id="text_15">
     <!-- S/C 1 -->
     <g transform="translate(817.959375 42.076563) scale(0.1 -0.1)">
      <use xlink:href="#DejaVuSans-53"/>
      <use xlink:href="#DejaVuSans-2f" transform="translate(63.476562 0)"/>
      <use xlink:href="#DejaVuSans-43" transform="translate(97.167969 0)"/>
      <use xlink:href="#DejaVuSans-20" transform="translate(166.992188 0)"/>
      <use xlink:href="#DejaVuSans-31" transform="translate(198.779297 0)"/>
     </g>
    </g>
    <g id="line2d_37">
     <path d="M 789.959375 53.254688 
L 799.959375 53.254688 
L 809.959375 53.254688 
" style="fill: none; stroke: #5036a8; stroke-width: 1.5; stroke-linecap: square"/>
    </g>
    <g id="text_16">
     <!-- S/C 2 -->
     <g transform="translate(817.959375 56.754688) scale(0.1 -0.1)">
      <use xlink:href="#DejaVuSans-53"/>
      <use xlink:href="#DejaVuSans-2f" transform="translate(63.476562 0)"/>
      <use xlink:href="#DejaVuSans-43" transform="translate(97.167969 0)"/>
      <use xlink:href="#DejaVuSans-20" transform="translate(166.992188 0)"/>
      <use xlink:href="#DejaVuSans-32" transform="translate(198.779297 0)"/>
     </g>
    </g>
    <g id="line2d_38">
     <path d="M 789.959375 67.932813 
L 799.959375 67.932813 
L 809.959375 67.932813 
" style="fill: none; stroke: #60349c; stroke-width: 1.5; stroke-linecap: square"/>
    </g>
    <g id="text_17">
     <!-- S/C 3 -->
     <g transform="translate(817.959375 71.432813) scale(0.1 -0.1)">
      <use xlink:href="#DejaVuSans-53"/>
      <use xlink:href="#DejaVuSans-2f" transform="translate(63.476562 0)"/>
      <use xlink:href="#DejaVuSans-43" transform="translate(97.167969 0)"/>
      <use xlink:href="#DejaVuSans-20" transform="translate(166.992188 0)"/>
      <use xlink:href="#DejaVuSans-33" transform="translate(198.779297 0)"/>
     </g>
    </g>
    <g id="line2d_39">
     <path d="M 789.959375 82.610938 
L 799.959375 82.610938 
L 809.959375 82.610938 
" style="fill: none; stroke: #70318f; stroke-width: 1.5; stroke-linecap: square"/>
    </g>
    <g id="text_18">
     <!-- S/C 4 -->
     <g transform="translate(817.959375 86.110938) scale(0.1 -0.1)">
      <defs>
       <path id="DejaVuSans-34" d="M 2419 4116 
L 825 1625 
L 2419 1625 
L 2419 4116 
z
M 2253 4666 
L 3047 4666 
L 3047 1625 
L 3713 1625 
L 3713 1100 
L 3047 1100 
L 3047 0 
L 2419 0 
L 2419 1100 
L 313 1100 
L 313 1709 
L 2253 4666 
z
" transform="scale(0.015625)"/>
      </defs>
      <use xlink:href="#DejaVuSans-53"/>
      <use xlink:href="#DejaVuSans-2f" transform="translate(63.476562 0)"/>
      <use xlink:href="#DejaVuSans-43" transform="translate(97.167969 0)"/>
      <use xlink:href="#DejaVuSans-20" transform="translate(166.992188 0)"/>
      <use xlink:href="#DejaVuSans-34" transform="translate(198.779297 0)"/>
     </g>
    </g>
    <g id="line2d_40">
     <path d="M 789.959375 97.289063 
L 799.959375 97.289063 
L 809.959375 97.289063 
" style="fill: none; stroke: #802f83; stroke-width: 1.5; stroke-linecap: square"/>
    </g>
    <g id="text_19">
     <!-- S/C 5 -->
     <g transform="translate(817.959375 100.789063) scale(0.1 -0.1)">
      <use xlink:href="#DejaVuSans-53"/>
      <use xlink:href="#DejaVuSans-2f" transform="translate(63.476562 0)"/>
      <use xlink:href="#DejaVuSans-43" transform="translate(97.167969 0)"/>
      <use xlink:href="#DejaVuSans-20" transform="translate(166.992188 0)"/>
      <use xlink:href="#DejaVuSans-35" transform="translate(198.779297 0)"/>
     </g>
    </g>
    <g id="line2d_41">
     <path d="M 789.959375 111.967188 
L 799.959375 111.967188 
L 809.959375 111.967188 
" style="fill: none; stroke: #8f2d78; stroke-width: 1.5; stroke-linecap: square"/>
    </g>
    <g id="text_20">
     <!-- S/C 6 -->
     <g transform="translate(817.959375 115.467188) scale(0.1 -0.1)">
      <defs>
       <path id="DejaVuSans-36" d="M 2113 2584 
Q 1688 2584 1439 2293 
Q 1191 2003 1191 1497 
Q 1191 994 1439 701 
Q 1688 409 2113 409 
Q 2538 409 2786 701 
Q 3034 994 3034 1497 
Q 3034 2003 2786 2293 
Q 2538 2584 2113 2584 
z
M 3366 4563 
L 3366 3988 
Q 3128 4100 2886 4159 
Q 2644 4219 2406 4219 
Q 1781 4219 1451 3797 
Q 1122 3375 1075 2522 
Q 1259 2794 1537 2939 
Q 1816 3084 2150 3084 
Q 2853 3084 3261 2657 
Q 3669 2231 3669 1497 
Q 3669 778 3244 343 
Q 2819 -91 2113 -91 
Q 1303 -91 875 529 
Q 447 1150 447 2328 
Q 447 3434 972 4092 
Q 1497 4750 2381 4750 
Q 2619 4750 2861 4703 
Q 3103 4656 3366 4563 
z
" transform="scale(0.015625)"/>
      </defs>
      <use xlink:href="#DejaVuSans-53"/>
      <use xlink:href="#DejaVuSans-2f" transform="translate(63.476562 0)"/>
      <use xlink:href="#DejaVuSans-43" transform="translate(97.167969 0)"/>
      <use xlink:href="#DejaVuSans-20" transform="translate(166.992188 0)"/>
      <use xlink:href="#DejaVuSans-36" transform="translate(198.779297 0)"/>
     </g>
    </g>
    <g id="line2d_42">
     <path d="M 789.959375 126.645313 
L 799.959375 126.645313 
L 809.959375 126.645313 
" style="fill: none; stroke: #9f2a6b; stroke-width: 1.5; stroke-linecap: square"/>
    </g>
    <g id="text_21">
     <!-- S/C 7 -->
     <g transform="translate(817.959375 130.145313) scale(0.1 -0.1)">
      <defs>
       <path id="DejaVuSans-37" d="M 525 4666 
L 3525 4666 
L 3525 4397 
L 1831 0 
L 1172 0 
L 2766 4134 
L 525 4134 
L 525 4666 
z
" transform="scale(0.015625)"/>
      </defs>
      <use xlink:href="#DejaVuSans-53"/>
      <use xlink:href="#DejaVuSans-2f" transform="translate(63.476562 0)"/>
      <use xlink:href="#DejaVuSans-43" transform="translate(97.167969 0)"/>
      <use xlink:href="#DejaVuSans-20" transform="translate(166.992188 0)"/>
      <use xlink:href="#DejaVuSans-37" transform="translate(198.779297 0)"/>
     </g>
    </g>
    <g id="line2d_43">
     <path d="M 789.959375 141.323438 
L 799.959375 141.323438 
L 809.959375 141.323438 
" style="fill: none; stroke: #af285f; stroke-width: 1.5; stroke-linecap: square"/>
    </g>
    <g id="text_22">
     <!-- S/C 8 -->
     <g transform="translate(817.959375 144.823438) scale(0.1 -0.1)">
      <defs>
       <path id="DejaVuSans-38" d="M 2034 2216 
Q 1584 2216 1326 1975 
Q 1069 1734 1069 1313 
Q 1069 891 1326 650 
Q 1584 409 2034 409 
Q 2484 409 2743 651 
Q 3003 894 3003 1313 
Q 3003 1734 2745 1975 
Q 2488 2216 2034 2216 
z
M 1403 2484 
Q 997 2584 770 2862 
Q 544 3141 544 3541 
Q 544 4100 942 4425 
Q 1341 4750 2034 4750 
Q 2731 4750 3128 4425 
Q 3525 4100 3525 3541 
Q 3525 3141 3298 2862 
Q 3072 2584 2669 2484 
Q 3125 2378 3379 2068 
Q 3634 1759 3634 1313 
Q 3634 634 3220 271 
Q 2806 -91 2034 -91 
Q 1263 -91 848 271 
Q 434 634 434 1313 
Q 434 1759 690 2068 
Q 947 2378 1403 2484 
z
M 1172 3481 
Q 1172 3119 1398 2916 
Q 1625 2713 2034 2713 
Q 2441 2713 2670 2916 
Q 2900 3119 2900 3481 
Q 2900 3844 2670 4047 
Q 2441 4250 2034 4250 
Q 1625 4250 1398 4047 
Q 1172 3844 1172 3481 
z
" transform="scale(0.015625)"/>
      </defs>
      <use xlink:href="#DejaVuSans-53"/>
      <use xlink:href="#DejaVuSans-2f" transform="translate(63.476562 0)"/>
      <use xlink:href="#DejaVuSans-43" transform="translate(97.167969 0)"/>
      <use xlink:href="#DejaVuSans-20" transform="translate(166.992188 0)"/>
      <use xlink:href="#DejaVuSans-38" transform="translate(198.779297 0)"/>
     </g>
    </g>
    <g id="line2d_44">
     <path d="M 789.959375 156.001563 
L 799.959375 156.001563 
L 809.959375 156.001563 
" style="fill: none; stroke: #bf2552; stroke-width: 1.5; stroke-linecap: square"/>
    </g>
    <g id="text_23">
     <!-- S/C 9 -->
     <g transform="translate(817.959375 159.501563) scale(0.1 -0.1)">
      <defs>
       <path id="DejaVuSans-39" d="M 703 97 
L 703 672 
Q 941 559 1184 500 
Q 1428 441 1663 441 
Q 2288 441 2617 861 
Q 2947 1281 2994 2138 
Q 2813 1869 2534 1725 
Q 2256 1581 1919 1581 
Q 1219 1581 811 2004 
Q 403 2428 403 3163 
Q 403 3881 828 4315 
Q 1253 4750 1959 4750 
Q 2769 4750 3195 4129 
Q 3622 3509 3622 2328 
Q 3622 1225 3098 567 
Q 2575 -91 1691 -91 
Q 1453 -91 1209 -44 
Q 966 3 703 97 
z
M 1959 2075 
Q 2384 2075 2632 2365 
Q 2881 2656 2881 3163 
Q 2881 3666 2632 3958 
Q 2384 4250 1959 4250 
Q 1534 4250 1286 3958 
Q 1038 3666 1038 3163 
Q 1038 2656 1286 2365 
Q 1534 2075 1959 2075 
z
" transform="scale(0.015625)"/>
      </defs>
      <use xlink:href="#DejaVuSans-53"/>
      <use xlink:href="#DejaVuSans-2f" transform="translate(63.476562 0)"/>
      <use xlink:href="#DejaVuSans-43" transform="translate(97.167969 0)"/>
      <use xlink:href="#DejaVuSans-20" transform="translate(166.992188 0)"/>
      <use xlink:href="#DejaVuSans-39" transform="translate(198.779297 0)"/>
     </g>
    </g>
   </g>
  </g>
  <g id="axes_2">
   <g id="patch_8">
    <path d="M 47.81 534.04 
L 853.2 534.04 
L 853.2 286.36 
L 47.81 286.36 
z
" style="fill: #ffffff"/>
   </g>
   <g id="matplotlib.axis_3">
    <g id="xtick_6">
     <g id="line2d_45">
      <path d="M 84.418636 534.04 
L 84.418636 286.36 
" clip-path="url(#p5423e71279)" style="fill: none; stroke: #b0b0b0; stroke-width: 0.8; stroke-linecap: square"/>
     </g>
     <g id="line2d_46">
      <g>
       <use xlink:href="#m9d2010d08e" x="84.418636" y="534.04" style="stroke: #000000; stroke-width: 0.8"/>
      </g>
     </g>
     <g id="text_24">
      <!-- 0 -->
      <g transform="translate(81.237386 548.638438) scale(0.1 -0.1)">
       <use xlink:href="#DejaVuSans-30"/>
      </g>
     </g>
    </g>
    <g id="xtick_7">
     <g id="line2d_47">
      <path d="M 262.769704 534.04 
L 262.769704 286.36 
" clip-path="url(#p5423e71279)" style="fill: none; stroke: #b0b0b0; stroke-width: 0.8; stroke-linecap: square"/>
     </g>
     <g id="line2d_48">
      <g>
       <use xlink:href="#m9d2010d08e" x="262.769704" y="534.04" style="stroke: #000000; stroke-width: 0.8"/>
      </g>
     </g>
     <g id="text_25">
      <!-- 5 -->
      <g transform="translate(259.588454 548.638438) scale(0.1 -0.1)">
       <use xlink:href="#DejaVuSans-35"/>
      </g>
     </g>
    </g>
    <g id="xtick_8">
     <g id="line2d_49">
      <path d="M 441.120772 534.04 
L 441.120772 286.36 
" clip-path="url(#p5423e71279)" style="fill: none; stroke: #b0b0b0; stroke-width: 0.8; stroke-linecap: square"/>
     </g>
     <g id="line2d_50">
      <g>
       <use xlink:href="#m9d2010d08e" x="441.120772" y="534.04" style="stroke: #000000; stroke-width: 0.8"/>
      </g>
     </g>
     <g id="text_26">
      <!-- 10 -->
      <g transform="translate(434.758272 548.638438) scale(0.1 -0.1)">
       <use xlink:href="#DejaVuSans-31"/>
       <use xlink:href="#DejaVuSans-30" transform="translate(63.623047 0)"/>
      </g>
     </g>
    </g>
    <g id="xtick_9">
     <g id="line2d_51">
      <path d="M 619.47184 534.04 
L 619.47184 286.36 
" clip-path="url(#p5423e71279)" style="fill: none; stroke: #b0b0b0; stroke-width: 0.8; stroke-linecap: square"/>
     </g>
     <g id="line2d_52">
      <g>
       <use xlink:href="#m9d2010d08e" x="619.47184" y="534.04" style="stroke: #000000; stroke-width: 0.8"/>
      </g>
     </g>
     <g id="text_27">
      <!-- 15 -->
      <g transform="translate(613.10934 548.638438) scale(0.1 -0.1)">
       <use xlink:href="#DejaVuSans-31"/>
       <use xlink:href="#DejaVuSans-35" transform="translate(63.623047 0)"/>
      </g>
     </g>
    </g>
    <g id="xtick_10">
     <g id="line2d_53">
      <path d="M 797.822907 534.04 
L 797.822907 286.36 
" clip-path="url(#p5423e71279)" style="fill: none; stroke: #b0b0b0; stroke-width: 0.8; stroke-linecap: square"/>
     </g>
     <g id="line2d_54">
      <g>
       <use xlink:href="#m9d2010d08e" x="797.822907" y="534.04" style="stroke: #000000; stroke-width: 0.8"/>
      </g>
     </g>
     <g id="text_28">
      <!-- 20 -->
      <g transform="translate(791.460407 548.638438) scale(0.1 -0.1)">
       <use xlink:href="#DejaVuSans-32"/>
       <use xlink:href="#DejaVuSans-30" transform="translate(63.623047 0)"/>
      </g>
     </g>
    </g>
    <g id="text_29">
     <!-- Time (ND) -->
     <g transform="translate(425.190156 562.316562) scale(0.1 -0.1)">
      <defs>
       <path id="DejaVuSans-54" d="M -19 4666 
L 3928 4666 
L 3928 4134 
L 2272 4134 
L 2272 0 
L 1638 0 
L 1638 4134 
L -19 4134 
L -19 4666 
z
" transform="scale(0.015625)"/>
       <path id="DejaVuSans-69" d="M 603 3500 
L 1178 3500 
L 1178 0 
L 603 0 
L 603 3500 
z
M 603 4863 
L 1178 4863 
L 1178 4134 
L 603 4134 
L 603 4863 
z
" transform="scale(0.015625)"/>
       <path id="DejaVuSans-6d" d="M 3328 2828 
Q 3544 3216 3844 3400 
Q 4144 3584 4550 3584 
Q 5097 3584 5394 3201 
Q 5691 2819 5691 2113 
L 5691 0 
L 5113 0 
L 5113 2094 
Q 5113 2597 4934 2840 
Q 4756 3084 4391 3084 
Q 3944 3084 3684 2787 
Q 3425 2491 3425 1978 
L 3425 0 
L 2847 0 
L 2847 2094 
Q 2847 2600 2669 2842 
Q 2491 3084 2119 3084 
Q 1678 3084 1418 2786 
Q 1159 2488 1159 1978 
L 1159 0 
L 581 0 
L 581 3500 
L 1159 3500 
L 1159 2956 
Q 1356 3278 1631 3431 
Q 1906 3584 2284 3584 
Q 2666 3584 2933 3390 
Q 3200 3197 3328 2828 
z
" transform="scale(0.015625)"/>
       <path id="DejaVuSans-4e" d="M 628 4666 
L 1478 4666 
L 3547 763 
L 3547 4666 
L 4159 4666 
L 4159 0 
L 3309 0 
L 1241 3903 
L 1241 0 
L 628 0 
L 628 4666 
z
" transform="scale(0.015625)"/>
       <path id="DejaVuSans-44" d="M 1259 4147 
L 1259 519 
L 2022 519 
Q 2988 519 3436 956 
Q 3884 1394 3884 2338 
Q 3884 3275 3436 3711 
Q 2988 4147 2022 4147 
L 1259 4147 
z
M 628 4666 
L 1925 4666 
Q 3281 4666 3915 4102 
Q 4550 3538 4550 2338 
Q 4550 1131 3912 565 
Q 3275 0 1925 0 
L 628 0 
L 628 4666 
z
" transform="scale(0.015625)"/>
      </defs>
      <use xlink:href="#DejaVuSans-54"/>
      <use xlink:href="#DejaVuSans-69" transform="translate(57.958984 0)"/>
      <use xlink:href="#DejaVuSans-6d" transform="translate(85.742188 0)"/>
      <use xlink:href="#DejaVuSans-65" transform="translate(183.154297 0)"/>
      <use xlink:href="#DejaVuSans-20" transform="translate(244.677734 0)"/>
      <use xlink:href="#DejaVuSans-28" transform="translate(276.464844 0)"/>
      <use xlink:href="#DejaVuSans-4e" transform="translate(315.478516 0)"/>
      <use xlink:href="#DejaVuSans-44" transform="translate(390.283203 0)"/>
      <use xlink:href="#DejaVuSans-29" transform="translate(467.285156 0)"/>
     </g>
    </g>
   </g>
   <g id="matplotlib.axis_4">
    <g id="ytick_8">
     <g id="line2d_55">
      <path d="M 47.81 512.186828 
L 853.2 512.186828 
" clip-path="url(#p5423e71279)" style="fill: none; stroke: #b0b0b0; stroke-width: 0.8; stroke-linecap: square"/>
     </g>
     <g id="line2d_56">
      <g>
       <use xlink:href="#me0c4520b68" x="47.81" y="512.186828" style="stroke: #000000; stroke-width: 0.8"/>
      </g>
     </g>
     <g id="text_30">
      <!-- 0.2 -->
      <g transform="translate(24.906875 515.986047) scale(0.1 -0.1)">
       <use xlink:href="#DejaVuSans-30"/>
       <use xlink:href="#DejaVuSans-2e" transform="translate(63.623047 0)"/>
       <use xlink:href="#DejaVuSans-32" transform="translate(95.410156 0)"/>
      </g>
     </g>
    </g>
    <g id="ytick_9">
     <g id="line2d_57">
      <path d="M 47.81 458.544667 
L 853.2 458.544667 
" clip-path="url(#p5423e71279)" style="fill: none; stroke: #b0b0b0; stroke-width: 0.8; stroke-linecap: square"/>
     </g>
     <g id="line2d_58">
      <g>
       <use xlink:href="#me0c4520b68" x="47.81" y="458.544667" style="stroke: #000000; stroke-width: 0.8"/>
      </g>
     </g>
     <g id="text_31">
      <!-- 0.4 -->
      <g transform="translate(24.906875 462.343885) scale(0.1 -0.1)">
       <use xlink:href="#DejaVuSans-30"/>
       <use xlink:href="#DejaVuSans-2e" transform="translate(63.623047 0)"/>
       <use xlink:href="#DejaVuSans-34" transform="translate(95.410156 0)"/>
      </g>
     </g>
    </g>
    <g id="ytick_10">
     <g id="line2d_59">
      <path d="M 47.81 404.902505 
L 853.2 404.902505 
" clip-path="url(#p5423e71279)" style="fill: none; stroke: #b0b0b0; stroke-width: 0.8; stroke-linecap: square"/>
     </g>
     <g id="line2d_60">
      <g>
       <use xlink:href="#me0c4520b68" x="47.81" y="404.902505" style="stroke: #000000; stroke-width: 0.8"/>
      </g>
     </g>
     <g id="text_32">
      <!-- 0.6 -->
      <g transform="translate(24.906875 408.701724) scale(0.1 -0.1)">
       <use xlink:href="#DejaVuSans-30"/>
       <use xlink:href="#DejaVuSans-2e" transform="translate(63.623047 0)"/>
       <use xlink:href="#DejaVuSans-36" transform="translate(95.410156 0)"/>
      </g>
     </g>
    </g>
    <g id="ytick_11">
     <g id="line2d_61">
      <path d="M 47.81 351.260343 
L 853.2 351.260343 
" clip-path="url(#p5423e71279)" style="fill: none; stroke: #b0b0b0; stroke-width: 0.8; stroke-linecap: square"/>
     </g>
     <g id="line2d_62">
      <g>
       <use xlink:href="#me0c4520b68" x="47.81" y="351.260343" style="stroke: #000000; stroke-width: 0.8"/>
      </g>
     </g>
     <g id="text_33">
      <!-- 0.8 -->
      <g transform="translate(24.906875 355.059562) scale(0.1 -0.1)">
       <use xlink:href="#DejaVuSans-30"/>
       <use xlink:href="#DejaVuSans-2e" transform="translate(63.623047 0)"/>
       <use xlink:href="#DejaVuSans-38" transform="translate(95.410156 0)"/>
      </g>
     </g>
    </g>
    <g id="ytick_12">
     <g id="line2d_63">
      <path d="M 47.81 297.618182 
L 853.2 297.618182 
" clip-path="url(#p5423e71279)" style="fill: none; stroke: #b0b0b0; stroke-width: 0.8; stroke-linecap: square"/>
     </g>
     <g id="line2d_64">
      <g>
       <use xlink:href="#me0c4520b68" x="47.81" y="297.618182" style="stroke: #000000; stroke-width: 0.8"/>
      </g>
     </g>
     <g id="text_34">
      <!-- 1.0 -->
      <g transform="translate(24.906875 301.417401) scale(0.1 -0.1)">
       <use xlink:href="#DejaVuSans-31"/>
       <use xlink:href="#DejaVuSans-2e" transform="translate(63.623047 0)"/>
       <use xlink:href="#DejaVuSans-30" transform="translate(95.410156 0)"/>
      </g>
     </g>
    </g>
    <g id="text_35">
     <!-- Control Magnitude -->
     <g transform="translate(18.827187 456.35) rotate(-90) scale(0.1 -0.1)">
      <defs>
       <path id="DejaVuSans-6f" d="M 1959 3097 
Q 1497 3097 1228 2736 
Q 959 2375 959 1747 
Q 959 1119 1226 758 
Q 1494 397 1959 397 
Q 2419 397 2687 759 
Q 2956 1122 2956 1747 
Q 2956 2369 2687 2733 
Q 2419 3097 1959 3097 
z
M 1959 3584 
Q 2709 3584 3137 3096 
Q 3566 2609 3566 1747 
Q 3566 888 3137 398 
Q 2709 -91 1959 -91 
Q 1206 -91 779 398 
Q 353 888 353 1747 
Q 353 2609 779 3096 
Q 1206 3584 1959 3584 
z
" transform="scale(0.015625)"/>
       <path id="DejaVuSans-74" d="M 1172 4494 
L 1172 3500 
L 2356 3500 
L 2356 3053 
L 1172 3053 
L 1172 1153 
Q 1172 725 1289 603 
Q 1406 481 1766 481 
L 2356 481 
L 2356 0 
L 1766 0 
Q 1100 0 847 248 
Q 594 497 594 1153 
L 594 3053 
L 172 3053 
L 172 3500 
L 594 3500 
L 594 4494 
L 1172 4494 
z
" transform="scale(0.015625)"/>
       <path id="DejaVuSans-4d" d="M 628 4666 
L 1569 4666 
L 2759 1491 
L 3956 4666 
L 4897 4666 
L 4897 0 
L 4281 0 
L 4281 4097 
L 3078 897 
L 2444 897 
L 1241 4097 
L 1241 0 
L 628 0 
L 628 4666 
z
" transform="scale(0.015625)"/>
       <path id="DejaVuSans-75" d="M 544 1381 
L 544 3500 
L 1119 3500 
L 1119 1403 
Q 1119 906 1312 657 
Q 1506 409 1894 409 
Q 2359 409 2629 706 
Q 2900 1003 2900 1516 
L 2900 3500 
L 3475 3500 
L 3475 0 
L 2900 0 
L 2900 538 
Q 2691 219 2414 64 
Q 2138 -91 1772 -91 
Q 1169 -91 856 284 
Q 544 659 544 1381 
z
M 1991 3584 
L 1991 3584 
z
" transform="scale(0.015625)"/>
      </defs>
      <use xlink:href="#DejaVuSans-43"/>
      <use xlink:href="#DejaVuSans-6f" transform="translate(69.824219 0)"/>
      <use xlink:href="#DejaVuSans-6e" transform="translate(131.005859 0)"/>
      <use xlink:href="#DejaVuSans-74" transform="translate(194.384766 0)"/>
      <use xlink:href="#DejaVuSans-72" transform="translate(233.59375 0)"/>
      <use xlink:href="#DejaVuSans-6f" transform="translate(272.457031 0)"/>
      <use xlink:href="#DejaVuSans-6c" transform="translate(333.638672 0)"/>
      <use xlink:href="#DejaVuSans-20" transform="translate(361.421875 0)"/>
      <use xlink:href="#DejaVuSans-4d" transform="translate(393.208984 0)"/>
      <use xlink:href="#DejaVuSans-61" transform="translate(479.488281 0)"/>
      <use xlink:href="#DejaVuSans-67" transform="translate(540.767578 0)"/>
      <use xlink:href="#DejaVuSans-6e" transform="translate(604.244141 0)"/>
      <use xlink:href="#DejaVuSans-69" transform="translate(667.623047 0)"/>
      <use xlink:href="#DejaVuSans-74" transform="translate(695.40625 0)"/>
      <use xlink:href="#DejaVuSans-75" transform="translate(734.615234 0)"/>
      <use xlink:href="#DejaVuSans-64" transform="translate(797.994141 0)"/>
      <use xlink:href="#DejaVuSans-65" transform="translate(861.470703 0)"/>
     </g>
    </g>
   </g>
   <g id="line2d_65">
    <path d="M 84.418636 297.618182 
L 816.591364 297.618182 
L 816.591364 297.618182 
" clip-path="url(#p5423e71279)" style="fill: none; stroke: #303bc1; stroke-width: 1.5; stroke-linecap: square"/>
   </g>
   <g id="line2d_66">
    <path d="M 84.418636 352.444368 
L 89.299788 352.444368 
L 94.180939 354.045595 
L 99.062091 354.045595 
L 103.943242 355.776896 
L 108.824394 355.776896 
L 113.705545 357.600514 
L 118.586697 357.600514 
L 123.467848 359.4723 
L 128.349 359.4723 
L 133.230152 361.342569 
L 138.111303 361.342569 
L 142.992455 363.161175 
L 147.873606 363.161175 
L 152.754758 364.882549 
L 157.635909 364.882549 
L 162.517061 366.47032 
L 167.398212 366.47032 
L 172.279364 367.901966 
L 177.160515 367.901966 
L 182.041667 369.173109 
L 186.922818 369.173109 
L 191.80397 370.300209 
L 196.685121 370.300209 
L 201.566273 371.320649 
L 206.447424 371.320649 
L 211.328576 372.290421 
L 216.209727 372.290421 
L 221.090879 373.280428 
L 225.97203 373.280428 
L 230.853182 374.372266 
L 235.734333 374.372266 
L 240.615485 375.653621 
L 245.496636 375.653621 
L 250.377788 377.213376 
L 255.258939 377.213376 
L 260.140091 379.136249 
L 265.021242 379.136249 
L 269.902394 381.497162 
L 274.783545 381.497162 
L 279.664697 384.356028 
L 284.545848 384.356028 
L 289.427 387.753468 
L 294.308152 387.753468 
L 299.189303 391.707118 
L 304.070455 391.707118 
L 308.951606 396.205871 
L 313.832758 396.205871 
L 318.713909 401.201731 
L 323.595061 401.201731 
L 328.476212 406.602441 
L 333.357364 406.602441 
L 338.238515 412.270378 
L 343.119667 412.270378 
L 348.000818 418.044657 
L 352.88197 418.044657 
L 357.763121 423.783555 
L 362.644273 423.783555 
L 367.525424 429.436994 
L 372.406576 429.436994 
L 377.287727 435.20603 
L 382.168879 435.20603 
L 387.05003 441.801775 
L 391.931182 441.801775 
L 396.812333 450.422768 
L 401.693485 450.422768 
L 406.574636 463.285875 
L 411.455788 463.285875 
L 416.336939 446.469904 
L 421.218091 446.469904 
L 426.099242 461.710652 
L 430.980394 461.710652 
L 435.861545 478.558937 
L 440.742697 478.558937 
L 445.623848 489.192855 
L 450.505 489.192855 
L 455.386152 504.762962 
L 460.267303 504.762962 
L 465.148455 510.982346 
L 470.029606 510.982346 
L 474.910758 510.045875 
L 479.791909 510.045875 
L 484.673061 505.72853 
L 489.554212 505.72853 
L 494.435364 499.496157 
L 499.316515 499.496157 
L 504.197667 492.155827 
L 509.078818 492.155827 
L 513.95997 484.349914 
L 518.841121 484.349914 
L 523.722273 476.521483 
L 528.603424 476.521483 
L 533.484576 468.914755 
L 538.365727 468.914755 
L 543.246879 461.642757 
L 548.12803 461.642757 
L 553.009182 454.865097 
L 557.890333 454.865097 
L 562.771485 448.357761 
L 567.652636 448.357761 
L 572.533788 442.373107 
L 577.414939 442.373107 
L 582.296091 436.832768 
L 587.177242 436.832768 
L 592.058394 431.549351 
L 596.939545 431.549351 
L 601.820697 426.41519 
L 606.701848 426.41519 
L 611.583 421.385983 
L 616.464152 421.385983 
L 621.345303 416.479718 
L 626.226455 416.479718 
L 631.107606 411.785009 
L 635.988758 411.785009 
L 640.869909 407.463608 
L 645.751061 407.463608 
L 650.632212 403.641872 
L 655.513364 403.641872 
L 660.394515 400.1741 
L 665.275667 400.1741 
L 670.156818 396.70797 
L 675.03797 396.70797 
L 679.919121 393.033363 
L 684.800273 393.033363 
L 689.681424 389.178181 
L 694.562576 389.178181 
L 699.443727 385.263047 
L 704.324879 385.263047 
L 709.20603 381.430877 
L 714.087182 381.430877 
L 718.968333 377.818179 
L 723.849485 377.818179 
L 728.730636 374.503256 
L 733.611788 374.503256 
L 738.492939 371.501353 
L 743.374091 371.501353 
L 748.255242 368.79769 
L 753.136394 368.79769 
L 758.017545 366.369828 
L 762.898697 366.369828 
L 767.779848 364.193772 
L 772.661 364.193772 
L 777.542152 362.24403 
L 782.423303 362.24403 
L 787.304455 360.49328 
L 792.185606 360.49328 
L 797.066758 358.912679 
L 801.947909 358.912679 
L 806.829061 357.472031 
L 816.591364 357.472031 
L 816.591364 357.472031 
" clip-path="url(#p5423e71279)" style="fill: none; stroke: #4039b5; stroke-width: 1.5; stroke-linecap: square"/>
   </g>
   <g id="line2d_67">
    <path d="M 84.418636 412.375915 
L 89.299788 412.375915 
L 94.180939 415.71558 
L 99.062091 415.71558 
L 103.943242 418.962096 
L 108.824394 418.962096 
L 113.705545 422.056978 
L 118.586697 422.056978 
L 123.467848 424.909933 
L 128.349 424.909933 
L 133.230152 427.433323 
L 138.111303 427.433323 
L 142.992455 429.569086 
L 147.873606 429.569086 
L 152.754758 431.292918 
L 157.635909 431.292918 
L 162.517061 432.621155 
L 167.398212 432.621155 
L 172.279364 433.67755 
L 177.160515 433.67755 
L 182.041667 434.675029 
L 186.922818 434.675029 
L 191.80397 435.437269 
L 196.685121 435.437269 
L 201.566273 436.105793 
L 206.447424 436.105793 
L 211.328576 436.844904 
L 216.209727 436.844904 
L 221.090879 437.75862 
L 225.97203 437.75862 
L 230.853182 439.1211 
L 235.734333 439.1211 
L 240.615485 441.022438 
L 245.496636 441.022438 
L 250.377788 443.427273 
L 255.258939 443.427273 
L 260.140091 446.231865 
L 265.021242 446.231865 
L 269.902394 449.514421 
L 274.783545 449.514421 
L 279.664697 453.241571 
L 284.545848 453.241571 
L 289.427 457.254327 
L 294.308152 457.254327 
L 299.189303 461.280841 
L 304.070455 461.280841 
L 308.951606 465.255669 
L 313.832758 465.255669 
L 318.713909 469.0797 
L 323.595061 469.0797 
L 328.476212 472.566139 
L 333.357364 472.566139 
L 338.238515 475.646829 
L 343.119667 475.646829 
L 348.000818 478.459828 
L 352.88197 478.459828 
L 357.763121 481.71166 
L 362.644273 481.71166 
L 367.525424 488.549947 
L 372.406576 488.549947 
L 377.287727 503.543707 
L 382.168879 503.543707 
L 387.05003 511.706487 
L 391.931182 511.706487 
L 396.812333 487.291406 
L 401.693485 487.291406 
L 406.574636 478.089134 
L 411.455788 478.089134 
L 416.336939 474.252651 
L 421.218091 474.252651 
L 426.099242 476.696098 
L 430.980394 476.696098 
L 435.861545 480.529012 
L 440.742697 480.529012 
L 445.623848 484.938139 
L 450.505 484.938139 
L 455.386152 488.773607 
L 460.267303 488.773607 
L 465.148455 491.210853 
L 470.029606 491.210853 
L 474.910758 492.091154 
L 479.791909 492.091154 
L 484.673061 491.691049 
L 489.554212 491.691049 
L 494.435364 490.442878 
L 499.316515 490.442878 
L 504.197667 488.745255 
L 509.078818 488.745255 
L 513.95997 486.936109 
L 518.841121 486.936109 
L 523.722273 485.299684 
L 528.603424 485.299684 
L 533.484576 484.02057 
L 538.365727 484.02057 
L 543.246879 483.133701 
L 548.12803 483.133701 
L 553.009182 482.86056 
L 557.890333 482.86056 
L 562.771485 482.550911 
L 567.652636 482.550911 
L 572.533788 482.185282 
L 577.414939 482.185282 
L 582.296091 481.930937 
L 587.177242 481.930937 
L 592.058394 481.458722 
L 596.939545 481.458722 
L 601.820697 480.740114 
L 606.701848 480.740114 
L 611.583 479.462638 
L 616.464152 479.462638 
L 621.345303 477.40379 
L 626.226455 477.40379 
L 631.107606 474.509356 
L 635.988758 474.509356 
L 640.869909 470.815505 
L 645.751061 470.815505 
L 650.632212 466.443468 
L 655.513364 466.443468 
L 660.394515 461.591233 
L 665.275667 461.591233 
L 670.156818 456.506206 
L 675.03797 456.506206 
L 679.919121 451.405787 
L 684.800273 451.405787 
L 689.681424 446.390425 
L 694.562576 446.390425 
L 699.443727 441.431164 
L 704.324879 441.431164 
L 709.20603 436.458278 
L 714.087182 436.458278 
L 718.968333 431.479564 
L 723.849485 431.479564 
L 728.730636 426.607598 
L 733.611788 426.607598 
L 738.492939 422.042694 
L 743.374091 422.042694 
L 748.255242 418.023397 
L 753.136394 418.023397 
L 758.017545 414.788161 
L 762.898697 414.788161 
L 767.779848 412.5619 
L 772.661 412.5619 
L 777.542152 411.520944 
L 792.185606 411.617739 
L 797.066758 412.531776 
L 801.947909 412.531776 
L 806.829061 414.309387 
L 816.591364 414.309387 
L 816.591364 414.309387 
" clip-path="url(#p5423e71279)" style="fill: none; stroke: #5036a8; stroke-width: 1.5; stroke-linecap: square"/>
   </g>
   <g id="line2d_68">
    <path d="M 84.418636 482.793837 
L 89.299788 482.793837 
L 94.180939 485.765238 
L 99.062091 485.765238 
L 103.943242 487.237703 
L 108.824394 487.237703 
L 113.705545 488.764481 
L 118.586697 488.764481 
L 123.467848 490.075654 
L 128.349 490.075654 
L 133.230152 490.2901 
L 138.111303 490.2901 
L 142.992455 490.619945 
L 157.635909 490.538558 
L 162.517061 490.334007 
L 177.160515 490.342116 
L 182.041667 490.640535 
L 186.922818 490.640535 
L 191.80397 493.200115 
L 196.685121 493.200115 
L 201.566273 499.580102 
L 206.447424 499.580102 
L 211.328576 508.051337 
L 216.209727 508.051337 
L 221.090879 513.93076 
L 225.97203 513.93076 
L 230.853182 514.650677 
L 235.734333 514.650677 
L 240.615485 498.92319 
L 245.496636 498.92319 
L 250.377788 496.869113 
L 255.258939 496.869113 
L 260.140091 488.278431 
L 265.021242 488.278431 
L 269.902394 482.13661 
L 274.783545 482.13661 
L 279.664697 481.818244 
L 284.545848 481.818244 
L 289.427 485.144667 
L 294.308152 485.144667 
L 299.189303 488.72416 
L 304.070455 488.72416 
L 308.951606 492.277167 
L 313.832758 492.277167 
L 318.713909 495.106726 
L 323.595061 495.106726 
L 328.476212 497.341538 
L 333.357364 497.341538 
L 338.238515 499.400581 
L 343.119667 499.400581 
L 348.000818 501.800521 
L 352.88197 501.800521 
L 357.763121 504.83929 
L 362.644273 504.83929 
L 367.525424 504.581579 
L 372.406576 504.581579 
L 377.287727 488.036803 
L 382.168879 488.036803 
L 387.05003 485.420268 
L 391.931182 485.420268 
L 396.812333 494.414311 
L 401.693485 494.414311 
L 406.574636 489.832692 
L 411.455788 489.832692 
L 416.336939 497.019702 
L 421.218091 497.019702 
L 426.099242 489.850516 
L 430.980394 489.850516 
L 435.861545 483.893111 
L 440.742697 483.893111 
L 445.623848 478.298989 
L 450.505 478.298989 
L 455.386152 479.37666 
L 460.267303 479.37666 
L 465.148455 484.383455 
L 470.029606 484.383455 
L 474.910758 490.160282 
L 479.791909 490.160282 
L 484.673061 495.361089 
L 489.554212 495.361089 
L 494.435364 499.086454 
L 499.316515 499.086454 
L 504.197667 501.100834 
L 509.078818 501.100834 
L 513.95997 501.766386 
L 528.603424 501.744385 
L 533.484576 501.888345 
L 538.365727 501.888345 
L 543.246879 504.24371 
L 548.12803 504.24371 
L 553.009182 496.031234 
L 557.890333 496.031234 
L 562.771485 498.54905 
L 567.652636 498.54905 
L 572.533788 494.07769 
L 577.414939 494.07769 
L 582.296091 491.674102 
L 587.177242 491.674102 
L 592.058394 490.896847 
L 596.939545 490.896847 
L 601.820697 490.620888 
L 606.701848 490.620888 
L 611.583 490.472623 
L 616.464152 490.472623 
L 621.345303 490.312092 
L 626.226455 490.312092 
L 631.107606 489.976357 
L 635.988758 489.976357 
L 640.869909 489.291238 
L 645.751061 489.291238 
L 650.632212 487.847664 
L 655.513364 487.847664 
L 660.394515 485.4405 
L 665.275667 485.4405 
L 670.156818 481.990938 
L 675.03797 481.990938 
L 679.919121 477.766646 
L 684.800273 477.766646 
L 689.681424 472.780452 
L 694.562576 472.780452 
L 699.443727 467.3141 
L 704.324879 467.3141 
L 709.20603 461.62023 
L 714.087182 461.62023 
L 718.968333 455.956737 
L 723.849485 455.956737 
L 728.730636 450.470687 
L 733.611788 450.470687 
L 738.492939 445.253071 
L 743.374091 445.253071 
L 748.255242 440.333793 
L 753.136394 440.333793 
L 758.017545 435.711794 
L 762.898697 435.711794 
L 767.779848 431.378026 
L 772.661 431.378026 
L 777.542152 427.265495 
L 782.423303 427.265495 
L 787.304455 423.606413 
L 792.185606 423.606413 
L 797.066758 421.747835 
L 801.947909 421.747835 
L 806.829061 421.183841 
L 816.591364 421.183841 
L 816.591364 421.183841 
" clip-path="url(#p5423e71279)" style="fill: none; stroke: #60349c; stroke-width: 1.5; stroke-linecap: square"/>
   </g>
   <g id="line2d_69">
    <path d="M 84.418636 495.695965 
L 89.299788 495.695965 
L 94.180939 494.443321 
L 99.062091 494.443321 
L 103.943242 493.412792 
L 108.824394 493.412792 
L 113.705545 492.745223 
L 118.586697 492.745223 
L 123.467848 492.236515 
L 128.349 492.236515 
L 133.230152 491.641348 
L 138.111303 491.641348 
L 142.992455 490.782532 
L 147.873606 490.782532 
L 152.754758 493.920913 
L 157.635909 493.920913 
L 162.517061 504.735821 
L 167.398212 504.735821 
L 172.279364 507.630732 
L 177.160515 507.630732 
L 182.041667 505.490593 
L 186.922818 505.490593 
L 191.80397 504.093665 
L 196.685121 504.093665 
L 201.566273 502.80891 
L 206.447424 502.80891 
L 211.328576 505.110204 
L 216.209727 505.110204 
L 221.090879 510.511707 
L 225.97203 510.511707 
L 230.853182 513.732765 
L 235.734333 513.732765 
L 240.615485 515.219891 
L 245.496636 515.219891 
L 250.377788 509.336444 
L 255.258939 509.336444 
L 260.140091 484.679606 
L 265.021242 484.679606 
L 269.902394 475.430054 
L 274.783545 475.430054 
L 279.664697 477.817334 
L 284.545848 477.817334 
L 289.427 480.421022 
L 294.308152 480.421022 
L 299.189303 485.747347 
L 304.070455 485.747347 
L 308.951606 487.785606 
L 313.832758 487.785606 
L 318.713909 489.827428 
L 323.595061 489.827428 
L 328.476212 497.513377 
L 333.357364 497.513377 
L 338.238515 499.729318 
L 343.119667 499.729318 
L 348.000818 497.081121 
L 352.88197 497.081121 
L 357.763121 495.629039 
L 362.644273 495.629039 
L 367.525424 494.080125 
L 372.406576 494.080125 
L 377.287727 492.263138 
L 382.168879 492.263138 
L 387.05003 490.830937 
L 391.931182 490.830937 
L 396.812333 489.761168 
L 401.693485 489.761168 
L 406.574636 488.660616 
L 411.455788 488.660616 
L 416.336939 487.241621 
L 421.218091 487.241621 
L 426.099242 485.830248 
L 430.980394 485.830248 
L 435.861545 483.521042 
L 440.742697 483.521042 
L 445.623848 477.591944 
L 450.505 477.591944 
L 455.386152 472.74937 
L 460.267303 472.74937 
L 465.148455 471.149652 
L 470.029606 471.149652 
L 474.910758 472.472231 
L 479.791909 472.472231 
L 484.673061 475.479591 
L 489.554212 475.479591 
L 494.435364 479.364236 
L 499.316515 479.364236 
L 504.197667 483.719563 
L 509.078818 483.719563 
L 513.95997 488.111929 
L 518.841121 488.111929 
L 523.722273 491.525856 
L 528.603424 491.525856 
L 533.484576 493.685845 
L 538.365727 493.685845 
L 543.246879 495.030994 
L 548.12803 495.030994 
L 553.009182 496.900325 
L 557.890333 496.900325 
L 562.771485 499.572608 
L 567.652636 499.572608 
L 572.533788 500.731293 
L 577.414939 500.731293 
L 582.296091 501.449395 
L 587.177242 501.449395 
L 592.058394 500.405166 
L 596.939545 500.405166 
L 601.820697 498.254916 
L 606.701848 498.254916 
L 611.583 495.322288 
L 626.226455 495.385562 
L 631.107606 495.506232 
L 645.751061 495.50317 
L 650.632212 495.183231 
L 655.513364 495.183231 
L 660.394515 493.788947 
L 665.275667 493.788947 
L 670.156818 491.12497 
L 675.03797 491.12497 
L 679.919121 489.534851 
L 684.800273 489.534851 
L 689.681424 485.457026 
L 694.562576 485.457026 
L 699.443727 480.778932 
L 704.324879 480.778932 
L 709.20603 475.617822 
L 714.087182 475.617822 
L 718.968333 470.177813 
L 723.849485 470.177813 
L 728.730636 464.643015 
L 733.611788 464.643015 
L 738.492939 459.191725 
L 743.374091 459.191725 
L 748.255242 453.753138 
L 753.136394 453.753138 
L 758.017545 448.951917 
L 762.898697 448.951917 
L 767.779848 444.212294 
L 772.661 444.212294 
L 777.542152 439.095408 
L 782.423303 439.095408 
L 787.304455 433.939572 
L 792.185606 433.939572 
L 797.066758 429.516747 
L 801.947909 429.516747 
L 806.829061 429.237367 
L 816.591364 429.237367 
L 816.591364 429.237367 
" clip-path="url(#p5423e71279)" style="fill: none; stroke: #70318f; stroke-width: 1.5; stroke-linecap: square"/>
   </g>
   <g id="line2d_70">
    <path d="M 84.418636 475.558175 
L 89.299788 475.558175 
L 94.180939 473.771326 
L 99.062091 473.771326 
L 103.943242 472.370271 
L 108.824394 472.370271 
L 113.705545 471.519937 
L 118.586697 471.519937 
L 123.467848 471.305809 
L 128.349 471.305809 
L 133.230152 471.751945 
L 138.111303 471.751945 
L 142.992455 472.816733 
L 147.873606 472.816733 
L 152.754758 474.413451 
L 157.635909 474.413451 
L 162.517061 476.428325 
L 167.398212 476.428325 
L 172.279364 478.706413 
L 177.160515 478.706413 
L 182.041667 481.162733 
L 186.922818 481.162733 
L 191.80397 483.63352 
L 196.685121 483.63352 
L 201.566273 485.958286 
L 206.447424 485.958286 
L 211.328576 488.067751 
L 216.209727 488.067751 
L 221.090879 489.879131 
L 225.97203 489.879131 
L 230.853182 491.326391 
L 235.734333 491.326391 
L 240.615485 492.366217 
L 245.496636 492.366217 
L 250.377788 492.986844 
L 255.258939 492.986844 
L 260.140091 493.2151 
L 274.783545 493.114275 
L 279.664697 492.792421 
L 284.545848 492.792421 
L 289.427 492.442661 
L 304.070455 492.405376 
L 308.951606 492.597186 
L 313.832758 492.597186 
L 318.713909 493.080716 
L 323.595061 493.080716 
L 328.476212 494.118525 
L 333.357364 494.118525 
L 338.238515 495.474822 
L 343.119667 495.474822 
L 348.000818 496.782281 
L 352.88197 496.782281 
L 357.763121 497.905513 
L 362.644273 497.905513 
L 367.525424 497.317291 
L 382.168879 497.27974 
L 387.05003 499.658028 
L 391.931182 499.658028 
L 396.812333 494.329098 
L 401.693485 494.329098 
L 406.574636 488.429419 
L 411.455788 488.429419 
L 416.336939 488.242742 
L 421.218091 488.242742 
L 426.099242 482.335306 
L 430.980394 482.335306 
L 435.861545 473.407086 
L 440.742697 473.407086 
L 445.623848 467.723646 
L 450.505 467.723646 
L 455.386152 463.915008 
L 460.267303 463.915008 
L 465.148455 461.753418 
L 470.029606 461.753418 
L 474.910758 461.521201 
L 479.791909 461.521201 
L 484.673061 462.300786 
L 489.554212 462.300786 
L 494.435364 463.895708 
L 499.316515 463.895708 
L 504.197667 466.192164 
L 509.078818 466.192164 
L 513.95997 469.064558 
L 518.841121 469.064558 
L 523.722273 472.324351 
L 528.603424 472.324351 
L 533.484576 475.718016 
L 538.365727 475.718016 
L 543.246879 479.027681 
L 548.12803 479.027681 
L 553.009182 482.069738 
L 557.890333 482.069738 
L 562.771485 484.699352 
L 567.652636 484.699352 
L 572.533788 486.77948 
L 577.414939 486.77948 
L 582.296091 488.028657 
L 596.939545 487.943305 
L 601.820697 486.728994 
L 606.701848 486.728994 
L 611.583 485.603817 
L 616.464152 485.603817 
L 621.345303 484.676954 
L 635.988758 484.631395 
L 640.869909 487.229492 
L 645.751061 487.229492 
L 650.632212 497.866369 
L 655.513364 497.866369 
L 660.394515 510.23068 
L 665.275667 510.23068 
L 670.156818 510.900414 
L 675.03797 510.900414 
L 679.919121 510.53442 
L 684.800273 510.53442 
L 689.681424 508.993845 
L 694.562576 508.993845 
L 699.443727 506.350127 
L 704.324879 506.350127 
L 709.20603 502.896186 
L 714.087182 502.896186 
L 718.968333 499.214756 
L 723.849485 499.214756 
L 728.730636 494.8516 
L 733.611788 494.8516 
L 738.492939 490.165871 
L 743.374091 490.165871 
L 748.255242 487.709525 
L 753.136394 487.709525 
L 758.017545 482.675541 
L 762.898697 482.675541 
L 767.779848 479.292047 
L 772.661 479.292047 
L 777.542152 478.786939 
L 782.423303 478.786939 
L 787.304455 472.89645 
L 792.185606 472.89645 
L 797.066758 467.971398 
L 801.947909 467.971398 
L 806.829061 463.023132 
L 816.591364 463.023132 
L 816.591364 463.023132 
" clip-path="url(#p5423e71279)" style="fill: none; stroke: #802f83; stroke-width: 1.5; stroke-linecap: square"/>
   </g>
   <g id="line2d_71">
    <path d="M 84.418636 458.054303 
L 89.299788 458.054303 
L 94.180939 456.280305 
L 99.062091 456.280305 
L 103.943242 454.520268 
L 108.824394 454.520268 
L 113.705545 453.009118 
L 118.586697 453.009118 
L 123.467848 451.903546 
L 128.349 451.903546 
L 133.230152 451.354729 
L 147.873606 451.444398 
L 152.754758 452.209569 
L 157.635909 452.209569 
L 162.517061 453.643114 
L 167.398212 453.643114 
L 172.279364 455.695752 
L 177.160515 455.695752 
L 182.041667 458.278661 
L 186.922818 458.278661 
L 191.80397 461.268493 
L 196.685121 461.268493 
L 201.566273 464.516567 
L 206.447424 464.516567 
L 211.328576 467.862369 
L 216.209727 467.862369 
L 221.090879 471.149625 
L 225.97203 471.149625 
L 230.853182 474.241168 
L 235.734333 474.241168 
L 240.615485 477.030807 
L 245.496636 477.030807 
L 250.377788 479.451139 
L 255.258939 479.451139 
L 260.140091 481.476479 
L 265.021242 481.476479 
L 269.902394 483.121522 
L 274.783545 483.121522 
L 279.664697 484.437471 
L 284.545848 484.437471 
L 289.427 485.507039 
L 294.308152 485.507039 
L 299.189303 486.436832 
L 304.070455 486.436832 
L 308.951606 487.343599 
L 313.832758 487.343599 
L 318.713909 488.322245 
L 323.595061 488.322245 
L 328.476212 489.392226 
L 333.357364 489.392226 
L 338.238515 490.472886 
L 343.119667 490.472886 
L 348.000818 491.379025 
L 352.88197 491.379025 
L 357.763121 491.749776 
L 362.644273 491.749776 
L 367.525424 491.28531 
L 372.406576 491.28531 
L 377.287727 489.990216 
L 382.168879 489.990216 
L 387.05003 487.691436 
L 391.931182 487.691436 
L 396.812333 484.239058 
L 401.693485 484.239058 
L 406.574636 480.314062 
L 411.455788 480.314062 
L 416.336939 477.108755 
L 421.218091 477.108755 
L 426.099242 474.370348 
L 430.980394 474.370348 
L 435.861545 471.255948 
L 440.742697 471.255948 
L 445.623848 468.180627 
L 450.505 468.180627 
L 455.386152 465.210777 
L 460.267303 465.210777 
L 465.148455 461.323247 
L 470.029606 461.323247 
L 474.910758 458.73814 
L 479.791909 458.73814 
L 484.673061 456.410499 
L 489.554212 456.410499 
L 494.435364 454.936706 
L 499.316515 454.936706 
L 504.197667 454.244327 
L 518.841121 454.262711 
L 523.722273 454.928357 
L 528.603424 454.928357 
L 533.484576 456.059432 
L 538.365727 456.059432 
L 543.246879 457.615417 
L 548.12803 457.615417 
L 553.009182 459.254741 
L 557.890333 459.254741 
L 562.771485 463.42948 
L 567.652636 463.42948 
L 572.533788 466.846184 
L 577.414939 466.846184 
L 582.296091 469.645085 
L 587.177242 469.645085 
L 592.058394 472.522434 
L 596.939545 472.522434 
L 601.820697 475.542229 
L 606.701848 475.542229 
L 611.583 478.702471 
L 616.464152 478.702471 
L 621.345303 482.029602 
L 626.226455 482.029602 
L 631.107606 485.561265 
L 635.988758 485.561265 
L 640.869909 489.31586 
L 645.751061 489.31586 
L 650.632212 493.595101 
L 655.513364 493.595101 
L 660.394515 498.308818 
L 665.275667 498.308818 
L 670.156818 502.999414 
L 675.03797 502.999414 
L 679.919121 507.57356 
L 684.800273 507.57356 
L 689.681424 511.577796 
L 694.562576 511.577796 
L 699.443727 514.697583 
L 704.324879 514.697583 
L 709.20603 516.85887 
L 714.087182 516.85887 
L 718.968333 518.126353 
L 723.849485 518.126353 
L 728.730636 518.913627 
L 733.611788 518.913627 
L 738.492939 519.961684 
L 743.374091 519.961684 
L 748.255242 521.712022 
L 753.136394 521.712022 
L 758.017545 522.781818 
L 762.898697 522.781818 
L 767.779848 518.866584 
L 772.661 518.866584 
L 777.542152 447.806079 
L 782.423303 447.806079 
L 787.304455 497.800911 
L 792.185606 497.800911 
L 797.066758 490.808402 
L 801.947909 490.808402 
L 806.829061 488.57946 
L 816.591364 488.57946 
L 816.591364 488.57946 
" clip-path="url(#p5423e71279)" style="fill: none; stroke: #8f2d78; stroke-width: 1.5; stroke-linecap: square"/>
   </g>
   <g id="line2d_72">
    <path d="M 84.418636 423.739186 
L 89.299788 423.739186 
L 94.180939 426.931981 
L 99.062091 426.931981 
L 103.943242 430.348741 
L 108.824394 430.348741 
L 113.705545 433.835757 
L 118.586697 433.835757 
L 123.467848 437.232285 
L 128.349 437.232285 
L 133.230152 440.357258 
L 138.111303 440.357258 
L 142.992455 443.024242 
L 147.873606 443.024242 
L 152.754758 445.089132 
L 157.635909 445.089132 
L 162.517061 446.481416 
L 167.398212 446.481416 
L 172.279364 447.21828 
L 177.160515 447.21828 
L 182.041667 447.394343 
L 186.922818 447.394343 
L 191.80397 447.146416 
L 196.685121 447.146416 
L 201.566273 446.619991 
L 206.447424 446.619991 
L 211.328576 445.954604 
L 216.209727 445.954604 
L 221.090879 445.283029 
L 225.97203 445.283029 
L 230.853182 444.73221 
L 235.734333 444.73221 
L 240.615485 444.420535 
L 255.258939 444.452927 
L 260.140091 444.917303 
L 265.021242 444.917303 
L 269.902394 445.884491 
L 274.783545 445.884491 
L 279.664697 447.410848 
L 284.545848 447.410848 
L 289.427 449.540637 
L 294.308152 449.540637 
L 299.189303 452.303366 
L 304.070455 452.303366 
L 308.951606 455.698412 
L 313.832758 455.698412 
L 318.713909 459.657854 
L 323.595061 459.657854 
L 328.476212 463.989983 
L 333.357364 463.989983 
L 338.238515 468.339134 
L 343.119667 468.339134 
L 348.000818 472.229321 
L 352.88197 472.229321 
L 357.763121 475.232722 
L 362.644273 475.232722 
L 367.525424 477.011139 
L 372.406576 477.011139 
L 377.287727 477.707439 
L 382.168879 477.707439 
L 387.05003 477.88492 
L 391.931182 477.88492 
L 396.812333 478.110276 
L 401.693485 478.110276 
L 406.574636 478.779642 
L 411.455788 478.779642 
L 416.336939 479.931578 
L 421.218091 479.931578 
L 426.099242 481.256852 
L 430.980394 481.256852 
L 435.861545 482.54927 
L 440.742697 482.54927 
L 445.623848 483.303107 
L 450.505 483.303107 
L 455.386152 483.489844 
L 460.267303 483.489844 
L 465.148455 483.093988 
L 470.029606 483.093988 
L 474.910758 482.15948 
L 479.791909 482.15948 
L 484.673061 480.897463 
L 489.554212 480.897463 
L 494.435364 479.67522 
L 499.316515 479.67522 
L 504.197667 478.7014 
L 509.078818 478.7014 
L 513.95997 477.694099 
L 518.841121 477.694099 
L 523.722273 476.158454 
L 528.603424 476.158454 
L 533.484576 473.757134 
L 538.365727 473.757134 
L 543.246879 470.655145 
L 548.12803 470.655145 
L 553.009182 467.559664 
L 557.890333 467.559664 
L 562.771485 464.385451 
L 567.652636 464.385451 
L 572.533788 459.745544 
L 577.414939 459.745544 
L 582.296091 455.834092 
L 587.177242 455.834092 
L 592.058394 452.412915 
L 596.939545 452.412915 
L 601.820697 449.815616 
L 606.701848 449.815616 
L 611.583 448.180554 
L 616.464152 448.180554 
L 621.345303 447.574389 
L 626.226455 447.574389 
L 631.107606 448.030572 
L 635.988758 448.030572 
L 640.869909 449.563715 
L 645.751061 449.563715 
L 650.632212 452.176571 
L 655.513364 452.176571 
L 660.394515 455.877281 
L 665.275667 455.877281 
L 670.156818 460.670847 
L 675.03797 460.670847 
L 679.919121 466.514376 
L 684.800273 466.514376 
L 689.681424 473.244675 
L 694.562576 473.244675 
L 699.443727 480.48011 
L 704.324879 480.48011 
L 709.20603 487.437851 
L 714.087182 487.437851 
L 718.968333 492.937239 
L 723.849485 492.937239 
L 728.730636 496.061905 
L 733.611788 496.061905 
L 738.492939 495.615486 
L 743.374091 495.615486 
L 748.255242 490.248927 
L 753.136394 490.248927 
L 758.017545 480.757733 
L 762.898697 480.757733 
L 767.779848 470.889814 
L 772.661 470.889814 
L 777.542152 463.458213 
L 782.423303 463.458213 
L 787.304455 458.273241 
L 792.185606 458.273241 
L 797.066758 454.61347 
L 801.947909 454.61347 
L 806.829061 452.31754 
L 816.591364 452.31754 
L 816.591364 452.31754 
" clip-path="url(#p5423e71279)" style="fill: none; stroke: #9f2a6b; stroke-width: 1.5; stroke-linecap: square"/>
   </g>
   <g id="line2d_73">
    <path d="M 84.418636 368.269212 
L 89.299788 368.269212 
L 94.180939 372.427901 
L 99.062091 372.427901 
L 103.943242 377.173455 
L 108.824394 377.173455 
L 113.705545 382.380337 
L 118.586697 382.380337 
L 123.467848 387.822923 
L 128.349 387.822923 
L 133.230152 393.151471 
L 138.111303 393.151471 
L 142.992455 397.901608 
L 147.873606 397.901608 
L 152.754758 401.579911 
L 157.635909 401.579911 
L 162.517061 403.859184 
L 167.398212 403.859184 
L 172.279364 404.61991 
L 177.160515 404.61991 
L 182.041667 403.980043 
L 186.922818 403.980043 
L 191.80397 402.284708 
L 196.685121 402.284708 
L 201.566273 399.999418 
L 206.447424 399.999418 
L 211.328576 397.560942 
L 216.209727 397.560942 
L 221.090879 395.305215 
L 225.97203 395.305215 
L 230.853182 393.479875 
L 235.734333 393.479875 
L 240.615485 392.266895 
L 245.496636 392.266895 
L 250.377788 391.796513 
L 255.258939 391.796513 
L 260.140091 392.161936 
L 265.021242 392.161936 
L 269.902394 393.433011 
L 274.783545 393.433011 
L 279.664697 395.665645 
L 284.545848 395.665645 
L 289.427 398.908771 
L 294.308152 398.908771 
L 299.189303 403.21299 
L 304.070455 403.21299 
L 308.951606 408.637452 
L 313.832758 408.637452 
L 318.713909 415.226651 
L 323.595061 415.226651 
L 328.476212 422.918383 
L 333.357364 422.918383 
L 338.238515 431.378663 
L 343.119667 431.378663 
L 348.000818 439.882366 
L 352.88197 439.882366 
L 357.763121 447.484796 
L 362.644273 447.484796 
L 367.525424 453.420173 
L 372.406576 453.420173 
L 377.287727 457.594649 
L 382.168879 457.594649 
L 387.05003 460.721417 
L 391.931182 460.721417 
L 396.812333 463.928255 
L 401.693485 463.928255 
L 406.574636 468.135693 
L 411.455788 468.135693 
L 416.336939 473.608191 
L 421.218091 473.608191 
L 426.099242 479.755189 
L 430.980394 479.755189 
L 435.861545 485.243091 
L 440.742697 485.243091 
L 445.623848 488.779118 
L 450.505 488.779118 
L 455.386152 489.874023 
L 460.267303 489.874023 
L 465.148455 488.822507 
L 470.029606 488.822507 
L 474.910758 486.278758 
L 479.791909 486.278758 
L 484.673061 482.895818 
L 489.554212 482.895818 
L 494.435364 479.172931 
L 499.316515 479.172931 
L 504.197667 475.438302 
L 509.078818 475.438302 
L 513.95997 471.719013 
L 518.841121 471.719013 
L 523.722273 467.147047 
L 528.603424 467.147047 
L 533.484576 460.530367 
L 538.365727 460.530367 
L 543.246879 451.245401 
L 548.12803 451.245401 
L 553.009182 440.282704 
L 557.890333 440.282704 
L 562.771485 429.068578 
L 567.652636 429.068578 
L 572.533788 418.772316 
L 577.414939 418.772316 
L 582.296091 410.015567 
L 587.177242 410.015567 
L 592.058394 402.893054 
L 596.939545 402.893054 
L 601.820697 397.267202 
L 606.701848 397.267202 
L 611.583 392.974728 
L 616.464152 392.974728 
L 621.345303 389.889803 
L 626.226455 389.889803 
L 631.107606 387.9213 
L 635.988758 387.9213 
L 640.869909 386.998872 
L 655.513364 387.061427 
L 660.394515 388.045761 
L 665.275667 388.045761 
L 670.156818 389.872578 
L 675.03797 389.872578 
L 679.919121 392.42912 
L 684.800273 392.42912 
L 689.681424 395.546804 
L 694.562576 395.546804 
L 699.443727 398.97195 
L 704.324879 398.97195 
L 709.20603 402.331234 
L 714.087182 402.331234 
L 718.968333 405.121292 
L 723.849485 405.121292 
L 728.730636 406.759738 
L 743.374091 406.752742 
L 748.255242 404.903305 
L 753.136394 404.903305 
L 758.017545 401.395514 
L 762.898697 401.395514 
L 767.779848 396.685657 
L 772.661 396.685657 
L 777.542152 391.32506 
L 782.423303 391.32506 
L 787.304455 385.831312 
L 792.185606 385.831312 
L 797.066758 380.616973 
L 801.947909 380.616973 
L 806.829061 375.963313 
L 816.591364 375.963313 
L 816.591364 375.963313 
" clip-path="url(#p5423e71279)" style="fill: none; stroke: #af285f; stroke-width: 1.5; stroke-linecap: square"/>
   </g>
   <g id="line2d_74">
    <path d="M 84.418636 297.618182 
L 816.591364 297.618182 
L 816.591364 297.618182 
" clip-path="url(#p5423e71279)" style="fill: none; stroke: #bf2552; stroke-width: 1.5; stroke-linecap: square"/>
   </g>
   <g id="patch_9">
    <path d="M 47.81 534.04 
L 47.81 286.36 
" style="fill: none; stroke: #000000; stroke-width: 0.8; stroke-linejoin: miter; stroke-linecap: square"/>
   </g>
   <g id="patch_10">
    <path d="M 853.2 534.04 
L 853.2 286.36 
" style="fill: none; stroke: #000000; stroke-width: 0.8; stroke-linejoin: miter; stroke-linecap: square"/>
   </g>
   <g id="patch_11">
    <path d="M 47.81 534.04 
L 853.2 534.04 
" style="fill: none; stroke: #000000; stroke-width: 0.8; stroke-linejoin: miter; stroke-linecap: square"/>
   </g>
   <g id="patch_12">
    <path d="M 47.81 286.36 
L 853.2 286.36 
" style="fill: none; stroke: #000000; stroke-width: 0.8; stroke-linejoin: miter; stroke-linecap: square"/>
   </g>
  </g>
 </g>
 <defs>
  <clipPath id="p63d451d332">
   <rect x="47.81" y="10.8" width="805.39" height="247.68"/>
  </clipPath>
  <clipPath id="p5423e71279">
   <rect x="47.81" y="286.36" width="805.39" height="247.68"/>
  </clipPath>
 </defs>
</svg>
