<?xml version="1.0" encoding="utf-8" standalone="no"?>
<!DOCTYPE svg PUBLIC "-//W3C//DTD SVG 1.1//EN"
  "http://www.w3.org/Graphics/SVG/1.1/DTD/svg11.dtd">
<svg xmlns:xlink="http://www.w3.org/1999/xlink" width="864pt" height="576pt" viewBox="0 0 864 576" xmlns="http://www.w3.org/2000/svg" version="1.1">
 <metadata>
  <rdf:RDF xmlns:dc="http://purl.org/dc/elements/1.1/" xmlns:cc="http://creativecommons.org/ns#" xmlns:rdf="http://www.w3.org/1999/02/22-rdf-syntax-ns#">
   <cc:Work>
    <dc:type rdf:resource="http://purl.org/dc/dcmitype/StillImage"/>
    <dc:date>2026-02-28T13:03:45.720768</dc:date>
    <dc:format>image/svg+xml</dc:format>
    <dc:creator>
     <cc:Agent>
      <dc:title>Matplotlib v3.10.8, https://matplotlib.org/</dc:title>
     </cc:Agent>
    </dc:creator>
   </cc:Work>
  </rdf:RDF>
 </metadata>
 <defs>
  <style type="text/css">*{stroke-linejoin: round; stroke-linecap: butt}</style>
 </defs>
 <g id="figure_1">
  <g id="patch_1">
   <path d="M 0 576 
L 864 576 
L 864 0 
L 0 0 
z
" style="fill: #ffffff"/>
  </g>
  <g id="axes_1">
   <g id="patch_2">
    <path d="M 47.81 258.48 
L 853.2 258.48 
L 853.2 10.8 
L 47.81 10.8 
z
" style="fill: #ffffff"/>
   </g>
   <g id="matplotlib.axis_1">
    <g id="xtick_1">
     <g id="line2d_1">
      <path d="M 84.418636 258.48 
L 84.418636 10.8 
" clip-path="url(#pe5eb3bf590)" style="fill: none; stroke: #b0b0b0; stroke-width: 0.8; stroke-linecap: square"/>
     </g>
     <g id="line2d_2">
      <defs>
       <path id="m5a8bf23ce3" d="M 0 0 
L 0 3.5 
" style="stroke: #000000; stroke-width: 0.8"/>
      </defs>
      <g>
       <use xlink:href="#m5a8bf23ce3" x="84.418636" y="258.48" style="stroke: #000000; stroke-width: 0.8"/>
      </g>
     </g>
     <g id="text_1">
      <!-- 0 -->
      <g transform="translate(81.237386 273.078438) scale(0.1 -0.1)">
       <defs>
        <path id="DejaVuSans-30" d="M 2034 4250 
Q 1547 4250 1301 3770 
Q 1056 3291 1056 2328 
Q 1056 1369 1301 889 
Q 1547 409 2034 409 
Q 2525 409 2770 889 
Q 3016 1369 3016 2328 
Q 3016 3291 2770 3770 
Q 2525 4250 2034 4250 
z
M 2034 4750 
Q 2819 4750 3233 4129 
Q 3647 3509 3647 2328 
Q 3647 1150 3233 529 
Q 2819 -91 2034 -91 
Q 1250 -91 836 529 
Q 422 1150 422 2328 
Q 422 3509 836 4129 
Q 1250 4750 2034 4750 
z
" transform="scale(0.015625)"/>
       </defs>
       <use xlink:href="#DejaVuSans-30"/>
      </g>
     </g>
    </g>
    <g id="xtick_2">
     <g id="line2d_3">
      <path d="M 262.769704 258.48 
L 262.769704 10.8 
" clip-path="url(#pe5eb3bf590)" style="fill: none; stroke: #b0b0b0; stroke-width: 0.8; stroke-linecap: square"/>
     </g>
     <g id="line2d_4">
      <g>
       <use xlink:href="#m5a8bf23ce3" x="262.769704" y="258.48" style="stroke: #000000; stroke-width: 0.8"/>
      </g>
     </g>
     <g id="text_2">
      <!-- 5 -->
      <g transform="translate(259.588454 273.078438) scale(0.1 -0.1)">
       <defs>
        <path id="DejaVuSans-35" d="M 691 4666 
L 3169 4666 
L 3169 4134 
L 1269 4134 
L 1269 2991 
Q 1406 3038 1543 3061 
Q 1681 3084 1819 3084 
Q 2600 3084 3056 2656 
Q 3513 2228 3513 1497 
Q 3513 744 3044 326 
Q 2575 -91 1722 -91 
Q 1428 -91 1123 -41 
Q 819 9 494 109 
L 494 744 
Q 775 591 1075 516 
Q 1375 441 1709 441 
Q 2250 441 2565 725 
Q 2881 1009 2881 1497 
Q 2881 1984 2565 2268 
Q 2250 2553 1709 2553 
Q 1456 2553 1204 2497 
Q 953 2441 691 2322 
L 691 4666 
z
" transform="scale(0.015625)"/>
       </defs>
       <use xlink:href="#DejaVuSans-35"/>
      </g>
     </g>
    </g>
    <g id="xtick_3">
     <g id="line2d_5">
      <path d="M 441.120772 258.48 
L 441.120772 10.8 
" clip-path="url(#pe5eb3bf590)" style="fill: none; stroke: #b0b0b0; stroke-width: 0.8; stroke-linecap: square"/>
     </g>
     <g id="line2d_6">
      <g>
       <use xlink:href="#m5a8bf23ce3" x="441.120772" y="258.48" style="stroke: #000000; stroke-width: 0.8"/>
      </g>
     </g>
     <g id="text_3">
      <!-- 10 -->
      <g transform="translate(434.758272 273.078438) scale(0.1 -0.1)">
       <defs>
        <path id="DejaVuSans-31" d="M 794 531 
L 1825 531 
L 1825 4091 
L 703 3866 
L 703 4441 
L 1819 4666 
L 2450 4666 
L 2450 531 
L 3481 531 
L 3481 0 
L 794 0 
L 794 531 
z
" transform="scale(0.015625)"/>
       </defs>
       <use xlink:href="#DejaVuSans-31"/>
       <use xlink:href="#DejaVuSans-30" transform="translate(63.623047 0)"/>
      </g>
     </g>
    </g>
    <g id="xtick_4">
     <g id="line2d_7">
      <path d="M 619.47184 258.48 
L 619.47184 10.8 
" clip-path="url(#pe5eb3bf590)" style="fill: none; stroke: #b0b0b0; stroke-width: 0.8; stroke-linecap: square"/>
     </g>
     <g id="line2d_8">
      <g>
       <use xlink:href="#m5a8bf23ce3" x="619.47184" y="258.48" style="stroke: #000000; stroke-width: 0.8"/>
      </g>
     </g>
     <g id="text_4">
      <!-- 15 -->
      <g transform="translate(613.10934 273.078438) scale(0.1 -0.1)">
       <use xlink:href="#DejaVuSans-31"/>
       <use xlink:href="#DejaVuSans-35" transform="translate(63.623047 0)"/>
      </g>
     </g>
    </g>
    <g id="xtick_5">
     <g id="line2d_9">
      <path d="M 797.822907 258.48 
L 797.822907 10.8 
" clip-path="url(#pe5eb3bf590)" style="fill: none; stroke: #b0b0b0; stroke-width: 0.8; stroke-linecap: square"/>
     </g>
     <g id="line2d_10">
      <g>
       <use xlink:href="#m5a8bf23ce3" x="797.822907" y="258.48" style="stroke: #000000; stroke-width: 0.8"/>
      </g>
     </g>
     <g id="text_5">
      <!-- 20 -->
      <g transform="translate(791.460407 273.078438) scale(0.1 -0.1)">
       <defs>
        <path id="DejaVuSans-32" d="M 1228 531 
L 3431 531 
L 3431 0 
L 469 0 
L 469 531 
Q 828 903 1448 1529 
Q 2069 2156 2228 2338 
Q 2531 2678 2651 2914 
Q 2772 3150 2772 3378 
Q 2772 3750 2511 3984 
Q 2250 4219 1831 4219 
Q 1534 4219 1204 4116 
Q 875 4013 500 3803 
L 500 4441 
Q 881 4594 1212 4672 
Q 1544 4750 1819 4750 
Q 2544 4750 2975 4387 
Q 3406 4025 3406 3419 
Q 3406 3131 3298 2873 
Q 3191 2616 2906 2266 
Q 2828 2175 2409 1742 
Q 1991 1309 1228 531 
z
" transform="scale(0.015625)"/>
       </defs>
       <use xlink:href="#DejaVuSans-32"/>
       <use xlink:href="#DejaVuSans-30" transform="translate(63.623047 0)"/>
      </g>
     </g>
    </g>
   </g>
   <g id="matplotlib.axis_2">
    <g id="ytick_1">
     <g id="line2d_11">
      <path d="M 47.81 247.221818 
L 853.2 247.221818 
" clip-path="url(#pe5eb3bf590)" style="fill: none; stroke: #b0b0b0; stroke-width: 0.8; stroke-linecap: square"/>
     </g>
     <g id="line2d_12">
      <defs>
       <path id="m7e6079e2ea" d="M 0 0 
L -3.5 0 
" style="stroke: #000000; stroke-width: 0.8"/>
      </defs>
      <g>
       <use xlink:href="#m7e6079e2ea" x="47.81" y="247.221818" style="stroke: #000000; stroke-width: 0.8"/>
      </g>
     </g>
     <g id="text_6">
      <!-- 0.0 -->
      <g transform="translate(24.906875 251.021037) scale(0.1 -0.1)">
       <defs>
        <path id="DejaVuSans-2e" d="M 684 794 
L 1344 794 
L 1344 0 
L 684 0 
L 684 794 
z
" transform="scale(0.015625)"/>
       </defs>
       <use xlink:href="#DejaVuSans-30"/>
       <use xlink:href="#DejaVuSans-2e" transform="translate(63.623047 0)"/>
       <use xlink:href="#DejaVuSans-30" transform="translate(95.410156 0)"/>
      </g>
     </g>
    </g>
    <g id="ytick_2">
     <g id="line2d_13">
      <path d="M 47.81 211.385912 
L 853.2 211.385912 
" clip-path="url(#pe5eb3bf590)" style="fill: none; stroke: #b0b0b0; stroke-width: 0.8; stroke-linecap: square"/>
     </g>
     <g id="line2d_14">
      <g>
       <use xlink:href="#m7e6079e2ea" x="47.81" y="211.385912" style="stroke: #000000; stroke-width: 0.8"/>
      </g>
     </g>
     <g id="text_7">
      <!-- 0.5 -->
      <g transform="translate(24.906875 215.185131) scale(0.1 -0.1)">
       <use xlink:href="#DejaVuSans-30"/>
       <use xlink:href="#DejaVuSans-2e" transform="translate(63.623047 0)"/>
       <use xlink:href="#DejaVuSans-35" transform="translate(95.410156 0)"/>
      </g>
     </g>
    </g>
    <g id="ytick_3">
     <g id="line2d_15">
      <path d="M 47.81 175.550007 
L 853.2 175.550007 
" clip-path="url(#pe5eb3bf590)" style="fill: none; stroke: #b0b0b0; stroke-width: 0.8; stroke-linecap: square"/>
     </g>
     <g id="line2d_16">
      <g>
       <use xlink:href="#m7e6079e2ea" x="47.81" y="175.550007" style="stroke: #000000; stroke-width: 0.8"/>
      </g>
     </g>
     <g id="text_8">
      <!-- 1.0 -->
      <g transform="translate(24.906875 179.349225) scale(0.1 -0.1)">
       <use xlink:href="#DejaVuSans-31"/>
       <use xlink:href="#DejaVuSans-2e" transform="translate(63.623047 0)"/>
       <use xlink:href="#DejaVuSans-30" transform="translate(95.410156 0)"/>
      </g>
     </g>
    </g>
    <g id="ytick_4">
     <g id="line2d_17">
      <path d="M 47.81 139.714101 
L 853.2 139.714101 
" clip-path="url(#pe5eb3bf590)" style="fill: none; stroke: #b0b0b0; stroke-width: 0.8; stroke-linecap: square"/>
     </g>
     <g id="line2d_18">
      <g>
       <use xlink:href="#m7e6079e2ea" x="47.81" y="139.714101" style="stroke: #000000; stroke-width: 0.8"/>
      </g>
     </g>
     <g id="text_9">
      <!-- 1.5 -->
      <g transform="translate(24.906875 143.51332) scale(0.1 -0.1)">
       <use xlink:href="#DejaVuSans-31"/>
       <use xlink:href="#DejaVuSans-2e" transform="translate(63.623047 0)"/>
       <use xlink:href="#DejaVuSans-35" transform="translate(95.410156 0)"/>
      </g>
     </g>
    </g>
    <g id="ytick_5">
     <g id="line2d_19">
      <path d="M 47.81 103.878195 
L 853.2 103.878195 
" clip-path="url(#pe5eb3bf590)" style="fill: none; stroke: #b0b0b0; stroke-width: 0.8; stroke-linecap: square"/>
     </g>
     <g id="line2d_20">
      <g>
       <use xlink:href="#m7e6079e2ea" x="47.81" y="103.878195" style="stroke: #000000; stroke-width: 0.8"/>
      </g>
     </g>
     <g id="text_10">
      <!-- 2.0 -->
      <g transform="translate(24.906875 107.677414) scale(0.1 -0.1)">
       <use xlink:href="#DejaVuSans-32"/>
       <use xlink:href="#DejaVuSans-2e" transform="translate(63.623047 0)"/>
       <use xlink:href="#DejaVuSans-30" transform="translate(95.410156 0)"/>
      </g>
     </g>
    </g>
    <g id="ytick_6">
     <g id="line2d_21">
      <path d="M 47.81 68.04229 
L 853.2 68.04229 
" clip-path="url(#pe5eb3bf590)" style="fill: none; stroke: #b0b0b0; stroke-width: 0.8; stroke-linecap: square"/>
     </g>
     <g id="line2d_22">
      <g>
       <use xlink:href="#m7e6079e2ea" x="47.81" y="68.04229" style="stroke: #000000; stroke-width: 0.8"/>
      </g>
     </g>
     <g id="text_11">
      <!-- 2.5 -->
      <g transform="translate(24.906875 71.841508) scale(0.1 -0.1)">
       <use xlink:href="#DejaVuSans-32"/>
       <use xlink:href="#DejaVuSans-2e" transform="translate(63.623047 0)"/>
       <use xlink:href="#DejaVuSans-35" transform="translate(95.410156 0)"/>
      </g>
     </g>
    </g>
    <g id="ytick_7">
     <g id="line2d_23">
      <path d="M 47.81 32.206384 
L 853.2 32.206384 
" clip-path="url(#pe5eb3bf590)" style="fill: none; stroke: #b0b0b0; stroke-width: 0.8; stroke-linecap: square"/>
     </g>
     <g id="line2d_24">
      <g>
       <use xlink:href="#m7e6079e2ea" x="47.81" y="32.206384" style="stroke: #000000; stroke-width: 0.8"/>
      </g>
     </g>
     <g id="text_12">
      <!-- 3.0 -->
      <g transform="translate(24.906875 36.005603) scale(0.1 -0.1)">
       <defs>
        <path id="DejaVuSans-33" d="M 2597 2516 
Q 3050 2419 3304 2112 
Q 3559 1806 3559 1356 
Q 3559 666 3084 287 
Q 2609 -91 1734 -91 
Q 1441 -91 1130 -33 
Q 819 25 488 141 
L 488 750 
Q 750 597 1062 519 
Q 1375 441 1716 441 
Q 2309 441 2620 675 
Q 2931 909 2931 1356 
Q 2931 1769 2642 2001 
Q 2353 2234 1838 2234 
L 1294 2234 
L 1294 2753 
L 1863 2753 
Q 2328 2753 2575 2939 
Q 2822 3125 2822 3475 
Q 2822 3834 2567 4026 
Q 2313 4219 1838 4219 
Q 1578 4219 1281 4162 
Q 984 4106 628 3988 
L 628 4550 
Q 988 4650 1302 4700 
Q 1616 4750 1894 4750 
Q 2613 4750 3031 4423 
Q 3450 4097 3450 3541 
Q 3450 3153 3228 2886 
Q 3006 2619 2597 2516 
z
" transform="scale(0.015625)"/>
       </defs>
       <use xlink:href="#DejaVuSans-33"/>
       <use xlink:href="#DejaVuSans-2e" transform="translate(63.623047 0)"/>
       <use xlink:href="#DejaVuSans-30" transform="translate(95.410156 0)"/>
      </g>
     </g>
    </g>
    <g id="text_13">
     <!-- Phase Angle (rad) -->
     <g transform="translate(18.827187 179.17125) rotate(-90) scale(0.1 -0.1)">
      <defs>
       <path id="DejaVuSans-50" d="M 1259 4147 
L 1259 2394 
L 2053 2394 
Q 2494 2394 2734 2622 
Q 2975 2850 2975 3272 
Q 2975 3691 2734 3919 
Q 2494 4147 2053 4147 
L 1259 4147 
z
M 628 4666 
L 2053 4666 
Q 2838 4666 3239 4311 
Q 3641 3956 3641 3272 
Q 3641 2581 3239 2228 
Q 2838 1875 2053 1875 
L 1259 1875 
L 1259 0 
L 628 0 
L 628 4666 
z
" transform="scale(0.015625)"/>
       <path id="DejaVuSans-68" d="M 3513 2113 
L 3513 0 
L 2938 0 
L 2938 2094 
Q 2938 2591 2744 2837 
Q 2550 3084 2163 3084 
Q 1697 3084 1428 2787 
Q 1159 2491 1159 1978 
L 1159 0 
L 581 0 
L 581 4863 
L 1159 4863 
L 1159 2956 
Q 1366 3272 1645 3428 
Q 1925 3584 2291 3584 
Q 2894 3584 3203 3211 
Q 3513 2838 3513 2113 
z
" transform="scale(0.015625)"/>
       <path id="DejaVuSans-61" d="M 2194 1759 
Q 1497 1759 1228 1600 
Q 959 1441 959 1056 
Q 959 750 1161 570 
Q 1363 391 1709 391 
Q 2188 391 2477 730 
Q 2766 1069 2766 1631 
L 2766 1759 
L 2194 1759 
z
M 3341 1997 
L 3341 0 
L 2766 0 
L 2766 531 
Q 2569 213 2275 61 
Q 1981 -91 1556 -91 
Q 1019 -91 701 211 
Q 384 513 384 1019 
Q 384 1609 779 1909 
Q 1175 2209 1959 2209 
L 2766 2209 
L 2766 2266 
Q 2766 2663 2505 2880 
Q 2244 3097 1772 3097 
Q 1472 3097 1187 3025 
Q 903 2953 641 2809 
L 641 3341 
Q 956 3463 1253 3523 
Q 1550 3584 1831 3584 
Q 2591 3584 2966 3190 
Q 3341 2797 3341 1997 
z
" transform="scale(0.015625)"/>
       <path id="DejaVuSans-73" d="M 2834 3397 
L 2834 2853 
Q 2591 2978 2328 3040 
Q 2066 3103 1784 3103 
Q 1356 3103 1142 2972 
Q 928 2841 928 2578 
Q 928 2378 1081 2264 
Q 1234 2150 1697 2047 
L 1894 2003 
Q 2506 1872 2764 1633 
Q 3022 1394 3022 966 
Q 3022 478 2636 193 
Q 2250 -91 1575 -91 
Q 1294 -91 989 -36 
Q 684 19 347 128 
L 347 722 
Q 666 556 975 473 
Q 1284 391 1588 391 
Q 1994 391 2212 530 
Q 2431 669 2431 922 
Q 2431 1156 2273 1281 
Q 2116 1406 1581 1522 
L 1381 1569 
Q 847 1681 609 1914 
Q 372 2147 372 2553 
Q 372 3047 722 3315 
Q 1072 3584 1716 3584 
Q 2034 3584 2315 3537 
Q 2597 3491 2834 3397 
z
" transform="scale(0.015625)"/>
       <path id="DejaVuSans-65" d="M 3597 1894 
L 3597 1613 
L 953 1613 
Q 991 1019 1311 708 
Q 1631 397 2203 397 
Q 2534 397 2845 478 
Q 3156 559 3463 722 
L 3463 178 
Q 3153 47 2828 -22 
Q 2503 -91 2169 -91 
Q 1331 -91 842 396 
Q 353 884 353 1716 
Q 353 2575 817 3079 
Q 1281 3584 2069 3584 
Q 2775 3584 3186 3129 
Q 3597 2675 3597 1894 
z
M 3022 2063 
Q 3016 2534 2758 2815 
Q 2500 3097 2075 3097 
Q 1594 3097 1305 2825 
Q 1016 2553 972 2059 
L 3022 2063 
z
" transform="scale(0.015625)"/>
       <path id="DejaVuSans-20" transform="scale(0.015625)"/>
       <path id="DejaVuSans-41" d="M 2188 4044 
L 1331 1722 
L 3047 1722 
L 2188 4044 
z
M 1831 4666 
L 2547 4666 
L 4325 0 
L 3669 0 
L 3244 1197 
L 1141 1197 
L 716 0 
L 50 0 
L 1831 4666 
z
" transform="scale(0.015625)"/>
       <path id="DejaVuSans-6e" d="M 3513 2113 
L 3513 0 
L 2938 0 
L 2938 2094 
Q 2938 2591 2744 2837 
Q 2550 3084 2163 3084 
Q 1697 3084 1428 2787 
Q 1159 2491 1159 1978 
L 1159 0 
L 581 0 
L 581 3500 
L 1159 3500 
L 1159 2956 
Q 1366 3272 1645 3428 
Q 1925 3584 2291 3584 
Q 2894 3584 3203 3211 
Q 3513 2838 3513 2113 
z
" transform="scale(0.015625)"/>
       <path id="DejaVuSans-67" d="M 2906 1791 
Q 2906 2416 2648 2759 
Q 2391 3103 1925 3103 
Q 1463 3103 1205 2759 
Q 947 2416 947 1791 
Q 947 1169 1205 825 
Q 1463 481 1925 481 
Q 2391 481 2648 825 
Q 2906 1169 2906 1791 
z
M 3481 434 
Q 3481 -459 3084 -895 
Q 2688 -1331 1869 -1331 
Q 1566 -1331 1297 -1286 
Q 1028 -1241 775 -1147 
L 775 -588 
Q 1028 -725 1275 -790 
Q 1522 -856 1778 -856 
Q 2344 -856 2625 -561 
Q 2906 -266 2906 331 
L 2906 616 
Q 2728 306 2450 153 
Q 2172 0 1784 0 
Q 1141 0 747 490 
Q 353 981 353 1791 
Q 353 2603 747 3093 
Q 1141 3584 1784 3584 
Q 2172 3584 2450 3431 
Q 2728 3278 2906 2969 
L 2906 3500 
L 3481 3500 
L 3481 434 
z
" transform="scale(0.015625)"/>
       <path id="DejaVuSans-6c" d="M 603 4863 
L 1178 4863 
L 1178 0 
L 603 0 
L 603 4863 
z
" transform="scale(0.015625)"/>
       <path id="DejaVuSans-28" d="M 1984 4856 
Q 1566 4138 1362 3434 
Q 1159 2731 1159 2009 
Q 1159 1288 1364 580 
Q 1569 -128 1984 -844 
L 1484 -844 
Q 1016 -109 783 600 
Q 550 1309 550 2009 
Q 550 2706 781 3412 
Q 1013 4119 1484 4856 
L 1984 4856 
z
" transform="scale(0.015625)"/>
       <path id="DejaVuSans-72" d="M 2631 2963 
Q 2534 3019 2420 3045 
Q 2306 3072 2169 3072 
Q 1681 3072 1420 2755 
Q 1159 2438 1159 1844 
L 1159 0 
L 581 0 
L 581 3500 
L 1159 3500 
L 1159 2956 
Q 1341 3275 1631 3429 
Q 1922 3584 2338 3584 
Q 2397 3584 2469 3576 
Q 2541 3569 2628 3553 
L 2631 2963 
z
" transform="scale(0.015625)"/>
       <path id="DejaVuSans-64" d="M 2906 2969 
L 2906 4863 
L 3481 4863 
L 3481 0 
L 2906 0 
L 2906 525 
Q 2725 213 2448 61 
Q 2172 -91 1784 -91 
Q 1150 -91 751 415 
Q 353 922 353 1747 
Q 353 2572 751 3078 
Q 1150 3584 1784 3584 
Q 2172 3584 2448 3432 
Q 2725 3281 2906 2969 
z
M 947 1747 
Q 947 1113 1208 752 
Q 1469 391 1925 391 
Q 2381 391 2643 752 
Q 2906 1113 2906 1747 
Q 2906 2381 2643 2742 
Q 2381 3103 1925 3103 
Q 1469 3103 1208 2742 
Q 947 2381 947 1747 
z
" transform="scale(0.015625)"/>
       <path id="DejaVuSans-29" d="M 513 4856 
L 1013 4856 
Q 1481 4119 1714 3412 
Q 1947 2706 1947 2009 
Q 1947 1309 1714 600 
Q 1481 -109 1013 -844 
L 513 -844 
Q 928 -128 1133 580 
Q 1338 1288 1338 2009 
Q 1338 2731 1133 3434 
Q 928 4138 513 4856 
z
" transform="scale(0.015625)"/>
      </defs>
      <use xlink:href="#DejaVuSans-50"/>
      <use xlink:href="#DejaVuSans-68" transform="translate(60.302734 0)"/>
      <use xlink:href="#DejaVuSans-61" transform="translate(123.681641 0)"/>
      <use xlink:href="#DejaVuSans-73" transform="translate(184.960938 0)"/>
      <use xlink:href="#DejaVuSans-65" transform="translate(237.060547 0)"/>
      <use xlink:href="#DejaVuSans-20" transform="translate(298.583984 0)"/>
      <use xlink:href="#DejaVuSans-41" transform="translate(330.371094 0)"/>
      <use xlink:href="#DejaVuSans-6e" transform="translate(398.779297 0)"/>
      <use xlink:href="#DejaVuSans-67" transform="translate(462.158203 0)"/>
      <use xlink:href="#DejaVuSans-6c" transform="translate(525.634766 0)"/>
      <use xlink:href="#DejaVuSans-65" transform="translate(553.417969 0)"/>
      <use xlink:href="#DejaVuSans-20" transform="translate(614.941406 0)"/>
      <use xlink:href="#DejaVuSans-28" transform="translate(646.728516 0)"/>
      <use xlink:href="#DejaVuSans-72" transform="translate(685.742188 0)"/>
      <use xlink:href="#DejaVuSans-61" transform="translate(726.855469 0)"/>
      <use xlink:href="#DejaVuSans-64" transform="translate(788.134766 0)"/>
      <use xlink:href="#DejaVuSans-29" transform="translate(851.611328 0)"/>
     </g>
    </g>
   </g>
   <g id="line2d_25">
    <path d="M 84.418636 247.221818 
L 816.591364 247.221818 
L 816.591364 247.221818 
" clip-path="url(#pe5eb3bf590)" style="fill: none; stroke: #303bc1; stroke-width: 1.5; stroke-linecap: square"/>
   </g>
   <g id="line2d_26">
    <path d="M 84.418636 222.203636 
L 177.160515 222.281718 
L 201.566273 222.543927 
L 225.97203 223.010043 
L 260.140091 223.927349 
L 308.951606 225.239653 
L 367.525424 226.687647 
L 387.05003 227.452079 
L 401.693485 228.217174 
L 416.336939 229.168402 
L 435.861545 230.680828 
L 455.386152 232.421908 
L 479.791909 234.859727 
L 513.95997 238.305855 
L 533.484576 239.978702 
L 548.12803 241.027698 
L 567.652636 242.159532 
L 587.177242 243.037646 
L 611.583 243.898155 
L 665.275667 245.470781 
L 704.324879 246.452297 
L 733.611788 246.939149 
L 762.898697 247.170265 
L 801.947909 247.219658 
L 816.591364 247.221818 
L 816.591364 247.221818 
" clip-path="url(#pe5eb3bf590)" style="fill: none; stroke: #4039b5; stroke-width: 1.5; stroke-linecap: square"/>
   </g>
   <g id="line2d_27">
    <path d="M 84.418636 197.185455 
L 167.398212 197.244401 
L 186.922818 197.511738 
L 206.447424 198.003015 
L 225.97203 198.736131 
L 250.377788 199.927078 
L 318.713909 203.479013 
L 348.000818 204.967707 
L 362.644273 205.873238 
L 377.287727 206.983418 
L 391.931182 208.340524 
L 406.574636 209.993726 
L 416.336939 211.28057 
L 430.980394 213.493979 
L 445.623848 216.023269 
L 460.267303 218.808173 
L 484.673061 223.758654 
L 504.197667 227.645357 
L 518.841121 230.303872 
L 533.484576 232.64904 
L 548.12803 234.657039 
L 562.771485 236.348385 
L 577.414939 237.773162 
L 596.939545 239.371072 
L 621.345303 241.091396 
L 660.394515 243.59036 
L 684.800273 244.969292 
L 704.324879 245.867116 
L 723.849485 246.526475 
L 743.374091 246.942599 
L 767.779848 247.181535 
L 801.947909 247.21683 
L 816.591364 247.221818 
L 816.591364 247.221818 
" clip-path="url(#pe5eb3bf590)" style="fill: none; stroke: #5036a8; stroke-width: 1.5; stroke-linecap: square"/>
   </g>
   <g id="line2d_28">
    <path d="M 84.418636 172.167273 
L 162.517061 172.244138 
L 177.160515 172.524564 
L 191.80397 172.99869 
L 206.447424 173.691208 
L 221.090879 174.600497 
L 240.615485 176.056619 
L 260.140091 177.699965 
L 279.664697 179.548279 
L 299.189303 181.623111 
L 318.713909 183.960071 
L 333.357364 185.925206 
L 348.000818 188.110339 
L 362.644273 190.54674 
L 377.287727 193.243808 
L 391.931182 196.1975 
L 406.574636 199.426085 
L 421.218091 202.91799 
L 435.861545 206.627306 
L 465.148455 214.363663 
L 484.673061 219.441119 
L 499.316515 223.027293 
L 509.078818 225.239645 
L 518.841121 227.282946 
L 528.603424 229.145778 
L 538.365727 230.820729 
L 548.12803 232.293291 
L 562.771485 234.183975 
L 577.414939 235.801837 
L 596.939545 237.686144 
L 626.226455 240.234866 
L 660.394515 242.994169 
L 679.919121 244.37698 
L 699.443727 245.509387 
L 714.087182 246.158982 
L 728.730636 246.633054 
L 748.255242 247.02018 
L 772.661 247.211333 
L 816.591364 247.221818 
L 816.591364 247.221818 
" clip-path="url(#pe5eb3bf590)" style="fill: none; stroke: #60349c; stroke-width: 1.5; stroke-linecap: square"/>
   </g>
   <g id="line2d_29">
    <path d="M 84.418636 147.149091 
L 138.111303 147.211154 
L 152.754758 147.530845 
L 162.517061 147.912058 
L 172.279364 148.461514 
L 182.041667 149.203628 
L 191.80397 150.156275 
L 201.566273 151.3287 
L 211.328576 152.719816 
L 221.090879 154.317183 
L 230.853182 156.096957 
L 245.496636 159.031996 
L 274.783545 165.310987 
L 294.308152 169.343878 
L 308.951606 172.144733 
L 323.595061 174.743223 
L 348.000818 178.787795 
L 367.525424 182.069432 
L 382.168879 184.771348 
L 391.931182 186.757802 
L 401.693485 188.92387 
L 411.455788 191.282405 
L 421.218091 193.830803 
L 435.861545 197.964511 
L 450.505 202.362624 
L 484.673061 212.802842 
L 499.316515 216.97932 
L 509.078818 219.554453 
L 518.841121 221.92803 
L 528.603424 224.08632 
L 538.365727 226.028595 
L 548.12803 227.769041 
L 562.771485 230.071229 
L 577.414939 232.105621 
L 596.939545 234.581422 
L 631.107606 238.648691 
L 655.513364 241.356814 
L 675.03797 243.267347 
L 689.681424 244.472908 
L 704.324879 245.446839 
L 718.968333 246.180204 
L 733.611788 246.68728 
L 748.255242 247.001138 
L 767.779848 247.195941 
L 797.066758 247.210136 
L 816.591364 247.221818 
L 816.591364 247.221818 
" clip-path="url(#pe5eb3bf590)" style="fill: none; stroke: #70318f; stroke-width: 1.5; stroke-linecap: square"/>
   </g>
   <g id="line2d_30">
    <path d="M 84.418636 122.130909 
L 138.111303 122.179134 
L 152.754758 122.559036 
L 162.517061 123.008003 
L 172.279364 123.647698 
L 182.041667 124.501617 
L 191.80397 125.586043 
L 201.566273 126.908391 
L 211.328576 128.465952 
L 221.090879 130.245313 
L 230.853182 132.222721 
L 245.496636 135.486865 
L 265.021242 140.182685 
L 299.189303 148.508897 
L 323.595061 154.193666 
L 348.000818 159.870193 
L 362.644273 163.483389 
L 372.406576 166.055185 
L 382.168879 168.794624 
L 391.931182 171.725056 
L 401.693485 174.859376 
L 411.455788 178.196844 
L 421.218091 181.722621 
L 435.861545 187.297981 
L 484.673061 206.334644 
L 494.435364 209.787804 
L 504.197667 212.998263 
L 513.95997 215.936665 
L 523.722273 218.593886 
L 533.484576 220.978735 
L 543.246879 223.113224 
L 553.009182 225.029111 
L 562.771485 226.764071 
L 577.414939 229.11424 
L 596.939545 231.967279 
L 631.107606 236.663997 
L 660.394515 240.494768 
L 675.03797 242.222741 
L 689.681424 243.730315 
L 704.324879 244.964981 
L 718.968333 245.904355 
L 733.611788 246.556822 
L 748.255242 246.958424 
L 767.779848 247.20189 
L 806.829061 247.216717 
L 816.591364 247.221818 
L 816.591364 247.221818 
" clip-path="url(#pe5eb3bf590)" style="fill: none; stroke: #802f83; stroke-width: 1.5; stroke-linecap: square"/>
   </g>
   <g id="line2d_31">
    <path d="M 84.418636 97.112727 
L 138.111303 97.093808 
L 147.873606 97.316285 
L 157.635909 97.707804 
L 167.398212 98.306446 
L 177.160515 99.144257 
L 186.922818 100.244814 
L 196.685121 101.621177 
L 206.447424 103.274377 
L 216.209727 105.192625 
L 225.97203 107.351481 
L 235.734333 109.715175 
L 250.377788 113.545681 
L 279.664697 121.62245 
L 299.189303 126.884659 
L 318.713909 131.911434 
L 348.000818 139.371468 
L 362.644273 143.381051 
L 372.406576 146.274645 
L 382.168879 149.398309 
L 391.931182 152.786932 
L 401.693485 156.460843 
L 411.455788 160.42244 
L 421.218091 164.654271 
L 430.980394 169.119197 
L 445.623848 176.129744 
L 474.910758 190.34712 
L 484.673061 194.847736 
L 494.435364 199.09941 
L 504.197667 203.037545 
L 513.95997 206.617535 
L 523.722273 209.819947 
L 533.484576 212.648677 
L 543.246879 215.129406 
L 553.009182 217.305911 
L 562.771485 219.23539 
L 577.414939 221.810224 
L 621.345303 229.162862 
L 635.988758 231.908224 
L 679.919121 240.39788 
L 689.681424 242.007556 
L 699.443727 243.402893 
L 709.20603 244.564761 
L 718.968333 245.494863 
L 728.730636 246.203067 
L 738.492939 246.706207 
L 748.255242 247.01908 
L 758.017545 247.128072 
L 787.304455 247.140911 
L 816.591364 247.221818 
L 816.591364 247.221818 
" clip-path="url(#pe5eb3bf590)" style="fill: none; stroke: #8f2d78; stroke-width: 1.5; stroke-linecap: square"/>
   </g>
   <g id="line2d_32">
    <path d="M 84.418636 72.094545 
L 113.705545 71.951193 
L 133.230152 71.934703 
L 147.873606 72.202184 
L 157.635909 72.604655 
L 167.398212 73.239364 
L 177.160515 74.144238 
L 186.922818 75.347585 
L 196.685121 76.86584 
L 206.447424 78.701941 
L 216.209727 80.844569 
L 225.97203 83.268439 
L 235.734333 85.935809 
L 245.496636 88.799247 
L 260.140091 93.345134 
L 308.951606 108.803546 
L 352.88197 122.262152 
L 362.644273 125.456659 
L 372.406576 128.828232 
L 382.168879 132.41991 
L 391.931182 136.265049 
L 401.693485 140.383423 
L 411.455788 144.778044 
L 421.218091 149.433187 
L 430.980394 154.314296 
L 445.623848 161.94305 
L 474.910758 177.450955 
L 484.673061 182.425227 
L 494.435364 187.184591 
L 504.197667 191.671276 
L 513.95997 195.845965 
L 523.722273 199.690901 
L 533.484576 203.209027 
L 543.246879 206.421043 
L 553.009182 209.361674 
L 562.771485 212.075586 
L 577.414939 215.831621 
L 596.939545 220.512916 
L 670.156818 237.661938 
L 679.919121 239.681048 
L 689.681424 241.512743 
L 699.443727 243.119617 
L 709.20603 244.4745 
L 718.968333 245.563113 
L 728.730636 246.38566 
L 738.492939 246.957541 
L 743.374091 247.158193 
L 753.136394 247.030564 
L 767.779848 246.927353 
L 792.185606 247.100631 
L 816.591364 247.221818 
L 816.591364 247.221818 
" clip-path="url(#pe5eb3bf590)" style="fill: none; stroke: #9f2a6b; stroke-width: 1.5; stroke-linecap: square"/>
   </g>
   <g id="line2d_33">
    <path d="M 84.418636 47.076364 
L 108.824394 46.953854 
L 128.349 46.865591 
L 142.992455 47.028553 
L 152.754758 47.343765 
L 162.517061 47.883732 
L 172.279364 48.693138 
L 182.041667 49.807632 
L 191.80397 51.251155 
L 201.566273 53.033954 
L 211.328576 55.151453 
L 221.090879 57.584132 
L 230.853182 60.298587 
L 240.615485 63.24985 
L 255.258939 68.003705 
L 274.783545 74.660152 
L 304.070455 84.621928 
L 352.88197 100.888943 
L 362.644273 104.391266 
L 372.406576 108.097258 
L 382.168879 112.054487 
L 391.931182 116.299161 
L 401.693485 120.851911 
L 411.455788 125.714358 
L 421.218091 130.867122 
L 430.980394 136.269983 
L 445.623848 144.711192 
L 474.910758 161.864152 
L 484.673061 167.373122 
L 494.435364 172.656437 
L 504.197667 177.658007 
L 513.95997 182.343058 
L 523.722273 186.700915 
L 533.484576 190.742946 
L 543.246879 194.498208 
L 553.009182 198.008659 
L 562.771485 201.324212 
L 577.414939 206.047469 
L 645.751061 227.397842 
L 660.394515 231.823467 
L 670.156818 234.604054 
L 679.919121 237.18664 
L 689.681424 239.522088 
L 699.443727 241.570146 
L 709.20603 243.303178 
L 718.968333 244.708662 
L 728.730636 245.79033 
L 738.492939 246.56793 
L 748.255242 247.075593 
L 753.136394 247.201592 
L 762.898697 247.011054 
L 777.542152 246.978001 
L 816.591364 247.221818 
L 816.591364 247.221818 
" clip-path="url(#pe5eb3bf590)" style="fill: none; stroke: #af285f; stroke-width: 1.5; stroke-linecap: square"/>
   </g>
   <g id="line2d_34">
    <path d="M 84.418636 22.058182 
L 108.824394 22.195034 
L 128.349 22.309626 
L 142.992455 22.160808 
L 147.873606 22.087481 
L 157.635909 22.517629 
L 167.398212 23.213755 
L 177.160515 24.221742 
L 186.922818 25.576369 
L 196.685121 27.29867 
L 206.447424 29.39416 
L 216.209727 31.852108 
L 225.97203 34.64598 
L 235.734333 37.73518 
L 245.496636 41.068083 
L 260.140091 46.395773 
L 284.545848 55.67012 
L 308.951606 64.8791 
L 352.88197 81.272421 
L 362.644273 85.15939 
L 372.406576 89.259748 
L 382.168879 93.632667 
L 391.931182 98.329421 
L 401.693485 103.386494 
L 411.455788 108.817732 
L 421.218091 114.608168 
L 430.980394 120.712279 
L 440.742697 127.0567 
L 470.029606 146.416589 
L 479.791909 152.626658 
L 489.554212 158.588875 
L 499.316515 164.250256 
L 509.078818 169.577847 
L 518.841121 174.561537 
L 528.603424 179.213104 
L 538.365727 183.562614 
L 548.12803 187.653645 
L 557.890333 191.538114 
L 572.533788 197.097714 
L 606.701848 209.643484 
L 650.632212 225.791503 
L 660.394515 229.195957 
L 670.156818 232.421146 
L 679.919121 235.408774 
L 689.681424 238.105987 
L 699.443727 240.470282 
L 709.20603 242.4734 
L 718.968333 244.103824 
L 728.730636 245.367716 
L 738.492939 246.288278 
L 748.255242 246.903689 
L 753.136394 247.11217 
L 758.017545 247.179793 
L 767.779848 247.017437 
L 782.423303 247.013229 
L 816.591364 247.221818 
L 816.591364 247.221818 
" clip-path="url(#pe5eb3bf590)" style="fill: none; stroke: #bf2552; stroke-width: 1.5; stroke-linecap: square"/>
   </g>
   <g id="patch_3">
    <path d="M 47.81 258.48 
L 47.81 10.8 
" style="fill: none; stroke: #000000; stroke-width: 0.8; stroke-linejoin: miter; stroke-linecap: square"/>
   </g>
   <g id="patch_4">
    <path d="M 853.2 258.48 
L 853.2 10.8 
" style="fill: none; stroke: #000000; stroke-width: 0.8; stroke-linejoin: miter; stroke-linecap: square"/>
   </g>
   <g id="patch_5">
    <path d="M 47.81 258.48 
L 853.2 258.48 
" style="fill: none; stroke: #000000; stroke-width: 0.8; stroke-linejoin: miter; stroke-linecap: square"/>
   </g>
   <g id="patch_6">
    <path d="M 47.81 10.8 
L 853.2 10.8 
" style="fill: none; stroke: #000000; stroke-width: 0.8; stroke-linejoin: miter; stroke-linecap: square"/>
   </g>
   <g id="legend_1">
    <g id="patch_7">
     <path d="M 787.959375 165.58125 
L 846.2 165.58125 
Q 848.2 165.58125 848.2 163.58125 
L 848.2 17.8 
Q 848.2 15.8 846.2 15.8 
L 787.959375 15.8 
Q 785.959375 15.8 785.959375 17.8 
L 785.959375 163.58125 
Q 785.959375 165.58125 787.959375 165.58125 
z
" style="fill: #ffffff; opacity: 0.8; stroke: #cccccc; stroke-linejoin: miter"/>
    </g>
    <g id="line2d_35">
     <path d="M 789.959375 23.898438 
L 799.959375 23.898438 
L 809.959375 23.898438 
" style="fill: none; stroke: #303bc1; stroke-width: 1.5; stroke-linecap: square"/>
    </g>
    <g id="text_14">
     <!-- S/C 0 -->
     <g transform="translate(817.959375 27.398438) scale(0.1 -0.1)">
      <defs>
       <path id="DejaVuSans-53" d="M 3425 4513 
L 3425 3897 
Q 3066 4069 2747 4153 
Q 2428 4238 2131 4238 
Q 1616 4238 1336 4038 
Q 1056 3838 1056 3469 
Q 1056 3159 1242 3001 
Q 1428 2844 1947 2747 
L 2328 2669 
Q 3034 2534 3370 2195 
Q 3706 1856 3706 1288 
Q 3706 609 3251 259 
Q 2797 -91 1919 -91 
Q 1588 -91 1214 -16 
Q 841 59 441 206 
L 441 856 
Q 825 641 1194 531 
Q 1563 422 1919 422 
Q 2459 422 2753 634 
Q 3047 847 3047 1241 
Q 3047 1584 2836 1778 
Q 2625 1972 2144 2069 
L 1759 2144 
Q 1053 2284 737 2584 
Q 422 2884 422 3419 
Q 422 4038 858 4394 
Q 1294 4750 2059 4750 
Q 2388 4750 2728 4690 
Q 3069 4631 3425 4513 
z
" transform="scale(0.015625)"/>
       <path id="DejaVuSans-2f" d="M 1625 4666 
L 2156 4666 
L 531 -594 
L 0 -594 
L 1625 4666 
z
" transform="scale(0.015625)"/>
       <path id="DejaVuSans-43" d="M 4122 4306 
L 4122 3641 
Q 3803 3938 3442 4084 
Q 3081 4231 2675 4231 
Q 1875 4231 1450 3742 
Q 1025 3253 1025 2328 
Q 1025 1406 1450 917 
Q 1875 428 2675 428 
Q 3081 428 3442 575 
Q 3803 722 4122 1019 
L 4122 359 
Q 3791 134 3420 21 
Q 3050 -91 2638 -91 
Q 1578 -91 968 557 
Q 359 1206 359 2328 
Q 359 3453 968 4101 
Q 1578 4750 2638 4750 
Q 3056 4750 3426 4639 
Q 3797 4528 4122 4306 
z
" transform="scale(0.015625)"/>
      </defs>
      <use xlink:href="#DejaVuSans-53"/>
      <use xlink:href="#DejaVuSans-2f" transform="translate(63.476562 0)"/>
      <use xlink:href="#DejaVuSans-43" transform="translate(97.167969 0)"/>
      <use xlink:href="#DejaVuSans-20" transform="translate(166.992188 0)"/>
      <use xlink:href="#DejaVuSans-30" transform="translate(198.779297 0)"/>
     </g>
    </g>
    <g id="line2d_36">
     <path d="M 789.959375 38.576563 
L 799.959375 38.576563 
L 809.959375 38.576563 
" style="fill: none; stroke: #4039b5; stroke-width: 1.5; stroke-linecap: square"/>
    </g>
    <g id="text_15">
     <!-- S/C 1 -->
     <g transform="translate(817.959375 42.076563) scale(0.1 -0.1)">
      <use xlink:href="#DejaVuSans-53"/>
      <use xlink:href="#DejaVuSans-2f" transform="translate(63.476562 0)"/>
      <use xlink:href="#DejaVuSans-43" transform="translate(97.167969 0)"/>
      <use xlink:href="#DejaVuSans-20" transform="translate(166.992188 0)"/>
      <use xlink:href="#DejaVuSans-31" transform="translate(198.779297 0)"/>
     </g>
    </g>
    <g id="line2d_37">
     <path d="M 789.959375 53.254688 
L 799.959375 53.254688 
L 809.959375 53.254688 
" style="fill: none; stroke: #5036a8; stroke-width: 1.5; stroke-linecap: square"/>
    </g>
    <g id="text_16">
     <!-- S/C 2 -->
     <g transform="translate(817.959375 56.754688) scale(0.1 -0.1)">
      <use xlink:href="#DejaVuSans-53"/>
      <use xlink:href="#DejaVuSans-2f" transform="translate(63.476562 0)"/>
      <use xlink:href="#DejaVuSans-43" transform="translate(97.167969 0)"/>
      <use xlink:href="#DejaVuSans-20" transform="translate(166.992188 0)"/>
      <use xlink:href="#DejaVuSans-32" transform="translate(198.779297 0)"/>
     </g>
    </g>
    <g id="line2d_38">
     <path d="M 789.959375 67.932813 
L 799.959375 67.932813 
L 809.959375 67.932813 
" style="fill: none; stroke: #60349c; stroke-width: 1.5; stroke-linecap: square"/>
    </g>
    <g id="text_17">
     <!-- S/C 3 -->
     <g transform="translate(817.959375 71.432813) scale(0.1 -0.1)">
      <use xlink:href="#DejaVuSans-53"/>
      <use xlink:href="#DejaVuSans-2f" transform="translate(63.476562 0)"/>
      <use xlink:href="#DejaVuSans-43" transform="translate(97.167969 0)"/>
      <use xlink:href="#DejaVuSans-20" transform="translate(166.992188 0)"/>
      <use xlink:href="#DejaVuSans-33" transform="translate(198.779297 0)"/>
     </g>
    </g>
    <g id="line2d_39">
     <path d="M 789.959375 82.610938 
L 799.959375 82.610938 
L 809.959375 82.610938 
" style="fill: none; stroke: #70318f; stroke-width: 1.5; stroke-linecap: square"/>
    </g>
    <g id="text_18">
     <!-- S/C 4 -->
     <g transform="translate(817.959375 86.110938) scale(0.1 -0.1)">
      <defs>
       <path id="DejaVuSans-34" d="M 2419 4116 
L 825 1625 
L 2419 1625 
L 2419 4116 
z
M 2253 4666 
L 3047 4666 
L 3047 1625 
L 3713 1625 
L 3713 1100 
L 3047 1100 
L 3047 0 
L 2419 0 
L 2419 1100 
L 313 1100 
L 313 1709 
L 2253 4666 
z
" transform="scale(0.015625)"/>
      </defs>
      <use xlink:href="#DejaVuSans-53"/>
      <use xlink:href="#DejaVuSans-2f" transform="translate(63.476562 0)"/>
      <use xlink:href="#DejaVuSans-43" transform="translate(97.167969 0)"/>
      <use xlink:href="#DejaVuSans-20" transform="translate(166.992188 0)"/>
      <use xlink:href="#DejaVuSans-34" transform="translate(198.779297 0)"/>
     </g>
    </g>
    <g id="line2d_40">
     <path d="M 789.959375 97.289063 
L 799.959375 97.289063 
L 809.959375 97.289063 
" style="fill: none; stroke: #802f83; stroke-width: 1.5; stroke-linecap: square"/>
    </g>
    <g id="text_19">
     <!-- S/C 5 -->
     <g transform="translate(817.959375 100.789063) scale(0.1 -0.1)">
      <use xlink:href="#DejaVuSans-53"/>
      <use xlink:href="#DejaVuSans-2f" transform="translate(63.476562 0)"/>
      <use xlink:href="#DejaVuSans-43" transform="translate(97.167969 0)"/>
      <use xlink:href="#DejaVuSans-20" transform="translate(166.992188 0)"/>
      <use xlink:href="#DejaVuSans-35" transform="translate(198.779297 0)"/>
     </g>
    </g>
    <g id="line2d_41">
     <path d="M 789.959375 111.967188 
L 799.959375 111.967188 
L 809.959375 111.967188 
" style="fill: none; stroke: #8f2d78; stroke-width: 1.5; stroke-linecap: square"/>
    </g>
    <g id="text_20">
     <!-- S/C 6 -->
     <g transform="translate(817.959375 115.467188) scale(0.1 -0.1)">
      <defs>
       <path id="DejaVuSans-36" d="M 2113 2584 
Q 1688 2584 1439 2293 
Q 1191 2003 1191 1497 
Q 1191 994 1439 701 
Q 1688 409 2113 409 
Q 2538 409 2786 701 
Q 3034 994 3034 1497 
Q 3034 2003 2786 2293 
Q 2538 2584 2113 2584 
z
M 3366 4563 
L 3366 3988 
Q 3128 4100 2886 4159 
Q 2644 4219 2406 4219 
Q 1781 4219 1451 3797 
Q 1122 3375 1075 2522 
Q 1259 2794 1537 2939 
Q 1816 3084 2150 3084 
Q 2853 3084 3261 2657 
Q 3669 2231 3669 1497 
Q 3669 778 3244 343 
Q 2819 -91 2113 -91 
Q 1303 -91 875 529 
Q 447 1150 447 2328 
Q 447 3434 972 4092 
Q 1497 4750 2381 4750 
Q 2619 4750 2861 4703 
Q 3103 4656 3366 4563 
z
" transform="scale(0.015625)"/>
      </defs>
      <use xlink:href="#DejaVuSans-53"/>
      <use xlink:href="#DejaVuSans-2f" transform="translate(63.476562 0)"/>
      <use xlink:href="#DejaVuSans-43" transform="translate(97.167969 0)"/>
      <use xlink:href="#DejaVuSans-20" transform="translate(166.992188 0)"/>
      <use xlink:href="#DejaVuSans-36" transform="translate(198.779297 0)"/>
     </g>
    </g>
    <g id="line2d_42">
     <path d="M 789.959375 126.645313 
L 799.959375 126.645313 
L 809.959375 126.645313 
" style="fill: none; stroke: #9f2a6b; stroke-width: 1.5; stroke-linecap: square"/>
    </g>
    <g id="text_21">
     <!-- S/C 7 -->
     <g transform="translate(817.959375 130.145313) scale(0.1 -0.1)">
      <defs>
       <path id="DejaVuSans-37" d="M 525 4666 
L 3525 4666 
L 3525 4397 
L 1831 0 
L 1172 0 
L 2766 4134 
L 525 4134 
L 525 4666 
z
" transform="scale(0.015625)"/>
      </defs>
      <use xlink:href="#DejaVuSans-53"/>
      <use xlink:href="#DejaVuSans-2f" transform="translate(63.476562 0)"/>
      <use xlink:href="#DejaVuSans-43" transform="translate(97.167969 0)"/>
      <use xlink:href="#DejaVuSans-20" transform="translate(166.992188 0)"/>
      <use xlink:href="#DejaVuSans-37" transform="translate(198.779297 0)"/>
     </g>
    </g>
    <g id="line2d_43">
     <path d="M 789.959375 141.323438 
L 799.959375 141.323438 
L 809.959375 141.323438 
" style="fill: none; stroke: #af285f; stroke-width: 1.5; stroke-linecap: square"/>
    </g>
    <g id="text_22">
     <!-- S/C 8 -->
     <g transform="translate(817.959375 144.823438) scale(0.1 -0.1)">
      <defs>
       <path id="DejaVuSans-38" d="M 2034 2216 
Q 1584 2216 1326 1975 
Q 1069 1734 1069 1313 
Q 1069 891 1326 650 
Q 1584 409 2034 409 
Q 2484 409 2743 651 
Q 3003 894 3003 1313 
Q 3003 1734 2745 1975 
Q 2488 2216 2034 2216 
z
M 1403 2484 
Q 997 2584 770 2862 
Q 544 3141 544 3541 
Q 544 4100 942 4425 
Q 1341 4750 2034 4750 
Q 2731 4750 3128 4425 
Q 3525 4100 3525 3541 
Q 3525 3141 3298 2862 
Q 3072 2584 2669 2484 
Q 3125 2378 3379 2068 
Q 3634 1759 3634 1313 
Q 3634 634 3220 271 
Q 2806 -91 2034 -91 
Q 1263 -91 848 271 
Q 434 634 434 1313 
Q 434 1759 690 2068 
Q 947 2378 1403 2484 
z
M 1172 3481 
Q 1172 3119 1398 2916 
Q 1625 2713 2034 2713 
Q 2441 2713 2670 2916 
Q 2900 3119 2900 3481 
Q 2900 3844 2670 4047 
Q 2441 4250 2034 4250 
Q 1625 4250 1398 4047 
Q 1172 3844 1172 3481 
z
" transform="scale(0.015625)"/>
      </defs>
      <use xlink:href="#DejaVuSans-53"/>
      <use xlink:href="#DejaVuSans-2f" transform="translate(63.476562 0)"/>
      <use xlink:href="#DejaVuSans-43" transform="translate(97.167969 0)"/>
      <use xlink:href="#DejaVuSans-20" transform="translate(166.992188 0)"/>
      <use xlink:href="#DejaVuSans-38" transform="translate(198.779297 0)"/>
     </g>
    </g>
    <g id="line2d_44">
     <path d="M 789.959375 156.001563 
L 799.959375 156.001563 
L 809.959375 156.001563 
" style="fill: none; stroke: #bf2552; stroke-width: 1.5; stroke-linecap: square"/>
    </g>
    <g id="text_23">
     <!-- S/C 9 -->
     <g transform="translate(817.959375 159.501563) scale(0.1 -0.1)">
      <defs>
       <path id="DejaVuSans-39" d="M 703 97 
L 703 672 
Q 941 559 1184 500 
Q 1428 441 1663 441 
Q 2288 441 2617 861 
Q 2947 1281 2994 2138 
Q 2813 1869 2534 1725 
Q 2256 1581 1919 1581 
Q 1219 1581 811 2004 
Q 403 2428 403 3163 
Q 403 3881 828 4315 
Q 1253 4750 1959 4750 
Q 2769 4750 3195 4129 
Q 3622 3509 3622 2328 
Q 3622 1225 3098 567 
Q 2575 -91 1691 -91 
Q 1453 -91 1209 -44 
Q 966 3 703 97 
z
M 1959 2075 
Q 2384 2075 2632 2365 
Q 2881 2656 2881 3163 
Q 2881 3666 2632 3958 
Q 2384 4250 1959 4250 
Q 1534 4250 1286 3958 
Q 1038 3666 1038 3163 
Q 1038 2656 1286 2365 
Q 1534 2075 1959 2075 
z
" transform="scale(0.015625)"/>
      </defs>
      <use xlink:href="#DejaVuSans-53"/>
      <use xlink:href="#DejaVuSans-2f" transform="translate(63.476562 0)"/>
      <use xlink:href="#DejaVuSans-43" transform="translate(97.167969 0)"/>
      <use xlink:href="#DejaVuSans-20" transform="translate(166.992188 0)"/>
      <use xlink:href="#DejaVuSans-39" transform="translate(198.779297 0)"/>
     </g>
    </g>
   </g>
  </g>
  <g id="axes_2">
   <g id="patch_8">
    <path d="M 47.81 534.04 
L 853.2 534.04 
L 853.2 286.36 
L 47.81 286.36 
z
" style="fill: #ffffff"/>
   </g>
   <g id="matplotlib.axis_3">
    <g id="xtick_6">
     <g id="line2d_45">
      <path d="M 84.418636 534.04 
L 84.418636 286.36 
" clip-path="url(#p5d53d04eb2)" style="fill: none; stroke: #b0b0b0; stroke-width: 0.8; stroke-linecap: square"/>
     </g>
     <g id="line2d_46">
      <g>
       <use xlink:href="#m5a8bf23ce3" x="84.418636" y="534.04" style="stroke: #000000; stroke-width: 0.8"/>
      </g>
     </g>
     <g id="text_24">
      <!-- 0 -->
      <g transform="translate(81.237386 548.638438) scale(0.1 -0.1)">
       <use xlink:href="#DejaVuSans-30"/>
      </g>
     </g>
    </g>
    <g id="xtick_7">
     <g id="line2d_47">
      <path d="M 262.769704 534.04 
L 262.769704 286.36 
" clip-path="url(#p5d53d04eb2)" style="fill: none; stroke: #b0b0b0; stroke-width: 0.8; stroke-linecap: square"/>
     </g>
     <g id="line2d_48">
      <g>
       <use xlink:href="#m5a8bf23ce3" x="262.769704" y="534.04" style="stroke: #000000; stroke-width: 0.8"/>
      </g>
     </g>
     <g id="text_25">
      <!-- 5 -->
      <g transform="translate(259.588454 548.638438) scale(0.1 -0.1)">
       <use xlink:href="#DejaVuSans-35"/>
      </g>
     </g>
    </g>
    <g id="xtick_8">
     <g id="line2d_49">
      <path d="M 441.120772 534.04 
L 441.120772 286.36 
" clip-path="url(#p5d53d04eb2)" style="fill: none; stroke: #b0b0b0; stroke-width: 0.8; stroke-linecap: square"/>
     </g>
     <g id="line2d_50">
      <g>
       <use xlink:href="#m5a8bf23ce3" x="441.120772" y="534.04" style="stroke: #000000; stroke-width: 0.8"/>
      </g>
     </g>
     <g id="text_26">
      <!-- 10 -->
      <g transform="translate(434.758272 548.638438) scale(0.1 -0.1)">
       <use xlink:href="#DejaVuSans-31"/>
       <use xlink:href="#DejaVuSans-30" transform="translate(63.623047 0)"/>
      </g>
     </g>
    </g>
    <g id="xtick_9">
     <g id="line2d_51">
      <path d="M 619.47184 534.04 
L 619.47184 286.36 
" clip-path="url(#p5d53d04eb2)" style="fill: none; stroke: #b0b0b0; stroke-width: 0.8; stroke-linecap: square"/>
     </g>
     <g id="line2d_52">
      <g>
       <use xlink:href="#m5a8bf23ce3" x="619.47184" y="534.04" style="stroke: #000000; stroke-width: 0.8"/>
      </g>
     </g>
     <g id="text_27">
      <!-- 15 -->
      <g transform="translate(613.10934 548.638438) scale(0.1 -0.1)">
       <use xlink:href="#DejaVuSans-31"/>
       <use xlink:href="#DejaVuSans-35" transform="translate(63.623047 0)"/>
      </g>
     </g>
    </g>
    <g id="xtick_10">
     <g id="line2d_53">
      <path d="M 797.822907 534.04 
L 797.822907 286.36 
" clip-path="url(#p5d53d04eb2)" style="fill: none; stroke: #b0b0b0; stroke-width: 0.8; stroke-linecap: square"/>
     </g>
     <g id="line2d_54">
      <g>
       <use xlink:href="#m5a8bf23ce3" x="797.822907" y="534.04" style="stroke: #000000; stroke-width: 0.8"/>
      </g>
     </g>
     <g id="text_28">
      <!-- 20 -->
      <g transform="translate(791.460407 548.638438) scale(0.1 -0.1)">
       <use xlink:href="#DejaVuSans-32"/>
       <use xlink:href="#DejaVuSans-30" transform="translate(63.623047 0)"/>
      </g>
     </g>
    </g>
    <g id="text_29">
     <!-- Time (ND) -->
     <g transform="translate(425.190156 562.316562) scale(0.1 -0.1)">
      <defs>
       <path id="DejaVuSans-54" d="M -19 4666 
L 3928 4666 
L 3928 4134 
L 2272 4134 
L 2272 0 
L 1638 0 
L 1638 4134 
L -19 4134 
L -19 4666 
z
" transform="scale(0.015625)"/>
       <path id="DejaVuSans-69" d="M 603 3500 
L 1178 3500 
L 1178 0 
L 603 0 
L 603 3500 
z
M 603 4863 
L 1178 4863 
L 1178 4134 
L 603 4134 
L 603 4863 
z
" transform="scale(0.015625)"/>
       <path id="DejaVuSans-6d" d="M 3328 2828 
Q 3544 3216 3844 3400 
Q 4144 3584 4550 3584 
Q 5097 3584 5394 3201 
Q 5691 2819 5691 2113 
L 5691 0 
L 5113 0 
L 5113 2094 
Q 5113 2597 4934 2840 
Q 4756 3084 4391 3084 
Q 3944 3084 3684 2787 
Q 3425 2491 3425 1978 
L 3425 0 
L 2847 0 
L 2847 2094 
Q 2847 2600 2669 2842 
Q 2491 3084 2119 3084 
Q 1678 3084 1418 2786 
Q 1159 2488 1159 1978 
L 1159 0 
L 581 0 
L 581 3500 
L 1159 3500 
L 1159 2956 
Q 1356 3278 1631 3431 
Q 1906 3584 2284 3584 
Q 2666 3584 2933 3390 
Q 3200 3197 3328 2828 
z
" transform="scale(0.015625)"/>
       <path id="DejaVuSans-4e" d="M 628 4666 
L 1478 4666 
L 3547 763 
L 3547 4666 
L 4159 4666 
L 4159 0 
L 3309 0 
L 1241 3903 
L 1241 0 
L 628 0 
L 628 4666 
z
" transform="scale(0.015625)"/>
       <path id="DejaVuSans-44" d="M 1259 4147 
L 1259 519 
L 2022 519 
Q 2988 519 3436 956 
Q 3884 1394 3884 2338 
Q 3884 3275 3436 3711 
Q 2988 4147 2022 4147 
L 1259 4147 
z
M 628 4666 
L 1925 4666 
Q 3281 4666 3915 4102 
Q 4550 3538 4550 2338 
Q 4550 1131 3912 565 
Q 3275 0 1925 0 
L 628 0 
L 628 4666 
z
" transform="scale(0.015625)"/>
      </defs>
      <use xlink:href="#DejaVuSans-54"/>
      <use xlink:href="#DejaVuSans-69" transform="translate(57.958984 0)"/>
      <use xlink:href="#DejaVuSans-6d" transform="translate(85.742188 0)"/>
      <use xlink:href="#DejaVuSans-65" transform="translate(183.154297 0)"/>
      <use xlink:href="#DejaVuSans-20" transform="translate(244.677734 0)"/>
      <use xlink:href="#DejaVuSans-28" transform="translate(276.464844 0)"/>
      <use xlink:href="#DejaVuSans-4e" transform="translate(315.478516 0)"/>
      <use xlink:href="#DejaVuSans-44" transform="translate(390.283203 0)"/>
      <use xlink:href="#DejaVuSans-29" transform="translate(467.285156 0)"/>
     </g>
    </g>
   </g>
   <g id="matplotlib.axis_4">
    <g id="ytick_8">
     <g id="line2d_55">
      <path d="M 47.81 517.126665 
L 853.2 517.126665 
" clip-path="url(#p5d53d04eb2)" style="fill: none; stroke: #b0b0b0; stroke-width: 0.8; stroke-linecap: square"/>
     </g>
     <g id="line2d_56">
      <g>
       <use xlink:href="#m7e6079e2ea" x="47.81" y="517.126665" style="stroke: #000000; stroke-width: 0.8"/>
      </g>
     </g>
     <g id="text_30">
      <!-- 0.2 -->
      <g transform="translate(24.906875 520.925884) scale(0.1 -0.1)">
       <use xlink:href="#DejaVuSans-30"/>
       <use xlink:href="#DejaVuSans-2e" transform="translate(63.623047 0)"/>
       <use xlink:href="#DejaVuSans-32" transform="translate(95.410156 0)"/>
      </g>
     </g>
    </g>
    <g id="ytick_9">
     <g id="line2d_57">
      <path d="M 47.81 462.249544 
L 853.2 462.249544 
" clip-path="url(#p5d53d04eb2)" style="fill: none; stroke: #b0b0b0; stroke-width: 0.8; stroke-linecap: square"/>
     </g>
     <g id="line2d_58">
      <g>
       <use xlink:href="#m7e6079e2ea" x="47.81" y="462.249544" style="stroke: #000000; stroke-width: 0.8"/>
      </g>
     </g>
     <g id="text_31">
      <!-- 0.4 -->
      <g transform="translate(24.906875 466.048763) scale(0.1 -0.1)">
       <use xlink:href="#DejaVuSans-30"/>
       <use xlink:href="#DejaVuSans-2e" transform="translate(63.623047 0)"/>
       <use xlink:href="#DejaVuSans-34" transform="translate(95.410156 0)"/>
      </g>
     </g>
    </g>
    <g id="ytick_10">
     <g id="line2d_59">
      <path d="M 47.81 407.372423 
L 853.2 407.372423 
" clip-path="url(#p5d53d04eb2)" style="fill: none; stroke: #b0b0b0; stroke-width: 0.8; stroke-linecap: square"/>
     </g>
     <g id="line2d_60">
      <g>
       <use xlink:href="#m7e6079e2ea" x="47.81" y="407.372423" style="stroke: #000000; stroke-width: 0.8"/>
      </g>
     </g>
     <g id="text_32">
      <!-- 0.6 -->
      <g transform="translate(24.906875 411.171642) scale(0.1 -0.1)">
       <use xlink:href="#DejaVuSans-30"/>
       <use xlink:href="#DejaVuSans-2e" transform="translate(63.623047 0)"/>
       <use xlink:href="#DejaVuSans-36" transform="translate(95.410156 0)"/>
      </g>
     </g>
    </g>
    <g id="ytick_11">
     <g id="line2d_61">
      <path d="M 47.81 352.495303 
L 853.2 352.495303 
" clip-path="url(#p5d53d04eb2)" style="fill: none; stroke: #b0b0b0; stroke-width: 0.8; stroke-linecap: square"/>
     </g>
     <g id="line2d_62">
      <g>
       <use xlink:href="#m7e6079e2ea" x="47.81" y="352.495303" style="stroke: #000000; stroke-width: 0.8"/>
      </g>
     </g>
     <g id="text_33">
      <!-- 0.8 -->
      <g transform="translate(24.906875 356.294521) scale(0.1 -0.1)">
       <use xlink:href="#DejaVuSans-30"/>
       <use xlink:href="#DejaVuSans-2e" transform="translate(63.623047 0)"/>
       <use xlink:href="#DejaVuSans-38" transform="translate(95.410156 0)"/>
      </g>
     </g>
    </g>
    <g id="ytick_12">
     <g id="line2d_63">
      <path d="M 47.81 297.618182 
L 853.2 297.618182 
" clip-path="url(#p5d53d04eb2)" style="fill: none; stroke: #b0b0b0; stroke-width: 0.8; stroke-linecap: square"/>
     </g>
     <g id="line2d_64">
      <g>
       <use xlink:href="#m7e6079e2ea" x="47.81" y="297.618182" style="stroke: #000000; stroke-width: 0.8"/>
      </g>
     </g>
     <g id="text_34">
      <!-- 1.0 -->
      <g transform="translate(24.906875 301.417401) scale(0.1 -0.1)">
       <use xlink:href="#DejaVuSans-31"/>
       <use xlink:href="#DejaVuSans-2e" transform="translate(63.623047 0)"/>
       <use xlink:href="#DejaVuSans-30" transform="translate(95.410156 0)"/>
      </g>
     </g>
    </g>
    <g id="text_35">
     <!-- Control Magnitude -->
     <g transform="translate(18.827187 456.35) rotate(-90) scale(0.1 -0.1)">
      <defs>
       <path id="DejaVuSans-6f" d="M 1959 3097 
Q 1497 3097 1228 2736 
Q 959 2375 959 1747 
Q 959 1119 1226 758 
Q 1494 397 1959 397 
Q 2419 397 2687 759 
Q 2956 1122 2956 1747 
Q 2956 2369 2687 2733 
Q 2419 3097 1959 3097 
z
M 1959 3584 
Q 2709 3584 3137 3096 
Q 3566 2609 3566 1747 
Q 3566 888 3137 398 
Q 2709 -91 1959 -91 
Q 1206 -91 779 398 
Q 353 888 353 1747 
Q 353 2609 779 3096 
Q 1206 3584 1959 3584 
z
" transform="scale(0.015625)"/>
       <path id="DejaVuSans-74" d="M 1172 4494 
L 1172 3500 
L 2356 3500 
L 2356 3053 
L 1172 3053 
L 1172 1153 
Q 1172 725 1289 603 
Q 1406 481 1766 481 
L 2356 481 
L 2356 0 
L 1766 0 
Q 1100 0 847 248 
Q 594 497 594 1153 
L 594 3053 
L 172 3053 
L 172 3500 
L 594 3500 
L 594 4494 
L 1172 4494 
z
" transform="scale(0.015625)"/>
       <path id="DejaVuSans-4d" d="M 628 4666 
L 1569 4666 
L 2759 1491 
L 3956 4666 
L 4897 4666 
L 4897 0 
L 4281 0 
L 4281 4097 
L 3078 897 
L 2444 897 
L 1241 4097 
L 1241 0 
L 628 0 
L 628 4666 
z
" transform="scale(0.015625)"/>
       <path id="DejaVuSans-75" d="M 544 1381 
L 544 3500 
L 1119 3500 
L 1119 1403 
Q 1119 906 1312 657 
Q 1506 409 1894 409 
Q 2359 409 2629 706 
Q 2900 1003 2900 1516 
L 2900 3500 
L 3475 3500 
L 3475 0 
L 2900 0 
L 2900 538 
Q 2691 219 2414 64 
Q 2138 -91 1772 -91 
Q 1169 -91 856 284 
Q 544 659 544 1381 
z
M 1991 3584 
L 1991 3584 
z
" transform="scale(0.015625)"/>
      </defs>
      <use xlink:href="#DejaVuSans-43"/>
      <use xlink:href="#DejaVuSans-6f" transform="translate(69.824219 0)"/>
      <use xlink:href="#DejaVuSans-6e" transform="translate(131.005859 0)"/>
      <use xlink:href="#DejaVuSans-74" transform="translate(194.384766 0)"/>
      <use xlink:href="#DejaVuSans-72" transform="translate(233.59375 0)"/>
      <use xlink:href="#DejaVuSans-6f" transform="translate(272.457031 0)"/>
      <use xlink:href="#DejaVuSans-6c" transform="translate(333.638672 0)"/>
      <use xlink:href="#DejaVuSans-20" transform="translate(361.421875 0)"/>
      <use xlink:href="#DejaVuSans-4d" transform="translate(393.208984 0)"/>
      <use xlink:href="#DejaVuSans-61" transform="translate(479.488281 0)"/>
      <use xlink:href="#DejaVuSans-67" transform="translate(540.767578 0)"/>
      <use xlink:href="#DejaVuSans-6e" transform="translate(604.244141 0)"/>
      <use xlink:href="#DejaVuSans-69" transform="translate(667.623047 0)"/>
      <use xlink:href="#DejaVuSans-74" transform="translate(695.40625 0)"/>
      <use xlink:href="#DejaVuSans-75" transform="translate(734.615234 0)"/>
      <use xlink:href="#DejaVuSans-64" transform="translate(797.994141 0)"/>
      <use xlink:href="#DejaVuSans-65" transform="translate(861.470703 0)"/>
     </g>
    </g>
   </g>
   <g id="line2d_65">
    <path d="M 84.418636 297.618182 
L 816.591364 297.618182 
L 816.591364 297.618182 
" clip-path="url(#p5d53d04eb2)" style="fill: none; stroke: #303bc1; stroke-width: 1.5; stroke-linecap: square"/>
   </g>
   <g id="line2d_66">
    <path d="M 84.418636 356.042762 
L 89.299788 356.042762 
L 94.180939 357.453806 
L 99.062091 357.453806 
L 103.943242 358.565723 
L 108.824394 358.565723 
L 113.705545 359.980422 
L 118.586697 359.980422 
L 123.467848 361.53194 
L 128.349 361.53194 
L 133.230152 363.100545 
L 138.111303 363.100545 
L 142.992455 364.625382 
L 147.873606 364.625382 
L 152.754758 366.065644 
L 157.635909 366.065644 
L 162.517061 367.392437 
L 167.398212 367.392437 
L 172.279364 368.592174 
L 177.160515 368.592174 
L 182.041667 369.670918 
L 186.922818 369.670918 
L 191.80397 370.656973 
L 196.685121 370.656973 
L 201.566273 371.601541 
L 206.447424 371.601541 
L 211.328576 372.576973 
L 216.209727 372.576973 
L 221.090879 373.671205 
L 225.97203 373.671205 
L 230.853182 374.978271 
L 235.734333 374.978271 
L 240.615485 376.5877 
L 245.496636 376.5877 
L 250.377788 378.57582 
L 255.258939 378.57582 
L 260.140091 380.998584 
L 265.021242 380.998584 
L 269.902394 383.880722 
L 274.783545 383.880722 
L 279.664697 387.209451 
L 284.545848 387.209451 
L 289.427 390.941534 
L 294.308152 390.941534 
L 299.189303 395.015809 
L 304.070455 395.015809 
L 308.951606 399.379661 
L 313.832758 399.379661 
L 318.713909 403.999967 
L 323.595061 403.999967 
L 328.476212 408.845859 
L 333.357364 408.845859 
L 338.238515 413.85868 
L 343.119667 413.85868 
L 348.000818 418.93545 
L 352.88197 418.93545 
L 357.763121 423.955305 
L 362.644273 423.955305 
L 367.525424 428.774314 
L 372.406576 428.774314 
L 377.287727 433.308054 
L 382.168879 433.308054 
L 387.05003 437.632468 
L 391.931182 437.632468 
L 396.812333 441.935847 
L 401.693485 441.935847 
L 406.574636 446.336045 
L 411.455788 446.336045 
L 416.336939 488.374042 
L 421.218091 488.374042 
L 426.099242 469.262917 
L 430.980394 469.262917 
L 435.861545 478.637856 
L 440.742697 478.637856 
L 445.623848 492.529211 
L 450.505 492.529211 
L 455.386152 503.290528 
L 460.267303 503.290528 
L 465.148455 509.671813 
L 470.029606 509.671813 
L 474.910758 510.457419 
L 479.791909 510.457419 
L 484.673061 506.755395 
L 489.554212 506.755395 
L 494.435364 499.377298 
L 499.316515 499.377298 
L 504.197667 491.994196 
L 509.078818 491.994196 
L 513.95997 483.943885 
L 518.841121 483.943885 
L 523.722273 475.862306 
L 528.603424 475.862306 
L 533.484576 466.90452 
L 538.365727 466.90452 
L 543.246879 458.770921 
L 548.12803 458.770921 
L 553.009182 451.354498 
L 557.890333 451.354498 
L 562.771485 444.775573 
L 567.652636 444.775573 
L 572.533788 439.08965 
L 577.414939 439.08965 
L 582.296091 434.206744 
L 587.177242 434.206744 
L 592.058394 429.988909 
L 596.939545 429.988909 
L 601.820697 426.268679 
L 606.701848 426.268679 
L 611.583 422.879784 
L 616.464152 422.879784 
L 621.345303 419.686952 
L 626.226455 419.686952 
L 631.107606 416.583296 
L 635.988758 416.583296 
L 640.869909 413.459394 
L 645.751061 413.459394 
L 650.632212 410.188515 
L 655.513364 410.188515 
L 660.394515 406.655247 
L 665.275667 406.655247 
L 670.156818 402.79743 
L 675.03797 402.79743 
L 679.919121 398.636046 
L 684.800273 398.636046 
L 689.681424 394.270132 
L 694.562576 394.270132 
L 699.443727 389.84129 
L 704.324879 389.84129 
L 709.20603 385.502219 
L 714.087182 385.502219 
L 718.968333 381.388267 
L 723.849485 381.388267 
L 728.730636 377.599032 
L 733.611788 377.599032 
L 738.492939 374.195306 
L 743.374091 374.195306 
L 748.255242 371.200293 
L 753.136394 371.200293 
L 758.017545 368.604201 
L 762.898697 368.604201 
L 767.779848 366.374421 
L 772.661 366.374421 
L 777.542152 364.465599 
L 782.423303 364.465599 
L 787.304455 362.821138 
L 792.185606 362.821138 
L 797.066758 361.372141 
L 801.947909 361.372141 
L 806.829061 360.049461 
L 816.591364 360.049461 
L 816.591364 360.049461 
" clip-path="url(#p5d53d04eb2)" style="fill: none; stroke: #4039b5; stroke-width: 1.5; stroke-linecap: square"/>
   </g>
   <g id="line2d_67">
    <path d="M 84.418636 405.001295 
L 89.299788 405.001295 
L 94.180939 407.925087 
L 99.062091 407.925087 
L 103.943242 410.808325 
L 108.824394 410.808325 
L 113.705545 413.562153 
L 118.586697 413.562153 
L 123.467848 416.094116 
L 128.349 416.094116 
L 133.230152 418.319374 
L 138.111303 418.319374 
L 142.992455 420.177643 
L 147.873606 420.177643 
L 152.754758 421.646567 
L 157.635909 421.646567 
L 162.517061 422.745488 
L 167.398212 422.745488 
L 172.279364 423.532362 
L 177.160515 423.532362 
L 182.041667 424.098961 
L 186.922818 424.098961 
L 191.80397 424.566117 
L 196.685121 424.566117 
L 201.566273 425.072039 
L 206.447424 425.072039 
L 211.328576 425.75942 
L 216.209727 425.75942 
L 221.090879 426.758356 
L 225.97203 426.758356 
L 230.853182 428.219281 
L 235.734333 428.219281 
L 240.615485 430.438102 
L 245.496636 430.438102 
L 250.377788 433.556493 
L 255.258939 433.556493 
L 260.140091 437.452443 
L 265.021242 437.452443 
L 269.902394 442.152579 
L 274.783545 442.152579 
L 279.664697 447.691786 
L 284.545848 447.691786 
L 289.427 453.886161 
L 294.308152 453.886161 
L 299.189303 460.264508 
L 304.070455 460.264508 
L 308.951606 466.238748 
L 313.832758 466.238748 
L 318.713909 471.381792 
L 323.595061 471.381792 
L 328.476212 475.486006 
L 333.357364 475.486006 
L 338.238515 478.557199 
L 343.119667 478.557199 
L 348.000818 481.209521 
L 352.88197 481.209521 
L 357.763121 482.580522 
L 362.644273 482.580522 
L 367.525424 485.921152 
L 372.406576 485.921152 
L 377.287727 495.107189 
L 382.168879 495.107189 
L 387.05003 486.321671 
L 391.931182 486.321671 
L 396.812333 490.365448 
L 401.693485 490.365448 
L 406.574636 491.209227 
L 411.455788 491.209227 
L 416.336939 492.225338 
L 421.218091 492.225338 
L 426.099242 494.005232 
L 430.980394 494.005232 
L 435.861545 495.454538 
L 440.742697 495.454538 
L 445.623848 497.373063 
L 450.505 497.373063 
L 455.386152 499.278676 
L 460.267303 499.278676 
L 465.148455 500.661377 
L 470.029606 500.661377 
L 474.910758 501.339312 
L 479.791909 501.339312 
L 484.673061 501.187676 
L 489.554212 501.187676 
L 494.435364 500.287279 
L 499.316515 500.287279 
L 504.197667 498.814883 
L 509.078818 498.814883 
L 513.95997 496.938326 
L 518.841121 496.938326 
L 523.722273 494.914362 
L 528.603424 494.914362 
L 533.484576 492.998822 
L 538.365727 492.998822 
L 543.246879 491.423711 
L 548.12803 491.423711 
L 553.009182 490.143782 
L 557.890333 490.143782 
L 562.771485 489.264817 
L 567.652636 489.264817 
L 572.533788 488.600613 
L 577.414939 488.600613 
L 582.296091 487.779187 
L 587.177242 487.779187 
L 592.058394 486.684617 
L 596.939545 486.684617 
L 601.820697 485.518557 
L 606.701848 485.518557 
L 611.583 484.633542 
L 616.464152 484.633542 
L 621.345303 483.711232 
L 626.226455 483.711232 
L 631.107606 482.547358 
L 635.988758 482.547358 
L 640.869909 480.883153 
L 645.751061 480.883153 
L 650.632212 478.546702 
L 655.513364 478.546702 
L 660.394515 475.497764 
L 665.275667 475.497764 
L 670.156818 471.820483 
L 675.03797 471.820483 
L 679.919121 467.639298 
L 684.800273 467.639298 
L 689.681424 463.024696 
L 694.562576 463.024696 
L 699.443727 458.057277 
L 704.324879 458.057277 
L 709.20603 452.834729 
L 714.087182 452.834729 
L 718.968333 447.447539 
L 723.849485 447.447539 
L 728.730636 441.979234 
L 733.611788 441.979234 
L 738.492939 436.526919 
L 743.374091 436.526919 
L 748.255242 431.213158 
L 753.136394 431.213158 
L 758.017545 426.170668 
L 762.898697 426.170668 
L 767.779848 421.562151 
L 772.661 421.562151 
L 777.542152 417.479607 
L 782.423303 417.479607 
L 787.304455 413.933672 
L 792.185606 413.933672 
L 797.066758 410.87803 
L 801.947909 410.87803 
L 806.829061 408.451534 
L 816.591364 408.451534 
L 816.591364 408.451534 
" clip-path="url(#p5d53d04eb2)" style="fill: none; stroke: #5036a8; stroke-width: 1.5; stroke-linecap: square"/>
   </g>
   <g id="line2d_68">
    <path d="M 84.418636 476.087855 
L 89.299788 476.087855 
L 94.180939 478.746651 
L 99.062091 478.746651 
L 103.943242 481.520532 
L 108.824394 481.520532 
L 113.705545 484.24954 
L 118.586697 484.24954 
L 123.467848 486.750746 
L 128.349 486.750746 
L 133.230152 488.873091 
L 138.111303 488.873091 
L 142.992455 490.517022 
L 147.873606 490.517022 
L 152.754758 491.651162 
L 157.635909 491.651162 
L 162.517061 492.317683 
L 167.398212 492.317683 
L 172.279364 492.629052 
L 196.685121 492.622433 
L 201.566273 491.209609 
L 206.447424 491.209609 
L 211.328576 484.187789 
L 216.209727 484.187789 
L 221.090879 501.504331 
L 225.97203 501.504331 
L 230.853182 497.29789 
L 235.734333 497.29789 
L 240.615485 503.138508 
L 245.496636 503.138508 
L 250.377788 500.051169 
L 255.258939 500.051169 
L 260.140091 486.456101 
L 265.021242 486.456101 
L 269.902394 483.228051 
L 274.783545 483.228051 
L 279.664697 486.72602 
L 284.545848 486.72602 
L 289.427 489.671903 
L 294.308152 489.671903 
L 299.189303 490.787757 
L 304.070455 490.787757 
L 308.951606 491.381608 
L 313.832758 491.381608 
L 318.713909 491.790125 
L 323.595061 491.790125 
L 328.476212 492.108939 
L 333.357364 492.108939 
L 338.238515 492.66817 
L 343.119667 492.66817 
L 348.000818 493.728076 
L 352.88197 493.728076 
L 357.763121 494.544893 
L 362.644273 494.544893 
L 367.525424 491.493098 
L 372.406576 491.493098 
L 377.287727 486.815564 
L 382.168879 486.815564 
L 387.05003 487.814458 
L 391.931182 487.814458 
L 396.812333 487.322206 
L 401.693485 487.322206 
L 406.574636 486.948015 
L 411.455788 486.948015 
L 416.336939 486.547554 
L 421.218091 486.547554 
L 426.099242 486.030364 
L 430.980394 486.030364 
L 435.861545 485.431867 
L 450.505 485.405205 
L 455.386152 486.719554 
L 460.267303 486.719554 
L 465.148455 484.946391 
L 470.029606 484.946391 
L 474.910758 484.623626 
L 479.791909 484.623626 
L 484.673061 485.792601 
L 489.554212 485.792601 
L 494.435364 500.223748 
L 499.316515 500.223748 
L 504.197667 489.093453 
L 509.078818 489.093453 
L 513.95997 489.411704 
L 518.841121 489.411704 
L 523.722273 491.467869 
L 528.603424 491.467869 
L 533.484576 507.077335 
L 538.365727 507.077335 
L 543.246879 501.078015 
L 548.12803 501.078015 
L 553.009182 496.814081 
L 557.890333 496.814081 
L 562.771485 498.55864 
L 567.652636 498.55864 
L 572.533788 499.12458 
L 577.414939 499.12458 
L 582.296091 498.769127 
L 587.177242 498.769127 
L 592.058394 497.894157 
L 596.939545 497.894157 
L 601.820697 496.871384 
L 606.701848 496.871384 
L 611.583 495.904413 
L 616.464152 495.904413 
L 621.345303 495.14306 
L 626.226455 495.14306 
L 631.107606 494.616637 
L 635.988758 494.616637 
L 640.869909 494.09898 
L 645.751061 494.09898 
L 650.632212 493.430555 
L 655.513364 493.430555 
L 660.394515 492.514759 
L 665.275667 492.514759 
L 670.156818 491.258671 
L 675.03797 491.258671 
L 679.919121 489.604286 
L 684.800273 489.604286 
L 689.681424 487.516096 
L 694.562576 487.516096 
L 699.443727 484.953131 
L 704.324879 484.953131 
L 709.20603 481.840313 
L 714.087182 481.840313 
L 718.968333 478.070141 
L 723.849485 478.070141 
L 728.730636 473.535498 
L 733.611788 473.535498 
L 738.492939 468.160639 
L 743.374091 468.160639 
L 748.255242 461.945891 
L 753.136394 461.945891 
L 758.017545 455.08208 
L 762.898697 455.08208 
L 767.779848 448.089893 
L 772.661 448.089893 
L 777.542152 441.559738 
L 782.423303 441.559738 
L 787.304455 435.64858 
L 792.185606 435.64858 
L 797.066758 430.395081 
L 801.947909 430.395081 
L 806.829061 426.553607 
L 816.591364 426.553607 
L 816.591364 426.553607 
" clip-path="url(#p5d53d04eb2)" style="fill: none; stroke: #60349c; stroke-width: 1.5; stroke-linecap: square"/>
   </g>
   <g id="line2d_69">
    <path d="M 84.418636 502.549685 
L 89.299788 502.549685 
L 94.180939 502.27682 
L 99.062091 502.27682 
L 103.943242 501.550582 
L 108.824394 501.550582 
L 113.705545 500.52302 
L 118.586697 500.52302 
L 123.467848 499.238601 
L 128.349 499.238601 
L 133.230152 498.190236 
L 138.111303 498.190236 
L 142.992455 497.244713 
L 147.873606 497.244713 
L 152.754758 496.485662 
L 157.635909 496.485662 
L 162.517061 495.918854 
L 167.398212 495.918854 
L 172.279364 495.491115 
L 177.160515 495.491115 
L 182.041667 495.180042 
L 186.922818 495.180042 
L 191.80397 494.94679 
L 196.685121 494.94679 
L 201.566273 494.761857 
L 206.447424 494.761857 
L 211.328576 494.610648 
L 216.209727 494.610648 
L 221.090879 494.494932 
L 235.734333 494.421958 
L 255.258939 494.254608 
L 260.140091 494.760195 
L 265.021242 494.760195 
L 269.902394 494.897216 
L 284.545848 494.83636 
L 289.427 492.99952 
L 294.308152 492.99952 
L 299.189303 493.318153 
L 304.070455 493.318153 
L 308.951606 493.944257 
L 313.832758 493.944257 
L 318.713909 494.57176 
L 323.595061 494.57176 
L 328.476212 495.384056 
L 333.357364 495.384056 
L 338.238515 496.074659 
L 343.119667 496.074659 
L 348.000818 496.646329 
L 352.88197 496.646329 
L 357.763121 497.068911 
L 362.644273 497.068911 
L 367.525424 497.298873 
L 382.168879 497.38875 
L 387.05003 497.52858 
L 391.931182 497.52858 
L 396.812333 497.902523 
L 401.693485 497.902523 
L 406.574636 498.605294 
L 411.455788 498.605294 
L 416.336939 499.982635 
L 421.218091 499.982635 
L 426.099242 502.036717 
L 430.980394 502.036717 
L 435.861545 503.043641 
L 440.742697 503.043641 
L 445.623848 503.774392 
L 450.505 503.774392 
L 455.386152 503.462569 
L 460.267303 503.462569 
L 465.148455 501.594339 
L 470.029606 501.594339 
L 474.910758 501.779375 
L 479.791909 501.779375 
L 484.673061 500.016068 
L 489.554212 500.016068 
L 494.435364 498.867075 
L 499.316515 498.867075 
L 504.197667 498.396433 
L 509.078818 498.396433 
L 513.95997 499.153116 
L 518.841121 499.153116 
L 523.722273 501.49042 
L 528.603424 501.49042 
L 533.484576 501.717402 
L 538.365727 501.717402 
L 543.246879 493.933112 
L 548.12803 493.933112 
L 553.009182 492.9361 
L 557.890333 492.9361 
L 562.771485 493.456335 
L 567.652636 493.456335 
L 572.533788 494.660131 
L 577.414939 494.660131 
L 582.296091 496.58576 
L 587.177242 496.58576 
L 592.058394 498.833573 
L 596.939545 498.833573 
L 601.820697 500.532308 
L 606.701848 500.532308 
L 611.583 501.226231 
L 626.226455 501.331358 
L 631.107606 501.043106 
L 635.988758 501.043106 
L 640.869909 500.451354 
L 645.751061 500.451354 
L 650.632212 500.005726 
L 655.513364 500.005726 
L 660.394515 498.976479 
L 665.275667 498.976479 
L 670.156818 499.291949 
L 675.03797 499.291949 
L 679.919121 498.952997 
L 684.800273 498.952997 
L 689.681424 498.432325 
L 694.562576 498.432325 
L 699.443727 497.656399 
L 704.324879 497.656399 
L 709.20603 496.324967 
L 714.087182 496.324967 
L 718.968333 494.66174 
L 723.849485 494.66174 
L 728.730636 492.342328 
L 733.611788 492.342328 
L 738.492939 489.131097 
L 743.374091 489.131097 
L 748.255242 484.845451 
L 753.136394 484.845451 
L 758.017545 479.416042 
L 762.898697 479.416042 
L 767.779848 472.925849 
L 772.661 472.925849 
L 777.542152 465.659522 
L 782.423303 465.659522 
L 787.304455 458.159074 
L 792.185606 458.159074 
L 797.066758 450.996496 
L 801.947909 450.996496 
L 806.829061 444.054357 
L 816.591364 444.054357 
L 816.591364 444.054357 
" clip-path="url(#p5d53d04eb2)" style="fill: none; stroke: #70318f; stroke-width: 1.5; stroke-linecap: square"/>
   </g>
   <g id="line2d_70">
    <path d="M 84.418636 494.242645 
L 89.299788 494.242645 
L 94.180939 499.878294 
L 99.062091 499.878294 
L 103.943242 496.856869 
L 108.824394 496.856869 
L 113.705545 496.429642 
L 118.586697 496.429642 
L 123.467848 496.890199 
L 128.349 496.890199 
L 133.230152 496.104664 
L 138.111303 496.104664 
L 142.992455 495.105852 
L 147.873606 495.105852 
L 152.754758 494.021053 
L 157.635909 494.021053 
L 162.517061 492.953697 
L 167.398212 492.953697 
L 172.279364 492.009817 
L 177.160515 492.009817 
L 182.041667 491.273079 
L 186.922818 491.273079 
L 191.80397 490.799019 
L 196.685121 490.799019 
L 201.566273 490.570413 
L 216.209727 490.583766 
L 221.090879 490.794611 
L 225.97203 490.794611 
L 230.853182 491.132367 
L 235.734333 491.132367 
L 240.615485 491.538082 
L 245.496636 491.538082 
L 250.377788 491.95915 
L 255.258939 491.95915 
L 260.140091 492.358057 
L 265.021242 492.358057 
L 269.902394 492.656801 
L 274.783545 492.656801 
L 279.664697 492.837386 
L 294.308152 492.820644 
L 299.189303 492.653761 
L 304.070455 492.653761 
L 308.951606 492.376599 
L 313.832758 492.376599 
L 318.713909 492.023994 
L 323.595061 492.023994 
L 328.476212 491.632683 
L 333.357364 491.632683 
L 338.238515 491.265215 
L 343.119667 491.265215 
L 348.000818 490.897251 
L 352.88197 490.897251 
L 357.763121 490.480726 
L 362.644273 490.480726 
L 367.525424 489.995282 
L 372.406576 489.995282 
L 377.287727 489.390798 
L 382.168879 489.390798 
L 387.05003 488.612596 
L 391.931182 488.612596 
L 396.812333 487.71817 
L 401.693485 487.71817 
L 406.574636 486.618993 
L 411.455788 486.618993 
L 416.336939 485.243508 
L 421.218091 485.243508 
L 426.099242 483.836647 
L 430.980394 483.836647 
L 435.861545 483.022118 
L 440.742697 483.022118 
L 445.623848 483.261841 
L 450.505 483.261841 
L 455.386152 485.222016 
L 470.029606 485.239516 
L 474.910758 483.338973 
L 479.791909 483.338973 
L 484.673061 480.157979 
L 489.554212 480.157979 
L 494.435364 475.583672 
L 499.316515 475.583672 
L 504.197667 473.717975 
L 509.078818 473.717975 
L 513.95997 473.548954 
L 518.841121 473.548954 
L 523.722273 475.613488 
L 528.603424 475.613488 
L 533.484576 476.800058 
L 538.365727 476.800058 
L 543.246879 478.316776 
L 548.12803 478.316776 
L 553.009182 479.722227 
L 557.890333 479.722227 
L 562.771485 481.168193 
L 567.652636 481.168193 
L 572.533788 482.728455 
L 577.414939 482.728455 
L 582.296091 484.753843 
L 587.177242 484.753843 
L 592.058394 487.319172 
L 596.939545 487.319172 
L 601.820697 491.018416 
L 606.701848 491.018416 
L 611.583 505.132864 
L 616.464152 505.132864 
L 621.345303 489.526891 
L 626.226455 489.526891 
L 631.107606 489.797505 
L 635.988758 489.797505 
L 640.869909 500.60189 
L 645.751061 500.60189 
L 650.632212 504.074058 
L 655.513364 504.074058 
L 660.394515 505.003159 
L 665.275667 505.003159 
L 670.156818 504.635338 
L 675.03797 504.635338 
L 679.919121 503.805169 
L 684.800273 503.805169 
L 689.681424 502.881557 
L 694.562576 502.881557 
L 699.443727 502.076411 
L 704.324879 502.076411 
L 709.20603 501.55176 
L 714.087182 501.55176 
L 718.968333 499.535942 
L 723.849485 499.535942 
L 728.730636 499.401241 
L 733.611788 499.401241 
L 738.492939 499.018864 
L 743.374091 499.018864 
L 748.255242 498.290272 
L 753.136394 498.290272 
L 758.017545 496.317446 
L 762.898697 496.317446 
L 767.779848 493.837863 
L 772.661 493.837863 
L 777.542152 491.849399 
L 782.423303 491.849399 
L 787.304455 490.844954 
L 792.185606 490.844954 
L 797.066758 489.14328 
L 801.947909 489.14328 
L 806.829061 474.324302 
L 816.591364 474.324302 
L 816.591364 474.324302 
" clip-path="url(#p5d53d04eb2)" style="fill: none; stroke: #802f83; stroke-width: 1.5; stroke-linecap: square"/>
   </g>
   <g id="line2d_71">
    <path d="M 84.418636 483.79227 
L 89.299788 483.79227 
L 94.180939 484.631857 
L 99.062091 484.631857 
L 103.943242 485.065798 
L 108.824394 485.065798 
L 113.705545 485.25489 
L 128.349 485.250229 
L 133.230152 485.08178 
L 138.111303 485.08178 
L 142.992455 484.777905 
L 147.873606 484.777905 
L 152.754758 484.385792 
L 157.635909 484.385792 
L 162.517061 483.999848 
L 167.398212 483.999848 
L 172.279364 483.74626 
L 186.922818 483.704685 
L 191.80397 483.870924 
L 196.685121 483.870924 
L 201.566273 484.197741 
L 206.447424 484.197741 
L 211.328576 484.623127 
L 216.209727 484.623127 
L 221.090879 485.087741 
L 225.97203 485.087741 
L 230.853182 485.529145 
L 235.734333 485.529145 
L 240.615485 485.921731 
L 245.496636 485.921731 
L 250.377788 486.25275 
L 255.258939 486.25275 
L 260.140091 486.523159 
L 265.021242 486.523159 
L 269.902394 486.740655 
L 274.783545 486.740655 
L 279.664697 486.922598 
L 284.545848 486.922598 
L 289.427 487.088557 
L 294.308152 487.088557 
L 299.189303 487.255753 
L 304.070455 487.255753 
L 308.951606 487.428061 
L 313.832758 487.428061 
L 318.713909 487.586183 
L 343.119667 487.662565 
L 348.000818 487.467805 
L 352.88197 487.467805 
L 357.763121 487.070781 
L 362.644273 487.070781 
L 367.525424 486.552541 
L 372.406576 486.552541 
L 377.287727 485.742068 
L 382.168879 485.742068 
L 387.05003 484.715458 
L 391.931182 484.715458 
L 396.812333 483.484389 
L 401.693485 483.484389 
L 406.574636 482.075908 
L 411.455788 482.075908 
L 416.336939 480.368964 
L 421.218091 480.368964 
L 426.099242 477.995664 
L 430.980394 477.995664 
L 435.861545 475.668901 
L 440.742697 475.668901 
L 445.623848 473.818399 
L 450.505 473.818399 
L 455.386152 472.07085 
L 460.267303 472.07085 
L 465.148455 470.22755 
L 470.029606 470.22755 
L 474.910758 468.558822 
L 479.791909 468.558822 
L 484.673061 467.496403 
L 489.554212 467.496403 
L 494.435364 467.00036 
L 499.316515 467.00036 
L 504.197667 465.893246 
L 509.078818 465.893246 
L 513.95997 468.154331 
L 518.841121 468.154331 
L 523.722273 468.381898 
L 528.603424 468.381898 
L 533.484576 468.913142 
L 538.365727 468.913142 
L 543.246879 469.31003 
L 548.12803 469.31003 
L 553.009182 469.645614 
L 557.890333 469.645614 
L 562.771485 469.968149 
L 567.652636 469.968149 
L 572.533788 470.307889 
L 577.414939 470.307889 
L 582.296091 470.703344 
L 587.177242 470.703344 
L 592.058394 471.213615 
L 596.939545 471.213615 
L 601.820697 471.921879 
L 606.701848 471.921879 
L 611.583 472.934896 
L 616.464152 472.934896 
L 621.345303 474.389326 
L 626.226455 474.389326 
L 631.107606 476.478562 
L 635.988758 476.478562 
L 640.869909 479.515449 
L 645.751061 479.515449 
L 650.632212 484.050265 
L 655.513364 484.050265 
L 660.394515 491.030056 
L 665.275667 491.030056 
L 670.156818 501.582284 
L 675.03797 501.582284 
L 679.919121 514.721477 
L 684.800273 514.721477 
L 689.681424 521.418107 
L 694.562576 521.418107 
L 699.443727 512.011165 
L 704.324879 512.011165 
L 709.20603 506.773928 
L 714.087182 506.773928 
L 718.968333 506.191455 
L 723.849485 506.191455 
L 728.730636 507.490066 
L 733.611788 507.490066 
L 738.492939 511.830407 
L 743.374091 511.830407 
L 748.255242 506.680827 
L 753.136394 506.680827 
L 758.017545 509.943671 
L 762.898697 509.943671 
L 767.779848 512.799927 
L 772.661 512.799927 
L 777.542152 516.720101 
L 782.423303 516.720101 
L 787.304455 522.781818 
L 792.185606 522.781818 
L 797.066758 514.05774 
L 801.947909 514.05774 
L 806.829061 489.907868 
L 816.591364 489.907868 
L 816.591364 489.907868 
" clip-path="url(#p5d53d04eb2)" style="fill: none; stroke: #8f2d78; stroke-width: 1.5; stroke-linecap: square"/>
   </g>
   <g id="line2d_72">
    <path d="M 84.418636 426.55478 
L 89.299788 426.55478 
L 94.180939 431.124365 
L 99.062091 431.124365 
L 103.943242 435.981024 
L 108.824394 435.981024 
L 113.705545 439.689011 
L 118.586697 439.689011 
L 123.467848 442.542601 
L 128.349 442.542601 
L 133.230152 444.888789 
L 138.111303 444.888789 
L 142.992455 446.640846 
L 147.873606 446.640846 
L 152.754758 447.686928 
L 157.635909 447.686928 
L 162.517061 448.002523 
L 167.398212 448.002523 
L 172.279364 447.760385 
L 177.160515 447.760385 
L 182.041667 447.031813 
L 186.922818 447.031813 
L 191.80397 445.968812 
L 196.685121 445.968812 
L 201.566273 444.7327 
L 206.447424 444.7327 
L 211.328576 443.498952 
L 216.209727 443.498952 
L 221.090879 442.461382 
L 225.97203 442.461382 
L 230.853182 441.80689 
L 235.734333 441.80689 
L 240.615485 441.69086 
L 245.496636 441.69086 
L 250.377788 442.22308 
L 255.258939 442.22308 
L 260.140091 443.497502 
L 265.021242 443.497502 
L 269.902394 445.472797 
L 274.783545 445.472797 
L 279.664697 448.123877 
L 284.545848 448.123877 
L 289.427 451.346719 
L 294.308152 451.346719 
L 299.189303 454.978084 
L 304.070455 454.978084 
L 308.951606 458.894053 
L 313.832758 458.894053 
L 318.713909 462.849066 
L 323.595061 462.849066 
L 328.476212 466.59008 
L 333.357364 466.59008 
L 338.238515 469.916382 
L 343.119667 469.916382 
L 348.000818 472.715398 
L 352.88197 472.715398 
L 357.763121 474.988021 
L 362.644273 474.988021 
L 367.525424 476.799253 
L 372.406576 476.799253 
L 377.287727 478.256252 
L 382.168879 478.256252 
L 387.05003 479.545917 
L 391.931182 479.545917 
L 396.812333 480.889525 
L 401.693485 480.889525 
L 406.574636 482.350778 
L 411.455788 482.350778 
L 416.336939 483.565079 
L 421.218091 483.565079 
L 426.099242 484.639581 
L 430.980394 484.639581 
L 435.861545 485.361151 
L 440.742697 485.361151 
L 445.623848 485.57998 
L 450.505 485.57998 
L 455.386152 485.231433 
L 460.267303 485.231433 
L 465.148455 484.284946 
L 470.029606 484.284946 
L 474.910758 482.751369 
L 479.791909 482.751369 
L 484.673061 480.843266 
L 489.554212 480.843266 
L 494.435364 478.529224 
L 499.316515 478.529224 
L 504.197667 476.03957 
L 509.078818 476.03957 
L 513.95997 473.104251 
L 518.841121 473.104251 
L 523.722273 469.972965 
L 528.603424 469.972965 
L 533.484576 466.221363 
L 538.365727 466.221363 
L 543.246879 461.986256 
L 548.12803 461.986256 
L 553.009182 457.596167 
L 557.890333 457.596167 
L 562.771485 453.323377 
L 567.652636 453.323377 
L 572.533788 449.371749 
L 577.414939 449.371749 
L 582.296091 445.923881 
L 587.177242 445.923881 
L 592.058394 443.136737 
L 596.939545 443.136737 
L 601.820697 441.136655 
L 606.701848 441.136655 
L 611.583 440.020323 
L 616.464152 440.020323 
L 621.345303 439.859189 
L 626.226455 439.859189 
L 631.107606 440.708114 
L 635.988758 440.708114 
L 640.869909 442.61751 
L 645.751061 442.61751 
L 650.632212 445.650805 
L 655.513364 445.650805 
L 660.394515 449.907746 
L 665.275667 449.907746 
L 670.156818 455.543876 
L 675.03797 455.543876 
L 679.919121 462.791224 
L 684.800273 462.791224 
L 689.681424 471.962723 
L 694.562576 471.962723 
L 699.443727 483.309545 
L 704.324879 483.309545 
L 709.20603 496.39491 
L 714.087182 496.39491 
L 718.968333 509.248356 
L 723.849485 509.248356 
L 728.730636 516.682988 
L 733.611788 516.682988 
L 738.492939 516.455598 
L 743.374091 516.455598 
L 748.255242 503.976914 
L 753.136394 503.976914 
L 758.017545 482.07658 
L 762.898697 482.07658 
L 767.779848 466.347633 
L 772.661 466.347633 
L 777.542152 458.131526 
L 782.423303 458.131526 
L 787.304455 452.73676 
L 792.185606 452.73676 
L 797.066758 449.657565 
L 801.947909 449.657565 
L 806.829061 447.67251 
L 816.591364 447.67251 
L 816.591364 447.67251 
" clip-path="url(#p5d53d04eb2)" style="fill: none; stroke: #9f2a6b; stroke-width: 1.5; stroke-linecap: square"/>
   </g>
   <g id="line2d_73">
    <path d="M 84.418636 370.886448 
L 89.299788 370.886448 
L 94.180939 375.291546 
L 99.062091 375.291546 
L 103.943242 379.986298 
L 108.824394 379.986298 
L 113.705545 384.733364 
L 118.586697 384.733364 
L 123.467848 389.244181 
L 128.349 389.244181 
L 133.230152 393.187501 
L 138.111303 393.187501 
L 142.992455 396.329869 
L 147.873606 396.329869 
L 152.754758 398.449167 
L 157.635909 398.449167 
L 162.517061 399.62263 
L 177.160515 399.634435 
L 182.041667 398.524489 
L 186.922818 398.524489 
L 191.80397 396.6424 
L 196.685121 396.6424 
L 201.566273 394.456299 
L 206.447424 394.456299 
L 211.328576 392.362944 
L 216.209727 392.362944 
L 221.090879 390.653143 
L 225.97203 390.653143 
L 230.853182 389.536357 
L 235.734333 389.536357 
L 240.615485 389.16667 
L 245.496636 389.16667 
L 250.377788 389.661128 
L 255.258939 389.661128 
L 260.140091 391.113159 
L 265.021242 391.113159 
L 269.902394 393.600962 
L 274.783545 393.600962 
L 279.664697 397.188785 
L 284.545848 397.188785 
L 289.427 401.918799 
L 294.308152 401.918799 
L 299.189303 407.793412 
L 304.070455 407.793412 
L 308.951606 414.751267 
L 313.832758 414.751267 
L 318.713909 422.663966 
L 323.595061 422.663966 
L 328.476212 431.306631 
L 333.357364 431.306631 
L 338.238515 440.972171 
L 343.119667 440.972171 
L 348.000818 449.514104 
L 352.88197 449.514104 
L 357.763121 457.305302 
L 362.644273 457.305302 
L 367.525424 464.401859 
L 372.406576 464.401859 
L 377.287727 469.421192 
L 382.168879 469.421192 
L 387.05003 473.815209 
L 391.931182 473.815209 
L 396.812333 477.952648 
L 401.693485 477.952648 
L 406.574636 481.787661 
L 411.455788 481.787661 
L 416.336939 485.575182 
L 421.218091 485.575182 
L 426.099242 489.33735 
L 430.980394 489.33735 
L 435.861545 492.355969 
L 440.742697 492.355969 
L 445.623848 493.856159 
L 460.267303 493.934934 
L 465.148455 492.697392 
L 470.029606 492.697392 
L 474.910758 490.408749 
L 479.791909 490.408749 
L 484.673061 487.40189 
L 489.554212 487.40189 
L 494.435364 483.980171 
L 499.316515 483.980171 
L 504.197667 480.179733 
L 509.078818 480.179733 
L 513.95997 475.544981 
L 518.841121 475.544981 
L 523.722273 469.501631 
L 528.603424 469.501631 
L 533.484576 461.680777 
L 538.365727 461.680777 
L 543.246879 451.908958 
L 548.12803 451.908958 
L 553.009182 441.448415 
L 557.890333 441.448415 
L 562.771485 431.0286 
L 567.652636 431.0286 
L 572.533788 421.41877 
L 577.414939 421.41877 
L 582.296091 413.088994 
L 587.177242 413.088994 
L 592.058394 406.219409 
L 596.939545 406.219409 
L 601.820697 400.809179 
L 606.701848 400.809179 
L 611.583 396.782459 
L 616.464152 396.782459 
L 621.345303 394.047433 
L 626.226455 394.047433 
L 631.107606 392.516664 
L 635.988758 392.516664 
L 640.869909 392.109686 
L 645.751061 392.109686 
L 650.632212 392.751346 
L 655.513364 392.751346 
L 660.394515 394.371231 
L 665.275667 394.371231 
L 670.156818 396.903204 
L 675.03797 396.903204 
L 679.919121 400.276215 
L 684.800273 400.276215 
L 689.681424 404.4015 
L 694.562576 404.4015 
L 699.443727 409.12086 
L 704.324879 409.12086 
L 709.20603 414.000496 
L 714.087182 414.000496 
L 718.968333 417.953619 
L 723.849485 417.953619 
L 728.730636 419.346452 
L 733.611788 419.346452 
L 738.492939 416.652736 
L 743.374091 416.652736 
L 748.255242 409.996333 
L 753.136394 409.996333 
L 758.017545 401.549717 
L 762.898697 401.549717 
L 767.779848 393.442526 
L 772.661 393.442526 
L 777.542152 386.651415 
L 782.423303 386.651415 
L 787.304455 380.700002 
L 792.185606 380.700002 
L 797.066758 375.433445 
L 801.947909 375.433445 
L 806.829061 370.821731 
L 816.591364 370.821731 
L 816.591364 370.821731 
" clip-path="url(#p5d53d04eb2)" style="fill: none; stroke: #af285f; stroke-width: 1.5; stroke-linecap: square"/>
   </g>
   <g id="line2d_74">
    <path d="M 84.418636 297.618182 
L 816.591364 297.618182 
L 816.591364 297.618182 
" clip-path="url(#p5d53d04eb2)" style="fill: none; stroke: #bf2552; stroke-width: 1.5; stroke-linecap: square"/>
   </g>
   <g id="patch_9">
    <path d="M 47.81 534.04 
L 47.81 286.36 
" style="fill: none; stroke: #000000; stroke-width: 0.8; stroke-linejoin: miter; stroke-linecap: square"/>
   </g>
   <g id="patch_10">
    <path d="M 853.2 534.04 
L 853.2 286.36 
" style="fill: none; stroke: #000000; stroke-width: 0.8; stroke-linejoin: miter; stroke-linecap: square"/>
   </g>
   <g id="patch_11">
    <path d="M 47.81 534.04 
L 853.2 534.04 
" style="fill: none; stroke: #000000; stroke-width: 0.8; stroke-linejoin: miter; stroke-linecap: square"/>
   </g>
   <g id="patch_12">
    <path d="M 47.81 286.36 
L 853.2 286.36 
" style="fill: none; stroke: #000000; stroke-width: 0.8; stroke-linejoin: miter; stroke-linecap: square"/>
   </g>
  </g>
 </g>
 <defs>
  <clipPath id="pe5eb3bf590">
   <rect x="47.81" y="10.8" width="805.39" height="247.68"/>
  </clipPath>
  <clipPath id="p5d53d04eb2">
   <rect x="47.81" y="286.36" width="805.39" height="247.68"/>
  </clipPath>
 </defs>
</svg>
